<svg width="100" height="100" viewBox="0 0 100 100" fill="none" xmlns="http://www.w3.org/2000/svg">
<g clip-path="url(#clip0_858_1959)">
<path d="M47.3384 58.3314C45.6694 60.4592 43.6902 61.1309 41.86 61.1309C39.8001 61.1309 37.9285 60.2827 36.8924 59.7046C36.8862 59.7003 36.88 59.6961 36.8738 59.6918C36.638 59.5473 36.5532 59.2369 36.6856 58.984C36.82 58.7268 37.1343 58.6311 37.3846 58.7714C37.3929 58.7757 37.3991 58.7799 37.4073 58.7842C39.5644 59.9809 43.5951 61.4093 46.5339 57.6661C46.7117 57.4365 47.0385 57.4004 47.2598 57.5853C47.4831 57.7681 47.5183 58.104 47.3384 58.3314Z" fill="black"/>
<path d="M37.5916 59.4878C37.4985 59.6663 37.3207 59.7662 37.1366 59.7662C37.0539 59.7662 36.9691 59.7471 36.8926 59.7025C36.8864 59.6982 36.8802 59.6961 36.874 59.6918C36.1171 59.2731 35.66 58.9202 35.6393 58.9053C35.4118 58.731 35.3643 58.3973 35.5359 58.1614C35.7076 57.9275 36.0323 57.8808 36.2597 58.0551C36.2639 58.0593 36.6899 58.3846 37.3827 58.7672C37.391 58.7714 37.3993 58.7778 37.4075 58.7842C37.6392 58.9287 37.724 59.2369 37.5916 59.4878Z" fill="black"/>
<path d="M65.3246 57.3983C63.7363 59.6642 61.8978 60.8758 59.8565 61.0034C59.7366 61.0119 59.6166 61.0161 59.4988 61.0161C56.2415 61.0161 53.735 58.2698 53.6274 58.1486C53.433 57.9339 53.4454 57.5981 53.6564 57.3983C53.8653 57.2006 54.192 57.2133 54.3864 57.428C54.4112 57.4556 56.7048 59.9512 59.507 59.9512C59.6022 59.9512 59.7014 59.949 59.7986 59.9427C61.5131 59.8343 63.0911 58.7693 64.487 56.7776C64.6525 56.5395 64.9772 56.4864 65.2088 56.6564C65.4404 56.8286 65.4921 57.1602 65.3246 57.3983Z" fill="black"/>
<path d="M70.6895 52.69C70.5343 52.639 70.3751 52.5944 70.2117 52.5603C70.1559 52.5476 70.1 52.537 70.0442 52.5285C69.9263 52.5072 69.8064 52.4902 69.6844 52.4796L68.946 52.4094L69.0474 52.8048C69.0474 52.8048 69.0536 52.8282 69.0577 52.8409L69.1384 53.147C69.1508 53.2002 69.1653 53.2512 69.1777 53.3022C69.1797 53.3107 69.1797 53.3171 69.1818 53.3235C69.1942 53.3702 69.2046 53.417 69.2149 53.4659C69.2376 53.5573 69.2583 53.6508 69.279 53.7422C69.3845 54.2056 69.4713 54.6732 69.5396 55.1451C69.581 55.4278 69.6161 55.7127 69.6451 55.9975C69.6761 56.2824 69.6988 56.5672 69.7154 56.852C69.7381 57.2347 69.7485 57.6173 69.7485 57.9999C69.7485 59.2476 69.6306 60.4911 69.3969 61.6964L69.2521 62.4446L69.9863 62.3235C70.1062 62.3043 70.2241 62.2788 70.3399 62.2512C72.5114 61.7261 74.0501 59.7493 74.0501 57.4217C74.0501 55.2514 72.6624 53.3383 70.6895 52.69ZM70.553 61.0778C70.5592 61.0332 70.5674 60.9864 70.5716 60.9418C70.6191 60.6187 70.6584 60.2935 70.6895 59.9682C70.7039 59.8046 70.7184 59.6409 70.7287 59.4772C70.7391 59.356 70.7453 59.237 70.7515 59.1158C70.7577 59.0287 70.7618 58.9394 70.7639 58.8523C70.768 58.7694 70.7722 58.6886 70.7722 58.6057C70.7804 58.4038 70.7825 58.2018 70.7825 57.9999V57.9935C70.7825 57.8447 70.7804 57.6959 70.7784 57.5492C70.7722 57.3261 70.7639 57.105 70.7515 56.8839C70.7453 56.75 70.737 56.6182 70.7267 56.4864C70.7267 56.48 70.7246 56.4715 70.7246 56.463C70.7184 56.3716 70.7101 56.2781 70.7019 56.1867C70.6853 55.9848 70.6646 55.785 70.6398 55.5851C70.6171 55.396 70.5923 55.2068 70.5654 55.0176C70.5633 54.9942 70.5592 54.973 70.555 54.9517C70.5426 54.8646 70.5302 54.7774 70.5157 54.6924C70.4682 54.3948 70.4123 54.0972 70.3503 53.8039C70.3441 53.7656 70.3358 53.7252 70.3275 53.6869C71.9055 54.1822 73.0161 55.6999 73.0161 57.4217C73.0161 59.1435 72.0172 60.5209 70.553 61.0778Z" fill="black"/>
<path d="M73.0162 57.4218C73.0162 59.0862 72.0173 60.521 70.5531 61.0779C70.5593 61.0333 70.5675 60.9865 70.5717 60.9419C70.6192 60.6188 70.6585 60.2935 70.6896 59.9683C70.704 59.8046 70.7185 59.641 70.7288 59.4773C70.7392 59.3561 70.7454 59.2371 70.7516 59.1159C70.7578 59.0288 70.7619 58.9395 70.764 58.8523C70.7681 58.7694 70.7723 58.6887 70.7723 58.6058C70.7806 58.4038 70.7826 58.2019 70.7826 58V57.9936C70.7826 57.8448 70.7806 57.696 70.7785 57.5493C70.7723 57.3261 70.764 57.1051 70.7516 56.884C70.7454 56.7501 70.7371 56.6183 70.7268 56.4865C70.7268 56.4801 70.7247 56.4716 70.7247 56.4631C70.7185 56.3717 70.7102 56.2782 70.702 56.1868C70.6854 55.9848 70.6647 55.785 70.6399 55.5852C70.6192 55.396 70.5944 55.2068 70.5655 55.0177C70.5634 54.9943 70.5593 54.973 70.5551 54.9518C70.5427 54.8646 70.5303 54.7775 70.5158 54.6924C70.4683 54.3949 70.4124 54.0973 70.3504 53.8039C70.3442 53.7657 70.3359 53.7253 70.3276 53.687C71.9056 54.1823 73.0162 55.7 73.0162 57.4218Z" fill="white"/>
<path d="M33.3228 53.9377C33.3166 53.9696 33.3104 54.0015 33.3042 54.0355L33.2691 54.2098L33.2215 54.4585C33.2174 54.4755 33.2153 54.4946 33.2112 54.5117L33.1657 54.7667C33.1574 54.8114 33.1512 54.8603 33.1429 54.907C33.1222 55.0388 33.1016 55.1727 33.0829 55.3045C33.0333 55.6595 32.994 56.0145 32.9651 56.3695C32.9547 56.4885 32.9465 56.6075 32.9382 56.7266C32.9361 56.7606 32.934 56.7925 32.932 56.8265C32.9299 56.8584 32.9299 56.8924 32.9278 56.9243C32.9216 57.0135 32.9196 57.1007 32.9154 57.19C32.9154 57.207 32.9154 57.224 32.9154 57.241C32.9113 57.3558 32.9072 57.4684 32.903 57.5832V57.6406L32.6362 57.7086L32.5225 57.7384C32.4604 57.7533 32.4005 57.7703 32.3405 57.7894C32.1771 57.8404 32.0179 57.9021 31.8648 57.9765C31.8442 57.985 31.8235 57.9935 31.8028 58.0041C31.7718 58.019 31.7407 58.0339 31.7118 58.0509L31.2403 58.3017L31.0086 57.8107C30.9321 57.6491 30.897 57.4727 30.9052 57.2984C30.9032 57.2771 30.9052 57.258 30.9073 57.2367L31.1224 54.8092C31.1451 54.5223 31.2775 54.2651 31.4905 54.0823C31.6849 53.9165 31.9227 53.8272 32.1709 53.8336C32.1957 53.8336 32.2226 53.8336 32.2474 53.8378L32.6879 53.8782L32.8079 53.8888L33.3249 53.9377H33.3228Z" fill="#F8A629"/>
<path d="M34.6238 66.0177C34.6093 65.9858 34.5948 65.9518 34.5803 65.92L34.4852 65.6989C34.2391 65.1292 34.0199 64.551 33.8296 63.9644C33.7676 63.7688 33.7076 63.5732 33.6497 63.3755C33.1492 61.641 32.8969 59.8406 32.8969 57.9998V57.9233C32.8969 57.8085 32.899 57.6958 32.901 57.5832C32.9052 57.4684 32.9093 57.3557 32.9134 57.2409C32.9134 57.2239 32.9134 57.2069 32.9134 57.1899C32.9176 57.1006 32.9197 57.0135 32.9259 56.9242C32.9259 56.8923 32.9259 56.8583 32.93 56.8264L32.9424 56.5331L32.839 56.5586L32.2868 56.701L32.2703 56.7053C32.142 56.7371 32.0159 56.7754 31.8939 56.82C31.6643 56.8966 31.4451 56.9943 31.2342 57.1049C31.1204 57.1644 31.0087 57.2303 30.9012 57.2983C29.4783 58.1996 28.6077 59.7832 28.6077 61.522C28.6077 64.2598 30.775 66.4854 33.4367 66.4854C33.5235 66.4854 33.6083 66.4832 33.6911 66.479C33.8234 66.4726 33.9537 66.4599 34.084 66.4407L34.7603 66.3408L34.6217 66.0177H34.6238ZM29.6438 61.522C29.6438 60.051 30.4359 58.7225 31.7098 58.0508C31.7388 58.0338 31.7698 58.0189 31.8008 58.004C31.8215 57.9934 31.8422 57.9828 31.8629 57.9721V57.9998C31.8629 58.1592 31.8649 58.3186 31.8691 58.478C31.8691 58.5524 31.8711 58.6268 31.8753 58.6991C31.8773 58.8182 31.8835 58.9372 31.8897 59.0562C31.8959 59.2071 31.9063 59.3559 31.9187 59.5069C31.9187 59.5749 31.927 59.6429 31.9332 59.7088C31.9394 59.8087 31.9497 59.9086 31.9601 60.0085C31.9683 60.0957 31.9766 60.1828 31.9869 60.27C31.9952 60.3635 32.0076 60.4549 32.02 60.5484C32.0221 60.5824 32.0262 60.6186 32.0324 60.6526C32.0511 60.7993 32.0717 60.9481 32.0945 61.0947C32.111 61.218 32.1317 61.3392 32.1545 61.4625C32.1669 61.5517 32.1834 61.641 32.2 61.7303C32.2579 62.0449 32.322 62.3595 32.3964 62.672C32.4357 62.8399 32.4771 63.0057 32.5184 63.1715C32.5743 63.384 32.6322 63.5945 32.6942 63.8028C32.7273 63.9155 32.7604 64.026 32.7956 64.1365C32.839 64.2747 32.8845 64.4129 32.9321 64.551C32.9589 64.6339 32.9879 64.7168 33.0189 64.7997C33.0582 64.9166 33.0996 65.0314 33.143 65.1462C33.1492 65.1611 33.1533 65.176 33.1596 65.1887C33.1885 65.2653 33.2175 65.3418 33.2464 65.4183C31.2424 65.3163 29.6438 63.6072 29.6438 61.522Z" fill="black"/>
<path d="M33.2464 65.4183C31.2424 65.3163 29.6438 63.6073 29.6438 61.522C29.6438 60.0511 30.4359 58.7225 31.7098 58.0508C31.7388 58.0338 31.7698 58.019 31.8008 58.0041C31.8215 57.9934 31.8422 57.9849 31.8629 57.9764V57.9998C31.8629 58.1592 31.8649 58.3187 31.8691 58.4781C31.8691 58.5525 31.8711 58.6269 31.8753 58.6992C31.8773 58.8182 31.8836 58.9372 31.8898 59.0563C31.896 59.2072 31.9063 59.356 31.9187 59.5069C31.9187 59.5749 31.927 59.643 31.9332 59.7088C31.9394 59.8088 31.9497 59.9087 31.9601 60.0086C31.9683 60.0957 31.9766 60.1829 31.987 60.27C31.9952 60.3635 32.0076 60.4549 32.02 60.5485C32.0221 60.5825 32.0262 60.6186 32.0325 60.6526C32.0511 60.7993 32.0717 60.9481 32.0945 61.0948C32.111 61.2181 32.1317 61.3392 32.1545 61.4625C32.1669 61.5518 32.1834 61.6411 32.2 61.7303C32.2579 62.0449 32.322 62.3595 32.3964 62.672C32.4357 62.8399 32.4771 63.0057 32.5185 63.1715C32.5743 63.3841 32.6322 63.5945 32.6942 63.8028C32.7273 63.9155 32.7604 64.026 32.7956 64.1366C32.839 64.2747 32.8845 64.4129 32.9321 64.5511C32.959 64.634 32.9879 64.7169 33.0189 64.7998C33.0582 64.9167 33.0996 65.0315 33.143 65.1463C33.1492 65.1611 33.1534 65.176 33.1596 65.1888C33.1885 65.2653 33.2175 65.3418 33.2464 65.4183Z" fill="white"/>
<path d="M70.5404 53.3617L70.348 53.6805L70.3232 53.6741L69.9923 53.5997C69.8641 53.5721 69.7317 53.5508 69.589 53.5381L69.2292 53.5041L69.1816 53.3234C69.1816 53.3234 69.1795 53.3106 69.1775 53.3021L69.1361 53.1448C69.0782 52.9174 69.0162 52.69 68.95 52.4646C68.7763 51.8843 68.5777 51.3147 68.3544 50.7641C68.3047 50.643 68.2551 50.5218 68.2034 50.4006C68.1951 50.3815 68.1889 50.3624 68.1827 50.3454L68.1207 50.2029L67.9201 49.7502L67.856 49.6035L68.3668 49.4908L68.6025 49.4377L68.9396 49.3633C68.9955 49.3506 69.0534 49.3442 69.1113 49.3442C69.2892 49.3357 69.467 49.3739 69.6242 49.4568C69.9034 49.6014 70.104 49.865 70.1722 50.1817L70.6727 52.5773C70.681 52.6134 70.6851 52.6517 70.6893 52.69C70.7141 52.9238 70.6624 53.1597 70.5404 53.3617Z" fill="#F8A629"/>
<path d="M70.7782 57.5491C70.772 57.3259 70.7637 57.1048 70.7513 56.8838C70.7451 56.7498 70.7369 56.6181 70.7265 56.4863C70.7265 56.4799 70.7245 56.4714 70.7245 56.4629C70.7183 56.3715 70.71 56.278 70.7017 56.1866C70.6852 55.9846 70.6645 55.7848 70.6397 55.585C70.6169 55.3958 70.5921 55.2066 70.5652 55.0174C70.5631 54.9941 70.559 54.9728 70.5549 54.9515C70.5425 54.8644 70.5301 54.7772 70.5156 54.6922C70.468 54.3946 70.4122 54.097 70.3501 53.8037C70.3419 53.7612 70.3336 53.7165 70.3232 53.674C70.2902 53.521 70.2571 53.3701 70.2198 53.2191C70.195 53.1022 70.1661 52.9874 70.1371 52.8727C70.1082 52.7579 70.0771 52.6431 70.044 52.5283C69.8104 51.6802 69.5229 50.8512 69.1858 50.0562V50.0519C69.1754 50.0222 69.163 49.9988 69.1506 49.9712L68.9935 49.6077L68.6274 49.6566L68.4557 49.6799L68.0008 49.7395L67.9201 49.7501H67.9139L33.2691 54.2097H33.267L33.2319 54.2139L32.7293 54.2777L32.6962 54.282L32.1854 54.3479L32.1813 54.3606C32.1813 54.3606 32.1833 54.3649 32.1813 54.367L32.1213 54.739C32.0117 55.4319 31.9352 56.1313 31.8959 56.82C31.8897 56.9475 31.8835 57.0729 31.8793 57.1984C31.869 57.4364 31.8649 57.6745 31.8628 57.919V57.9997C31.8628 58.1592 31.8649 58.3186 31.869 58.478C31.869 58.5524 31.8711 58.6268 31.8752 58.6991C31.8773 58.8181 31.8835 58.9371 31.8897 59.0562C31.8959 59.2071 31.9062 59.3559 31.9186 59.5068C31.9186 59.5748 31.9269 59.6429 31.9331 59.7088C31.9393 59.8087 31.9497 59.9086 31.96 60.0085C31.9683 60.0956 31.9765 60.1828 31.9869 60.2699C31.9952 60.3635 32.0076 60.4549 32.02 60.5484C32.022 60.5824 32.0262 60.6185 32.0324 60.6525C32.051 60.7992 32.0717 60.948 32.0944 61.0947C32.111 61.218 32.1316 61.3391 32.1544 61.4624C32.1668 61.5517 32.1833 61.641 32.1999 61.7302C32.2578 62.0448 32.3219 62.3594 32.3964 62.6719C32.4357 62.8398 32.477 63.0056 32.5184 63.1714C32.5742 63.384 32.6321 63.5944 32.6942 63.8028C32.7273 63.9154 32.7603 64.0259 32.7955 64.1365C32.8389 64.2747 32.8844 64.4128 32.932 64.551C32.9589 64.6339 32.9878 64.7168 33.0189 64.7997C33.0582 64.9166 33.0995 65.0314 33.1429 65.1462C33.1492 65.161 33.1533 65.1759 33.1595 65.1887C33.2774 65.5054 33.4056 65.82 33.54 66.1325C33.5897 66.2494 33.6414 66.3642 33.6931 66.4789C36.8903 73.4893 43.7709 78 51.3236 78C60.4729 78 68.4144 71.3977 70.3398 62.251C70.3646 62.1362 70.3874 62.0193 70.4101 61.9046C70.4721 61.5857 70.5259 61.2647 70.5714 60.9416C70.619 60.6185 70.6583 60.2933 70.6893 59.9681C70.7038 59.8044 70.7182 59.6407 70.7286 59.4771C70.7389 59.3559 70.7451 59.2369 70.7513 59.1157C70.7575 59.0285 70.7617 58.9393 70.7637 58.8521C70.7679 58.7692 70.772 58.6884 70.772 58.6055C70.7803 58.4036 70.7824 58.2017 70.7824 57.9997V57.9934C70.7824 57.8446 70.7803 57.6958 70.7782 57.5491ZM51.3236 76.9371C44.168 76.9371 37.6514 72.6625 34.6237 66.0177C34.6092 65.9858 34.5948 65.9518 34.5803 65.9199C34.5472 65.8455 34.5162 65.7732 34.4831 65.6988C34.4004 65.5097 34.3218 65.3183 34.2473 65.1249C34.1356 64.8464 34.0302 64.5637 33.935 64.2789C33.8999 64.1747 33.8647 64.0706 33.8296 63.9643C33.7675 63.7687 33.7075 63.5732 33.6496 63.3755C33.1492 61.641 32.8968 59.8405 32.8968 57.9997V57.9232C32.8968 57.8084 32.8989 57.6958 32.901 57.5831C32.9051 57.4683 32.9093 57.3557 32.9134 57.2409C32.9134 57.2239 32.9134 57.2069 32.9134 57.1899C32.9175 57.1006 32.9196 57.0134 32.9258 56.9242C32.9258 56.8923 32.9258 56.8583 32.9299 56.8264C32.932 56.7924 32.9341 56.7605 32.9361 56.7265C32.9444 56.6074 32.9527 56.4884 32.963 56.3694C32.992 56.0144 33.0313 55.6594 33.0809 55.3044L68.129 50.7938L68.3523 50.764C68.5757 51.3146 68.7742 51.8842 68.948 52.4645C68.981 52.5772 69.0121 52.6899 69.0452 52.8046C69.0472 52.8153 69.0514 52.828 69.0555 52.8408L69.1362 53.1469C69.1486 53.2 69.163 53.251 69.1754 53.302C69.1775 53.3105 69.1775 53.3169 69.1796 53.3233C69.192 53.3701 69.2023 53.4168 69.2127 53.4657C69.2354 53.5571 69.2561 53.6507 69.2768 53.7421C69.3802 54.2054 69.467 54.6752 69.5374 55.145C69.5787 55.4277 69.6139 55.7125 69.6428 55.9974C69.6718 56.2822 69.6945 56.567 69.7132 56.8519C69.7359 57.2345 69.7462 57.6171 69.7462 57.9997C69.7462 59.2475 69.6284 60.491 69.3947 61.6962C67.6947 70.5283 60.0944 76.9371 51.3215 76.9371H51.3236Z" fill="black"/>
<path d="M69.7152 56.8518C69.6966 56.5669 69.6739 56.2821 69.6449 55.9973C69.616 55.7124 69.5808 55.4276 69.5394 55.1449C69.4691 54.6751 69.3823 54.2053 69.2789 53.742C69.2582 53.6505 69.2375 53.557 69.2148 53.4656C69.2044 53.4167 69.1941 53.37 69.1817 53.3232C69.1796 53.3168 69.1796 53.3104 69.1775 53.3019L69.1362 53.1446C69.0783 52.9172 69.0162 52.6898 68.95 52.4644C68.7763 51.8841 68.5778 51.3145 68.3544 50.7639L68.1311 50.7937L33.083 55.3043C33.0334 55.6593 32.9941 56.0143 32.9651 56.3693C32.9548 56.4883 32.9465 56.6073 32.9382 56.7264C32.9362 56.7604 32.9341 56.7923 32.932 56.8263C32.9299 56.8582 32.9299 56.8922 32.9279 56.924C32.9217 57.0133 32.9196 57.1005 32.9155 57.1898C32.9155 57.2068 32.9155 57.2238 32.9155 57.2408C32.9113 57.3556 32.9072 57.4682 32.9031 57.583C32.901 57.6957 32.8989 57.8083 32.8989 57.9231V57.9996C32.8989 59.8404 33.1512 61.6409 33.6517 63.3754C33.8792 64.164 34.1584 64.9377 34.4872 65.6987L34.5824 65.9198C34.5968 65.9517 34.6113 65.9857 34.6258 66.0176C37.6535 72.6624 44.1701 76.937 51.3257 76.937C60.0986 76.937 67.6988 70.5282 69.3988 61.6961C69.6325 60.4909 69.7504 59.2474 69.7504 57.9996C69.7504 57.617 69.7401 57.2344 69.7173 56.8518H69.7152ZM47.3384 58.3312C45.6694 60.459 43.6903 61.1307 41.86 61.1307C39.8002 61.1307 37.9285 60.2826 36.8924 59.7044C36.8862 59.7001 36.88 59.6959 36.8738 59.6916C36.1169 59.2729 35.6598 58.92 35.6392 58.9052C35.4117 58.7309 35.3641 58.3971 35.5358 58.1612C35.7074 57.9274 36.0321 57.8806 36.2596 58.0549C36.2637 58.0591 36.6898 58.3844 37.3826 58.767C37.3908 58.7712 37.3991 58.7776 37.4074 58.784C39.5644 59.9807 43.5951 61.4092 46.5339 57.6659C46.7118 57.4363 47.0385 57.4002 47.2598 57.5851C47.4832 57.7679 47.5183 58.1038 47.3384 58.3312ZM52.5748 65.3012C51.9254 65.7179 51.3154 65.9262 50.7508 65.9262C50.4798 65.9262 50.2172 65.8773 49.967 65.7795C48.8026 65.3225 48.4097 63.9642 48.3931 63.9068C48.3125 63.6241 48.4717 63.3308 48.7447 63.2479C49.0177 63.1671 49.3052 63.3286 49.3858 63.6092C49.39 63.6262 49.6629 64.5254 50.3413 64.789C50.7859 64.9611 51.3546 64.8293 52.0268 64.4C52.2667 64.2427 52.5872 64.3192 52.7382 64.5679C52.8892 64.8166 52.8168 65.1439 52.5748 65.3012ZM65.3247 57.3981C63.7364 59.664 61.8978 60.8756 59.8566 61.0032C59.7367 61.0117 59.6167 61.0159 59.4988 61.0159C56.2416 61.0159 53.735 58.2696 53.6275 58.1484C53.4331 57.9337 53.4455 57.5979 53.6564 57.3981C53.8653 57.2004 54.1921 57.2131 54.3865 57.4278C54.4113 57.4555 56.7048 59.951 59.5071 59.951C59.6022 59.951 59.7015 59.9488 59.7987 59.9425C61.5132 59.8341 63.0911 58.7691 64.4871 56.7774C64.6525 56.5393 64.9772 56.4862 65.2088 56.6562C65.4405 56.8284 65.4922 57.16 65.3247 57.3981Z" fill="white"/>
<path d="M52.575 65.3015C51.9256 65.7181 51.3155 65.9264 50.7509 65.9264C50.48 65.9264 50.2174 65.8775 49.9671 65.7797C48.8028 65.3227 48.4098 63.9644 48.3933 63.9071C48.3126 63.6243 48.4719 63.331 48.7449 63.2481C49.0179 63.1673 49.3053 63.3289 49.386 63.6095C49.3901 63.6265 49.6631 64.5256 50.3414 64.7892C50.7861 64.9614 51.3548 64.8296 52.0269 64.4002C52.2668 64.2429 52.5874 64.3194 52.7384 64.5681C52.8893 64.8168 52.817 65.1442 52.575 65.3015Z" fill="black"/>
<path d="M68.677 50.1859L68.0648 50.2666L33.2959 54.7411L32.6321 54.8262C32.6528 54.688 32.6755 54.5498 32.7024 54.4138C33.0581 52.4412 33.7034 50.5727 34.5926 48.8595C36.9834 44.2468 41.1278 40.7374 46.112 39.2749C47.7664 38.7881 49.516 38.5288 51.3236 38.5288C51.671 38.5288 52.0164 38.5394 52.3576 38.5586C57.4948 38.8413 62.088 41.2305 65.337 44.8994C66.6647 46.398 67.767 48.1112 68.5922 49.9839C68.6211 50.0498 68.6501 50.1179 68.677 50.1859Z" fill="#343738"/>
<path d="M32.0159 55.4404L32.1213 54.7453C32.1441 54.5986 32.1668 54.452 32.1958 54.3095C32.5556 52.3199 33.2092 50.3984 34.1357 48.6107C36.6112 43.8343 40.9252 40.2463 45.9693 38.7647C47.6983 38.2566 49.4996 37.9973 51.3236 37.9973C51.667 37.9973 52.0247 38.0079 52.3866 38.0271C57.5155 38.3098 62.2515 40.6225 65.7197 44.5401C67.095 46.0918 68.22 47.8497 69.0638 49.7628C69.0948 49.8351 69.1279 49.9095 69.1569 49.9839L69.4092 50.6237L68.1311 50.7916L32.0159 55.4383V55.4404ZM51.3236 39.0601C49.5968 39.0601 47.8906 39.3046 46.2547 39.785C41.4774 41.1858 37.395 44.5847 35.0498 49.1081C34.2184 50.7108 33.6186 52.4241 33.2691 54.2075L67.916 49.7479C67.1446 48.1112 66.1499 46.6019 64.9566 45.2543C61.6703 41.5429 57.1867 39.3535 52.3329 39.0856C51.9896 39.0665 51.6525 39.0559 51.3257 39.0559L51.3236 39.0601Z" fill="black"/>
<path d="M68.6584 49.969L68.5922 49.9839C67.767 48.1112 66.6648 46.3979 65.337 44.8993C62.088 41.2304 57.4948 38.8412 52.3576 38.5585C52.0164 38.5394 51.671 38.5287 51.3236 38.5287C49.5161 38.5287 47.7665 38.7881 46.112 39.2749C41.1279 40.7373 36.9834 44.2467 34.5927 48.8594C33.7034 50.5727 33.0581 52.4411 32.7024 54.4137C32.7024 54.4137 32.6507 53.2808 32.7024 51.4569C32.75 49.7522 32.8886 47.4458 33.2443 44.8993C34.1584 38.3715 36.4995 30.2706 42.4101 26.7356C48.1304 23.3133 52.8209 24.4506 55.9458 26.2446C58.078 27.469 59.8524 29.2609 61.1533 31.3866C62.3197 33.2954 64.3257 36.773 65.9802 40.631C66.8571 42.678 67.6347 44.8292 68.1372 46.9123C68.3875 47.956 68.5695 48.9827 68.6584 49.969Z" fill="#343738"/>
<path d="M32.3942 59.0306L32.1853 54.4392C32.1832 54.3924 32.1336 53.2658 32.1853 51.442C32.2474 49.2016 32.4314 46.9739 32.7313 44.8249C33.6309 38.3948 35.9968 29.9581 42.1494 26.2786C48.1841 22.665 53.1207 24.0148 56.198 25.7812C58.353 27.0183 60.2163 28.8591 61.5916 31.1038C62.6794 32.8851 64.7579 36.4605 66.4537 40.4163C67.4402 42.7205 68.1764 44.8632 68.6397 46.7847C68.9065 47.9007 69.0864 48.955 69.1733 49.9201L69.2146 50.3898L68.2923 50.5939L68.1206 50.2028C67.3223 48.3917 66.2573 46.7273 64.9543 45.2564C61.6681 41.545 57.1845 39.3556 52.3307 39.0878C51.9874 39.0686 51.6503 39.058 51.3235 39.058C49.5966 39.058 47.8905 39.3025 46.2546 39.7829C41.4773 41.1837 37.3949 44.5826 35.0496 49.1059C34.1707 50.798 33.5523 52.6154 33.2111 54.5072L32.3963 59.0264L32.3942 59.0306ZM49.7311 25.0691C47.6464 25.0691 45.2702 25.6388 42.6685 27.1948C36.8737 30.6617 34.6215 38.7774 33.755 44.9758C33.5048 46.7656 33.3331 48.6808 33.2504 50.5641C33.511 49.8967 33.8046 49.2462 34.1355 48.6107C36.611 43.8343 40.9251 40.2462 45.9692 38.7647C47.6981 38.2566 49.4994 37.9973 51.3235 37.9973C51.6668 37.9973 52.0246 38.0079 52.3865 38.0271C57.5154 38.3098 62.2513 40.6225 65.7195 44.5401C66.433 45.3457 67.0804 46.2066 67.6532 47.1142C67.647 47.0887 67.6408 47.0632 67.6346 47.0377C67.1858 45.1756 66.4703 43.0904 65.5065 40.8435C63.8376 36.9494 61.7881 33.4229 60.7147 31.6671C59.4325 29.5712 57.6953 27.8558 55.6934 26.7059C54.1671 25.8301 52.1466 25.067 49.7311 25.067V25.0691Z" fill="black"/>
<path d="M69.1736 49.9191L68.1436 50.0125L68.1621 50.2284L69.1921 50.1351L69.1736 49.9191Z" fill="black"/>
<path d="M33.2442 44.8994C32.8885 47.4459 32.7499 49.7523 32.7024 51.457C23.3587 53.3829 23.4228 53.2235 22.5625 49.3229C21.7084 45.4542 33.0622 44.9079 33.2442 44.8994Z" fill="#343738"/>
<path d="M25.3482 53.1915C24.978 53.1915 24.6596 53.1638 24.3824 53.1043C22.7879 52.7663 22.5067 51.4888 22.0806 49.5566L22.0558 49.4397C21.9048 48.7574 22.0496 48.092 22.4777 47.5181C24.4527 44.8525 32.3281 44.4104 33.2194 44.3679L33.844 44.3381L33.7551 44.9737C33.4655 47.0547 33.2794 49.3015 33.2173 51.4718L33.2049 51.8948L32.8017 51.9777C29.137 52.7323 26.8331 53.1893 25.3482 53.1893V53.1915ZM32.6445 45.469C30.0077 45.6582 24.6141 46.3915 23.3008 48.1643C23.0568 48.4938 22.9823 48.8254 23.065 49.208L23.0899 49.3249C23.5242 51.2975 23.6896 51.8736 24.5913 52.0649C25.7453 52.3114 28.1278 51.8587 32.1957 51.0212C32.2619 49.1442 32.4108 47.2822 32.6424 45.469H32.6445Z" fill="black"/>
<path d="M33.2463 45.4307C32.9609 45.4307 32.7292 45.1927 32.7292 44.8993C32.7292 44.606 32.9609 44.3679 33.2463 44.3679C33.5317 44.3679 33.7633 44.606 33.7633 44.8993C33.7633 45.1927 33.5337 45.4307 33.2463 45.4307Z" fill="black"/>
<path d="M68.1373 46.9125C67.6347 44.8294 66.8571 42.6782 65.9802 40.6312C67.523 40.3719 77.4768 38.8287 77.483 42.5188C77.4871 46.5086 77.5823 46.6596 68.1373 46.9125Z" fill="#343738"/>
<path d="M67.734 47.4545L67.6347 47.04C67.1859 45.1779 66.4704 43.0926 65.5066 40.8458L65.2378 40.2187L65.8975 40.1082C66.7061 39.9722 68.8259 39.6491 71.0719 39.5768C74.1099 39.479 76.1698 39.8829 77.1976 40.7799C77.7291 41.2433 77.998 41.8279 78 42.5208V42.6399C78.0021 44.6167 78.0042 45.924 76.5358 46.6191C75.3094 47.1994 73.1503 47.312 68.1517 47.446L67.7361 47.4566L67.734 47.4545ZM66.7185 41.0499C67.5044 42.9523 68.1145 44.7358 68.5343 46.3704C72.6395 46.2577 75.0344 46.1578 76.1015 45.6519C76.9288 45.2608 76.9681 44.6146 76.966 42.6377V42.5187C76.966 42.1425 76.8254 41.847 76.5296 41.5877C75.0613 40.308 70.4742 40.4802 66.7206 41.0499H66.7185Z" fill="black"/>
<path d="M68.0566 47.4459V46.3831H68.0773C68.098 46.3831 68.1166 46.3831 68.1373 46.3831V47.4459H68.1166C68.0959 47.4459 68.0773 47.4459 68.0566 47.4459Z" fill="black"/>
<path d="M65.9801 40.6311C65.8499 40.6545 65.7795 40.6672 65.7795 40.6672L65.9801 40.6311Z" fill="#343738"/>
<path d="M65.7775 41.1987C65.5314 41.1987 65.3142 41.018 65.2688 40.7608C65.2191 40.4717 65.4052 40.1954 65.6865 40.1444L65.8892 40.1083C66.1704 40.0572 66.4393 40.2507 66.4869 40.5398C66.5344 40.8289 66.3483 41.1052 66.067 41.1541L65.8685 41.1902C65.8375 41.1966 65.8065 41.1987 65.7775 41.1987Z" fill="black"/>
</g>
<defs>
<clipPath id="clip0_858_1959">
<rect width="56" height="54" fill="white" transform="translate(22 24)"/>
</clipPath>
</defs>
</svg>
