<svg width="100" height="100" viewBox="0 0 100 100" fill="none" xmlns="http://www.w3.org/2000/svg">
<g clip-path="url(#clip0_872_1776)">
<path d="M70.4522 58.9467C70.2883 58.8942 70.1179 58.8482 69.9454 58.8132C69.8864 58.8001 69.8296 58.7891 69.7706 58.7782C69.6461 58.7563 69.5194 58.7388 69.3883 58.7279L68.6062 58.6556L68.7264 59.0999C68.7548 59.2049 68.7832 59.3099 68.8116 59.415C68.8268 59.4675 68.84 59.5222 68.8531 59.5769C68.8596 59.6032 68.8662 59.6294 68.8727 59.6579C68.8793 59.6863 68.8858 59.7148 68.8924 59.7432C68.9623 60.0277 69.0256 60.3165 69.0846 60.6054C69.124 60.7958 69.1589 60.9905 69.1895 61.1831C69.2441 61.5201 69.2922 61.8614 69.3315 62.2028C69.3708 62.5442 69.4014 62.8877 69.4211 63.2313C69.4429 63.623 69.456 64.0169 69.456 64.4107C69.456 65.6952 69.3315 66.9754 69.0846 68.2183L69.0781 68.2511L68.9317 68.9886L69.7072 68.8638C69.8339 68.8441 69.9585 68.8179 70.083 68.7894C72.3746 68.2467 74 66.2139 74 63.8155C74 61.5835 72.5363 59.6119 70.4522 58.9467ZM70.3058 67.5815C70.3408 67.3561 70.3714 67.1307 70.3998 66.9032C70.4172 66.7478 70.4347 66.5924 70.45 66.4371C70.4653 66.2926 70.4762 66.1482 70.4871 66.0038C70.4981 65.8747 70.5068 65.7478 70.5134 65.6187V65.6012C70.5199 65.4983 70.5265 65.3955 70.5286 65.2948C70.533 65.2051 70.5374 65.1154 70.5374 65.0256C70.5461 64.8199 70.5483 64.6164 70.5483 64.4107C70.5483 64.2532 70.5461 64.0956 70.5418 63.9403C70.5374 63.7171 70.5286 63.4961 70.5155 63.2729C70.509 63.1328 70.5002 62.9928 70.4893 62.8527L70.4762 62.682C70.4631 62.5332 70.45 62.3822 70.4347 62.2334C70.4325 62.2094 70.4303 62.1831 70.426 62.159C70.4063 61.9774 70.3845 61.798 70.3604 61.6185C70.3342 61.4325 70.308 61.2487 70.2774 61.0671C70.2162 60.6995 70.1463 60.334 70.0677 59.973C71.7345 60.4806 72.9077 62.0431 72.9077 63.8155C72.9077 65.588 71.8525 67.006 70.3058 67.5815Z" fill="black"/>
<path d="M72.9076 63.8156C72.9076 65.529 71.8524 67.0061 70.3057 67.5816C70.3407 67.3562 70.3713 67.1308 70.3997 66.9032C70.4172 66.7479 70.4346 66.5925 70.4499 66.4371C70.4652 66.2927 70.4761 66.1483 70.4871 66.0038C70.498 65.8747 70.5067 65.7478 70.5133 65.6187V65.6012C70.5198 65.4984 70.5264 65.3955 70.5286 65.2948C70.5329 65.2051 70.5373 65.1154 70.5373 65.0257C70.5461 64.82 70.5482 64.6165 70.5482 64.4108C70.5482 64.2532 70.5482 64.0957 70.5417 63.9403C70.5373 63.7171 70.5286 63.4961 70.5155 63.2729C70.5089 63.1329 70.5002 62.9928 70.4893 62.8528C70.4849 62.7959 70.4805 62.739 70.4761 62.6821C70.463 62.5333 70.4499 62.3823 70.4346 62.2335C70.4325 62.2094 70.4303 62.1832 70.4259 62.1591C70.4062 61.9775 70.3844 61.798 70.3604 61.6186C70.3341 61.4326 70.3079 61.2488 70.2773 61.0671C70.2184 60.6995 70.1485 60.3341 70.0676 59.973C71.7345 60.4807 72.9076 62.0431 72.9076 63.8156Z" fill="white"/>
<path d="M32.2064 72.3366C31.0945 69.8376 30.5287 67.1702 30.5287 64.4108V64.332C30.5287 64.216 30.5309 64.1022 30.533 63.9863C30.5374 63.8703 30.5418 63.7543 30.5461 63.6361V63.6296C30.5505 63.4873 30.5593 63.3451 30.5658 63.2029C30.568 63.17 30.5702 63.135 30.5724 63.1L30.5811 62.9031L29.8689 63.0781C29.7357 63.111 29.6024 63.1503 29.4735 63.1963C29.231 63.2751 28.9973 63.3757 28.7744 63.4917C28.6543 63.553 28.5363 63.6208 28.4227 63.6908C26.9197 64.6165 26 66.2489 26 68.0389C26 70.8574 28.2895 73.1485 31.101 73.1485C31.1928 73.1485 31.2824 73.1463 31.3719 73.1419C31.5117 73.1353 31.6494 73.1222 31.7848 73.1025L32.4992 72.9997L32.2064 72.3366ZM27.0923 68.0389C27.0923 66.5246 27.929 65.1548 29.2747 64.4633C29.3009 64.4502 29.3271 64.437 29.3555 64.4239C29.3818 64.4086 29.408 64.3955 29.4364 64.3845V64.4108C29.4364 64.5749 29.4386 64.7412 29.4429 64.9053C29.4451 65.0432 29.4495 65.181 29.4582 65.3167C29.4582 65.3517 29.4582 65.3867 29.4626 65.4218C29.4648 65.5137 29.4691 65.6056 29.4779 65.6975C29.4801 65.7894 29.4866 65.8813 29.4954 65.9732C29.4975 66.0301 29.5041 66.0892 29.5085 66.1461C29.5172 66.2642 29.5281 66.3824 29.5412 66.5006C29.5478 66.5706 29.5543 66.6384 29.5631 66.7084C29.5718 66.8069 29.5849 66.9032 29.598 66.9995C29.6046 67.0717 29.6133 67.1417 29.6264 67.2139C29.6374 67.319 29.6526 67.4218 29.6701 67.5269C29.6789 67.5925 29.6898 67.6581 29.7007 67.7238C29.716 67.8223 29.7335 67.9207 29.751 68.0192C29.7619 68.0914 29.775 68.1614 29.7903 68.2337C29.8121 68.3518 29.834 68.4678 29.8602 68.586C29.9017 68.8004 29.9498 69.0105 30 69.2206C30.0415 69.3934 30.083 69.5641 30.1289 69.7348C30.2578 70.2162 30.4042 70.6954 30.5702 71.1681C30.5964 71.2491 30.627 71.3322 30.6576 71.4132C30.6991 71.5335 30.7428 71.6517 30.7886 71.7699C30.793 71.783 30.7996 71.7961 30.8039 71.8093C30.8345 71.8902 30.8651 71.969 30.8979 72.05C28.781 71.9427 27.0923 70.1856 27.0923 68.0389Z" fill="black"/>
<path d="M30.8979 72.05C28.781 71.9428 27.0923 70.1856 27.0923 68.0389C27.0923 66.5246 27.929 65.1548 29.2747 64.4633C29.3009 64.4502 29.3271 64.437 29.3555 64.4239C29.3817 64.4108 29.408 64.3977 29.4364 64.3867V64.4108C29.4364 64.5749 29.4385 64.7412 29.4429 64.9053C29.4451 65.0432 29.4495 65.1811 29.4582 65.3167C29.4582 65.3517 29.4582 65.3867 29.4626 65.4218C29.4648 65.5137 29.4691 65.6056 29.4779 65.6975C29.4801 65.7894 29.4866 65.8813 29.4953 65.9732C29.4975 66.0301 29.5041 66.0892 29.5085 66.1461C29.5172 66.2642 29.5281 66.3824 29.5412 66.5006C29.5478 66.5706 29.5543 66.6384 29.5631 66.7085C29.5718 66.8069 29.5849 66.9032 29.598 66.9995C29.6046 67.0717 29.6133 67.1417 29.6264 67.2139C29.6373 67.319 29.6526 67.4218 29.6701 67.5269C29.6788 67.5925 29.6898 67.6582 29.7007 67.7238C29.716 67.8223 29.7335 67.9207 29.7509 68.0192C29.7619 68.0914 29.775 68.1615 29.7903 68.2337C29.8121 68.3518 29.834 68.4678 29.8602 68.586C29.9017 68.8004 29.9497 69.0105 30 69.2206C30.0415 69.3934 30.083 69.5641 30.1289 69.7348C30.2578 70.2162 30.4041 70.6954 30.5702 71.1681C30.5964 71.2491 30.627 71.3322 30.6576 71.4132C30.6991 71.5335 30.7427 71.6517 30.7886 71.7699C30.793 71.783 30.7995 71.7961 30.8039 71.8093C30.8345 71.8902 30.8651 71.969 30.8979 72.05Z" fill="white"/>
<path d="M30.981 60.2312C30.9613 60.3099 30.946 60.3909 30.9307 60.4719L30.9242 60.5091L30.8739 60.7585C30.8696 60.7782 30.8652 60.8001 30.8608 60.8198L30.815 61.0736L30.804 61.1349C30.7975 61.1655 30.7931 61.1962 30.7887 61.2268C30.7669 61.3625 30.7451 61.4982 30.7276 61.6338C30.7035 61.8001 30.6817 61.9664 30.662 62.1306V62.1349C30.6446 62.2881 30.6271 62.4435 30.614 62.5967C30.6096 62.6404 30.6052 62.6864 30.6009 62.7323C30.5899 62.8549 30.5812 62.9774 30.5725 63.1C30.5703 63.135 30.5681 63.17 30.5659 63.2028C30.5572 63.345 30.5506 63.4873 30.5463 63.6295V63.6361C30.5419 63.7542 30.5375 63.8702 30.5331 63.9862V64.0409L30.1334 64.1416C29.8909 64.2007 29.6571 64.2816 29.4365 64.3845C29.4081 64.3976 29.3819 64.4107 29.3557 64.4239C29.3273 64.437 29.301 64.4501 29.2748 64.4632L28.7789 64.7215L28.5342 64.2182C28.4534 64.0518 28.4141 63.8702 28.4228 63.6908C28.4228 63.6689 28.425 63.647 28.4272 63.6251L28.6522 61.1262C28.6784 60.8329 28.8161 60.566 29.0433 60.3778C29.1896 60.2552 29.3622 60.1743 29.5479 60.1414C29.644 60.1217 29.7423 60.1174 29.8428 60.1261L29.8843 60.1305L30.1006 60.1502L30.4327 60.1808L30.981 60.2312Z" fill="#F8A629"/>
<path d="M70.2948 59.636L70.0917 59.9642L70.0654 59.9576L69.7137 59.881C69.5783 59.8526 69.4385 59.8307 69.2899 59.8176L68.9076 59.7826L68.853 59.5769C68.8399 59.5222 68.8268 59.4675 68.8115 59.4149C68.7831 59.3099 68.7547 59.2049 68.7263 59.0998C68.5843 58.5987 68.4226 58.1042 68.2435 57.6206C68.1998 57.5046 68.1561 57.3886 68.1102 57.2726C68.0709 57.1676 68.0272 57.0648 67.9857 56.9619C67.9333 56.8372 67.8808 56.7125 67.8262 56.5877L67.7782 56.4761C67.7716 56.463 67.7672 56.452 67.7629 56.4389L67.7388 56.3842C67.6689 56.2267 67.5947 56.0713 67.5204 55.9181L67.457 55.7803L67.9988 55.6577L68.2085 55.6118L68.5471 55.5352L68.6039 55.522C68.6498 55.5133 68.6957 55.5067 68.7416 55.5023C68.9447 55.4848 69.1479 55.5242 69.327 55.6161C69.622 55.7649 69.8339 56.0363 69.9038 56.3623L70.4346 58.8307C70.4434 58.8679 70.4477 58.9073 70.4521 58.9467C70.4783 59.1874 70.4237 59.4281 70.2948 59.636Z" fill="#F8A629"/>
<path d="M70.5417 63.9402C70.5373 63.717 70.5286 63.496 70.5155 63.2728C70.5089 63.1328 70.5002 62.9927 70.4893 62.8527L70.4762 62.682C70.463 62.5332 70.4499 62.3822 70.4346 62.2334C70.4325 62.2093 70.4303 62.1831 70.4259 62.159C70.4062 61.9774 70.3844 61.7979 70.3604 61.6185C70.3341 61.4325 70.3079 61.2487 70.2773 61.0671C70.2184 60.6994 70.1485 60.334 70.0676 59.9729C70.0676 59.9686 70.0676 59.962 70.0654 59.9576C70.0305 59.8001 69.9955 59.6447 69.9562 59.4893C69.9278 59.369 69.8994 59.2508 69.8666 59.1326C69.8361 59.0145 69.8033 58.8963 69.7705 58.7781C69.5237 57.9094 69.2222 57.0604 68.8683 56.2485C68.8639 56.2376 68.8617 56.2266 68.8552 56.2179V56.2135C68.8443 56.1894 68.8355 56.1676 68.8246 56.1457L68.8202 56.1325L68.7328 55.9334C68.7263 55.9181 68.7197 55.9028 68.711 55.8875L68.6607 55.7715H68.6586L68.2413 55.8262L68.0906 55.8459L67.61 55.9072L67.5204 55.9181C67.5947 56.0713 67.6689 56.2266 67.7388 56.3842L67.7629 56.4389C67.7672 56.452 67.7716 56.463 67.7782 56.4761L67.8262 56.5877C67.8808 56.7124 67.9333 56.8372 67.9857 56.9619C68.0272 57.0647 68.0709 57.1676 68.1102 57.2726C68.1561 57.3886 68.1998 57.5046 68.2435 57.6206C68.4226 58.1042 68.5843 58.5987 68.7263 59.0998C68.7547 59.2048 68.7831 59.3099 68.8115 59.4149C68.8268 59.4674 68.8399 59.5221 68.853 59.5769C68.8595 59.6031 68.8661 59.6294 68.8727 59.6578C68.8792 59.6863 68.8879 59.7147 68.8945 59.7432C68.9644 60.0276 69.0278 60.3165 69.0846 60.6053C69.1239 60.7957 69.1588 60.9905 69.1894 61.183C69.2462 61.52 69.2943 61.8614 69.3314 62.2028C69.3707 62.5441 69.4013 62.8877 69.421 63.2312C69.4428 63.6229 69.4559 64.0168 69.4559 64.4107C69.4559 65.6952 69.3314 66.9753 69.0846 68.2183L69.078 68.2511C67.2713 77.3236 59.2495 83.9058 49.9934 83.9058C42.3145 83.9058 35.3325 79.3652 32.2064 72.3365C31.0944 69.8376 30.5286 67.1701 30.5286 64.4107V64.3319C30.5286 64.2159 30.5308 64.1022 30.5329 63.9862C30.5373 63.8702 30.5417 63.7542 30.5461 63.6361V63.6295C30.5504 63.4873 30.5592 63.345 30.5657 63.2028C30.5679 63.17 30.5701 63.135 30.5723 63.0999C30.581 62.9774 30.5897 62.8549 30.6007 62.7323C30.605 62.6864 30.6094 62.6404 30.6138 62.5966C30.6269 62.4435 30.6444 62.2881 30.6618 62.1349V62.1305C30.6815 61.9664 30.7033 61.8001 30.7274 61.636C30.7449 61.4981 30.7667 61.3625 30.7885 61.2268C30.7929 61.1962 30.7973 61.1655 30.8038 61.1349L30.8148 61.0736L30.8606 60.8198C30.865 60.8001 30.8694 60.7782 30.8737 60.7585L30.924 60.509H30.9218L30.8825 60.5134L30.3516 60.5791L30.1659 60.6031L29.7814 60.6513H29.7771L29.753 60.8067L29.7268 60.9642C29.7203 60.997 29.7137 61.0277 29.7094 61.0605L29.6962 61.1502L29.6547 61.4172L29.6285 61.5966C29.622 61.6579 29.6132 61.717 29.6067 61.776C29.5433 62.2509 29.4996 62.7257 29.4734 63.1962C29.4669 63.3253 29.4603 63.4544 29.4559 63.5835C29.4428 63.8308 29.4385 64.0759 29.4363 64.3275V64.4107C29.4363 64.5748 29.4385 64.7411 29.4428 64.9052C29.445 65.0431 29.4494 65.181 29.4581 65.3166C29.4581 65.3517 29.4581 65.3867 29.4625 65.4217C29.4647 65.5136 29.469 65.6055 29.4778 65.6974C29.48 65.7893 29.4865 65.8812 29.4953 65.9731C29.4974 66.03 29.504 66.0891 29.5084 66.146C29.5171 66.2642 29.528 66.3823 29.5411 66.5005C29.5477 66.5705 29.5542 66.6383 29.563 66.7084C29.5717 66.8068 29.5848 66.9031 29.5979 66.9994C29.6045 67.0716 29.6132 67.1416 29.6263 67.2139C29.6373 67.3189 29.6526 67.4217 29.67 67.5268C29.6788 67.5924 29.6897 67.6581 29.7006 67.7237C29.7159 67.8222 29.7334 67.9207 29.7509 68.0191C29.7618 68.0913 29.7749 68.1614 29.7902 68.2336C29.812 68.3517 29.8339 68.4677 29.8601 68.5859C29.9016 68.8003 29.9497 69.0104 29.9999 69.2205C30.0414 69.3934 30.0829 69.564 30.1288 69.7347C30.2577 70.2161 30.4041 70.6954 30.5701 71.168C30.5963 71.249 30.6269 71.3321 30.6575 71.4131C30.699 71.5335 30.7427 71.6516 30.7885 71.7698C30.7929 71.7829 30.7995 71.796 30.8038 71.8092C30.9305 72.1352 31.0638 72.4613 31.208 72.783C31.2626 72.9033 31.3172 73.0237 31.3718 73.1418C34.7492 80.3609 42.0152 85 49.9934 85C59.658 85 68.0491 78.2033 70.0829 68.7894C70.1091 68.6712 70.1332 68.5509 70.1572 68.4305C70.2118 68.1482 70.2621 67.866 70.3058 67.5815C70.3407 67.3561 70.3713 67.1307 70.3997 66.9031C70.4172 66.7478 70.4346 66.5924 70.4499 66.437C70.4652 66.2926 70.4762 66.1482 70.4871 66.0037C70.498 65.8746 70.5067 65.7477 70.5133 65.6186V65.6011C70.5198 65.4983 70.5264 65.3954 70.5286 65.2948C70.5329 65.205 70.5373 65.1153 70.5373 65.0256C70.5461 64.8199 70.5482 64.6164 70.5482 64.4107C70.5482 64.2531 70.5461 64.0956 70.5417 63.9402Z" fill="black"/>
<path d="M69.4559 64.4107C69.4559 65.6952 69.3314 66.9753 69.0845 68.2183L69.078 68.2511C67.2713 77.3236 59.2495 83.9058 49.9933 83.9058C42.3145 83.9058 35.3325 79.3652 32.2063 72.3365C31.0944 69.8376 30.5286 67.1701 30.5286 64.4107V64.3319C30.5286 64.2159 30.5307 64.1022 30.5329 63.9862C30.5373 63.8702 30.5417 63.7542 30.546 63.6361V63.6295C30.5504 63.4873 30.557 63.345 30.5657 63.2028C30.5679 63.17 30.5701 63.1349 30.5723 63.0999C30.581 62.9774 30.5897 62.8549 30.6007 62.7323C30.605 62.6864 30.6094 62.6404 30.6138 62.5966C30.6269 62.4435 30.6443 62.2881 30.6618 62.1349V62.1305C30.6815 61.9664 30.7033 61.8001 30.7274 61.636C30.7448 61.4981 30.7667 61.3625 30.7885 61.2268C30.7929 61.1962 30.7973 61.1655 30.8038 61.1349L30.8147 61.0736L30.8606 60.8198C30.865 60.8001 30.8694 60.7782 30.8737 60.7585L30.924 60.509L67.5204 55.9181C67.5946 56.0713 67.6689 56.2266 67.7388 56.3842L67.7629 56.4389C67.7672 56.452 67.7716 56.463 67.7782 56.4761L67.8262 56.5877C67.8808 56.7124 67.9333 56.8372 67.9857 56.9619C68.0272 57.0647 68.0709 57.1676 68.1102 57.2726C68.1561 57.3886 68.1998 57.5046 68.2435 57.6206C68.4226 58.1042 68.5843 58.5987 68.7263 59.0998C68.7547 59.2048 68.7831 59.3099 68.8115 59.4149C68.8268 59.4674 68.8399 59.5221 68.853 59.5768C68.8595 59.6031 68.8661 59.6294 68.8726 59.6578C68.8792 59.6863 68.8857 59.7147 68.8923 59.7432C68.9622 60.0276 69.0256 60.3165 69.0845 60.6053C69.1239 60.7957 69.1588 60.9905 69.1894 61.183C69.244 61.52 69.2921 61.8614 69.3314 62.2028C69.3707 62.5441 69.4013 62.8877 69.421 63.2312C69.4428 63.6229 69.4559 64.0168 69.4559 64.4107Z" fill="white"/>
<path d="M68.3244 56.3601C68.296 56.2923 68.2676 56.2245 68.237 56.1588C67.3654 54.231 66.201 52.4672 64.7985 50.9245C61.3665 47.1476 56.5145 44.688 51.0879 44.397C50.7275 44.3773 50.3626 44.3663 49.9956 44.3663C48.0863 44.3663 46.2381 44.6333 44.4904 45.1344C39.2256 46.6399 34.8476 50.2527 32.3222 55.0012C31.3828 56.765 30.7012 58.6884 30.3255 60.7191C30.2971 60.8592 30.2731 61.0014 30.2512 61.1437L30.8148 61.0736L30.9525 61.0561L67.6799 56.4499L67.763 56.4389L68.3266 56.3667C68.3266 56.3667 68.3266 56.3645 68.3244 56.3601ZM30.9241 60.5091H30.9219C31.0224 60.0058 31.1425 59.509 31.2845 59.0189C31.3195 58.9007 31.3544 58.7825 31.3894 58.6644C31.4178 58.5725 31.4462 58.4784 31.4768 58.3865C31.5052 58.2946 31.5358 58.2027 31.5685 58.1107C31.6494 57.8657 31.7389 57.625 31.8307 57.3842C31.8591 57.3098 31.8875 57.2376 31.9181 57.1654C32.0033 56.9466 32.095 56.7321 32.1911 56.5177C32.237 56.4105 32.2851 56.3054 32.3353 56.2004C32.4031 56.0516 32.473 55.905 32.5472 55.7584C32.556 55.7387 32.5647 55.7212 32.5756 55.7015C32.6499 55.5527 32.7242 55.4061 32.8028 55.2595C32.9055 55.0669 33.0104 54.8765 33.1218 54.6883C33.1917 54.5636 33.266 54.4389 33.3424 54.3141C33.3883 54.2332 33.4385 54.1544 33.4888 54.0756C33.5216 54.0231 33.5543 53.9706 33.5893 53.9181C33.6483 53.824 33.7073 53.7321 33.7706 53.6401C33.8514 53.5176 33.9345 53.3972 34.0175 53.2769C34.0655 53.2047 34.1158 53.1347 34.166 53.0668C34.2905 52.8918 34.4194 52.7189 34.5505 52.5482C34.6139 52.4629 34.6794 52.3797 34.7471 52.2966C34.8148 52.2112 34.8804 52.1281 34.9503 52.0471C35.0115 51.9705 35.0748 51.8961 35.1382 51.8217C35.1491 51.8064 35.1622 51.7911 35.1731 51.7779C35.1906 51.7583 35.2081 51.7364 35.2256 51.7167C35.2714 51.662 35.3173 51.6094 35.3654 51.5569C35.4921 51.4081 35.6253 51.2637 35.7608 51.1215C35.8613 51.0121 35.9639 50.9048 36.0688 50.7976C36.1125 50.7517 36.1584 50.7035 36.2086 50.6576C36.3091 50.5547 36.4118 50.4541 36.5145 50.3556C36.5145 50.3556 36.5159 50.3541 36.5188 50.3512L36.5232 50.3468C36.5822 50.2899 36.6434 50.2308 36.7023 50.1761C36.781 50.1039 36.8596 50.0317 36.9383 49.9595C37.0169 49.8873 37.0978 49.8173 37.1764 49.7472C37.3381 49.605 37.4997 49.465 37.6657 49.3315C37.7378 49.2724 37.8121 49.2111 37.8886 49.152C38.0633 49.012 38.2403 48.8763 38.4216 48.7407C38.485 48.6925 38.5483 48.6466 38.6139 48.5984C38.6313 48.5853 38.651 48.5722 38.6685 48.559C39.018 48.3096 39.3763 48.0689 39.7411 47.8413C40.0164 47.6706 40.296 47.5065 40.58 47.3467C41.148 47.0316 41.7335 46.7428 42.3342 46.4846C42.4282 46.4452 42.5221 46.4058 42.616 46.3664C42.8979 46.2504 43.184 46.141 43.4724 46.0382C43.5795 45.9988 43.6887 45.9616 43.7957 45.9244C44.0754 45.8303 44.3572 45.7427 44.6412 45.6618C44.8553 45.6005 45.0715 45.5414 45.29 45.4867C45.3992 45.4605 45.5106 45.4342 45.6199 45.4079C45.8383 45.3576 46.059 45.3095 46.2796 45.2679C46.509 45.2241 46.7384 45.1826 46.9678 45.1475C47.0726 45.13 47.1753 45.1147 47.2802 45.1016C47.3938 45.0863 47.5052 45.071 47.6166 45.0578C47.728 45.0425 47.8394 45.0316 47.953 45.0206C48.0644 45.0075 48.178 44.9965 48.2916 44.9878C48.5582 44.9637 48.8269 44.9462 49.0956 44.9331C49.1174 44.9331 49.1393 44.9309 49.1633 44.9309C49.2834 44.9243 49.4036 44.9221 49.5259 44.92C49.681 44.9156 49.8383 44.9134 49.9934 44.9134C50.3342 44.9134 50.6903 44.9243 51.0552 44.944C51.3763 44.9615 51.6952 44.9878 52.012 45.0184C52.3288 45.0513 52.6455 45.0928 52.9579 45.1388C53.2725 45.1869 53.5827 45.2416 53.8929 45.3051C54.2032 45.3686 54.509 45.4386 54.8148 45.5152C55.1207 45.5939 55.4222 45.6771 55.7215 45.769C55.8722 45.815 56.0229 45.8631 56.1715 45.9134C56.32 45.9638 56.4664 46.0141 56.6128 46.0666C56.7264 46.1082 56.8378 46.1498 56.9492 46.1913C56.9558 46.1935 56.9601 46.1957 56.9667 46.1979C57.0672 46.2373 57.1698 46.2767 57.2703 46.3183C57.3752 46.3598 57.4779 46.4036 57.5827 46.4452C57.5958 46.4539 57.6111 46.4583 57.6242 46.4649C57.8077 46.5415 57.9891 46.6224 58.1704 46.7078C58.1748 46.71 58.1769 46.7121 58.1813 46.7121C58.308 46.769 58.4304 46.8303 58.5549 46.8916C58.6597 46.9441 58.7646 46.9966 58.8695 47.0491C59.0857 47.1607 59.302 47.2767 59.5139 47.3949C59.5838 47.4343 59.6515 47.4758 59.7215 47.513C59.7695 47.5437 59.8176 47.5699 59.8656 47.5984C59.8766 47.6049 59.8853 47.6115 59.8962 47.6181C59.9639 47.6575 60.0317 47.699 60.0972 47.7384C60.2982 47.861 60.497 47.9879 60.6936 48.117C60.7919 48.1826 60.8902 48.2483 60.9863 48.3161C61.0846 48.3818 61.1808 48.4496 61.2769 48.5196C61.373 48.5875 61.4669 48.6575 61.5631 48.7275C61.5631 48.7275 61.5631 48.7297 61.5653 48.7297C61.8165 48.9179 62.0655 49.1105 62.3102 49.3118C62.5549 49.5131 62.7952 49.7188 63.0311 49.9332C63.1491 50.0405 63.2671 50.1499 63.3828 50.2615C63.4593 50.3337 63.5358 50.4059 63.61 50.4825C63.6494 50.5197 63.6887 50.5569 63.7258 50.5963C63.953 50.8239 64.1759 51.0558 64.3921 51.2943C64.4817 51.3928 64.5735 51.4957 64.6608 51.5963C64.6696 51.6051 64.6783 51.616 64.6849 51.6248C64.7242 51.6707 64.7657 51.7167 64.8028 51.7626C64.8072 51.767 64.8094 51.7714 64.8159 51.7758C64.9033 51.8808 64.9929 51.9858 65.0759 52.0909C65.1524 52.1806 65.2245 52.2725 65.2944 52.3622C65.3686 52.4541 65.4407 52.546 65.5085 52.6401C65.5587 52.7058 65.6089 52.7714 65.6548 52.8349C65.7007 52.894 65.7444 52.9552 65.7859 53.0143C65.834 53.08 65.8798 53.1434 65.9235 53.2091C65.9913 53.3032 66.0568 53.3973 66.1201 53.4935C66.1726 53.5701 66.2228 53.6467 66.2752 53.7255C66.3189 53.7933 66.3648 53.8612 66.4085 53.9312C66.4457 53.9925 66.485 54.0537 66.5243 54.115C66.5898 54.2222 66.6554 54.3294 66.7231 54.4389C66.7449 54.4782 66.769 54.5176 66.7908 54.557C66.828 54.6227 66.8651 54.6861 66.9022 54.7518C66.9787 54.8831 67.053 55.0166 67.1251 55.15C67.1622 55.2157 67.1972 55.2835 67.2321 55.3514C67.2911 55.4651 67.3501 55.5789 67.4069 55.6927C67.444 55.7671 67.4811 55.8415 67.5161 55.9181L30.9241 60.5091Z" fill="#343738"/>
<path d="M68.8683 56.3098V56.231L68.853 56.2025V56.196L68.8202 56.1325L68.7328 55.9334C68.7263 55.9181 68.7197 55.9028 68.711 55.8874C68.6935 55.8481 68.676 55.8109 68.6586 55.7715C68.6236 55.6927 68.5865 55.6139 68.5471 55.5351C68.3833 55.1872 68.2064 54.8436 68.0207 54.5067V54.5001C68.0207 54.5001 68.0185 54.5001 68.0163 54.4957C67.7629 54.0362 67.4942 53.5876 67.2058 53.1478C67.0747 52.9464 66.9393 52.7495 66.8017 52.5547C66.7536 52.4847 66.7055 52.4169 66.6553 52.349C66.6356 52.3206 66.6138 52.29 66.5919 52.2615C66.5329 52.1805 66.474 52.1018 66.415 52.023C66.38 51.9748 66.3429 51.9267 66.3057 51.8808C66.2686 51.8304 66.2315 51.7823 66.1922 51.7341C66.0873 51.5985 65.9802 51.465 65.871 51.3337C65.8251 51.2768 65.7793 51.2199 65.729 51.163C65.7225 51.1543 65.7159 51.1455 65.7072 51.1367C65.6897 51.1149 65.6722 51.093 65.6526 51.0711C65.6176 51.0273 65.5805 50.9858 65.5411 50.942C65.5193 50.9179 65.4974 50.8939 65.4778 50.8698C65.386 50.7647 65.2943 50.6597 65.2003 50.5569C65.0867 50.4321 64.971 50.3074 64.8552 50.1849C64.8552 50.1827 64.853 50.1827 64.853 50.1827C64.735 50.0601 64.6171 49.9398 64.4969 49.8194C64.4183 49.7385 64.3374 49.6597 64.2566 49.5831C64.1867 49.5153 64.1168 49.4474 64.0447 49.3818C63.5837 48.9463 63.1053 48.5371 62.6116 48.152C62.5745 48.1213 62.5351 48.0929 62.498 48.0644C62.4849 48.0513 62.4696 48.0404 62.4565 48.0316C62.415 47.9988 62.3713 47.966 62.3298 47.9353C62.3232 47.9288 62.3167 47.9244 62.3101 47.9222C62.2468 47.8741 62.1834 47.8259 62.1201 47.78C62.1201 47.7756 62.1157 47.7756 62.1135 47.7756C62.1048 47.7668 62.0938 47.7581 62.0851 47.7537C61.7246 47.4889 61.3576 47.2373 60.9841 47.001C60.9579 46.9834 60.9316 46.9659 60.9054 46.9506H60.9032C60.877 46.9353 60.8508 46.9178 60.8246 46.9025C60.0338 46.4079 59.2124 45.9703 58.3647 45.5917C58.214 45.5261 58.0633 45.4604 57.9125 45.397H57.9103C57.6067 45.27 57.2987 45.1497 56.9884 45.0381H56.9862C56.8311 44.9812 56.676 44.9265 56.5209 44.8762C56.5078 44.8696 56.4969 44.8652 56.4838 44.8608C56.3636 44.8215 56.2457 44.7843 56.1255 44.7471C56.1015 44.7405 56.0775 44.7339 56.0534 44.7252L55.9682 44.6989C55.9398 44.6902 55.9114 44.6814 55.883 44.6727C55.8 44.6486 55.717 44.6245 55.634 44.6026C55.4942 44.5632 55.3522 44.5238 55.2102 44.4866C55.1752 44.4757 55.1381 44.467 55.1031 44.4582C55.0616 44.4451 55.0201 44.4363 54.9786 44.4276C54.9436 44.4188 54.9109 44.4101 54.8781 44.4035L54.8322 44.3904C54.8191 44.3882 54.806 44.3838 54.7929 44.3816C54.7296 44.3663 54.6684 44.3532 54.605 44.34C54.4805 44.3094 54.3582 44.2831 54.2337 44.2569C54.072 44.2219 53.9082 44.189 53.7465 44.1606C53.6242 44.1387 53.4996 44.1168 53.3773 44.0971C53.2943 44.084 53.2113 44.0709 53.1283 44.0599C53.0452 44.0468 52.9622 44.0337 52.8792 44.0227C52.8246 44.014 52.7678 44.0074 52.7132 44.0009C52.6673 43.9943 52.6214 43.9877 52.5734 43.9833H52.5712C52.5712 43.9833 52.5646 43.9834 52.5603 43.9812C52.4598 43.9702 52.3571 43.9571 52.2544 43.944C52.2282 43.9418 52.1998 43.9374 52.1736 43.9352C51.9966 43.9177 51.8175 43.9002 51.6405 43.8871C51.634 43.8871 51.6296 43.8871 51.6231 43.8871C51.5925 43.8849 51.5619 43.8827 51.5313 43.8805C51.5204 43.8805 51.5073 43.8805 51.4964 43.8805H51.4898C51.3653 43.8696 51.2429 43.8608 51.1184 43.8542C51.0223 43.8499 50.9262 43.8455 50.8322 43.8411C50.5461 43.8302 50.2686 43.8236 49.9977 43.8236H49.989C49.8317 43.8236 49.6744 43.8258 49.5171 43.8302C49.3161 43.8345 49.1151 43.8411 48.9142 43.8521C48.676 43.863 48.4379 43.8805 48.1998 43.9002C48.0294 43.9155 47.8612 43.933 47.693 43.9527C47.5663 43.9658 47.4396 43.9812 47.315 43.9987C47.2779 44.003 47.2408 44.0074 47.2036 44.014C47.1446 44.0206 47.0878 44.0293 47.0289 44.0381C47.0048 44.0402 46.9786 44.0446 46.9546 44.049C46.8694 44.0599 46.782 44.0753 46.6968 44.0884C46.6771 44.0906 46.6575 44.095 46.6378 44.0993C46.6138 44.0993 46.5897 44.1059 46.5657 44.1103C45.8142 44.2372 45.0715 44.4035 44.3418 44.6136C44.2173 44.6486 44.0927 44.6858 43.9682 44.7252C43.8459 44.7624 43.7214 44.8018 43.599 44.8433C43.3522 44.9221 43.1075 45.0075 42.865 45.0994C42.7143 45.1541 42.5635 45.2131 42.415 45.2722C42.3931 45.281 42.3691 45.2897 42.3473 45.2985C42.238 45.3423 42.1288 45.3882 42.0217 45.4342C42.0174 45.4342 42.0152 45.4364 42.013 45.4385C41.9366 45.4692 41.8623 45.502 41.788 45.5348C41.6678 45.5873 41.5499 45.6399 41.4341 45.6924C41.2768 45.7646 41.1217 45.839 40.9688 45.9134C40.8421 45.9768 40.7175 46.0403 40.593 46.106C40.5319 46.1344 40.4729 46.1672 40.4117 46.2001C40.3964 46.2066 40.3833 46.2154 40.368 46.2241C40.2741 46.2723 40.1801 46.3248 40.0862 46.3773C39.6252 46.6311 39.1752 46.9047 38.7339 47.1935C38.4477 47.3817 38.1659 47.5786 37.8885 47.78C36.8508 48.5415 35.883 49.3971 35.0026 50.338C34.9131 50.4321 34.8257 50.5262 34.7405 50.6225C34.6531 50.7166 34.5679 50.8129 34.4827 50.9092C34.4062 50.9989 34.332 51.0864 34.2599 51.1739C34.2205 51.2177 34.1834 51.2615 34.1485 51.3052C34.037 51.4387 33.93 51.5722 33.8251 51.7057C33.6132 51.977 33.4057 52.2549 33.2047 52.5394C33.1785 52.5788 33.1501 52.6182 33.1239 52.6576C33.1195 52.6598 33.1173 52.6641 33.1173 52.6663C33.0824 52.7167 33.0474 52.7648 33.0125 52.8151C32.96 52.8873 32.912 52.9618 32.8639 53.0362C32.8617 53.0383 32.8595 53.0427 32.8574 53.0449C32.7809 53.1609 32.7044 53.279 32.628 53.3972C32.5144 53.5788 32.4008 53.7627 32.2915 53.9487C32.2413 54.034 32.1911 54.1193 32.1408 54.2069C32.0381 54.3863 31.9376 54.5657 31.8415 54.7495C31.6952 55.0231 31.5553 55.301 31.4221 55.5833C31.4112 55.603 31.4002 55.6249 31.3915 55.6445C31.35 55.7343 31.3085 55.824 31.267 55.9137C31.2539 55.9443 31.2408 55.9728 31.2276 56.0034C31.1643 56.1457 31.1031 56.2879 31.042 56.4323C30.9961 56.5395 30.9524 56.6468 30.9087 56.754C30.8956 56.7846 30.8825 56.8175 30.8694 56.8481C30.8672 56.8547 30.865 56.8634 30.8606 56.8722C30.8344 56.9422 30.8082 57.01 30.782 57.08C30.7667 57.1238 30.7492 57.1698 30.7317 57.2157C30.7077 57.2792 30.6837 57.3426 30.6618 57.4061C30.6356 57.4717 30.6138 57.5374 30.5897 57.603C30.5832 57.6205 30.5766 57.6402 30.5701 57.6599C30.5613 57.684 30.5526 57.7081 30.5461 57.7343C30.5264 57.7868 30.5089 57.8394 30.4914 57.8919C30.4849 57.9138 30.4783 57.9335 30.4718 57.9553C30.4477 58.0297 30.4237 58.102 30.3997 58.1764C30.2577 58.6249 30.1332 59.0779 30.0218 59.5374C30.0218 59.5374 30.0218 59.5418 30.0218 59.544C29.9737 59.741 29.93 59.9357 29.8885 60.1348C29.8535 60.2946 29.823 60.4543 29.7924 60.6141C29.7924 60.6272 29.788 60.6425 29.7858 60.6556C29.7662 60.7585 29.7465 60.8635 29.7312 60.9686C29.7246 61.0014 29.7181 61.032 29.7137 61.0648L29.7006 61.1502V61.1568L29.6591 61.4215L29.6045 61.7804H29.611L30.7317 61.6382L67.752 56.9969L67.9901 56.9663L68.8748 56.8525V56.3142L68.8683 56.3098ZM30.9218 60.509C31.0223 60.0057 31.1424 59.509 31.2844 59.0188C31.3194 58.9007 31.3544 58.7825 31.3893 58.6643C31.4177 58.5724 31.4461 58.4783 31.4767 58.3864C31.5051 58.2945 31.5357 58.2026 31.5684 58.1107C31.6493 57.8656 31.7388 57.6249 31.8306 57.3842C31.859 57.3098 31.8874 57.2376 31.918 57.1654C32.0032 56.9466 32.0949 56.7321 32.1911 56.5177C32.2369 56.4104 32.285 56.3054 32.3352 56.2004C32.403 56.0516 32.4729 55.9049 32.5471 55.7583C32.5559 55.7386 32.5646 55.7211 32.5755 55.7014C32.6498 55.5526 32.7241 55.406 32.8027 55.2594C32.9054 55.0668 33.0103 54.8765 33.1217 54.6883C33.1916 54.5635 33.2659 54.4388 33.3423 54.3141C33.3882 54.2331 33.4385 54.1543 33.4887 54.0756C33.5215 54.0231 33.5542 53.9705 33.5892 53.918C33.6482 53.8239 33.7072 53.732 33.7705 53.6401C33.8514 53.5176 33.9344 53.3972 34.0174 53.2769C34.0654 53.2068 34.1135 53.1368 34.1659 53.0668C34.2905 52.8917 34.4193 52.7189 34.5504 52.5482C34.6138 52.4628 34.6793 52.3797 34.747 52.2965C34.8148 52.2112 34.8803 52.128 34.9502 52.0471C35.0092 51.9705 35.0725 51.8961 35.1381 51.8217C35.149 51.8064 35.1621 51.791 35.173 51.7779C35.1905 51.7582 35.208 51.7363 35.2255 51.7166C35.2713 51.6619 35.3172 51.6094 35.3653 51.5569C35.492 51.4081 35.6252 51.2637 35.7607 51.1214C35.859 51.012 35.9617 50.9048 36.0687 50.7976C36.1124 50.7516 36.1583 50.7035 36.2085 50.6575C36.3068 50.5547 36.4095 50.454 36.5144 50.3555C36.5144 50.3555 36.5158 50.3541 36.5187 50.3512L36.5231 50.3468C36.5821 50.2899 36.6433 50.2308 36.7023 50.1761C36.7809 50.1039 36.8595 50.0317 36.9382 49.9595C37.0168 49.8851 37.0955 49.815 37.1763 49.7472C37.338 49.605 37.4996 49.4649 37.6657 49.3314C37.7399 49.268 37.812 49.2089 37.8885 49.152C38.0633 49.012 38.2402 48.8763 38.4215 48.7406C38.4849 48.6925 38.5482 48.6465 38.6138 48.5984C38.6313 48.5852 38.6509 48.5721 38.6684 48.559C39.0179 48.3095 39.3762 48.0688 39.741 47.8412C40.0163 47.6684 40.2959 47.5043 40.5799 47.3467C41.1479 47.0316 41.7334 46.7427 42.3341 46.4845C42.4281 46.4451 42.522 46.4057 42.616 46.3664C42.8978 46.2482 43.184 46.1366 43.4723 46.0381C43.5794 45.9965 43.6864 45.9593 43.7956 45.9243C44.0731 45.828 44.3549 45.7405 44.6389 45.6596C44.8552 45.5983 45.0715 45.5392 45.2899 45.4867C45.3991 45.4604 45.5106 45.4342 45.6198 45.4079C45.8382 45.3576 46.0589 45.3094 46.2795 45.2679C46.5089 45.2241 46.7383 45.1825 46.9677 45.1475C47.0725 45.13 47.1752 45.1147 47.2801 45.1015C47.3937 45.0862 47.5051 45.0709 47.6165 45.0578C47.7279 45.0425 47.8393 45.0315 47.9529 45.0206C48.0644 45.0075 48.1779 44.9965 48.2915 44.9878C48.5581 44.9637 48.8268 44.9462 49.0955 44.9331C49.1173 44.9331 49.1392 44.9309 49.1632 44.9309C49.2834 44.9243 49.4035 44.9221 49.5258 44.9199C49.681 44.9155 49.8382 44.9134 49.9934 44.9134C50.3341 44.9134 50.6902 44.9243 51.0551 44.944C51.3762 44.9615 51.6952 44.9856 52.0119 45.0184C52.3287 45.0512 52.6455 45.0928 52.9579 45.1387C53.2724 45.1869 53.5826 45.2416 53.8929 45.3051C54.2031 45.3663 54.5089 45.4363 54.8148 45.5151C55.1206 45.5917 55.4221 45.6771 55.7214 45.769C55.8721 45.8149 56.0228 45.8631 56.1714 45.9134C56.3199 45.9637 56.4663 46.014 56.6127 46.0666C56.7263 46.1081 56.8377 46.1497 56.9491 46.1913C56.9557 46.1935 56.96 46.1957 56.9666 46.1979C57.0671 46.2373 57.1698 46.2766 57.2702 46.3182C57.3751 46.3598 57.4778 46.4036 57.5826 46.4451C57.5958 46.4539 57.611 46.4583 57.6242 46.4648C57.8077 46.5414 57.989 46.6224 58.1703 46.7077C58.1747 46.7099 58.1769 46.7121 58.1812 46.7121C58.3079 46.769 58.4303 46.8303 58.5548 46.8915C58.6597 46.9441 58.7645 46.9966 58.8694 47.0491C59.0857 47.1607 59.3019 47.2767 59.5138 47.3948C59.5837 47.4342 59.6515 47.4758 59.7214 47.513C59.7694 47.5436 59.8175 47.5699 59.8656 47.5983C59.8765 47.6049 59.8852 47.6115 59.8961 47.618C59.9639 47.6574 60.0316 47.699 60.0971 47.7384C60.2981 47.8609 60.4969 47.9879 60.6935 48.117C60.7918 48.1804 60.8901 48.2461 60.9862 48.3161C61.0846 48.3817 61.1807 48.4496 61.2768 48.5196C61.3729 48.5874 61.4669 48.6575 61.563 48.7275C61.563 48.7275 61.563 48.7297 61.5652 48.7297C61.8186 48.9157 62.0654 49.1104 62.3101 49.3117C62.5548 49.5131 62.7951 49.7188 63.031 49.9332C63.149 50.0404 63.267 50.1498 63.3828 50.2614C63.4592 50.3337 63.5357 50.4059 63.61 50.4825C63.6493 50.5197 63.6886 50.5569 63.7257 50.5962C63.9529 50.8238 64.1758 51.0558 64.392 51.2943C64.4816 51.3928 64.5734 51.4956 64.6607 51.5963C64.6695 51.605 64.6782 51.616 64.6848 51.6247C64.7241 51.6707 64.7656 51.7166 64.8027 51.7626C64.8071 51.767 64.8093 51.7713 64.8158 51.7757C64.9032 51.8808 64.9928 51.9858 65.0758 52.0908C65.1523 52.1805 65.2244 52.2725 65.2943 52.3622C65.3686 52.4541 65.4406 52.546 65.5084 52.6401C65.5586 52.7057 65.6089 52.7714 65.6547 52.8348C65.7006 52.8939 65.7443 52.9552 65.7858 53.0143C65.8339 53.0799 65.8798 53.1434 65.9234 53.209C65.9912 53.3031 66.0567 53.3972 66.1201 53.4935C66.1725 53.5701 66.2227 53.6467 66.2752 53.7254C66.3189 53.7933 66.3647 53.8611 66.4084 53.9311C66.4456 53.9924 66.4849 54.0537 66.5242 54.115C66.5897 54.2222 66.6553 54.3294 66.723 54.4388C66.7449 54.4782 66.7689 54.5176 66.7907 54.557C66.8213 54.6073 66.8497 54.6598 66.8803 54.7102C66.889 54.7233 66.8956 54.7386 66.9021 54.7517C66.9786 54.883 67.0529 55.0165 67.125 55.15C67.1621 55.2156 67.1971 55.2835 67.232 55.3513C67.291 55.4651 67.35 55.5789 67.4068 55.6927C67.4439 55.7671 67.4811 55.8415 67.5182 55.9181H67.516L30.924 60.509H30.9218Z" fill="black"/>
<path d="M67.5183 55.9181L30.9241 60.509H30.9219C31.0224 60.0057 31.1425 59.509 31.2845 59.0188C31.3195 58.9006 31.3544 58.7825 31.3894 58.6643C31.4178 58.5724 31.4462 58.4783 31.4768 58.3864C31.5052 58.2945 31.5357 58.2026 31.5685 58.1107C31.6493 57.8656 31.7389 57.6249 31.8307 57.3842C31.8591 57.3098 31.8875 57.2376 31.9181 57.1654C32.0033 56.9465 32.095 56.7321 32.1911 56.5176C32.237 56.4104 32.2851 56.3054 32.3353 56.2003C32.403 56.0515 32.4729 55.9049 32.5472 55.7583C32.556 55.7386 32.5647 55.7211 32.5756 55.7014C32.6499 55.5526 32.7242 55.406 32.8028 55.2594C32.9055 55.0668 33.0104 54.8764 33.1218 54.6883C33.1917 54.5635 33.2659 54.4388 33.3424 54.3141C33.3883 54.2331 33.4385 54.1543 33.4888 54.0755C33.5215 54.023 33.5543 53.9705 33.5893 53.918C33.6483 53.8239 33.7072 53.732 33.7706 53.6401C33.8514 53.5175 33.9344 53.3972 34.0175 53.2768C34.0655 53.2046 34.1158 53.1346 34.166 53.0668C34.2905 52.8917 34.4194 52.7188 34.5505 52.5481C34.6138 52.4628 34.6794 52.3796 34.7471 52.2965C34.8148 52.2112 34.8804 52.128 34.9503 52.047C35.0114 51.9704 35.0748 51.896 35.1382 51.8216C35.1491 51.8063 35.1622 51.791 35.1731 51.7779C35.1906 51.7582 35.2081 51.7363 35.2255 51.7166C35.2714 51.6619 35.3173 51.6094 35.3653 51.5569C35.4921 51.4081 35.6253 51.2636 35.7608 51.1214C35.8613 51.012 35.9639 50.9048 36.0688 50.7975C36.1147 50.7494 36.1605 50.7034 36.2086 50.6575C36.3091 50.5546 36.4118 50.454 36.5144 50.3555C36.5144 50.3555 36.5159 50.3541 36.5188 50.3511L36.5232 50.3468C36.5822 50.2899 36.6433 50.2308 36.7023 50.1761C36.781 50.1039 36.8596 50.0317 36.9383 49.9594C37.0169 49.8872 37.0977 49.8172 37.1764 49.7472C37.338 49.6049 37.4997 49.4671 37.6657 49.3314C37.7378 49.2723 37.8121 49.2111 37.8886 49.152C38.0633 49.0119 38.2403 48.8763 38.4216 48.7406C38.485 48.6924 38.5483 48.6465 38.6138 48.5983C38.6313 48.5852 38.651 48.5721 38.6685 48.559C39.018 48.3095 39.3763 48.0688 39.7411 47.8412C40.0164 47.6705 40.296 47.5064 40.58 47.3467C41.148 47.0316 41.7335 46.7427 42.3342 46.4845C42.4282 46.4451 42.5221 46.4057 42.616 46.3663C42.8978 46.2504 43.184 46.1409 43.4724 46.0381C43.5794 45.9987 43.6887 45.9615 43.7957 45.9243C44.0753 45.8302 44.3572 45.7427 44.6412 45.6617C44.8552 45.6004 45.0715 45.5414 45.29 45.4867C45.3992 45.4604 45.5106 45.4341 45.6199 45.4079C45.8383 45.3575 46.059 45.3094 46.2796 45.2678C46.509 45.2241 46.7384 45.1825 46.9678 45.1475C47.0726 45.13 47.1753 45.1146 47.2801 45.1015C47.3937 45.0862 47.5052 45.0709 47.6166 45.0578C47.728 45.0424 47.8394 45.0315 47.953 45.0206C48.0644 45.0074 48.178 44.9965 48.2916 44.9877C48.5581 44.9637 48.8268 44.9462 49.0956 44.933C49.1174 44.933 49.1392 44.9308 49.1633 44.9308C49.2834 44.9243 49.4036 44.9221 49.5259 44.9199C49.681 44.9155 49.8383 44.9133 49.9934 44.9133C50.3342 44.9133 50.6903 44.9243 51.0551 44.944C51.3763 44.9615 51.6952 44.9877 52.012 45.0184C52.3288 45.0512 52.6455 45.0928 52.9579 45.1387C53.2725 45.1869 53.5827 45.2416 53.8929 45.305C54.2031 45.3685 54.509 45.4385 54.8148 45.5151C55.1207 45.5939 55.4221 45.677 55.7214 45.7689C55.8722 45.8149 56.0229 45.863 56.1715 45.9134C56.32 45.9637 56.4664 46.014 56.6128 46.0665C56.7264 46.1081 56.8378 46.1497 56.9492 46.1913C56.9557 46.1935 56.9601 46.1956 56.9667 46.1978C57.0672 46.2372 57.1698 46.2766 57.2703 46.3182C57.3752 46.3598 57.4779 46.4035 57.5827 46.4451C57.5958 46.4539 57.6111 46.4582 57.6242 46.4648C57.8077 46.5414 57.989 46.6224 58.1704 46.7077C58.1747 46.7099 58.1769 46.7121 58.1813 46.7121C58.3058 46.7712 58.4325 46.8302 58.5549 46.8915C58.6597 46.944 58.7646 46.9965 58.8694 47.0491C59.0857 47.1607 59.302 47.2766 59.5139 47.3948C59.5838 47.4342 59.6515 47.4758 59.7214 47.513C59.7695 47.5436 59.8176 47.5699 59.8656 47.5983C59.8765 47.6049 59.8853 47.6114 59.8962 47.618C59.9639 47.6574 60.0317 47.699 60.0972 47.7384C60.2982 47.8609 60.497 47.9878 60.6936 48.1169C60.7919 48.1826 60.8902 48.2482 60.9863 48.3161C61.0846 48.3817 61.1807 48.4495 61.2769 48.5196C61.373 48.5874 61.4669 48.6574 61.5631 48.7275C61.5631 48.7275 61.5631 48.7296 61.5652 48.7296C61.8165 48.9178 62.0655 49.1104 62.3102 49.3117C62.5549 49.513 62.7952 49.7187 63.0311 49.9332C63.1491 50.0404 63.267 50.1498 63.3828 50.2614C63.4593 50.3336 63.5357 50.4058 63.61 50.4824C63.6493 50.5196 63.6887 50.5568 63.7258 50.5962C63.953 50.8238 64.1758 51.0558 64.3921 51.2943C64.4817 51.3927 64.5734 51.4956 64.6608 51.5963C64.6696 51.605 64.6783 51.6159 64.6848 51.6247C64.7242 51.6707 64.7657 51.7166 64.8028 51.7626C64.8072 51.7669 64.8094 51.7713 64.8159 51.7757C64.9033 51.8807 64.9929 51.9858 65.0759 52.0908C65.1524 52.1805 65.2244 52.2724 65.2943 52.3621C65.3686 52.454 65.4407 52.546 65.5084 52.64C65.5587 52.7057 65.6089 52.7713 65.6548 52.8348C65.7007 52.8939 65.7444 52.9552 65.7859 53.0142C65.8339 53.0799 65.8798 53.1433 65.9235 53.209C65.9912 53.3031 66.0568 53.3972 66.1201 53.4935C66.1726 53.5701 66.2228 53.6466 66.2752 53.7254C66.3189 53.7933 66.3648 53.8611 66.4085 53.9311C66.4456 53.9924 66.485 54.0537 66.5243 54.1149C66.5898 54.2222 66.6554 54.3294 66.7231 54.4388C66.7449 54.4782 66.769 54.5176 66.7908 54.557C66.8279 54.6226 66.8651 54.6861 66.9022 54.7517C66.9787 54.883 67.053 55.0165 67.125 55.15C67.1622 55.2156 67.1971 55.2835 67.2321 55.3513C67.2911 55.4651 67.3501 55.5789 67.4069 55.6927C67.444 55.7671 67.4811 55.8415 67.5161 55.9181H67.5183Z" fill="#F8A629"/>
<path d="M68.3245 56.9072C68.0493 56.9072 67.8133 56.6993 67.7827 56.4214C67.7827 56.4039 67.7762 56.3689 67.7675 56.3142L67.7543 56.2245C67.7107 55.9247 67.9182 55.649 68.2153 55.6052C68.5168 55.5592 68.7898 55.7693 68.8335 56.0669L68.8466 56.1544C68.8576 56.2332 68.8641 56.2814 68.8663 56.3011C68.8991 56.6008 68.6828 56.8722 68.3813 56.9028C68.3617 56.9028 68.342 56.905 68.3223 56.905L68.3245 56.9072Z" fill="black"/>
<path d="M39.7783 17.4311C39.0945 16.9672 38.2207 16.8993 37.4364 17.1597C32.2589 18.8906 31.1142 27.1732 30.8651 31.1405C30.7843 32.4337 30.7974 33.2696 30.7974 33.2696L31.3523 32.5803L31.68 32.1733C31.68 32.1733 31.6822 32.1711 31.68 32.169H31.6822C31.7368 31.9917 31.7914 31.8188 31.8482 31.6482C32.0011 31.1864 32.1606 30.74 32.3288 30.3089C32.3834 30.1711 32.4381 30.0332 32.4949 29.8976C32.5669 29.7181 32.6434 29.5409 32.7199 29.3658C32.7963 29.1907 32.8728 29.0201 32.9536 28.8516C33.0323 28.6809 33.1131 28.5146 33.1961 28.3505C33.2704 28.1995 33.349 28.0485 33.4255 27.9019C33.4342 27.8887 33.4408 27.8778 33.4452 27.8669C33.5304 27.7071 33.6177 27.5496 33.7051 27.3964C33.7947 27.2432 33.8821 27.0922 33.9738 26.9434C34.0372 26.8384 34.1005 26.7355 34.1683 26.6349C34.1748 26.6217 34.1835 26.6086 34.1923 26.5977C34.2928 26.4379 34.3955 26.2826 34.5025 26.1316C34.5615 26.0462 34.6205 25.9609 34.6838 25.8777C34.7035 25.8449 34.7275 25.8143 34.7515 25.7836C34.7974 25.7202 34.8433 25.6567 34.8914 25.5954C34.946 25.521 35.0006 25.4488 35.0596 25.3766C35.0923 25.335 35.1251 25.2935 35.1579 25.2519C35.2474 25.1381 35.3392 25.0287 35.4331 24.9215C35.455 24.8952 35.4768 24.8689 35.4987 24.8427C35.5686 24.7595 35.6407 24.6808 35.7128 24.602C36.1453 24.1228 36.6019 23.6895 37.0803 23.2978C37.1131 23.2693 37.148 23.2431 37.1808 23.2168C37.2857 23.1315 37.3927 23.0483 37.4998 22.9674C37.6155 22.8798 37.7357 22.7945 37.8537 22.7113C38 22.6107 38.1464 22.5144 38.2971 22.4225C38.3736 22.3722 38.4501 22.3262 38.5287 22.2802C38.5615 22.2584 38.5964 22.2387 38.6314 22.219C38.7275 22.1621 38.8258 22.1074 38.9263 22.0549C39.0159 22.0067 39.1076 21.9586 39.1994 21.9126C39.2911 21.8645 39.3829 21.8185 39.4746 21.7748C39.5729 21.7288 39.6734 21.6829 39.7761 21.6391C39.8329 21.6128 39.8919 21.5888 39.9509 21.5647C39.9618 21.5581 39.9749 21.5516 39.988 21.5494C40.0732 21.5122 40.1584 21.4772 40.2458 21.4443C40.2698 21.4334 40.2961 21.4246 40.3223 21.4159L40.6216 21.0439L40.9645 20.6172C40.9842 20.4137 40.9908 20.2233 40.9908 20.0417C40.982 18.6237 40.3965 17.8512 39.7783 17.4311ZM37.609 17.6805C38.2644 17.4617 38.9613 17.5383 39.4725 17.884C40.1475 18.3436 40.473 19.1248 40.4402 20.2102C36.5342 21.5078 33.5675 24.5341 31.5861 29.2323C32.0645 25.0921 33.4714 19.0613 37.609 17.6805Z" fill="#343738"/>
<path d="M40.4401 20.2102C36.5341 21.5078 33.5674 24.5342 31.5859 29.2323C32.0644 25.0922 33.4712 19.0613 37.6089 17.6806C38.2643 17.4617 38.9611 17.5383 39.4723 17.8841C40.1474 18.3436 40.4729 19.1248 40.4401 20.2102Z" fill="#F8A629"/>
<path d="M41.5237 20.464C41.5193 20.5319 41.515 20.5997 41.5084 20.6697C41.4866 20.8973 41.3293 21.0811 41.1217 21.1424H41.1196C41.0562 21.1621 40.9863 21.1686 40.9142 21.1621C40.8028 21.1533 40.7023 21.1096 40.6215 21.0439C40.5385 20.9783 40.4773 20.8885 40.4445 20.7857C40.4227 20.7179 40.4139 20.6435 40.4205 20.5669C40.4314 20.4443 40.438 20.324 40.4401 20.2102C40.4729 19.1248 40.1474 18.3436 39.4724 17.8841C38.9612 17.5383 38.2643 17.4617 37.6089 17.6806C33.4713 19.0613 32.0644 25.0922 31.586 29.2323C31.5008 29.9764 31.4462 30.6591 31.4112 31.2412C31.3762 31.7838 31.3588 32.239 31.3522 32.5804C31.3413 32.9983 31.3435 33.2434 31.3435 33.2609C31.3435 33.3003 31.3435 33.3397 31.3326 33.3791C31.3304 33.3878 31.3282 33.3944 31.326 33.4032C31.3238 33.4141 31.3194 33.4272 31.3173 33.4382C31.2474 33.6548 31.0464 33.8124 30.8061 33.8167H30.7973C30.7493 33.8167 30.7034 33.8102 30.6597 33.7992C30.4281 33.738 30.2555 33.5279 30.2512 33.2784V33.1996C30.2468 32.6482 30.2599 29.4512 31.0092 25.9609C32.1146 20.7944 34.2206 17.6587 37.2637 16.6411C38.2403 16.3151 39.2932 16.442 40.0862 16.9803C40.7438 17.4289 41.4822 18.2867 41.5346 19.8973C41.539 20.0767 41.5368 20.2649 41.5237 20.464Z" fill="black"/>
<path d="M59.2955 28.6197L59.2933 28.6153C56.7854 22.381 52.6893 15.8228 47.787 15.5536C44.6434 15.3808 44.7199 18.2495 44.8946 19.4793C44.9405 19.7923 44.9907 20.0002 44.9973 20.0242L45.4364 20.3481L45.7663 20.591H45.7685C45.8515 20.5954 45.9367 20.6019 46.0197 20.6085C46.0918 20.6129 46.1661 20.6194 46.2381 20.626C46.3212 20.6326 46.4042 20.6413 46.4872 20.6522C46.5309 20.6566 46.5724 20.661 46.6161 20.6676C46.6969 20.6763 46.7799 20.6873 46.8608 20.7004C47.0355 20.7245 47.2125 20.7551 47.3851 20.7879C47.4965 20.8098 47.6079 20.8317 47.7171 20.8558C48.0033 20.917 48.2895 20.9892 48.5735 21.0724C48.6456 21.0943 48.7177 21.1162 48.7898 21.138C48.8662 21.1599 48.9427 21.1862 49.0191 21.2103C49.0934 21.2343 49.1677 21.2606 49.242 21.2868C49.3162 21.3153 49.3905 21.3415 49.467 21.37C49.5413 21.3984 49.6155 21.4269 49.6898 21.4553C49.7641 21.4838 49.8384 21.5144 49.9126 21.5451C50.0612 21.6063 50.2097 21.672 50.3561 21.7398C50.651 21.8755 50.9438 22.0221 51.2321 22.1818C51.3042 22.2212 51.3763 22.2606 51.4484 22.3022C51.5926 22.3853 51.7346 22.4707 51.8788 22.5582C51.9705 22.6151 52.0601 22.672 52.1519 22.7311C52.2414 22.7902 52.3332 22.8493 52.4227 22.9105C52.5145 22.9718 52.6041 23.0353 52.6936 23.0987C52.7832 23.1622 52.8728 23.2256 52.9623 23.2913C53.0956 23.3876 53.2245 23.4882 53.3556 23.5911C53.6046 23.7858 53.8515 23.9915 54.0983 24.206C54.284 24.3679 54.4675 24.5342 54.6489 24.7071C54.7035 24.7574 54.7559 24.8077 54.8105 24.8603C54.935 24.9806 55.0596 25.1032 55.1841 25.2301C55.1906 25.2366 55.1972 25.2432 55.2059 25.252C55.3217 25.3701 55.4375 25.4905 55.5533 25.613C55.6756 25.7443 55.798 25.8778 55.9203 26.0135C56.0404 26.1491 56.1628 26.287 56.2829 26.427C56.3725 26.5321 56.4621 26.6393 56.5516 26.7465C56.6041 26.8078 56.6543 26.8713 56.7067 26.9347C56.7854 27.031 56.8619 27.1295 56.9405 27.2279C57.065 27.3855 57.1874 27.5452 57.3119 27.7072C57.3752 27.7903 57.4386 27.8757 57.5019 27.9632C57.5675 28.0507 57.6308 28.1383 57.6942 28.2258C57.7554 28.3133 57.8187 28.3987 57.8799 28.4862C57.941 28.5737 58.0044 28.6613 58.0656 28.7532C58.1202 28.8297 58.1726 28.9063 58.225 28.9851C58.5396 29.449 58.8498 29.9304 59.1557 30.4337L59.4943 30.681L60.272 31.2543C59.9793 30.3965 59.6538 29.5103 59.2955 28.6197ZM45.8777 16.7287C46.2622 16.2582 46.8804 16.0525 47.7564 16.1007C50.5658 16.2561 54.4785 19.1861 57.8733 26.6459C54.2534 22.0155 50.0896 19.6128 45.4451 19.4837C45.3272 18.7332 45.2813 17.4574 45.8777 16.7287Z" fill="#343738"/>
<path d="M57.8734 26.6459C54.2536 22.0156 50.0897 19.6129 45.4453 19.4837C45.3273 18.7332 45.2814 17.4574 45.8778 16.7287C46.2623 16.2583 46.8805 16.0526 47.7566 16.1007C50.566 16.2561 54.4786 19.1861 57.8734 26.6459Z" fill="#F8A629"/>
<path d="M60.5364 31.7312C60.508 31.7487 60.4796 31.7618 60.4468 31.7728C60.39 31.7925 60.3288 31.8012 60.272 31.8012C60.0448 31.8012 59.8307 31.659 59.7543 31.4314C59.6691 31.1776 59.5817 30.9281 59.4943 30.6808C59.278 30.0703 59.0574 29.4795 58.8346 28.9127C58.52 28.114 58.201 27.3634 57.8755 26.6501C57.8755 26.6501 57.8748 26.6486 57.8733 26.6457C54.4785 19.1859 50.5659 16.2559 47.7565 16.1005C46.8804 16.0524 46.2622 16.2581 45.8777 16.7285C45.2813 17.4572 45.3272 18.733 45.4452 19.4835C45.4714 19.6477 45.4998 19.7855 45.526 19.8884L45.5435 19.954V20.035C45.5435 20.151 45.502 20.2604 45.4364 20.3479C45.349 20.4704 45.2114 20.5536 45.0541 20.5711H45.0497C45.0323 20.5711 45.0148 20.5711 44.9973 20.5711C44.9908 20.5711 44.9842 20.5711 44.9777 20.5711H44.9733C44.7177 20.5623 44.508 20.3763 44.4599 20.1334C44.4555 20.1116 44.4468 20.0809 44.4381 20.0394C44.414 19.9256 44.3769 19.7374 44.3441 19.4967C44.2262 18.6236 44.1781 17.0808 45.0323 16.037C45.6461 15.2865 46.5812 14.9385 47.8155 15.0086C50.5309 15.1574 53.1852 17.048 55.7019 20.6302C57.6134 23.3458 59.4113 27.0352 60.7679 31.0222V31.0266C60.7767 31.0441 60.781 31.0616 60.7876 31.0791C60.875 31.3329 60.7636 31.6086 60.5364 31.7312Z" fill="black"/>
<path d="M68.0207 54.5068V54.5002C67.2757 50.3381 65.0868 40.0074 60.5363 31.7314C60.4511 31.5739 60.3615 31.4163 60.2741 31.261C60.2741 31.2588 60.2719 31.2566 60.2719 31.2544C59.8153 30.4491 59.3369 29.6657 58.8344 28.913C55.5204 23.9413 51.1752 20.2387 45.5434 20.0352C45.3642 20.0265 45.1807 20.0243 44.9972 20.0243C44.8137 20.0243 44.6258 20.0309 44.4379 20.0396C43.7716 20.0681 43.0879 20.1468 42.3866 20.2738C42.0917 20.3285 41.8055 20.3897 41.5237 20.4641C41.3336 20.5101 41.1479 20.5626 40.9644 20.6173C40.7875 20.6698 40.6149 20.7267 40.4445 20.7858C35.8612 22.3854 33.0649 26.368 31.4112 31.2413C31.1862 31.8999 30.983 32.5739 30.7995 33.261C30.7995 33.2632 30.7973 33.2676 30.7973 33.2698C30.7493 33.4448 30.7056 33.6221 30.6597 33.7993C28.2479 43.4211 29.456 55.2814 30.0196 59.5332C30.0851 60.0365 30.1419 60.4326 30.1834 60.7061L30.3254 60.7192C30.7012 58.6885 31.3828 56.765 32.3222 55.0013C34.8476 50.2528 39.2255 46.64 44.4904 45.1345C46.2381 44.6334 48.0862 44.3664 49.9956 44.3664C50.3626 44.3664 50.7274 44.3773 51.0879 44.397C56.5144 44.6881 61.3664 47.1477 64.7984 50.9246C66.2009 52.4673 67.3653 54.231 68.237 56.1589L68.2938 56.1458C68.2501 55.8569 68.1605 55.2923 68.0207 54.5068ZM66.6553 52.3492C66.6357 52.3207 66.6138 52.2901 66.592 52.2616C66.533 52.1807 66.474 52.1019 66.415 52.0231C66.3801 51.975 66.3429 51.9268 66.3058 51.8809C66.2686 51.8305 66.2315 51.7824 66.1922 51.7343C66.0873 51.5986 65.9803 51.4651 65.871 51.3338C65.8252 51.2769 65.7793 51.22 65.729 51.1631C65.7247 51.1544 65.7159 51.1456 65.7094 51.1369C65.6919 51.115 65.6744 51.0931 65.6548 51.0712C65.6198 51.0274 65.5827 50.9859 65.5434 50.9421C65.5215 50.918 65.4997 50.894 65.48 50.8699C65.4603 50.8436 65.4385 50.8196 65.4166 50.7955C65.3467 50.7145 65.2768 50.6357 65.2047 50.557C65.0911 50.4301 64.9754 50.3075 64.8574 50.185C64.8574 50.1828 64.8552 50.1828 64.8552 50.1828C64.7372 50.0602 64.6193 49.9399 64.4991 49.8195C64.4205 49.7386 64.3396 49.6598 64.2588 49.5832C64.1889 49.5154 64.119 49.4475 64.0469 49.3819C63.586 48.9464 63.1075 48.5372 62.6138 48.1521C62.5767 48.1215 62.5373 48.093 62.5002 48.0646C62.4871 48.0514 62.4718 48.0405 62.4587 48.0317C62.4172 47.9989 62.3735 47.9661 62.332 47.9354C62.3254 47.9289 62.3189 47.9245 62.3123 47.9223C62.249 47.8742 62.1856 47.826 62.1223 47.7801C62.1223 47.7757 62.1179 47.7757 62.1157 47.7757C62.107 47.767 62.0961 47.7582 62.0873 47.7538C61.7269 47.489 61.3598 47.2374 60.9863 47.0011C60.9601 46.9836 60.9338 46.9661 60.9076 46.9507H60.9054C60.8792 46.9354 60.853 46.9179 60.8268 46.9026C60.036 46.408 59.2146 45.9704 58.3669 45.5918C58.2162 45.5262 58.0655 45.4605 57.9147 45.3971H57.9125C57.6089 45.2702 57.3009 45.1498 56.9907 45.0382H56.9885C56.8334 44.9813 56.6783 44.9266 56.5231 44.8763C56.3899 44.8325 56.2588 44.7887 56.1255 44.7472C56.1015 44.7406 56.0775 44.734 56.0535 44.7253L55.9683 44.699C55.8568 44.6662 55.7454 44.6334 55.634 44.6027C55.4942 44.5634 55.3522 44.524 55.2102 44.4868C55.1752 44.4758 55.1381 44.4671 55.1032 44.4583C55.0835 44.4539 55.0638 44.4496 55.0442 44.4452C54.8978 44.408 54.7514 44.373 54.6051 44.3401C54.4434 44.3029 54.2796 44.2679 54.1157 44.2351C54.0305 44.2176 53.9453 44.2001 53.8579 44.1848C53.6176 44.1388 53.373 44.0973 53.1283 44.0601C52.9907 44.0382 52.853 44.0185 52.7132 44.001C52.6673 43.9944 52.6215 43.9878 52.5734 43.9835H52.5712C52.5712 43.9835 52.5647 43.9835 52.5603 43.9813C52.4598 43.9703 52.3571 43.9572 52.2544 43.9441C52.2282 43.9419 52.1998 43.9375 52.1736 43.9353C51.9967 43.9178 51.8175 43.9003 51.6406 43.8872C51.634 43.8872 51.6296 43.8872 51.6231 43.8872C51.5925 43.885 51.5619 43.8828 51.5313 43.8806C51.5204 43.8806 51.5073 43.8806 51.4964 43.8806H51.4898C51.3653 43.8719 51.243 43.8631 51.1184 43.8565C51.0223 43.85 50.9262 43.8456 50.8323 43.8412C50.5461 43.8303 50.2686 43.8237 49.9977 43.8237H49.989C49.8317 43.8237 49.6744 43.8259 49.5171 43.8303C49.3162 43.8347 49.1152 43.8412 48.9142 43.8522C48.6761 43.8631 48.4379 43.8806 48.1998 43.9003C48.0294 43.9156 47.8612 43.9331 47.693 43.9528C47.5663 43.966 47.4396 43.9813 47.3151 43.9988C47.2779 44.0032 47.2408 44.0075 47.2036 44.0141C47.1447 44.0207 47.0879 44.0294 47.0289 44.0382C47.0049 44.0404 46.9786 44.0447 46.9546 44.0491C46.8694 44.0601 46.782 44.0754 46.6968 44.0885C46.6772 44.0907 46.6575 44.0951 46.6378 44.0994C46.6138 44.0994 46.5898 44.106 46.5657 44.1104C45.8142 44.2373 45.0715 44.4036 44.3418 44.6137C44.2173 44.6487 44.0928 44.6859 43.9683 44.7253C43.8459 44.7625 43.7214 44.8019 43.5991 44.8434C43.3522 44.9222 43.1075 45.0076 42.865 45.0995C42.7143 45.1542 42.5636 45.2133 42.415 45.2723C42.3932 45.2811 42.3691 45.2899 42.3473 45.2986C42.2381 45.3424 42.1288 45.3883 42.0218 45.4343C42.0174 45.4343 42.0152 45.4365 42.013 45.4387C41.9366 45.4693 41.8623 45.5021 41.788 45.5349C41.6679 45.5875 41.5499 45.64 41.4341 45.6925C41.2768 45.7647 41.1217 45.8391 40.9688 45.9157C40.8421 45.977 40.7176 46.0404 40.5931 46.1061C40.5319 46.1345 40.4729 46.1673 40.4117 46.2002C40.3964 46.2067 40.3833 46.2155 40.368 46.2242C40.2741 46.2724 40.1802 46.3249 40.0862 46.3774C39.6253 46.6312 39.1752 46.9048 38.734 47.1936C38.4478 47.3818 38.166 47.5766 37.8885 47.7801C36.8508 48.5416 35.8831 49.3972 35.0027 50.3381C34.9131 50.4322 34.8257 50.5263 34.7405 50.6226C34.6531 50.7167 34.5679 50.813 34.4827 50.9093C34.4063 50.999 34.332 51.0865 34.2599 51.1741C34.2228 51.2178 34.1878 51.2616 34.1507 51.3054H34.1485C34.0371 51.4388 33.93 51.5723 33.8252 51.7058C33.6133 51.9771 33.4057 52.2551 33.2047 52.5395C33.1785 52.5789 33.1501 52.6183 33.1239 52.6577C33.1195 52.6599 33.1174 52.6643 33.1174 52.6665C33.0824 52.7168 33.0474 52.7649 33.0125 52.8153C32.9797 52.8656 32.9448 52.9159 32.912 52.9662C32.8159 53.1085 32.7219 53.2529 32.628 53.3973C32.5144 53.579 32.4008 53.7628 32.2916 53.9488C32.2413 54.0341 32.1911 54.1194 32.1408 54.207C32.0382 54.3864 31.9377 54.5659 31.8416 54.7497C31.6952 55.0232 31.5554 55.3011 31.4221 55.5834C31.3566 55.7212 31.291 55.8613 31.2277 56.0035C31.1643 56.1458 31.1032 56.288 31.042 56.4324C30.983 56.5747 30.924 56.7191 30.8672 56.8635C30.8213 56.9795 30.7755 57.0977 30.7318 57.2158C30.7077 57.2793 30.6837 57.3427 30.6619 57.4062C30.6225 57.5156 30.5832 57.625 30.5461 57.7344C30.5199 57.8088 30.4958 57.8811 30.4718 57.9555C30.4478 58.0299 30.4237 58.1021 30.3997 58.1765C30.0742 55.3755 29.6788 50.8371 29.7749 45.861C29.7837 45.4474 29.7946 45.0294 29.8099 44.6093C29.8274 44.1345 29.8492 43.6596 29.8754 43.1804C29.8885 42.9397 29.9038 42.7011 29.9213 42.4604C29.9366 42.2219 29.9541 41.9812 29.9737 41.7405C29.9934 41.4867 30.0152 41.2306 30.0393 40.9768C30.1135 40.1672 30.2053 39.3553 30.3145 38.55C30.3517 38.2831 30.391 38.0139 30.4325 37.7469C30.5373 37.0642 30.6553 36.3859 30.7908 35.7162C30.8257 35.5368 30.8629 35.3574 30.9022 35.1779C30.9393 35.0073 30.9764 34.8366 31.0158 34.6659C31.0398 34.5652 31.0638 34.4624 31.0879 34.3617C31.16 34.0532 31.2386 33.7468 31.3194 33.4427C31.3216 33.4317 31.326 33.4186 31.3282 33.4076C31.3304 33.3989 31.3325 33.3923 31.3347 33.3836C31.444 32.9722 31.5619 32.5695 31.6821 32.1778C31.6821 32.1757 31.6843 32.1757 31.6821 32.1735H31.6843C31.7389 31.9962 31.7935 31.8233 31.8503 31.6527C32.0032 31.1909 32.1627 30.7445 32.3309 30.3135C32.3855 30.1756 32.4401 30.0377 32.4969 29.9021C32.569 29.7226 32.6455 29.5454 32.7219 29.3703C32.7984 29.1953 32.8749 29.0246 32.9557 28.8561C33.0343 28.6854 33.1152 28.5191 33.1982 28.355C33.2725 28.204 33.3511 28.053 33.4276 27.9064C33.4363 27.8932 33.4429 27.8823 33.4472 27.8714C33.5324 27.7116 33.6198 27.5541 33.7072 27.4009C33.7968 27.2477 33.8841 27.0967 33.9759 26.9479C34.0393 26.8429 34.1026 26.74 34.1703 26.6394C34.1769 26.6262 34.1856 26.6131 34.1944 26.6022C34.2949 26.4424 34.3975 26.2871 34.5046 26.1361C34.5636 26.0507 34.6225 25.9654 34.6859 25.8822C34.7056 25.8494 34.7296 25.8188 34.7536 25.7881C34.7973 25.7247 34.8432 25.6612 34.8934 25.6C34.948 25.5256 35.0027 25.4533 35.0616 25.3811C35.0922 25.3396 35.1272 25.2958 35.16 25.2564C35.2495 25.1426 35.3413 25.0332 35.4352 24.926C35.4571 24.8997 35.4789 24.8735 35.5008 24.8472C35.5707 24.764 35.6428 24.6853 35.7148 24.6065C36.1474 24.1273 36.604 23.694 37.0824 23.3023C37.1152 23.2738 37.1501 23.2476 37.1829 23.2213C37.2878 23.136 37.3948 23.0528 37.5018 22.9719C37.6176 22.8843 37.7378 22.799 37.8558 22.7158C38.0021 22.6152 38.1485 22.5189 38.2992 22.427C38.3757 22.3767 38.4521 22.3307 38.5308 22.2848C38.5636 22.2629 38.5985 22.2432 38.6335 22.2235C38.7296 22.1666 38.8279 22.1119 38.9284 22.0594C39.018 22.009 39.1097 21.9609 39.2015 21.9171C39.2932 21.869 39.385 21.823 39.4767 21.7793C39.575 21.7333 39.6755 21.6874 39.7782 21.6436C39.835 21.6173 39.894 21.5911 39.953 21.5692C39.9639 21.5626 39.977 21.5561 39.9901 21.5539C40.0753 21.5167 40.1605 21.4817 40.2479 21.4488C40.2719 21.4379 40.2981 21.4292 40.3243 21.4204C40.5843 21.3197 40.8508 21.23 41.1217 21.1469H41.1239C41.5718 21.0112 42.0283 20.8996 42.4871 20.8164C42.6968 20.7771 42.9065 20.7442 43.1163 20.7158C43.1512 20.7114 43.184 20.7048 43.2189 20.7027C43.3806 20.6786 43.5423 20.6611 43.7017 20.6458C43.7782 20.637 43.8547 20.6304 43.9311 20.6239C44.0753 20.6107 44.2195 20.602 44.3637 20.5954C44.4576 20.5889 44.5537 20.5845 44.6477 20.5823C44.7569 20.5779 44.8661 20.5757 44.9754 20.5757H45.0562C45.2943 20.5757 45.5324 20.5823 45.7684 20.5954H45.7706C45.8536 20.5998 45.9388 20.6064 46.0218 20.6129C46.0939 20.6173 46.1681 20.6239 46.2402 20.6304C46.3233 20.637 46.4063 20.6458 46.4893 20.6567C46.533 20.6611 46.5745 20.6655 46.6182 20.672C46.699 20.6808 46.782 20.6917 46.8629 20.7048C47.0376 20.7289 47.2146 20.7595 47.3872 20.7924C47.4986 20.8121 47.6078 20.8339 47.7192 20.8602C48.0054 20.9215 48.2916 20.9937 48.5756 21.0768C48.6477 21.0987 48.7198 21.1206 48.7919 21.1425C48.8683 21.1644 48.9448 21.1906 49.0212 21.2147C49.0955 21.2388 49.1698 21.265 49.2441 21.2913C49.3183 21.3197 49.3926 21.346 49.4691 21.3744C49.5434 21.4029 49.6176 21.4313 49.6919 21.4598C49.7662 21.4882 49.8405 21.5189 49.9147 21.5495C50.0633 21.6108 50.2118 21.6764 50.3582 21.7443C50.6531 21.8799 50.9459 22.0265 51.2342 22.1863C51.3063 22.2257 51.3784 22.2651 51.4505 22.3066C51.5947 22.3876 51.7389 22.4729 51.8809 22.5627C51.9726 22.6174 52.0644 22.6765 52.1539 22.7355C52.2457 22.7924 52.3353 22.8537 52.4248 22.915C52.5144 22.9741 52.604 23.0375 52.6957 23.1032C52.7853 23.1666 52.8749 23.2301 52.9644 23.2957C53.0977 23.392 53.2266 23.4927 53.3577 23.5955C53.6067 23.7903 53.8536 23.996 54.1004 24.2104C54.2861 24.3723 54.4696 24.5387 54.6509 24.7115C54.7056 24.7619 54.758 24.8122 54.8126 24.8647C54.9371 24.9851 55.0616 25.1076 55.1862 25.2345C55.1927 25.2411 55.1993 25.2476 55.208 25.2564C55.3238 25.3746 55.4396 25.4949 55.5554 25.6175C55.6777 25.7488 55.8 25.8822 55.9224 26.0179C56.0425 26.1536 56.1649 26.2914 56.285 26.4315C56.3746 26.5365 56.4642 26.6438 56.5537 26.751C56.6062 26.8123 56.6564 26.8757 56.7088 26.9392C56.7875 27.0355 56.8639 27.1339 56.9426 27.2324C57.0671 27.3899 57.1894 27.5497 57.314 27.7116C57.3773 27.7948 57.4407 27.8801 57.504 27.9676C57.5696 28.0552 57.6329 28.1427 57.6963 28.2302C57.7574 28.3178 57.8208 28.4031 57.882 28.4906C57.9431 28.5782 58.0065 28.6657 58.0677 28.7576C58.1223 28.8342 58.1747 28.9108 58.2271 28.9896C58.5417 29.4535 58.8519 29.9349 59.1578 30.4382C59.2583 30.6023 59.3588 30.7686 59.4592 30.9393C59.5488 31.0925 59.6406 31.25 59.7301 31.4076L59.8 31.5367C64.0054 38.9592 66.2533 48.3184 67.208 53.1501C67.0769 52.9509 66.9415 52.754 66.8039 52.5592C66.7558 52.4892 66.7077 52.4214 66.6575 52.3535L66.6553 52.3492Z" fill="#343738"/>
<path d="M68.8683 56.2989L68.853 56.2026V56.196L68.8334 56.0648C68.6062 54.5636 66.4631 41.1606 60.8181 31.1143L60.77 31.0268V31.0224L60.746 30.9852C60.2741 30.1515 59.7913 29.3637 59.2954 28.6197L59.2932 28.6153C58.8301 27.9216 58.3582 27.2652 57.8754 26.6503C57.8754 26.6503 57.8747 26.6488 57.8732 26.6459C54.2533 22.0155 50.0895 19.6128 45.445 19.4837C45.314 19.4794 45.1829 19.4772 45.0496 19.4772H44.9928C44.9601 19.4772 44.9273 19.4772 44.8945 19.4772C44.7132 19.4772 44.5297 19.4837 44.344 19.4947C43.669 19.5275 42.9786 19.6085 42.2883 19.7332C42.0371 19.7792 41.7837 19.8339 41.5346 19.8951C41.3511 19.9389 41.1698 19.987 40.9907 20.0396C40.9295 20.0549 40.8683 20.0746 40.8071 20.0921C40.6848 20.1293 40.5625 20.1687 40.4401 20.208C36.5341 21.5057 33.5674 24.532 31.586 29.2302C31.3304 29.8385 31.0901 30.4731 30.865 31.1384C30.6531 31.773 30.4543 32.4338 30.2708 33.1187L30.2512 33.1975C27.3566 44.1147 29.2353 58.0911 29.6417 60.787L29.6963 61.1437V61.1502L29.7072 61.2093L30.7711 61.3078L30.8148 61.0715L30.8607 60.8176C30.8803 60.7126 30.9 60.6097 30.9218 60.5069C31.0223 60.0036 31.1425 59.5069 31.2845 59.0167C31.3194 58.8985 31.3544 58.7804 31.3893 58.6622C31.4177 58.5703 31.4461 58.4762 31.4767 58.3843C31.5051 58.2924 31.5357 58.2005 31.5685 58.1086C31.6493 57.8635 31.7389 57.6228 31.8306 57.3821C31.859 57.3077 31.8874 57.2355 31.918 57.1632C32.0032 56.9444 32.095 56.73 32.1911 56.5155C32.237 56.4083 32.285 56.3033 32.3353 56.1982C32.403 56.0494 32.4729 55.9028 32.5472 55.7562C32.5559 55.7365 32.5647 55.719 32.5756 55.6993C32.6499 55.5505 32.7241 55.4039 32.8028 55.2573C32.9055 55.0647 33.0103 54.8743 33.1217 54.6861C33.1916 54.5614 33.2659 54.4367 33.3424 54.312C33.3882 54.231 33.4385 54.1522 33.4887 54.0734C33.5215 54.0209 33.5543 53.9684 33.5892 53.9159C33.6482 53.8218 33.7072 53.7299 33.7706 53.638C33.8514 53.5154 33.9344 53.3951 34.0174 53.2747C34.0655 53.2025 34.1157 53.1325 34.166 53.0647C34.2905 52.8896 34.4194 52.7167 34.5505 52.546C34.6138 52.4607 34.6793 52.3775 34.7471 52.2944C34.8148 52.209 34.8803 52.1259 34.9502 52.0449C35.0114 51.9683 35.0748 51.8939 35.1381 51.8195C35.149 51.8042 35.1621 51.7889 35.1731 51.7758C35.1905 51.7561 35.208 51.7342 35.2255 51.7145C35.2714 51.6598 35.3172 51.6073 35.3653 51.5548C35.492 51.406 35.6253 51.2615 35.7607 51.1193C35.8612 51.0099 35.9639 50.9027 36.0688 50.7954C36.1146 50.7473 36.1605 50.7013 36.2086 50.6554C36.3091 50.5525 36.4117 50.4519 36.5144 50.3534C36.5144 50.3534 36.5159 50.3519 36.5188 50.349L36.5231 50.3447C36.5821 50.2878 36.6433 50.2287 36.7023 50.174C36.7809 50.1018 36.8596 50.0296 36.9382 49.9573C37.0169 49.8851 37.0977 49.8151 37.1763 49.7451C37.338 49.6028 37.4997 49.4628 37.6657 49.3293C37.7378 49.2702 37.8121 49.209 37.8885 49.1499C38.0633 49.0098 38.2402 48.8742 38.4216 48.7385C38.4849 48.6903 38.5483 48.6444 38.6138 48.5962C38.6313 48.5831 38.6509 48.57 38.6684 48.5569C39.018 48.3074 39.3762 48.0667 39.7411 47.8391C40.0163 47.6684 40.2959 47.5043 40.5799 47.3446C41.1479 47.0295 41.7334 46.7406 42.3342 46.4824C42.4281 46.443 42.5221 46.4036 42.616 46.3642C42.8978 46.2482 43.184 46.1388 43.4724 46.036C43.5794 45.9966 43.6886 45.9594 43.7957 45.9222C44.0753 45.8281 44.3571 45.7406 44.6411 45.6596C44.8552 45.5983 45.0715 45.5393 45.2899 45.4845C45.3992 45.4583 45.5106 45.432 45.6198 45.4058C45.8383 45.3554 46.0589 45.3073 46.2796 45.2657C46.5089 45.222 46.7383 45.1804 46.9677 45.1454C47.0726 45.1279 47.1753 45.1125 47.2801 45.0994C47.3937 45.0841 47.5051 45.0688 47.6165 45.0557C47.728 45.0403 47.8394 45.0294 47.953 45.0184C48.0644 45.0053 48.178 44.9944 48.2916 44.9856C48.5581 44.9616 48.8268 44.944 49.0955 44.9309C49.1174 44.9309 49.1392 44.9287 49.1632 44.9287C49.2834 44.9222 49.4035 44.92 49.5259 44.9178C49.681 44.9134 49.8383 44.9112 49.9934 44.9112C50.3342 44.9112 50.6903 44.9222 51.0551 44.9419C51.3762 44.9594 51.6952 44.9856 52.012 45.0163C52.3287 45.0491 52.6455 45.0907 52.9579 45.1366C53.2725 45.1848 53.5827 45.2395 53.8929 45.3029C54.2031 45.3664 54.5089 45.4364 54.8148 45.513C55.1206 45.5918 55.4221 45.6749 55.7214 45.7668C55.8721 45.8128 56.0229 45.8609 56.1714 45.9113C56.32 45.9616 56.4664 46.0119 56.6127 46.0644C56.7263 46.106 56.8377 46.1476 56.9491 46.1892C56.9557 46.1914 56.9601 46.1935 56.9666 46.1957C57.0671 46.2351 57.1698 46.2745 57.2703 46.3161C57.3751 46.3577 57.4778 46.4014 57.5827 46.443C57.5958 46.4518 57.6111 46.4561 57.6242 46.4627C57.8077 46.5393 57.989 46.6203 58.1703 46.7056C58.1747 46.7078 58.1769 46.71 58.1813 46.71C58.308 46.7669 58.4303 46.8281 58.5548 46.8894C58.6597 46.9419 58.7645 46.9944 58.8694 47.047C59.0857 47.1586 59.302 47.2745 59.5139 47.3927C59.5838 47.4321 59.6515 47.4737 59.7214 47.5109C59.7695 47.5415 59.8175 47.5678 59.8656 47.5962C59.8765 47.6028 59.8852 47.6093 59.8962 47.6159C59.9639 47.6553 60.0316 47.6969 60.0972 47.7363C60.2981 47.8588 60.4969 47.9857 60.6935 48.1148C60.7919 48.1805 60.8902 48.2461 60.9863 48.314C61.0846 48.3796 61.1807 48.4474 61.2768 48.5175C61.373 48.5853 61.4669 48.6553 61.563 48.7254C61.563 48.7254 61.563 48.7275 61.5652 48.7275C61.8164 48.9157 62.0655 49.1083 62.3102 49.3096C62.5548 49.5109 62.7951 49.7166 63.0311 49.9311C63.149 50.0383 63.267 50.1477 63.3828 50.2593C63.4592 50.3315 63.5357 50.4037 63.61 50.4803C63.6493 50.5175 63.6886 50.5547 63.7258 50.5941C63.953 50.8217 64.1758 51.0537 64.3921 51.2922C64.4816 51.3906 64.5734 51.4935 64.6608 51.5941C64.6695 51.6029 64.6783 51.6138 64.6848 51.6226C64.7241 51.6685 64.7656 51.7145 64.8028 51.7605C64.8071 51.7648 64.8093 51.7692 64.8159 51.7736C64.9033 51.8786 64.9928 51.9837 65.0759 52.0887C65.1523 52.1784 65.2244 52.2703 65.2943 52.36C65.3686 52.4519 65.4407 52.5438 65.5084 52.6379C65.5587 52.7036 65.6089 52.7692 65.6548 52.8327C65.7006 52.8918 65.7443 52.9531 65.7858 53.0121C65.8339 53.0778 65.8798 53.1412 65.9235 53.2069C65.9912 53.301 66.0567 53.3951 66.1201 53.4914C66.1725 53.568 66.2228 53.6445 66.2752 53.7233C66.3189 53.7912 66.3648 53.859 66.4085 53.929C66.4456 53.9903 66.4849 54.0516 66.5242 54.1128C66.5898 54.2201 66.6553 54.3273 66.723 54.4367C66.7449 54.4761 66.7689 54.5155 66.7908 54.5549C66.8279 54.6205 66.865 54.684 66.9022 54.7496C66.9786 54.8809 67.0529 55.0144 67.125 55.1479C67.1621 55.2135 67.1971 55.2814 67.2321 55.3492C67.291 55.463 67.35 55.5768 67.4068 55.6906C67.444 55.765 67.4811 55.8394 67.516 55.9159C67.5925 56.0713 67.6646 56.2267 67.7367 56.3842L67.7607 56.4367L67.9224 56.7912L68.8683 56.5702L68.9055 56.5615L68.8661 56.2967L68.8683 56.2989ZM64.2566 49.5831C64.1867 49.5153 64.1168 49.4475 64.0447 49.3818C63.5838 48.9464 63.1053 48.5372 62.6116 48.152C62.5745 48.1214 62.5352 48.0929 62.498 48.0645C62.4849 48.0514 62.4696 48.0404 62.4565 48.0317C62.415 47.9988 62.3713 47.966 62.3298 47.9354C62.3233 47.9288 62.3167 47.9244 62.3102 47.9223C62.2468 47.8741 62.1834 47.826 62.1201 47.78C62.1201 47.7756 62.1157 47.7757 62.1135 47.7757C62.1048 47.7669 62.0939 47.7581 62.0851 47.7538C61.7247 47.489 61.3577 47.2373 60.9841 47.001C60.9579 46.9835 60.9317 46.966 60.9055 46.9507H60.9033C60.8771 46.9354 60.8508 46.9179 60.8246 46.9025C60.0338 46.408 59.2124 45.9703 58.3648 45.5918C58.214 45.5261 58.0633 45.4605 57.9126 45.397H57.9104C57.6067 45.2701 57.2987 45.1497 56.9885 45.0381H56.9863C56.8312 44.9813 56.6761 44.9265 56.521 44.8762C56.5079 44.8696 56.4969 44.8653 56.4838 44.8609C56.3637 44.8215 56.2457 44.7843 56.1255 44.7471C56.1015 44.7405 56.0775 44.734 56.0535 44.7252L55.9683 44.699C55.9399 44.6902 55.9115 44.6815 55.8831 44.6727C55.8 44.6486 55.717 44.6246 55.634 44.6027C55.4942 44.5633 55.3522 44.5239 55.2102 44.4867C55.1753 44.4758 55.1381 44.467 55.1032 44.4583C55.0835 44.4539 55.0638 44.4495 55.0442 44.4451C55.0223 44.4386 55.0005 44.432 54.9786 44.4276C54.9437 44.4189 54.9109 44.4101 54.8781 44.4036L54.8323 44.3904C54.8192 44.3882 54.8061 44.3839 54.7929 44.3817C54.7296 44.3664 54.6684 44.3532 54.6051 44.3401C54.4805 44.3095 54.3582 44.2832 54.2337 44.2569C54.1944 44.2504 54.155 44.2416 54.1157 44.2351C54.0305 44.2176 53.9453 44.2 53.8579 44.1847C53.8208 44.176 53.7837 44.1672 53.7465 44.1607C53.6242 44.1388 53.4997 44.1169 53.3773 44.0972C53.2943 44.0841 53.2113 44.0709 53.1283 44.06C53.0453 44.0469 52.9623 44.0337 52.8792 44.0228C52.8246 44.014 52.7678 44.0075 52.7132 44.0009C52.6673 43.9943 52.6215 43.9878 52.5734 43.9834H52.5712C52.5712 43.9834 52.5647 43.9834 52.5603 43.9812C52.4598 43.9703 52.3571 43.9571 52.2544 43.944C52.2282 43.9418 52.1998 43.9375 52.1736 43.9353C51.9967 43.9178 51.8175 43.9003 51.6406 43.8871C51.634 43.8871 51.6296 43.8871 51.6231 43.8871C51.5925 43.8849 51.5619 43.8827 51.5313 43.8806C51.5204 43.8806 51.5073 43.8806 51.4964 43.8806H51.4898C51.3653 43.8718 51.243 43.8631 51.1185 43.8565C51.0223 43.8499 50.9262 43.8455 50.8323 43.8412C50.5461 43.8302 50.2686 43.8237 49.9978 43.8237H49.989C49.8317 43.8237 49.6744 43.8259 49.5171 43.8302C49.3162 43.8346 49.1152 43.8412 48.9142 43.8521C48.6761 43.8631 48.438 43.8806 48.1998 43.9003C48.0294 43.9156 47.8612 43.9331 47.693 43.9528C47.5663 43.9659 47.4396 43.9812 47.3151 43.9987C47.2779 44.0031 47.2408 44.0075 47.2036 44.014C47.1447 44.0206 47.0879 44.0294 47.0289 44.0381C47.0049 44.0403 46.9786 44.0447 46.9546 44.0491C46.8694 44.06 46.782 44.0753 46.6968 44.0884C46.6772 44.0906 46.6575 44.095 46.6378 44.0994C46.6138 44.0994 46.5898 44.1059 46.5657 44.1103C45.8142 44.2372 45.0715 44.4036 44.3418 44.6136C44.2173 44.6486 44.0928 44.6858 43.9683 44.7252C43.8459 44.7624 43.7214 44.8018 43.5991 44.8434C43.3522 44.9222 43.1075 45.0075 42.865 45.0994C42.7143 45.1541 42.5636 45.2132 42.415 45.2723C42.3932 45.281 42.3691 45.2898 42.3473 45.2985C42.2381 45.3423 42.1288 45.3883 42.0218 45.4342C42.0174 45.4342 42.0152 45.4364 42.013 45.4386C41.9366 45.4692 41.8623 45.5021 41.788 45.5349C41.6679 45.5874 41.5499 45.6399 41.4341 45.6924C41.2768 45.7646 41.1217 45.839 40.9688 45.9134C40.8421 45.9769 40.7176 46.0404 40.5931 46.106C40.5319 46.1345 40.4729 46.1673 40.4117 46.2001C40.3964 46.2067 40.3833 46.2154 40.368 46.2242C40.2741 46.2723 40.1802 46.3248 40.0862 46.3774C39.6253 46.6312 39.1753 46.9047 38.734 47.1936C38.4478 47.3818 38.166 47.5787 37.8885 47.78C36.8508 48.5415 35.8831 49.3971 35.0027 50.3381C34.9131 50.4322 34.8257 50.5263 34.7405 50.6226C34.6531 50.7167 34.5679 50.8129 34.4827 50.9092C34.4063 50.9989 34.332 51.0865 34.2599 51.174C34.2228 51.2178 34.1878 51.2615 34.1507 51.3053C34.1485 51.3053 34.1485 51.3075 34.1485 51.3075C34.0371 51.4388 33.93 51.5723 33.8252 51.7057C33.6133 51.9771 33.4057 52.255 33.2047 52.5395C33.1785 52.5789 33.1501 52.6183 33.1239 52.6576C33.1195 52.6598 33.1174 52.6642 33.1174 52.6664C33.0824 52.7167 33.0475 52.7649 33.0125 52.8152C32.9797 52.8655 32.9448 52.9159 32.912 52.9662C32.8945 52.9903 32.8792 53.0121 32.8639 53.0362C32.8618 53.0384 32.8596 53.0428 32.8574 53.045C32.7809 53.1609 32.7045 53.2791 32.628 53.3973C32.5144 53.5789 32.4008 53.7627 32.2916 53.9487C32.2413 54.034 32.1911 54.1194 32.1408 54.2069C32.0382 54.3864 31.9377 54.5658 31.8416 54.7496C31.6952 55.0231 31.5554 55.301 31.4221 55.5833C31.3566 55.7212 31.291 55.8612 31.2277 56.0035C31.1643 56.1457 31.1032 56.2879 31.042 56.4324C30.9961 56.5396 30.9524 56.6468 30.9087 56.754C30.8956 56.7912 30.8803 56.8263 30.8672 56.8635C30.8388 56.9357 30.8104 57.0079 30.782 57.0801C30.7667 57.1239 30.7493 57.1698 30.7318 57.2158C30.7077 57.2792 30.6837 57.3427 30.6619 57.4061C30.6225 57.5156 30.5832 57.625 30.5461 57.7344C30.5199 57.8088 30.4958 57.881 30.4718 57.9554C30.4478 58.0298 30.4237 58.102 30.3997 58.1764C30.0742 55.3755 29.6788 50.837 29.7749 45.8609C29.7837 45.4473 29.7946 45.0294 29.8099 44.6092C29.8274 44.1344 29.8492 43.6595 29.8754 43.1803C29.8885 42.9396 29.9038 42.7011 29.9213 42.4604C29.9366 42.2219 29.9541 41.9812 29.9737 41.7404C29.9934 41.4866 30.0152 41.2306 30.0393 40.9767C30.1135 40.1671 30.2053 39.3553 30.3145 38.55C30.3517 38.283 30.391 38.0139 30.4325 37.7469C30.5373 37.0642 30.6553 36.3858 30.7908 35.7162C30.8257 35.5368 30.8629 35.3573 30.9022 35.1779C30.9393 35.0072 30.9765 34.8365 31.0158 34.6658C31.0398 34.5652 31.0638 34.4623 31.0879 34.3617C31.16 34.0531 31.2386 33.7468 31.3194 33.4426C31.3216 33.4317 31.326 33.4185 31.3282 33.4076C31.3304 33.3988 31.3325 33.3923 31.3347 33.3835C31.444 32.9721 31.5619 32.5695 31.6821 32.1778C31.6821 32.1756 31.6843 32.1756 31.6821 32.1734C31.7367 31.9984 31.7935 31.8233 31.8503 31.6526C32.0032 31.1909 32.1627 30.7445 32.3309 30.3134C32.3833 30.1755 32.4379 30.0377 32.4969 29.902C32.569 29.7226 32.6433 29.5453 32.7219 29.3703C32.7984 29.1952 32.8749 29.0245 32.9557 28.856C33.0322 28.6853 33.113 28.519 33.1982 28.3549C33.2725 28.2039 33.3511 28.0529 33.4276 27.9063C33.4363 27.8932 33.4429 27.8822 33.4472 27.8713C33.5324 27.7116 33.6198 27.554 33.7072 27.4008C33.7968 27.2477 33.8842 27.0967 33.9759 26.9479C34.0393 26.8428 34.1026 26.74 34.1703 26.6393C34.1769 26.6262 34.1834 26.6153 34.1944 26.6021C34.2949 26.4424 34.3975 26.287 34.5046 26.136C34.5636 26.0507 34.6225 25.9653 34.6859 25.8822C34.7056 25.8494 34.7296 25.8187 34.7536 25.7881C34.7995 25.7246 34.8454 25.6612 34.8934 25.5999C34.9481 25.5255 35.0027 25.4533 35.0617 25.3811C35.0944 25.3395 35.1272 25.2979 35.16 25.2563C35.2495 25.1426 35.3413 25.0331 35.4352 24.9259C35.4571 24.8997 35.4789 24.8734 35.5008 24.8471C35.5707 24.764 35.6428 24.6852 35.7148 24.6064C36.1474 24.1272 36.604 23.6939 37.0824 23.3022C37.1152 23.2738 37.1501 23.2475 37.1829 23.2213C37.2878 23.1359 37.3948 23.0528 37.5018 22.9718C37.6176 22.8843 37.7378 22.7989 37.8558 22.7158C38.0021 22.6151 38.1485 22.5188 38.2992 22.4269C38.3757 22.3766 38.4521 22.3307 38.5308 22.2847C38.5636 22.2628 38.5985 22.2431 38.6335 22.2234C38.7296 22.1665 38.8279 22.1118 38.9284 22.0593C39.018 22.0112 39.1097 21.963 39.2015 21.9171C39.2932 21.8689 39.385 21.823 39.4767 21.7792C39.575 21.7333 39.6755 21.6873 39.7782 21.6435C39.835 21.6173 39.894 21.5932 39.953 21.5691C39.9639 21.5626 39.977 21.556 39.9901 21.5538C40.0753 21.5166 40.1605 21.4816 40.2479 21.4488C40.2719 21.4378 40.2981 21.4291 40.3243 21.4203C40.5843 21.3197 40.8508 21.23 41.1217 21.1468H41.1239C41.5718 21.0111 42.0283 20.8995 42.4871 20.8164C42.6968 20.777 42.9065 20.7442 43.1163 20.7157C43.1512 20.7113 43.184 20.7048 43.2189 20.7026C43.3806 20.6785 43.5423 20.661 43.7017 20.6457C43.7782 20.6369 43.8547 20.6304 43.9311 20.6238C44.0753 20.6107 44.2195 20.6019 44.3637 20.5954C44.4576 20.5888 44.5537 20.5844 44.6477 20.5822C44.7569 20.5779 44.8661 20.5757 44.9754 20.5757H45.0562C45.2943 20.5757 45.5324 20.5822 45.7684 20.5954H45.7706C45.8536 20.5997 45.9388 20.6063 46.0218 20.6129C46.0939 20.6173 46.1682 20.6238 46.2402 20.6304C46.3233 20.6369 46.4063 20.6457 46.4893 20.6566C46.533 20.661 46.5745 20.6654 46.6182 20.672C46.699 20.6807 46.782 20.6917 46.8629 20.7048C47.0376 20.7289 47.2146 20.7595 47.3872 20.7923C47.4986 20.8142 47.61 20.8361 47.7192 20.8601C48.0054 20.9214 48.2916 20.9936 48.5756 21.0768C48.6477 21.0987 48.7198 21.1206 48.7919 21.1424C48.8683 21.1643 48.9448 21.1906 49.0212 21.2146C49.0955 21.2387 49.1698 21.265 49.2441 21.2912C49.3183 21.3197 49.3926 21.3459 49.4691 21.3744C49.5434 21.4028 49.6176 21.4313 49.6919 21.4597C49.7662 21.4882 49.8405 21.5188 49.9147 21.5494C50.0633 21.6107 50.2118 21.6764 50.3582 21.7442C50.6531 21.8799 50.9459 22.0265 51.2342 22.1862C51.3063 22.2256 51.3784 22.265 51.4505 22.3066C51.5947 22.3897 51.7367 22.4751 51.8809 22.5626C51.9726 22.6195 52.0622 22.6764 52.154 22.7355C52.2435 22.7946 52.3353 22.8536 52.4248 22.9149C52.5166 22.9762 52.6062 23.0396 52.6957 23.1031C52.7853 23.1666 52.8749 23.23 52.9644 23.2957C53.0977 23.392 53.2266 23.4926 53.3577 23.5955C53.6067 23.7902 53.8536 23.9959 54.1004 24.2104C54.2861 24.3723 54.4696 24.5386 54.6509 24.7115C54.7056 24.7618 54.758 24.8121 54.8126 24.8647C54.9371 24.985 55.0617 25.1075 55.1862 25.2345C55.1927 25.241 55.1993 25.2476 55.208 25.2563C55.3238 25.3745 55.4396 25.4949 55.5554 25.6174C55.6777 25.7487 55.8 25.8822 55.9224 26.0179C56.0425 26.1535 56.1649 26.2914 56.285 26.4314C56.3746 26.5365 56.4642 26.6437 56.5537 26.7509C56.6062 26.8122 56.6564 26.8757 56.7088 26.9391C56.7875 27.0354 56.8639 27.1339 56.9426 27.2323C57.0671 27.3899 57.1894 27.5496 57.314 27.7116C57.3773 27.7947 57.4407 27.8801 57.504 27.9676C57.5696 28.0551 57.6329 28.1427 57.6963 28.2302C57.7574 28.3177 57.8208 28.4031 57.882 28.4906C57.9431 28.5781 58.0065 28.6656 58.0677 28.7576C58.1223 28.8341 58.1747 28.9107 58.2271 28.9895C58.5417 29.4534 58.8519 29.9348 59.1578 30.4381C59.2583 30.6022 59.3588 30.7686 59.4592 30.9392C59.5488 31.0924 59.6406 31.25 59.7301 31.4075L59.8 31.5366C64.0054 38.9592 66.2534 48.3183 67.208 53.15C67.0769 52.9509 66.9415 52.7539 66.8039 52.5592C66.7558 52.4891 66.7077 52.4213 66.6575 52.3535C66.6378 52.325 66.616 52.2944 66.5942 52.2659C66.5352 52.185 66.4762 52.1062 66.4172 52.0274C66.3822 51.9793 66.3451 51.9311 66.308 51.8852C66.2708 51.8349 66.2337 51.7867 66.1944 51.7386C66.0895 51.6029 65.9825 51.4694 65.8732 51.3381C65.8274 51.2812 65.7815 51.2243 65.7312 51.1674C65.7269 51.1587 65.7181 51.1499 65.7116 51.1412C65.6919 51.1193 65.6744 51.0974 65.6548 51.0755C65.6198 51.0318 65.5827 50.9902 65.5434 50.9464C65.5215 50.9224 65.4997 50.8983 65.48 50.8742C65.4603 50.848 65.4385 50.8239 65.4166 50.7998C65.3467 50.7189 65.2768 50.6401 65.2047 50.5613C65.0911 50.4344 64.9754 50.3118 64.8574 50.1893C64.8574 50.1871 64.8552 50.1871 64.8552 50.1871C64.7372 50.0646 64.6193 49.9442 64.4991 49.8239C64.4205 49.7429 64.3396 49.6641 64.2588 49.5875L64.2566 49.5831Z" fill="black"/>
<path d="M67.2058 53.1456C67.0748 52.9465 66.9393 52.7496 66.8017 52.5548C66.7536 52.4848 66.7056 52.4169 66.6553 52.3491C66.6357 52.3207 66.6138 52.29 66.592 52.2616C66.533 52.1806 66.474 52.1018 66.415 52.0231C66.3801 51.9749 66.3429 51.9268 66.3058 51.8808C66.2686 51.8305 66.2315 51.7823 66.1922 51.7342C66.0873 51.5985 65.9803 51.465 65.871 51.3338C65.8252 51.2769 65.7793 51.22 65.729 51.1631C65.7247 51.1543 65.7159 51.1456 65.7094 51.1368C65.6897 51.1149 65.6722 51.093 65.6526 51.0712C65.6176 51.0274 65.5805 50.9858 65.5412 50.9421C65.5019 50.8939 65.4582 50.8436 65.4145 50.7954C65.3446 50.7145 65.2747 50.6357 65.2026 50.5569C65.089 50.43 64.9732 50.3075 64.8552 50.1849C64.8552 50.1827 64.853 50.1827 64.853 50.1827C64.7351 50.058 64.6171 49.9376 64.4969 49.8195C64.4183 49.7385 64.3375 49.6597 64.2566 49.5832C64.1867 49.5131 64.1168 49.4475 64.0447 49.3818C63.5838 48.9464 63.1053 48.5372 62.6116 48.152C62.5745 48.1214 62.5352 48.0908 62.498 48.0645C62.4849 48.0514 62.4696 48.0404 62.4565 48.0317C62.415 47.9967 62.3713 47.966 62.3298 47.9354C62.3233 47.9288 62.3167 47.9245 62.3102 47.9223C62.2468 47.8719 62.1834 47.8238 62.1201 47.78C62.1201 47.7757 62.1157 47.7757 62.1135 47.7757C62.1048 47.7669 62.0939 47.7582 62.0851 47.7538C61.7247 47.489 61.3577 47.2373 60.9841 47.001C60.9579 46.9835 60.9317 46.966 60.9055 46.9507H60.9033C60.8771 46.9332 60.8508 46.9157 60.8246 46.9025C60.0338 46.408 59.2124 45.9704 58.3648 45.5918C58.214 45.5261 58.0633 45.4605 57.9126 45.397H57.9104C57.6067 45.2701 57.2987 45.1498 56.9885 45.0382H56.9863C56.8312 44.9791 56.6761 44.9266 56.521 44.8762C56.5079 44.8697 56.4969 44.8653 56.4838 44.8609C56.3637 44.8215 56.2457 44.7843 56.1256 44.7471C56.1015 44.7406 56.0775 44.734 56.0535 44.7252L55.9683 44.699C55.9399 44.6902 55.9115 44.6815 55.8831 44.6727C55.8 44.6486 55.717 44.6246 55.634 44.6027C55.4942 44.5611 55.3522 44.5217 55.2102 44.4867C55.1753 44.4758 55.1381 44.467 55.1032 44.4583C55.0617 44.4451 55.0201 44.4364 54.9786 44.4276C54.9437 44.4189 54.9109 44.4101 54.8781 44.4036L54.8323 44.3904C54.8192 44.3882 54.8061 44.3839 54.7929 44.3817C54.7296 44.3664 54.6684 44.3532 54.6051 44.3401C54.4806 44.3095 54.3582 44.2832 54.2337 44.2569C54.072 44.2219 53.9082 44.1891 53.7465 44.1607C53.6242 44.1388 53.4997 44.1169 53.3773 44.0972C53.2113 44.0688 53.0453 44.0447 52.8792 44.0228C52.8246 44.0141 52.7678 44.0075 52.7132 44.0009C52.6673 43.9944 52.6215 43.9878 52.5734 43.9834H52.5712C52.5712 43.9834 52.5647 43.9834 52.5603 43.9812C52.4598 43.9703 52.3571 43.9572 52.2544 43.944C52.2282 43.9418 52.1998 43.9375 52.1736 43.9353C51.9967 43.9178 51.8175 43.9003 51.6406 43.8871C51.634 43.8871 51.6297 43.8871 51.6231 43.8871C51.5925 43.8849 51.5619 43.8828 51.5313 43.8806C51.5204 43.8806 51.5073 43.8806 51.4964 43.8806H51.4898C51.3653 43.8696 51.243 43.8609 51.1185 43.8543C51.0223 43.8499 50.9262 43.8456 50.8323 43.8412C50.5461 43.8302 50.2686 43.8237 49.9978 43.8237H49.989C49.8317 43.8237 49.6744 43.8259 49.5171 43.8302C49.3162 43.8346 49.1152 43.8412 48.9142 43.8521C48.6761 43.8631 48.438 43.8806 48.1998 43.9003C48.0294 43.9156 47.8612 43.9331 47.693 43.9528C47.5663 43.9659 47.4396 43.9812 47.3151 43.9987C47.2779 44.0031 47.2408 44.0075 47.2037 44.0141C47.1447 44.0206 47.0879 44.0294 47.0289 44.0381C47.0049 44.0403 46.9786 44.0447 46.9546 44.0491C46.8694 44.06 46.782 44.0753 46.6968 44.0885C46.6772 44.0906 46.6575 44.095 46.6378 44.0994C46.6138 44.0994 46.5898 44.106 46.5658 44.1103C45.8142 44.2373 45.0715 44.4036 44.3418 44.6136C44.2173 44.6486 44.0928 44.6858 43.9683 44.7252C43.8459 44.7624 43.7214 44.8018 43.5991 44.8434C43.3522 44.9222 43.1075 45.0075 42.865 45.0994C42.7143 45.1541 42.5658 45.211 42.415 45.2723C42.3932 45.281 42.3691 45.2898 42.3473 45.2986C42.2381 45.3423 42.1288 45.3883 42.0218 45.4342C42.0174 45.4342 42.0152 45.4364 42.013 45.4386C41.9366 45.4692 41.8623 45.5021 41.788 45.5349C41.6679 45.5874 41.5499 45.6399 41.4341 45.6924C41.2768 45.7647 41.1217 45.8391 40.9688 45.9135C40.8421 45.9769 40.7176 46.0404 40.5931 46.106C40.5319 46.1345 40.4729 46.1673 40.4117 46.2001C40.3964 46.2067 40.3833 46.2154 40.368 46.2242C40.2741 46.2723 40.1802 46.3248 40.0862 46.3774C39.6253 46.6312 39.1753 46.9047 38.734 47.1936C38.4478 47.3818 38.166 47.5765 37.8885 47.78C36.8508 48.5415 35.8831 49.3972 35.0027 50.3381C34.9131 50.4322 34.8257 50.5263 34.7405 50.6226C34.6509 50.7167 34.5658 50.813 34.4827 50.9092C34.4063 50.999 34.332 51.0865 34.2599 51.174C34.2206 51.2178 34.1834 51.2615 34.1485 51.3053C34.0371 51.4388 33.93 51.5723 33.8252 51.7058C33.6133 51.9771 33.4057 52.255 33.2047 52.5395C33.1785 52.5789 33.1501 52.6183 33.1239 52.6576C33.1195 52.6598 33.1174 52.6642 33.1174 52.6664C33.0824 52.7167 33.0475 52.7649 33.0125 52.8152C32.9601 52.8874 32.912 52.9618 32.8639 53.0362C32.8618 53.0384 32.8596 53.0428 32.8574 53.045C32.7809 53.1609 32.7045 53.2791 32.628 53.3973C32.5144 53.5789 32.4008 53.7627 32.2916 53.9487C32.2413 54.0341 32.1911 54.1194 32.1408 54.2069C32.0382 54.3864 31.9377 54.5658 31.8416 54.7496C31.6952 55.0231 31.5554 55.3011 31.4221 55.5833C31.4112 55.603 31.4003 55.6249 31.3915 55.6446C31.35 55.7343 31.3085 55.8241 31.267 55.9138C31.2539 55.9444 31.2408 55.9729 31.2277 56.0035C31.1643 56.1457 31.1032 56.288 31.042 56.4324C30.9961 56.5396 30.9524 56.6468 30.9087 56.7541C30.8956 56.7847 30.8825 56.8175 30.8694 56.8482C30.8672 56.8547 30.865 56.8635 30.8607 56.8722C30.8345 56.9422 30.8082 57.0101 30.782 57.0801C30.7667 57.1239 30.7493 57.1698 30.7318 57.2158C30.7077 57.2792 30.6837 57.3427 30.6619 57.4062C30.6357 57.4718 30.6138 57.5374 30.5898 57.6031C30.5832 57.6206 30.5767 57.6403 30.5701 57.66C30.5614 57.6841 30.5526 57.7081 30.5461 57.7344C30.5264 57.7869 30.509 57.8394 30.4915 57.8919C30.4849 57.9138 30.4784 57.9335 30.4718 57.9554C30.4478 58.0298 30.4238 58.102 30.3997 58.1764C30.0742 55.3755 29.6788 50.837 29.7749 45.8609C29.7837 45.4474 29.7946 45.0294 29.8099 44.6093C29.8274 44.1344 29.8492 43.6596 29.8754 43.1803C29.8885 42.9396 29.9038 42.7011 29.9213 42.4604C29.9366 42.2219 29.9541 41.9812 29.9737 41.7405C29.9934 41.4866 30.0152 41.2306 30.0393 40.9768C30.1135 40.1671 30.2053 39.3553 30.3145 38.55C30.3517 38.283 30.391 38.0139 30.4325 37.7469C30.5374 37.0642 30.6553 36.3858 30.7908 35.7162C30.8257 35.5368 30.8629 35.3573 30.9022 35.1779C30.9393 35.0072 30.9765 34.8365 31.0158 34.6658C31.0398 34.5652 31.0638 34.4623 31.0879 34.3617C31.16 34.0531 31.2386 33.7468 31.3194 33.4426C31.3216 33.4317 31.326 33.4185 31.3282 33.4076C31.3304 33.3988 31.3325 33.3923 31.3347 33.3835C31.444 32.9721 31.5619 32.5695 31.6821 32.1778C31.6821 32.1756 31.6843 32.1756 31.6821 32.1734H31.6843C31.7389 31.9962 31.7935 31.8233 31.8503 31.6526C32.0032 31.1909 32.1627 30.7445 32.3309 30.3134C32.3855 30.1755 32.4401 30.0377 32.4969 29.902C32.569 29.7226 32.6455 29.5453 32.7219 29.3703C32.7984 29.1952 32.8749 29.0245 32.9557 28.856C33.0343 28.6853 33.1152 28.519 33.1982 28.3549C33.2725 28.2039 33.3511 28.0529 33.4276 27.9063C33.4363 27.8932 33.4429 27.8823 33.4472 27.8713C33.5324 27.7116 33.6198 27.554 33.7072 27.4008C33.7968 27.2477 33.8842 27.0967 33.9759 26.9479C34.0393 26.8428 34.1026 26.74 34.1703 26.6393C34.1769 26.6262 34.1856 26.6131 34.1944 26.6021C34.2949 26.4424 34.3975 26.287 34.5046 26.136C34.5636 26.0507 34.6226 25.9653 34.6859 25.8822C34.7056 25.8494 34.7296 25.8187 34.7536 25.7881C34.7995 25.7246 34.8454 25.6612 34.8934 25.5999C34.9481 25.5255 35.0027 25.4533 35.0617 25.3811C35.0944 25.3395 35.1272 25.2979 35.16 25.2564C35.2495 25.1426 35.3413 25.0332 35.4352 24.9259C35.4571 24.8997 35.4789 24.8734 35.5008 24.8472C35.5707 24.764 35.6428 24.6852 35.7148 24.6064C36.1474 24.1272 36.604 23.6939 37.0824 23.3022C37.1152 23.2738 37.1501 23.2475 37.1829 23.2213C37.2878 23.1359 37.3948 23.0528 37.5019 22.9718C37.6176 22.8843 37.7378 22.7989 37.8558 22.7158C38.0021 22.6151 38.1485 22.5189 38.2992 22.4269C38.3757 22.3766 38.4522 22.3307 38.5308 22.2847C38.5636 22.2628 38.5985 22.2431 38.6335 22.2234C38.7296 22.1665 38.8279 22.1118 38.9284 22.0593C39.018 22.0112 39.1097 21.963 39.2015 21.9171C39.2932 21.8689 39.385 21.823 39.4767 21.7792C39.575 21.7333 39.6755 21.6873 39.7782 21.6436C39.835 21.6173 39.894 21.5932 39.953 21.5692C39.9639 21.5626 39.977 21.556 39.9901 21.5538C40.0753 21.5166 40.1605 21.4816 40.2479 21.4488C40.2719 21.4379 40.2981 21.4291 40.3244 21.4203C40.5843 21.3197 40.8508 21.23 41.1217 21.1468H41.1239C41.5718 21.0111 42.0283 20.8995 42.4871 20.8164C42.6968 20.777 42.9065 20.7442 43.1163 20.7157C43.1512 20.7114 43.184 20.7048 43.2189 20.7026C43.3806 20.6785 43.5423 20.661 43.7017 20.6457C43.7782 20.637 43.8547 20.6304 43.9311 20.6238C44.0753 20.6107 44.2195 20.6019 44.3637 20.5954C44.4576 20.5888 44.5537 20.5844 44.6477 20.5822C44.7569 20.5779 44.8661 20.5757 44.9754 20.5757H44.9797C44.9797 20.5757 44.9928 20.5757 44.9994 20.5757C45.0169 20.5757 45.0343 20.5757 45.0518 20.5757H45.0562C45.2943 20.5757 45.5324 20.5822 45.7684 20.5954H45.7706C45.8536 20.5998 45.9388 20.6063 46.0218 20.6129C46.0939 20.6173 46.1682 20.6238 46.2402 20.6304C46.3233 20.637 46.4063 20.6457 46.4893 20.6566C46.533 20.661 46.5745 20.6654 46.6182 20.672C46.699 20.6807 46.782 20.6917 46.8629 20.7048C47.0376 20.7289 47.2146 20.7595 47.3872 20.7923C47.4986 20.8142 47.61 20.8361 47.7192 20.8602C48.0054 20.9214 48.2916 20.9936 48.5756 21.0768C48.6477 21.0987 48.7198 21.1206 48.7919 21.1424C48.8683 21.1643 48.9448 21.1906 49.0212 21.2147C49.0955 21.2387 49.1698 21.265 49.2441 21.2912C49.3183 21.3197 49.3926 21.3459 49.4691 21.3744C49.5434 21.4028 49.6176 21.4313 49.6919 21.4597C49.7662 21.4882 49.8405 21.5188 49.9147 21.5495C50.0633 21.6129 50.2118 21.6764 50.3582 21.7442C50.6531 21.8799 50.9459 22.0265 51.2342 22.1862C51.3063 22.2256 51.3784 22.265 51.4505 22.3066C51.5947 22.3897 51.7367 22.4751 51.8809 22.5626C51.9726 22.6195 52.0622 22.6764 52.154 22.7355C52.2435 22.7946 52.3353 22.8537 52.4248 22.9149C52.5166 22.9762 52.6062 23.0397 52.6957 23.1031C52.7853 23.1666 52.8749 23.23 52.9644 23.2957C53.0977 23.392 53.2266 23.4926 53.3577 23.5955C53.6067 23.7902 53.8536 23.9959 54.1004 24.2104C54.2861 24.3723 54.4696 24.5386 54.6509 24.7115C54.7056 24.7618 54.758 24.8121 54.8126 24.8647C54.9371 24.985 55.0617 25.1076 55.1862 25.2345C55.1927 25.241 55.1993 25.2476 55.208 25.2564C55.3238 25.3745 55.4396 25.4949 55.5554 25.6174C55.6777 25.7487 55.8 25.8822 55.9224 26.0179C56.0425 26.1535 56.1649 26.2914 56.285 26.4314C56.3746 26.5365 56.4642 26.6437 56.5537 26.7509C56.6062 26.8122 56.6564 26.8757 56.7088 26.9391C56.7875 27.0354 56.8639 27.1339 56.9426 27.2323C57.0671 27.3899 57.1895 27.5496 57.314 27.7116C57.3773 27.7947 57.4407 27.8801 57.504 27.9676C57.5696 28.0551 57.6329 28.1427 57.6963 28.2302C57.7574 28.3177 57.8208 28.4031 57.882 28.4906C57.9431 28.5781 58.0065 28.6657 58.0677 28.7576C58.1223 28.8341 58.1747 28.9107 58.2271 28.9895C58.5417 29.4534 58.8519 29.9348 59.1578 30.4381C59.2583 30.6023 59.3588 30.7686 59.4593 30.9392C59.5488 31.0924 59.6406 31.25 59.7301 31.4075L59.8 31.5366C64.0054 38.9592 66.2534 48.3183 67.208 53.15L67.2058 53.1456Z" fill="#F8A629"/>
<path d="M30.544 57.73C30.5178 57.8044 30.4938 57.8766 30.4697 57.951C30.4763 57.9291 30.4828 57.9094 30.4894 57.8875C30.5069 57.835 30.5243 57.7825 30.544 57.73Z" fill="white"/>
<path d="M30.6597 57.4017C30.6204 57.5111 30.5811 57.6206 30.5439 57.73C30.5505 57.7037 30.5592 57.6796 30.568 57.6556C30.5745 57.6359 30.5811 57.6162 30.5876 57.5987C30.6117 57.533 30.6335 57.4674 30.6597 57.4017Z" fill="white"/>
<path d="M31.0397 56.428C30.9807 56.5702 30.9217 56.7146 30.8649 56.8591C30.8191 56.975 30.7732 57.0932 30.7295 57.2114C30.747 57.1654 30.7644 57.1195 30.7797 57.0757C30.806 57.0057 30.8322 56.9378 30.8584 56.8678C30.8628 56.8591 30.8649 56.8503 30.8671 56.8437C30.8802 56.8131 30.8933 56.7803 30.9064 56.7496C30.9501 56.6424 30.9938 56.5352 31.0397 56.428Z" fill="white"/>
<path d="M31.42 55.579C31.3545 55.7168 31.2889 55.8569 31.2256 55.9991C31.2387 55.9685 31.2518 55.94 31.2649 55.9094C31.3064 55.8197 31.3479 55.73 31.3894 55.6403C31.3982 55.6206 31.4091 55.5987 31.42 55.579Z" fill="white"/>
<path d="M33.0102 52.8108C32.9775 52.8611 32.9425 52.9115 32.9097 52.9618C32.8136 53.104 32.7197 53.2484 32.6257 53.3929C32.7022 53.2747 32.7787 53.1565 32.8551 53.0406C32.8573 53.0384 32.8595 53.034 32.8617 53.0318C32.9097 52.9574 32.9578 52.883 33.0102 52.8108Z" fill="white"/>
<path d="M34.2577 51.1697C34.2205 51.2134 34.1856 51.2572 34.1484 51.301H34.1462C34.1812 51.2572 34.2183 51.2134 34.2577 51.1697Z" fill="white"/>
<path d="M41.4319 45.6881C41.2746 45.7603 41.1195 45.8347 40.9666 45.9113C41.1195 45.8347 41.2746 45.7603 41.4319 45.6881Z" fill="white"/>
<path d="M51.4876 43.8762C51.3631 43.8674 51.2408 43.8587 51.1163 43.8521C51.0201 43.8455 50.924 43.8412 50.8301 43.8368C50.924 43.8412 51.0201 43.8455 51.1163 43.8499C51.2408 43.8565 51.3631 43.8652 51.4876 43.8762Z" fill="white"/>
<path d="M53.126 44.0599C52.9884 44.0381 52.8508 44.0184 52.7109 44.0009C52.7656 44.0074 52.8224 44.014 52.877 44.0227C52.96 44.0337 53.043 44.0468 53.126 44.0599Z" fill="white"/>
<path d="M54.6028 44.3402C54.4411 44.303 54.2773 44.2679 54.1134 44.2351C54.0282 44.2176 53.943 44.2001 53.8556 44.1848C53.6153 44.1388 53.3707 44.0973 53.126 44.0601C53.209 44.071 53.292 44.0841 53.375 44.0973C53.4974 44.117 53.6219 44.1388 53.7442 44.1607C53.9059 44.1892 54.0697 44.222 54.2314 44.257C54.3559 44.2833 54.4782 44.3095 54.6028 44.3402Z" fill="white"/>
<path d="M55.1009 44.4583C55.0812 44.4539 55.0616 44.4495 55.0419 44.4451C54.8955 44.4079 54.7492 44.3729 54.6028 44.3401C54.6661 44.3532 54.7273 44.3663 54.7907 44.3817C54.8038 44.3817 54.8169 44.3882 54.83 44.3904L54.8759 44.4035C54.9086 44.4101 54.9414 44.4189 54.9764 44.4276C55.0179 44.4364 55.0594 44.4451 55.1009 44.4583Z" fill="white"/>
<path d="M55.9661 44.6989C55.8547 44.6661 55.7433 44.6333 55.6318 44.6027C55.7149 44.6245 55.7979 44.6486 55.8809 44.6727C55.9093 44.6814 55.9377 44.6902 55.9661 44.6989Z" fill="white"/>
<path d="M56.5209 44.8762C56.3876 44.8324 56.2566 44.7886 56.1233 44.7471C56.2434 44.7843 56.3614 44.8215 56.4816 44.8609C56.4947 44.8652 56.5056 44.8696 56.5187 44.874L56.5209 44.8762Z" fill="white"/>
<path d="M65.7094 51.1368C65.6919 51.1149 65.6744 51.093 65.6548 51.0712C65.6744 51.093 65.6919 51.1149 65.7116 51.1368H65.7094Z" fill="white"/>
<path d="M39.7848 69.6998C37.6111 69.6998 35.634 68.8267 34.5374 68.2315L35.0573 67.2708C37.3293 68.5072 41.6067 70.0018 44.7198 66.1329L45.5696 66.82C43.8066 69.0105 41.7159 69.702 39.7826 69.702L39.7848 69.6998Z" fill="black"/>
<path d="M58.4172 69.5794C54.9764 69.5794 52.3309 66.7544 52.2151 66.6297L53.0168 65.8879C53.0431 65.9163 55.6274 68.6648 58.7339 68.4766C60.545 68.365 62.2096 67.2687 63.6842 65.2183L64.5712 65.8572C62.8934 68.1877 60.9491 69.4372 58.7929 69.5685C58.6662 69.5773 58.5395 69.5794 58.415 69.5794H58.4172Z" fill="black"/>
<path d="M51.9485 74.3849C51.9485 74.3849 51.6121 73.4571 50.8802 73.2229C50.3996 73.0676 49.8076 73.2317 49.1216 73.7109L48.4968 72.8137C49.4821 72.1266 50.3996 71.9165 51.2232 72.1857C52.4728 72.5949 52.9578 73.9691 52.9796 74.0282L51.9463 74.3849L52.4619 74.2076L51.9463 74.3871L51.9485 74.3849Z" fill="black"/>
<path d="M62.7974 72.98C62.5178 72.98 62.2512 72.8509 62.0087 72.5971C61.5369 72.1025 61.4757 71.0675 61.8274 69.5204C61.8842 69.2731 62.0808 69.0849 62.3299 69.0412C62.5789 68.9974 62.828 69.1024 62.9678 69.3147C63.6232 70.3125 63.7804 71.2382 63.8176 71.7021C63.846 72.0566 63.7324 72.4001 63.5052 72.6496C63.2583 72.9209 62.9896 72.98 62.8083 72.9822H62.7974V72.98Z" fill="black"/>
</g>
<defs>
<clipPath id="clip0_872_1776">
<rect width="48" height="70" fill="white" transform="translate(26 15)"/>
</clipPath>
</defs>
</svg>
