<svg width="8" height="14" viewBox="0 0 8 14" fill="none" xmlns="http://www.w3.org/2000/svg">
<path d="M7.17285 7.06445C7.17285 6.92318 7.14551 6.79329 7.09082 6.6748C7.03613 6.55632 6.9541 6.44238 6.84473 6.33301L1.58789 1.18555C1.41016 1.01237 1.19368 0.925781 0.938477 0.925781C0.774414 0.925781 0.621745 0.966797 0.480469 1.04883C0.339193 1.13086 0.22526 1.24251 0.138672 1.38379C0.0566406 1.52051 0.015625 1.67318 0.015625 1.8418C0.015625 2.09701 0.111328 2.32031 0.302734 2.51172L4.98535 7.06445L0.302734 11.6172C0.111328 11.8132 0.015625 12.0365 0.015625 12.2871C0.015625 12.4603 0.0566406 12.6152 0.138672 12.752C0.22526 12.8887 0.339193 12.998 0.480469 13.0801C0.621745 13.1621 0.774414 13.2031 0.938477 13.2031C1.19368 13.2031 1.41016 13.1165 1.58789 12.9434L6.84473 7.7959C6.95866 7.68652 7.04069 7.57259 7.09082 7.4541C7.14551 7.33105 7.17285 7.20117 7.17285 7.06445Z" fill="#979797"/>
</svg>
