<svg width="100" height="100" viewBox="0 0 100 100" fill="none" xmlns="http://www.w3.org/2000/svg">
<g clip-path="url(#clip0_858_1960)">
<path d="M45.7838 64.7543C44.0208 66.9447 41.9301 67.6362 39.9968 67.6362C37.8231 67.6362 35.8438 66.7631 34.7493 66.1679C34.7428 66.1635 34.7362 66.1591 34.7297 66.1548C34.4806 66.006 34.3911 65.6843 34.5309 65.4261C34.6729 65.1591 35.0028 65.0606 35.2671 65.2029C35.2693 65.2051 35.2737 65.2072 35.2758 65.2072C37.5522 66.4436 41.8209 67.9316 44.9339 64.0672C45.1218 63.833 45.467 63.7958 45.7007 63.984C45.9367 64.1744 45.9738 64.5201 45.7838 64.7543Z" fill="black"/>
<path d="M35.4876 65.9447C35.3893 66.1285 35.2015 66.2313 35.007 66.2313C34.9196 66.2313 34.8301 66.2116 34.7492 66.1657C34.7427 66.1613 34.7361 66.1591 34.7296 66.1547C33.93 65.7236 33.4472 65.3604 33.4254 65.3451C33.1851 65.1634 33.1348 64.8221 33.3161 64.5792C33.4975 64.3385 33.8405 64.2881 34.0808 64.4698C34.0851 64.472 34.5352 64.8089 35.267 65.2028C35.2692 65.205 35.2735 65.2072 35.2757 65.2072C35.5335 65.356 35.6296 65.6799 35.4876 65.9447Z" fill="black"/>
<path d="M64.7833 63.7936C63.1055 66.1263 61.1634 67.3736 59.0072 67.5049C58.8805 67.5115 58.7538 67.5158 58.6293 67.5158C55.1885 67.5158 52.5408 64.6908 52.4272 64.5661C52.2218 64.345 52.2349 63.9993 52.4578 63.7936C52.6784 63.5879 53.0236 63.601 53.2289 63.8242C53.2552 63.8505 55.6713 66.4217 58.6336 66.4217C58.7363 66.4217 58.8412 66.4195 58.946 66.4129C60.7571 66.2992 62.4239 65.2028 63.8985 63.1546C64.0733 62.9096 64.4163 62.8527 64.6609 63.0299C64.9056 63.2072 64.9602 63.5485 64.7833 63.7936Z" fill="black"/>
<path d="M70.4522 58.9467C70.2883 58.8942 70.1179 58.8482 69.9454 58.8132C69.8864 58.8001 69.8296 58.7891 69.7706 58.7782C69.6461 58.7563 69.5194 58.7388 69.3883 58.7279L68.6062 58.6556L68.7264 59.0999C68.7548 59.2049 68.7832 59.3099 68.8116 59.415C68.8268 59.4675 68.84 59.5222 68.8531 59.5769C68.8596 59.6032 68.8662 59.6294 68.8727 59.6579C68.8793 59.6863 68.8858 59.7148 68.8924 59.7432C68.9623 60.0277 69.0256 60.3165 69.0846 60.6054C69.124 60.7958 69.1589 60.9905 69.1895 61.1831C69.2463 61.5201 69.2922 61.8614 69.3315 62.2028C69.3708 62.5442 69.3992 62.8877 69.4211 63.2313C69.4429 63.623 69.456 64.0169 69.456 64.4107C69.456 65.6952 69.3315 66.9754 69.0846 68.2183L69.0781 68.2511L68.9317 68.9886L69.7072 68.8638C69.8339 68.8441 69.9585 68.8179 70.083 68.7894C72.3746 68.2467 74 66.2139 74 63.8155C74 61.5835 72.5363 59.6119 70.4522 58.9467ZM70.3058 67.5815C70.3408 67.3561 70.3714 67.1307 70.3998 66.9032C70.4172 66.7478 70.4347 66.5924 70.45 66.4371C70.4653 66.2926 70.4762 66.1482 70.4871 66.0038C70.4981 65.8747 70.5068 65.7478 70.5134 65.6187V65.6012C70.5199 65.4983 70.5265 65.3955 70.5286 65.2948C70.533 65.2051 70.5374 65.1154 70.5374 65.0256C70.5461 64.8199 70.5483 64.6164 70.5483 64.4107C70.5483 64.2532 70.5483 64.0956 70.5418 63.9403C70.5374 63.7171 70.5286 63.4961 70.5155 63.2729C70.509 63.1328 70.5002 62.9928 70.4893 62.8527C70.485 62.7958 70.4806 62.7389 70.4762 62.682C70.4631 62.5332 70.45 62.3822 70.4347 62.2334C70.4325 62.2094 70.4303 62.1831 70.426 62.159C70.4063 61.9774 70.3845 61.798 70.3604 61.6185C70.3342 61.4325 70.308 61.2487 70.2774 61.0671C70.2162 60.6995 70.1463 60.334 70.0677 59.973C71.7345 60.4806 72.9077 62.0431 72.9077 63.8155C72.9077 65.588 71.8525 67.006 70.3058 67.5815Z" fill="black"/>
<path d="M72.9076 63.8156C72.9076 65.529 71.8524 67.0061 70.3057 67.5816C70.3407 67.3562 70.3713 67.1308 70.3997 66.9032C70.4172 66.7479 70.4346 66.5925 70.4499 66.4371C70.4652 66.2927 70.4761 66.1483 70.4871 66.0038C70.498 65.8747 70.5067 65.7478 70.5133 65.6187V65.6012C70.5198 65.4984 70.5264 65.3955 70.5286 65.2948C70.5329 65.2051 70.5373 65.1154 70.5373 65.0257C70.5461 64.82 70.5482 64.6165 70.5482 64.4108C70.5482 64.2532 70.5482 64.0957 70.5417 63.9403C70.5373 63.7171 70.5286 63.4961 70.5155 63.2729C70.5089 63.1329 70.5002 62.9928 70.4893 62.8528C70.4849 62.7959 70.4805 62.739 70.4761 62.6821C70.463 62.5333 70.4499 62.3823 70.4346 62.2335C70.4325 62.2094 70.4303 62.1832 70.4259 62.1591C70.4062 61.9775 70.3844 61.798 70.3604 61.6186C70.3341 61.4326 70.3079 61.2488 70.2773 61.0671C70.2184 60.6995 70.1485 60.3341 70.0676 59.973C71.7345 60.4807 72.9076 62.0431 72.9076 63.8156Z" fill="white"/>
<path d="M32.2064 72.3366C31.0945 69.8376 30.5287 67.1702 30.5287 64.4108V64.332C30.5309 64.1 30.5352 63.8725 30.5461 63.6361V63.6296C30.5505 63.4873 30.5593 63.3451 30.5658 63.2029C30.568 63.17 30.5702 63.135 30.5724 63.1L30.5811 62.9031L29.8689 63.0781C29.7357 63.111 29.6024 63.1503 29.4735 63.1963C29.231 63.2751 28.9973 63.3757 28.7744 63.4917C28.6543 63.553 28.5363 63.6208 28.4227 63.6908C26.9197 64.6165 26 66.2489 26 68.0389C26 70.8574 28.2895 73.1485 31.101 73.1485C31.1928 73.1485 31.2824 73.1485 31.3719 73.1419C31.5117 73.1353 31.6494 73.1222 31.7848 73.1025L32.4992 72.9997L32.2064 72.3366ZM27.0923 68.0389C27.0923 66.5246 27.929 65.1548 29.2747 64.4633C29.3009 64.4502 29.3271 64.437 29.3555 64.4239C29.3818 64.4086 29.408 64.3955 29.4364 64.3845V64.4108C29.4364 64.5749 29.4386 64.7412 29.4429 64.9053C29.4451 65.0432 29.4495 65.181 29.4582 65.3167C29.4582 65.3517 29.4582 65.3867 29.4626 65.4218C29.4648 65.5137 29.4691 65.6056 29.4779 65.6975C29.4801 65.7894 29.4866 65.8813 29.4954 65.9732C29.4975 66.0301 29.5041 66.0892 29.5085 66.1461C29.5172 66.2642 29.5281 66.3824 29.5412 66.5006C29.5478 66.5706 29.5543 66.6384 29.5631 66.7084C29.5718 66.8069 29.5849 66.9032 29.598 66.9995C29.6046 67.0717 29.6133 67.1417 29.6264 67.2139C29.6374 67.319 29.6526 67.4218 29.6701 67.5269C29.6789 67.5925 29.6898 67.6581 29.7007 67.7238C29.716 67.8223 29.7335 67.9207 29.751 68.0192C29.7619 68.0914 29.775 68.1614 29.7903 68.2337C29.8121 68.3518 29.834 68.4678 29.8602 68.586C29.9017 68.8004 29.9498 69.0105 30 69.2206C30.0415 69.3934 30.083 69.5641 30.1289 69.7348C30.2578 70.2162 30.4042 70.6954 30.5702 71.1681C30.5964 71.2491 30.627 71.3322 30.6576 71.4132C30.6991 71.5335 30.7428 71.6517 30.7886 71.7699C30.793 71.783 30.7996 71.7961 30.8039 71.8093C30.8345 71.8902 30.8651 71.969 30.8979 72.05C28.781 71.9427 27.0923 70.1856 27.0923 68.0389Z" fill="black"/>
<path d="M30.8979 72.05C28.781 71.9428 27.0923 70.1856 27.0923 68.0389C27.0923 66.5246 27.929 65.1548 29.2747 64.4633C29.3009 64.4502 29.3271 64.437 29.3555 64.4239C29.3817 64.4108 29.408 64.3977 29.4364 64.3867V64.4108C29.4364 64.5749 29.4385 64.7412 29.4429 64.9053C29.4451 65.0432 29.4495 65.1811 29.4582 65.3167C29.4582 65.3517 29.4582 65.3867 29.4626 65.4218C29.4648 65.5137 29.4691 65.6056 29.4779 65.6975C29.4801 65.7894 29.4866 65.8813 29.4953 65.9732C29.4975 66.0301 29.5041 66.0892 29.5085 66.1461C29.5172 66.2642 29.5281 66.3824 29.5412 66.5006C29.5478 66.5706 29.5543 66.6384 29.5631 66.7085C29.5718 66.8069 29.5849 66.9032 29.598 66.9995C29.6046 67.0717 29.6133 67.1417 29.6264 67.2139C29.6373 67.319 29.6526 67.4218 29.6701 67.5269C29.6788 67.5925 29.6898 67.6582 29.7007 67.7238C29.716 67.8223 29.7335 67.9207 29.7509 68.0192C29.7619 68.0914 29.775 68.1615 29.7903 68.2337C29.8121 68.3518 29.834 68.4678 29.8602 68.586C29.9017 68.8004 29.9497 69.0105 30 69.2206C30.0415 69.3934 30.083 69.5641 30.1289 69.7348C30.2578 70.2162 30.4041 70.6954 30.5702 71.1681C30.5964 71.2491 30.627 71.3322 30.6575 71.4132C30.6991 71.5335 30.7427 71.6517 30.7886 71.7699C30.793 71.783 30.7995 71.7961 30.8039 71.8093C30.8345 71.8902 30.8651 71.969 30.8979 72.05Z" fill="white"/>
<path d="M30.981 60.2312C30.9613 60.3099 30.946 60.3909 30.9307 60.4719L30.9242 60.5091L30.8739 60.7585C30.8696 60.7782 30.8652 60.8001 30.8608 60.8198L30.815 61.0736L30.804 61.1349C30.7975 61.1655 30.7931 61.1962 30.7887 61.2268C30.7669 61.3625 30.7451 61.4982 30.7276 61.6338C30.7035 61.8001 30.6817 61.9664 30.662 62.1306V62.1349C30.6446 62.2881 30.6271 62.4435 30.614 62.5967C30.6096 62.6404 30.6052 62.6864 30.6009 62.7323C30.5899 62.8549 30.5812 62.9774 30.5725 63.1C30.5703 63.135 30.5681 63.17 30.5659 63.2028C30.5572 63.345 30.5506 63.4873 30.5463 63.6295V63.6361L30.531 64.0409L30.1334 64.1416C29.8909 64.2007 29.6571 64.2816 29.4365 64.3845C29.4081 64.3976 29.3819 64.4107 29.3557 64.4239C29.3273 64.437 29.301 64.4501 29.2748 64.4632L28.7789 64.7215L28.5342 64.2182C28.4534 64.0518 28.4141 63.8702 28.4228 63.6908C28.4228 63.6689 28.425 63.647 28.4272 63.6251L28.6522 61.1262C28.6784 60.8329 28.8161 60.566 29.0433 60.3778C29.1896 60.2552 29.3622 60.1743 29.5479 60.1414C29.644 60.1217 29.7423 60.1174 29.8428 60.1261L29.8843 60.1305L30.1006 60.1502L30.4327 60.1808L30.981 60.2312Z" fill="#F8A629"/>
<path d="M70.2948 59.636L70.0917 59.9642L70.0654 59.9576L69.7137 59.881C69.5783 59.8526 69.4385 59.8307 69.2899 59.8176L68.9076 59.7826L68.853 59.5769C68.8399 59.5222 68.8268 59.4675 68.8115 59.4149C68.7831 59.3099 68.7547 59.2049 68.7263 59.0998C68.5843 58.5987 68.4226 58.1042 68.2435 57.6206C68.1998 57.5046 68.1561 57.3886 68.1102 57.2726C68.0709 57.1676 68.0272 57.0648 67.9857 56.9619C67.9333 56.8372 67.8808 56.7125 67.8262 56.5877L67.7782 56.4761C67.7716 56.463 67.7672 56.452 67.7629 56.4389L67.7388 56.3842C67.6689 56.2267 67.5947 56.0713 67.5204 55.9181L67.457 55.7803L67.9988 55.6577L68.2085 55.6118L68.5471 55.5352L68.6039 55.522C68.6498 55.5133 68.6957 55.5067 68.7416 55.5023C68.9447 55.4848 69.1479 55.5242 69.327 55.6161C69.622 55.7649 69.8339 56.0363 69.9038 56.3623L70.4346 58.8307C70.4434 58.8679 70.4477 58.9073 70.4521 58.9467C70.4783 59.1874 70.4237 59.4281 70.2948 59.636Z" fill="#F8A629"/>
<path d="M70.5417 63.9402C70.5373 63.717 70.5286 63.496 70.5155 63.2728C70.5089 63.1328 70.5002 62.9927 70.4893 62.8527C70.4849 62.7958 70.4805 62.7389 70.4762 62.682C70.463 62.5332 70.4499 62.3822 70.4346 62.2334C70.4325 62.2093 70.4303 62.1831 70.4259 62.159C70.4062 61.9774 70.3844 61.7979 70.3604 61.6185C70.3341 61.4325 70.3079 61.2487 70.2773 61.0671C70.2184 60.6994 70.1485 60.334 70.0676 59.9729C70.0676 59.9686 70.0676 59.962 70.0654 59.9576C70.0305 59.8001 69.9955 59.6447 69.9562 59.4893C69.9278 59.369 69.8994 59.2508 69.8666 59.1326C69.8361 59.0145 69.8033 58.8963 69.7705 58.7781C69.5237 57.9094 69.2222 57.0604 68.8683 56.2485C68.8639 56.2376 68.8617 56.2266 68.8552 56.2179V56.2135C68.8443 56.1894 68.8355 56.1676 68.8246 56.1457L68.8202 56.1325L68.7328 55.9334C68.7263 55.9181 68.7197 55.9028 68.711 55.8875L68.6607 55.7715H68.6586L68.2413 55.8262L68.0906 55.8459L67.61 55.9072L67.5204 55.9181L30.924 60.509H30.9218L30.8825 60.5134L30.3516 60.5791L30.1659 60.6031L29.7814 60.6513H29.7771L29.753 60.8067C29.7443 60.8592 29.7356 60.9117 29.7268 60.9642C29.7203 60.997 29.7137 61.0277 29.7094 61.0605L29.6962 61.1502L29.6547 61.4172L29.6285 61.5966C29.622 61.6579 29.6132 61.717 29.6067 61.776C29.5433 62.2509 29.4996 62.7257 29.4734 63.1962C29.4669 63.3253 29.4603 63.4544 29.4559 63.5835C29.4428 63.8308 29.4385 64.0759 29.4363 64.3275V64.4107C29.4363 64.5748 29.4385 64.7411 29.4428 64.9052C29.445 65.0431 29.4494 65.181 29.4581 65.3166C29.4581 65.3517 29.4581 65.3867 29.4625 65.4217C29.4647 65.5136 29.469 65.6055 29.4778 65.6974C29.48 65.7893 29.4865 65.8812 29.4953 65.9731C29.4974 66.03 29.504 66.0891 29.5084 66.146C29.5171 66.2642 29.528 66.3823 29.5411 66.5005C29.5477 66.5705 29.5542 66.6383 29.563 66.7084C29.5717 66.8068 29.5848 66.9031 29.5979 66.9994C29.6045 67.0716 29.6132 67.1416 29.6263 67.2139C29.6373 67.3189 29.6526 67.4217 29.67 67.5268C29.6788 67.5924 29.6897 67.6581 29.7006 67.7237C29.7159 67.8222 29.7334 67.9207 29.7509 68.0191C29.7618 68.0913 29.7749 68.1614 29.7902 68.2336C29.812 68.3517 29.8339 68.4677 29.8601 68.5859C29.9016 68.8003 29.9497 69.0104 29.9999 69.2205C30.0414 69.3934 30.0829 69.564 30.1288 69.7347C30.2577 70.2161 30.4041 70.6954 30.5701 71.168C30.5963 71.249 30.6269 71.3321 30.6575 71.4131C30.699 71.5335 30.7427 71.6516 30.7885 71.7698C30.7929 71.7829 30.7995 71.796 30.8038 71.8092C30.9305 72.1352 31.0638 72.4613 31.208 72.783C31.2626 72.9033 31.3172 73.0237 31.3718 73.1418C34.7492 80.3609 42.0152 85 49.9934 85C59.658 85 68.0491 78.2033 70.0829 68.7894C70.1091 68.6712 70.1332 68.5509 70.1572 68.4305C70.2118 68.1482 70.2621 67.866 70.3058 67.5815C70.3407 67.3561 70.3713 67.1307 70.3997 66.9031C70.4172 66.7478 70.4346 66.5924 70.4499 66.437C70.4652 66.2926 70.4762 66.1482 70.4871 66.0037C70.498 65.8746 70.5067 65.7477 70.5133 65.6186V65.6011C70.5198 65.4983 70.5264 65.3954 70.5286 65.2948C70.5329 65.205 70.5373 65.1153 70.5373 65.0256C70.5461 64.8199 70.5482 64.6164 70.5482 64.4107C70.5482 64.2531 70.5482 64.0956 70.5417 63.9402ZM49.9934 83.9058C42.3145 83.9058 35.3325 79.3652 32.2064 72.3365C31.0944 69.8376 30.5286 67.1701 30.5286 64.4107V64.3319C30.5308 64.1 30.5351 63.8724 30.5461 63.6361V63.6295C30.5504 63.4873 30.5592 63.345 30.5657 63.2028C30.5679 63.17 30.5701 63.135 30.5723 63.0999C30.581 62.9774 30.5897 62.8549 30.6007 62.7323C30.605 62.6864 30.6094 62.6404 30.6138 62.5966C30.6269 62.4435 30.6444 62.2881 30.6618 62.1349V62.1305C30.6815 61.9664 30.7033 61.8001 30.7274 61.636L67.7476 56.9925L67.9857 56.9619C68.0272 57.0647 68.0709 57.1676 68.1102 57.2726C68.1561 57.3886 68.1998 57.5046 68.2435 57.6206C68.4226 58.1042 68.5843 58.5987 68.7263 59.0998C68.7547 59.2048 68.7831 59.3099 68.8115 59.4149C68.8268 59.4674 68.8399 59.5221 68.853 59.5769C68.8595 59.6031 68.8661 59.6294 68.8727 59.6578C68.8792 59.6863 68.8879 59.7147 68.8945 59.7432C68.9644 60.0276 69.0278 60.3165 69.0846 60.6053C69.1239 60.7957 69.1588 60.9905 69.1894 61.183C69.2462 61.52 69.2943 61.8614 69.3314 62.2028C69.3707 62.5441 69.3991 62.8877 69.421 63.2312C69.4428 63.6229 69.4559 64.0168 69.4559 64.4107C69.4559 65.6952 69.3314 66.9753 69.0846 68.2183L69.078 68.2511C67.2713 77.3236 59.2495 83.9058 49.9934 83.9058Z" fill="black"/>
<path d="M69.421 63.2313C69.3795 62.5441 69.3008 61.8592 69.1894 61.1831C69.1588 60.9905 69.1239 60.7957 69.0845 60.6054C69.0256 60.3165 68.9622 60.0277 68.8923 59.7432C68.8792 59.6863 68.8661 59.6294 68.853 59.5769C68.8399 59.5222 68.8268 59.4675 68.8115 59.4149C68.7831 59.3099 68.7547 59.2049 68.7263 59.0998C68.5843 58.5987 68.4226 58.1042 68.2435 57.6206C68.1998 57.5046 68.1561 57.3886 68.1102 57.2726C68.0709 57.1676 68.0272 57.0648 67.9857 56.9619L67.7476 56.9925L30.7274 61.636C30.7033 61.8001 30.6815 61.9664 30.6618 62.1306V62.1349C30.6443 62.2881 30.6269 62.4435 30.6138 62.5967C30.6094 62.6404 30.605 62.6864 30.6007 62.7323C30.5897 62.8549 30.581 62.9774 30.5723 63.1C30.5701 63.135 30.5679 63.17 30.5657 63.2028C30.5591 63.345 30.5504 63.4873 30.546 63.6295V63.6361C30.5351 63.8724 30.5307 64.1 30.5286 64.3319V64.4107C30.5286 67.1701 31.0944 69.8376 32.2063 72.3366C35.3325 79.3652 42.3145 83.9059 49.9933 83.9059C59.2495 83.9059 67.2713 77.3236 69.078 68.2511L69.0845 68.2183C69.3314 66.9754 69.4559 65.6952 69.4559 64.4107C69.4559 64.0168 69.4428 63.623 69.421 63.2313ZM45.7836 64.7543C44.0206 66.9447 41.93 67.6362 39.9966 67.6362C37.8229 67.6362 35.8437 66.7631 34.7492 66.1679C34.7427 66.1635 34.7361 66.1591 34.7295 66.1548C33.93 65.7237 33.4472 65.3604 33.4253 65.3451C33.185 65.1635 33.1348 64.8221 33.3161 64.5792C33.4974 64.3385 33.8404 64.2882 34.0807 64.4698C34.0851 64.472 34.5351 64.809 35.267 65.2029C35.2691 65.2051 35.2735 65.2072 35.2757 65.2072C37.552 66.4436 41.8208 67.9316 44.9338 64.0672C45.1217 63.833 45.4669 63.7958 45.7006 63.984C45.9365 64.1744 45.9737 64.5201 45.7836 64.7543ZM51.315 71.9274C50.6291 72.3563 49.9846 72.5729 49.3882 72.5729C49.102 72.5729 48.8246 72.5226 48.5602 72.4197C47.3325 71.9493 46.9152 70.5532 46.8978 70.4941C46.8148 70.203 46.9808 69.8989 47.2713 69.8157C47.5597 69.7326 47.8612 69.8989 47.9464 70.1877C47.9529 70.2074 48.2391 71.1308 48.9557 71.4C49.4275 71.5794 50.0261 71.4438 50.7361 70.9996C50.9917 70.8398 51.3281 70.9164 51.4876 71.1746C51.6471 71.4306 51.5706 71.7676 51.315 71.9274ZM64.7831 63.7936C63.1053 66.1263 61.1632 67.3736 59.007 67.5049C58.8803 67.5115 58.7536 67.5159 58.6291 67.5159C55.1883 67.5159 52.5406 64.6908 52.427 64.5661C52.2216 64.3451 52.2347 63.9993 52.4576 63.7936C52.6782 63.5879 53.0234 63.6011 53.2287 63.8243C53.2549 63.8505 55.6711 66.4217 58.6334 66.4217C58.7361 66.4217 58.841 66.4195 58.9458 66.413C60.7569 66.2992 62.4237 65.2029 63.8983 63.1547C64.0731 62.9096 64.4161 62.8527 64.6607 63.0299C64.9054 63.2072 64.96 63.5486 64.7831 63.7936Z" fill="white"/>
<path d="M51.3151 71.9274C50.6291 72.3563 49.9847 72.5729 49.3883 72.5729C49.1021 72.5729 48.8246 72.5226 48.5603 72.4197C47.3326 71.9493 46.9153 70.5532 46.8978 70.4941C46.8148 70.2031 46.9808 69.8989 47.2714 69.8157C47.5598 69.7326 47.8612 69.8989 47.9464 70.1877C47.953 70.2074 48.2392 71.1309 48.9557 71.4C49.4276 71.5795 50.0262 71.4438 50.7362 70.9996C50.9918 70.8398 51.3282 70.9164 51.4877 71.1746C51.6472 71.4307 51.5707 71.7676 51.3151 71.9274Z" fill="black"/>
<path d="M68.3244 56.3603C68.296 56.2924 68.2676 56.2246 68.237 56.1589C67.3654 54.2311 66.201 52.4674 64.7985 50.9246C61.3665 47.1477 56.5145 44.6881 51.0879 44.3971C50.7275 44.3774 50.3626 44.3665 49.9956 44.3665C48.0863 44.3665 46.2381 44.6334 44.4904 45.1345C39.2256 46.6401 34.8476 50.2529 32.3222 55.0014C31.3828 56.7651 30.7012 58.6886 30.3255 60.7193C30.2971 60.8593 30.2731 61.0015 30.2512 61.1438L30.8148 61.0738L30.9525 61.0563L67.6799 56.45L67.763 56.439L68.3266 56.3668C68.3266 56.3668 68.3266 56.3646 68.3244 56.3603ZM30.9241 60.5092H30.9219C31.0224 60.0059 31.1425 59.5092 31.2845 59.019C31.3195 58.9008 31.3544 58.7827 31.3894 58.6645C31.4178 58.5726 31.4462 58.4785 31.4768 58.3866C31.5052 58.2947 31.5358 58.2028 31.5685 58.1109C31.6494 57.8658 31.7389 57.6251 31.8307 57.3844C31.8591 57.31 31.8875 57.2378 31.9181 57.1655C32.0033 56.9467 32.095 56.7323 32.1911 56.5178C32.237 56.4106 32.2851 56.3056 32.3353 56.2005C32.4031 56.0517 32.473 55.9051 32.5472 55.7585C32.556 55.7388 32.5647 55.7213 32.5756 55.7016C32.6499 55.5528 32.7242 55.4062 32.8028 55.2596C32.9055 55.067 33.0104 54.8766 33.1218 54.6884C33.1917 54.5637 33.266 54.439 33.3424 54.3142C33.3883 54.2333 33.4385 54.1545 33.4888 54.0757C33.5216 54.0232 33.5543 53.9707 33.5893 53.9182C33.6483 53.8241 33.7073 53.7322 33.7706 53.6403C33.8514 53.5177 33.9345 53.3974 34.0175 53.277C34.0655 53.2048 34.1158 53.1348 34.166 53.0669C34.2905 52.8919 34.4194 52.719 34.5505 52.5483C34.6139 52.463 34.6794 52.3798 34.7471 52.2967C34.8148 52.2113 34.8804 52.1282 34.9503 52.0472C35.0115 51.9706 35.0748 51.8962 35.1382 51.8218C35.1491 51.8065 35.1622 51.7912 35.1731 51.7781C35.1906 51.7584 35.2081 51.7365 35.2256 51.7168C35.2714 51.6621 35.3173 51.6096 35.3654 51.5571C35.4921 51.4083 35.6253 51.2638 35.7608 51.1216C35.8613 51.0122 35.9639 50.905 36.0688 50.7977C36.1125 50.7518 36.1584 50.7036 36.2086 50.6577C36.3091 50.5548 36.4118 50.4542 36.5145 50.3557C36.5145 50.3557 36.5159 50.3542 36.5188 50.3513L36.5232 50.3469C36.5822 50.2901 36.6434 50.231 36.7023 50.1763C36.781 50.1041 36.8596 50.0318 36.9383 49.9596C37.0169 49.8874 37.0978 49.8174 37.1764 49.7474C37.3381 49.6051 37.4997 49.4651 37.6657 49.3316C37.7378 49.2725 37.8121 49.2112 37.8886 49.1522C38.0633 49.0121 38.2403 48.8764 38.4216 48.7408C38.485 48.6926 38.5483 48.6467 38.6139 48.5985C38.6313 48.5854 38.651 48.5723 38.6685 48.5591C39.018 48.3097 39.3763 48.069 39.7411 47.8414C40.0164 47.6707 40.296 47.5066 40.58 47.3469C41.148 47.0317 41.7335 46.7429 42.3342 46.4847C42.4282 46.4453 42.5221 46.4059 42.616 46.3665C42.8979 46.2505 43.184 46.1411 43.4724 46.0383C43.5795 45.9989 43.6887 45.9617 43.7957 45.9245C44.0754 45.8304 44.3572 45.7429 44.6412 45.6619C44.8553 45.6006 45.0715 45.5415 45.29 45.4868C45.3992 45.4606 45.5106 45.4343 45.6199 45.4081C45.8383 45.3577 46.059 45.3096 46.2796 45.268C46.509 45.2243 46.7384 45.1827 46.9678 45.1477C47.0726 45.1302 47.1753 45.1148 47.2802 45.1017C47.3938 45.0864 47.5052 45.0711 47.6166 45.0579C47.728 45.0426 47.8394 45.0317 47.953 45.0207C48.0644 45.0076 48.178 44.9967 48.2916 44.9879C48.5582 44.9638 48.8269 44.9463 49.0956 44.9332C49.1174 44.9332 49.1393 44.931 49.1633 44.931C49.2834 44.9245 49.4036 44.9223 49.5259 44.9201C49.681 44.9157 49.8383 44.9135 49.9934 44.9135C50.3342 44.9135 50.6903 44.9245 51.0552 44.9442C51.3763 44.9617 51.6952 44.9879 52.012 45.0186C52.3288 45.0514 52.6455 45.093 52.9579 45.1389C53.2725 45.187 53.5827 45.2418 53.8929 45.3052C54.2032 45.3687 54.509 45.4387 54.8148 45.5153C55.1207 45.5941 55.4222 45.6772 55.7215 45.7691C55.8722 45.8151 56.0229 45.8632 56.1715 45.9136C56.32 45.9639 56.4664 46.0142 56.6128 46.0667C56.7264 46.1083 56.8378 46.1499 56.9492 46.1915C56.9558 46.1936 56.9601 46.1958 56.9667 46.198C57.0672 46.2374 57.1698 46.2768 57.2703 46.3184C57.3752 46.36 57.4779 46.4037 57.5827 46.4453C57.5958 46.454 57.6111 46.4584 57.6242 46.465C57.8077 46.5416 57.9891 46.6225 58.1704 46.7079C58.1748 46.7101 58.1769 46.7123 58.1813 46.7123C58.308 46.7692 58.4304 46.8304 58.5549 46.8917C58.6597 46.9442 58.7646 46.9967 58.8695 47.0493C59.0857 47.1609 59.302 47.2768 59.5139 47.395C59.5838 47.4344 59.6515 47.476 59.7215 47.5132C59.7695 47.5438 59.8176 47.5701 59.8656 47.5985C59.8766 47.6051 59.8853 47.6116 59.8962 47.6182C59.9639 47.6576 60.0317 47.6992 60.0972 47.7386C60.2982 47.8611 60.497 47.988 60.6936 48.1171C60.7919 48.1828 60.8902 48.2484 60.9863 48.3163C61.0846 48.3819 61.1808 48.4497 61.2769 48.5198C61.373 48.5876 61.4669 48.6576 61.5631 48.7276C61.5631 48.7276 61.5631 48.7298 61.5653 48.7298C61.8165 48.918 62.0655 49.1106 62.3102 49.3119C62.5549 49.5132 62.7952 49.7189 63.0311 49.9334C63.1491 50.0406 63.2671 50.15 63.3828 50.2616C63.4593 50.3338 63.5358 50.406 63.61 50.4826C63.6494 50.5198 63.6887 50.557 63.7258 50.5964C63.953 50.824 64.1759 51.0559 64.3921 51.2945C64.4817 51.3929 64.5735 51.4958 64.6608 51.5964C64.6696 51.6052 64.6783 51.6161 64.6849 51.6249C64.7242 51.6708 64.7657 51.7168 64.8028 51.7627C64.8072 51.7671 64.8094 51.7715 64.8159 51.7759C64.9033 51.8809 64.9929 51.9859 65.0759 52.091C65.1524 52.1807 65.2245 52.2726 65.2944 52.3623C65.3686 52.4542 65.4407 52.5461 65.5085 52.6402C65.5587 52.7059 65.6089 52.7715 65.6548 52.835C65.7007 52.8941 65.7444 52.9553 65.7859 53.0144C65.834 53.0801 65.8798 53.1435 65.9235 53.2092C65.9913 53.3033 66.0568 53.3974 66.1201 53.4937C66.1726 53.5702 66.2228 53.6468 66.2752 53.7256C66.3189 53.7934 66.3648 53.8613 66.4085 53.9313C66.4457 53.9926 66.485 54.0538 66.5243 54.1151C66.5898 54.2223 66.6554 54.3296 66.7231 54.439C66.7449 54.4784 66.769 54.5178 66.7908 54.5571C66.828 54.6228 66.8651 54.6863 66.9022 54.7519C66.9787 54.8832 67.053 55.0167 67.1251 55.1502C67.1622 55.2158 67.1972 55.2836 67.2321 55.3515C67.2911 55.4653 67.3501 55.5791 67.4069 55.6929C67.444 55.7673 67.4811 55.8417 67.5161 55.9182L30.9241 60.5092Z" fill="#343738"/>
<path d="M68.8683 56.3099V56.2311L68.853 56.2027V56.1961L68.8202 56.1326L68.7328 55.9335C68.7263 55.9182 68.7197 55.9029 68.711 55.8876C68.6935 55.8482 68.676 55.811 68.6586 55.7716C68.6236 55.6928 68.5865 55.614 68.5471 55.5353C68.3833 55.1873 68.2064 54.8438 68.0207 54.5068V54.5002C68.0207 54.5002 68.0185 54.5002 68.0163 54.4958C67.7629 54.0363 67.4942 53.5877 67.2058 53.1479C67.0747 52.9466 66.9393 52.7496 66.8017 52.5549C66.7536 52.4848 66.7055 52.417 66.6553 52.3492C66.6356 52.3207 66.6138 52.2901 66.5919 52.2616C66.5329 52.1807 66.474 52.1019 66.415 52.0231C66.38 51.975 66.3429 51.9268 66.3057 51.8809C66.2686 51.8305 66.2315 51.7824 66.1922 51.7343C66.0873 51.5986 65.9802 51.4651 65.871 51.3338C65.8251 51.2769 65.7793 51.22 65.729 51.1631C65.7225 51.1544 65.7159 51.1456 65.7072 51.1369C65.6897 51.115 65.6722 51.0931 65.6526 51.0712C65.6176 51.0275 65.5805 50.9859 65.5411 50.9421C65.5193 50.918 65.4974 50.894 65.4778 50.8699C65.386 50.7649 65.2943 50.6598 65.2003 50.557C65.0867 50.4323 64.971 50.3075 64.8552 50.185C64.8552 50.1828 64.853 50.1828 64.853 50.1828C64.735 50.0602 64.6171 49.9399 64.4969 49.8195C64.4183 49.7386 64.3374 49.6598 64.2566 49.5832C64.1867 49.5154 64.1168 49.4475 64.0447 49.3819C63.5837 48.9464 63.1053 48.5372 62.6116 48.1521C62.5745 48.1215 62.5351 48.093 62.498 48.0646C62.4849 48.0514 62.4696 48.0405 62.4565 48.0317C62.415 47.9989 62.3713 47.9661 62.3298 47.9355C62.3232 47.9289 62.3167 47.9245 62.3101 47.9223C62.2468 47.8742 62.1834 47.826 62.1201 47.7801C62.1201 47.7757 62.1157 47.7757 62.1135 47.7757C62.1048 47.767 62.0938 47.7582 62.0851 47.7538C61.7246 47.4891 61.3576 47.2374 60.9841 47.0011C60.9579 46.9836 60.9316 46.9661 60.9054 46.9507H60.9032C60.877 46.9354 60.8508 46.9179 60.8246 46.9026C60.0338 46.4081 59.2124 45.9704 58.3647 45.5918C58.214 45.5262 58.0633 45.4605 57.9125 45.3971H57.9103C57.6067 45.2702 57.2987 45.1498 56.9884 45.0382H56.9862C56.8311 44.9813 56.676 44.9266 56.5209 44.8763C56.5078 44.8697 56.4969 44.8653 56.4838 44.861C56.3636 44.8216 56.2457 44.7844 56.1255 44.7472C56.1015 44.7406 56.0775 44.734 56.0534 44.7253L55.9682 44.699C55.9398 44.6903 55.9114 44.6815 55.883 44.6728C55.8 44.6487 55.717 44.6246 55.634 44.6027C55.4942 44.5634 55.3522 44.524 55.2102 44.4868C55.1752 44.4758 55.1381 44.4671 55.1031 44.4583C55.0616 44.4452 55.0201 44.4364 54.9786 44.4277C54.9436 44.4189 54.9109 44.4102 54.8781 44.4036L54.8322 44.3905C54.8191 44.3883 54.806 44.3839 54.7929 44.3817C54.7296 44.3664 54.6684 44.3533 54.605 44.3402C54.4805 44.3095 54.3582 44.2833 54.2337 44.257C54.072 44.222 53.9082 44.1892 53.7465 44.1607C53.6242 44.1388 53.4996 44.117 53.3773 44.0973C53.2943 44.0841 53.2113 44.071 53.1283 44.0601C53.0452 44.0469 52.9622 44.0338 52.8792 44.0229C52.8246 44.0141 52.7678 44.0075 52.7132 44.001C52.6673 43.9944 52.6214 43.9878 52.5734 43.9835H52.5712C52.5712 43.9835 52.5646 43.9835 52.5603 43.9813C52.4598 43.9703 52.3571 43.9572 52.2544 43.9441C52.2282 43.9419 52.1998 43.9375 52.1736 43.9353C51.9966 43.9178 51.8175 43.9003 51.6405 43.8872C51.634 43.8872 51.6296 43.8872 51.6231 43.8872C51.5925 43.885 51.5619 43.8828 51.5313 43.8806C51.5204 43.8806 51.5073 43.8806 51.4964 43.8806H51.4898C51.3653 43.8697 51.2429 43.8609 51.1184 43.8544C51.0223 43.85 50.9262 43.8456 50.8322 43.8412C50.5461 43.8303 50.2686 43.8237 49.9977 43.8237H49.989C49.8317 43.8237 49.6744 43.8259 49.5171 43.8303C49.3161 43.8347 49.1151 43.8412 48.9142 43.8522C48.676 43.8631 48.4379 43.8806 48.1998 43.9003C48.0294 43.9156 47.8612 43.9331 47.693 43.9528C47.5663 43.966 47.4396 43.9813 47.315 43.9988C47.2779 44.0032 47.2408 44.0075 47.2036 44.0141C47.1446 44.0207 47.0878 44.0294 47.0289 44.0382C47.0048 44.0404 46.9786 44.0447 46.9546 44.0491C46.8694 44.0601 46.782 44.0754 46.6968 44.0885C46.6771 44.0907 46.6575 44.0951 46.6378 44.0994C46.6138 44.0994 46.5897 44.106 46.5657 44.1104C45.8142 44.2373 45.0715 44.4036 44.3418 44.6137C44.2173 44.6487 44.0927 44.6859 43.9682 44.7253C43.8459 44.7625 43.7214 44.8019 43.599 44.8435C43.3522 44.9222 43.1075 45.0076 42.865 45.0995C42.7143 45.1542 42.5635 45.2133 42.415 45.2724C42.3931 45.2811 42.3691 45.2899 42.3473 45.2986C42.238 45.3424 42.1288 45.3883 42.0217 45.4343C42.0174 45.4343 42.0152 45.4365 42.013 45.4387C41.9366 45.4693 41.8623 45.5021 41.788 45.5349C41.6678 45.5875 41.5499 45.64 41.4341 45.6925C41.2768 45.7647 41.1217 45.8391 40.9688 45.9135C40.8421 45.977 40.7175 46.0404 40.593 46.1061C40.5319 46.1345 40.4729 46.1673 40.4117 46.2002C40.3964 46.2067 40.3833 46.2155 40.368 46.2242C40.2741 46.2724 40.1801 46.3249 40.0862 46.3774C39.6252 46.6313 39.1752 46.9048 38.7339 47.1936C38.4477 47.3818 38.1659 47.5788 37.8885 47.7801C36.8508 48.5416 35.883 49.3972 35.0026 50.3382C34.9131 50.4323 34.8257 50.5263 34.7405 50.6226C34.6531 50.7167 34.5679 50.813 34.4827 50.9093C34.4062 50.999 34.332 51.0865 34.2599 51.1741C34.2205 51.2178 34.1834 51.2616 34.1485 51.3054C34.037 51.4388 33.93 51.5723 33.8251 51.7058C33.6132 51.9772 33.4057 52.2551 33.2047 52.5395C33.1785 52.5789 33.1501 52.6183 33.1239 52.6577C33.1195 52.6599 33.1173 52.6643 33.1173 52.6665C33.0824 52.7168 33.0474 52.7649 33.0125 52.8153C32.96 52.8875 32.912 52.9619 32.8639 53.0363C32.8617 53.0385 32.8595 53.0428 32.8574 53.045C32.7809 53.161 32.7044 53.2792 32.628 53.3973C32.5144 53.579 32.4008 53.7628 32.2915 53.9488C32.2413 54.0341 32.1911 54.1195 32.1408 54.207C32.0381 54.3864 31.9376 54.5659 31.8415 54.7497C31.6952 55.0232 31.5553 55.3011 31.4221 55.5834C31.4112 55.6031 31.4002 55.625 31.3915 55.6447C31.35 55.7344 31.3085 55.8241 31.267 55.9138C31.2539 55.9445 31.2408 55.9729 31.2276 56.0035C31.1643 56.1458 31.1031 56.288 31.042 56.4324C30.9961 56.5397 30.9524 56.6469 30.9087 56.7541C30.8956 56.7847 30.8825 56.8176 30.8694 56.8482C30.8672 56.8548 30.865 56.8635 30.8606 56.8723C30.8344 56.9423 30.8082 57.0101 30.782 57.0802C30.7667 57.1239 30.7492 57.1699 30.7317 57.2158C30.7077 57.2793 30.6837 57.3428 30.6618 57.4062C30.6356 57.4719 30.6138 57.5375 30.5897 57.6032C30.5832 57.6207 30.5766 57.6404 30.5701 57.66C30.5613 57.6841 30.5526 57.7082 30.5461 57.7344C30.5264 57.787 30.5089 57.8395 30.4914 57.892C30.4849 57.9139 30.4783 57.9336 30.4718 57.9555C30.4477 58.0299 30.4237 58.1021 30.3997 58.1765C30.2577 58.6251 30.1332 59.078 30.0218 59.5376C30.0218 59.5376 30.0218 59.5419 30.0218 59.5441C29.9737 59.7411 29.93 59.9358 29.8885 60.135C29.8535 60.2947 29.823 60.4544 29.7924 60.6142C29.7924 60.6273 29.788 60.6426 29.7858 60.6558C29.7662 60.7586 29.7465 60.8637 29.7312 60.9687C29.7246 61.0015 29.7181 61.0321 29.7137 61.065L29.7006 61.1503V61.1569L29.6591 61.4217L29.6045 61.7805H29.611L30.7317 61.6383L67.752 56.997L67.9901 56.9664L68.8748 56.8526V56.3143L68.8683 56.3099ZM30.9218 60.5092C31.0223 60.0059 31.1424 59.5091 31.2844 59.019C31.3194 58.9008 31.3544 58.7826 31.3893 58.6645C31.4177 58.5725 31.4461 58.4785 31.4767 58.3865C31.5051 58.2946 31.5357 58.2027 31.5684 58.1108C31.6493 57.8657 31.7388 57.625 31.8306 57.3843C31.859 57.3099 31.8874 57.2377 31.918 57.1655C32.0032 56.9467 32.0949 56.7322 32.1911 56.5178C32.2369 56.4106 32.285 56.3055 32.3352 56.2005C32.403 56.0517 32.4729 55.9051 32.5471 55.7585C32.5559 55.7388 32.5646 55.7213 32.5755 55.7016C32.6498 55.5528 32.7241 55.4061 32.8027 55.2595C32.9054 55.067 33.0103 54.8766 33.1217 54.6884C33.1916 54.5637 33.2659 54.4389 33.3423 54.3142C33.3882 54.2332 33.4385 54.1545 33.4887 54.0757C33.5215 54.0232 33.5542 53.9707 33.5892 53.9181C33.6482 53.824 33.7072 53.7321 33.7705 53.6402C33.8514 53.5177 33.9344 53.3973 34.0174 53.277C34.0654 53.207 34.1135 53.1369 34.1659 53.0669C34.2905 52.8918 34.4193 52.719 34.5504 52.5483C34.6138 52.4629 34.6793 52.3798 34.747 52.2966C34.8148 52.2113 34.8803 52.1281 34.9502 52.0472C35.0092 51.9706 35.0725 51.8962 35.1381 51.8218C35.149 51.8065 35.1621 51.7912 35.173 51.778C35.1905 51.7583 35.208 51.7364 35.2255 51.7168C35.2713 51.662 35.3172 51.6095 35.3653 51.557C35.492 51.4082 35.6252 51.2638 35.7607 51.1216C35.859 51.0121 35.9617 50.9049 36.0687 50.7977C36.1124 50.7517 36.1583 50.7036 36.2085 50.6576C36.3068 50.5548 36.4095 50.4541 36.5144 50.3557C36.5144 50.3557 36.5158 50.3542 36.5187 50.3513L36.5231 50.3469C36.5821 50.29 36.6433 50.2309 36.7023 50.1762C36.7809 50.104 36.8595 50.0318 36.9382 49.9596C37.0168 49.8852 37.0955 49.8152 37.1763 49.7473C37.338 49.6051 37.4996 49.465 37.6657 49.3316C37.7399 49.2681 37.812 49.209 37.8885 49.1521C38.0633 49.0121 38.2402 48.8764 38.4215 48.7407C38.4849 48.6926 38.5482 48.6466 38.6138 48.5985C38.6313 48.5854 38.6509 48.5722 38.6684 48.5591C39.0179 48.3096 39.3762 48.0689 39.741 47.8414C40.0163 47.6685 40.2959 47.5044 40.5799 47.3468C41.1479 47.0317 41.7334 46.7429 42.3341 46.4846C42.4281 46.4453 42.522 46.4059 42.616 46.3665C42.8978 46.2483 43.184 46.1367 43.4723 46.0382C43.5794 45.9967 43.6864 45.9595 43.7956 45.9245C44.0731 45.8282 44.3549 45.7406 44.6389 45.6597C44.8552 45.5984 45.0715 45.5393 45.2899 45.4868C45.3991 45.4605 45.5106 45.4343 45.6198 45.408C45.8382 45.3577 46.0589 45.3096 46.2795 45.268C46.5089 45.2242 46.7383 45.1826 46.9677 45.1476C47.0725 45.1301 47.1752 45.1148 47.2801 45.1017C47.3937 45.0864 47.5051 45.071 47.6165 45.0579C47.7279 45.0426 47.8393 45.0316 47.9529 45.0207C48.0644 45.0076 48.1779 44.9966 48.2915 44.9879C48.5581 44.9638 48.8268 44.9463 49.0955 44.9332C49.1173 44.9332 49.1392 44.931 49.1632 44.931C49.2834 44.9244 49.4035 44.9222 49.5258 44.92C49.681 44.9157 49.8382 44.9135 49.9934 44.9135C50.3341 44.9135 50.6902 44.9244 51.0551 44.9441C51.3762 44.9616 51.6952 44.9857 52.0119 45.0185C52.3287 45.0513 52.6455 45.0929 52.9579 45.1389C53.2724 45.187 53.5826 45.2417 53.8929 45.3052C54.2031 45.3664 54.5089 45.4365 54.8148 45.5152C55.1206 45.5918 55.4221 45.6772 55.7214 45.7691C55.8721 45.815 56.0228 45.8632 56.1714 45.9135C56.3199 45.9638 56.4663 46.0142 56.6127 46.0667C56.7263 46.1083 56.8377 46.1498 56.9491 46.1914C56.9557 46.1936 56.96 46.1958 56.9666 46.198C57.0671 46.2374 57.1698 46.2768 57.2702 46.3183C57.3751 46.3599 57.4778 46.4037 57.5826 46.4453C57.5958 46.454 57.611 46.4584 57.6242 46.4649C57.8077 46.5415 57.989 46.6225 58.1703 46.7078C58.1747 46.71 58.1769 46.7122 58.1812 46.7122C58.3079 46.7691 58.4303 46.8304 58.5548 46.8917C58.6597 46.9442 58.7645 46.9967 58.8694 47.0492C59.0857 47.1608 59.3019 47.2768 59.5138 47.395C59.5837 47.4343 59.6515 47.4759 59.7214 47.5131C59.7694 47.5438 59.8175 47.57 59.8656 47.5985C59.8765 47.605 59.8852 47.6116 59.8961 47.6182C59.9639 47.6575 60.0316 47.6991 60.0971 47.7385C60.2981 47.8611 60.4969 47.988 60.6935 48.1171C60.7918 48.1805 60.8901 48.2462 60.9862 48.3162C61.0846 48.3819 61.1807 48.4497 61.2768 48.5197C61.3729 48.5876 61.4669 48.6576 61.563 48.7276C61.563 48.7276 61.563 48.7298 61.5652 48.7298C61.8186 48.9158 62.0654 49.1105 62.3101 49.3119C62.5548 49.5132 62.7951 49.7189 63.031 49.9333C63.149 50.0406 63.267 50.15 63.3828 50.2616C63.4592 50.3338 63.5357 50.406 63.61 50.4826C63.6493 50.5198 63.6886 50.557 63.7257 50.5964C63.9529 50.8239 64.1758 51.0559 64.392 51.2944C64.4816 51.3929 64.5734 51.4957 64.6607 51.5964C64.6695 51.6052 64.6782 51.6161 64.6848 51.6248C64.7241 51.6708 64.7656 51.7168 64.8027 51.7627C64.8071 51.7671 64.8093 51.7715 64.8158 51.7758C64.9032 51.8809 64.9928 51.9859 65.0758 52.0909C65.1523 52.1807 65.2244 52.2726 65.2943 52.3623C65.3686 52.4542 65.4406 52.5461 65.5084 52.6402C65.5586 52.7058 65.6089 52.7715 65.6547 52.835C65.7006 52.894 65.7443 52.9553 65.7858 53.0144C65.8339 53.08 65.8798 53.1435 65.9234 53.2091C65.9912 53.3032 66.0567 53.3973 66.1201 53.4936C66.1725 53.5702 66.2227 53.6468 66.2752 53.7256C66.3189 53.7934 66.3647 53.8612 66.4084 53.9313C66.4456 53.9925 66.4849 54.0538 66.5242 54.1151C66.5897 54.2223 66.6553 54.3295 66.723 54.4389C66.7449 54.4783 66.7689 54.5177 66.7907 54.5571C66.8213 54.6074 66.8497 54.66 66.8803 54.7103C66.889 54.7234 66.8956 54.7387 66.9021 54.7519C66.9786 54.8832 67.0529 55.0166 67.125 55.1501C67.1621 55.2158 67.1971 55.2836 67.232 55.3514C67.291 55.4652 67.35 55.579 67.4068 55.6928C67.4439 55.7672 67.4811 55.8416 67.5182 55.9182H67.516L30.924 60.5092H30.9218Z" fill="black"/>
<path d="M67.5183 55.9183L30.9241 60.5092H30.9219C31.0224 60.0059 31.1425 59.5092 31.2845 59.019C31.3195 58.9009 31.3544 58.7827 31.3894 58.6645C31.4178 58.5726 31.4462 58.4785 31.4768 58.3866C31.5052 58.2947 31.5357 58.2028 31.5685 58.1109C31.6493 57.8658 31.7389 57.6251 31.8307 57.3844C31.8591 57.31 31.8875 57.2378 31.9181 57.1656C32.0033 56.9468 32.095 56.7323 32.1911 56.5179C32.237 56.4107 32.2851 56.3056 32.3353 56.2006C32.403 56.0518 32.4729 55.9052 32.5472 55.7586C32.556 55.7389 32.5647 55.7214 32.5756 55.7017C32.6499 55.5529 32.7242 55.4062 32.8028 55.2596C32.9055 55.0671 33.0104 54.8767 33.1218 54.6885C33.1917 54.5638 33.2659 54.439 33.3424 54.3143C33.3883 54.2333 33.4385 54.1546 33.4888 54.0758C33.5215 54.0233 33.5543 53.9708 33.5893 53.9182C33.6483 53.8241 33.7072 53.7322 33.7706 53.6403C33.8514 53.5178 33.9344 53.3974 34.0175 53.2771C34.0655 53.2049 34.1158 53.1348 34.166 53.067C34.2905 52.8919 34.4194 52.7191 34.5505 52.5484C34.6138 52.463 34.6794 52.3799 34.7471 52.2967C34.8148 52.2114 34.8804 52.1282 34.9503 52.0473C35.0114 51.9707 35.0748 51.8963 35.1382 51.8219C35.1491 51.8066 35.1622 51.7913 35.1731 51.7781C35.1906 51.7584 35.2081 51.7365 35.2255 51.7168C35.2714 51.6621 35.3173 51.6096 35.3653 51.5571C35.4921 51.4083 35.6253 51.2639 35.7608 51.1216C35.8613 51.0122 35.9639 50.905 36.0688 50.7978C36.1147 50.7496 36.1605 50.7037 36.2086 50.6577C36.3091 50.5549 36.4118 50.4542 36.5144 50.3558C36.5144 50.3558 36.5159 50.3543 36.5188 50.3514L36.5232 50.347C36.5822 50.2901 36.6433 50.231 36.7023 50.1763C36.781 50.1041 36.8596 50.0319 36.9383 49.9597C37.0169 49.8875 37.0977 49.8174 37.1764 49.7474C37.338 49.6052 37.4997 49.4673 37.6657 49.3317C37.7378 49.2726 37.8121 49.2113 37.8886 49.1522C38.0633 49.0122 38.2403 48.8765 38.4216 48.7408C38.485 48.6927 38.5483 48.6467 38.6138 48.5986C38.6313 48.5855 38.651 48.5723 38.6685 48.5592C39.018 48.3097 39.3763 48.069 39.7411 47.8415C40.0164 47.6708 40.296 47.5067 40.58 47.3469C41.148 47.0318 41.7335 46.743 42.3342 46.4847C42.4282 46.4454 42.5221 46.406 42.616 46.3666C42.8978 46.2506 43.184 46.1412 43.4724 46.0383C43.5794 45.9989 43.6887 45.9617 43.7957 45.9245C44.0753 45.8305 44.3572 45.7429 44.6412 45.662C44.8552 45.6007 45.0715 45.5416 45.29 45.4869C45.3992 45.4606 45.5106 45.4344 45.6199 45.4081C45.8383 45.3578 46.059 45.3097 46.2796 45.2681C46.509 45.2243 46.7384 45.1827 46.9678 45.1477C47.0726 45.1302 47.1753 45.1149 47.2801 45.1018C47.3937 45.0864 47.5052 45.0711 47.6166 45.058C47.728 45.0427 47.8394 45.0317 47.953 45.0208C48.0644 45.0077 48.178 44.9967 48.2916 44.988C48.5581 44.9639 48.8268 44.9464 49.0956 44.9333C49.1174 44.9333 49.1392 44.9311 49.1633 44.9311C49.2834 44.9245 49.4036 44.9223 49.5259 44.9201C49.681 44.9158 49.8383 44.9136 49.9934 44.9136C50.3342 44.9136 50.6903 44.9245 51.0551 44.9442C51.3763 44.9617 51.6952 44.988 52.012 45.0186C52.3288 45.0514 52.6455 45.093 52.9579 45.139C53.2725 45.1871 53.5827 45.2418 53.8929 45.3053C54.2031 45.3687 54.509 45.4388 54.8148 45.5153C55.1207 45.5941 55.4221 45.6773 55.7214 45.7692C55.8722 45.8151 56.0229 45.8633 56.1715 45.9136C56.32 45.9639 56.4664 46.0143 56.6128 46.0668C56.7264 46.1084 56.8378 46.1499 56.9492 46.1915C56.9557 46.1937 56.9601 46.1959 56.9667 46.1981C57.0672 46.2375 57.1698 46.2769 57.2703 46.3184C57.3752 46.36 57.4779 46.4038 57.5827 46.4454C57.5958 46.4541 57.6111 46.4585 57.6242 46.465C57.8077 46.5416 57.989 46.6226 58.1704 46.7079C58.1747 46.7101 58.1769 46.7123 58.1813 46.7123C58.3058 46.7714 58.4325 46.8305 58.5549 46.8918C58.6597 46.9443 58.7646 46.9968 58.8694 47.0493C59.0857 47.1609 59.302 47.2769 59.5139 47.3951C59.5838 47.4344 59.6515 47.476 59.7214 47.5132C59.7695 47.5439 59.8176 47.5701 59.8656 47.5986C59.8765 47.6051 59.8853 47.6117 59.8962 47.6183C59.9639 47.6576 60.0317 47.6992 60.0972 47.7386C60.2982 47.8612 60.497 47.9881 60.6936 48.1172C60.7919 48.1828 60.8902 48.2485 60.9863 48.3163C61.0846 48.382 61.1807 48.4498 61.2769 48.5198C61.373 48.5876 61.4669 48.6577 61.5631 48.7277C61.5631 48.7277 61.5631 48.7299 61.5652 48.7299C61.8165 48.9181 62.0655 49.1106 62.3102 49.312C62.5549 49.5133 62.7952 49.719 63.0311 49.9334C63.1491 50.0406 63.267 50.1501 63.3828 50.2617C63.4593 50.3339 63.5357 50.4061 63.61 50.4827C63.6493 50.5199 63.6887 50.5571 63.7258 50.5965C63.953 50.824 64.1758 51.056 64.3921 51.2945C64.4817 51.393 64.5734 51.4958 64.6608 51.5965C64.6696 51.6053 64.6783 51.6162 64.6848 51.6249C64.7242 51.6709 64.7657 51.7169 64.8028 51.7628C64.8072 51.7672 64.8094 51.7716 64.8159 51.7759C64.9033 51.881 64.9929 51.986 65.0759 52.091C65.1524 52.1808 65.2244 52.2727 65.2943 52.3624C65.3686 52.4543 65.4407 52.5462 65.5084 52.6403C65.5587 52.7059 65.6089 52.7716 65.6548 52.835C65.7007 52.8941 65.7444 52.9554 65.7859 53.0145C65.8339 53.0801 65.8798 53.1436 65.9235 53.2092C65.9912 53.3033 66.0568 53.3974 66.1201 53.4937C66.1726 53.5703 66.2228 53.6469 66.2752 53.7257C66.3189 53.7935 66.3648 53.8613 66.4085 53.9314C66.4456 53.9926 66.485 54.0539 66.5243 54.1152C66.5898 54.2224 66.6554 54.3296 66.7231 54.439C66.7449 54.4784 66.769 54.5178 66.7908 54.5572C66.8279 54.6229 66.8651 54.6863 66.9022 54.752C66.9787 54.8833 67.053 55.0167 67.125 55.1502C67.1622 55.2159 67.1971 55.2837 67.2321 55.3515C67.2911 55.4653 67.3501 55.5791 67.4069 55.6929C67.444 55.7673 67.4811 55.8417 67.5161 55.9183H67.5183Z" fill="#F8A629"/>
<path d="M68.3223 56.9072C68.0471 56.9072 67.8111 56.6993 67.7805 56.4214C67.7805 56.4039 67.774 56.3689 67.7653 56.3142L67.7521 56.2245C67.7085 55.9247 67.916 55.649 68.2131 55.6052C68.5146 55.5592 68.7876 55.7693 68.8313 56.0669L68.8444 56.1544C68.8554 56.2332 68.8619 56.2814 68.8641 56.3011C68.8969 56.6008 68.6806 56.8722 68.3791 56.9028C68.3595 56.9028 68.3398 56.905 68.3201 56.905L68.3223 56.9072Z" fill="black"/>
<path d="M39.7783 17.4311C39.0945 16.9672 38.2207 16.8993 37.4364 17.1597C32.2589 18.8906 31.1142 27.1732 30.8651 31.1405C30.7843 32.4337 30.7974 33.2696 30.7974 33.2696L31.3523 32.5803L31.68 32.1733C31.68 32.1733 31.6822 32.1711 31.68 32.169H31.6822C31.7368 31.9917 31.7914 31.8188 31.8482 31.6482C32.0011 31.1864 32.1606 30.74 32.3288 30.3089C32.3834 30.1711 32.4381 30.0332 32.4949 29.8976C32.5669 29.7181 32.6434 29.5409 32.7199 29.3658C32.7963 29.1907 32.8728 29.0201 32.9536 28.8516C33.0323 28.6809 33.1131 28.5146 33.1961 28.3505C33.2704 28.1995 33.349 28.0485 33.4255 27.9019C33.4342 27.8887 33.4408 27.8778 33.4452 27.8669C33.5304 27.7071 33.6177 27.5496 33.7051 27.3964C33.7947 27.2432 33.8821 27.0922 33.9738 26.9434C34.0372 26.8384 34.1005 26.7355 34.1683 26.6349C34.1748 26.6217 34.1835 26.6086 34.1923 26.5977C34.2928 26.4379 34.3955 26.2826 34.5025 26.1316C34.5615 26.0462 34.6205 25.9609 34.6838 25.8777C34.7035 25.8449 34.7275 25.8143 34.7515 25.7836C34.7974 25.7202 34.8433 25.6567 34.8914 25.5954C34.946 25.521 35.0006 25.4488 35.0596 25.3766C35.0923 25.335 35.1251 25.2935 35.1579 25.2519C35.2474 25.1381 35.3392 25.0287 35.4331 24.9215C35.455 24.8952 35.4768 24.8689 35.4987 24.8427C35.5686 24.7595 35.6407 24.6808 35.7128 24.602C36.1453 24.1228 36.6019 23.6895 37.0803 23.2978C37.1131 23.2693 37.148 23.2431 37.1808 23.2168C37.2857 23.1315 37.3927 23.0483 37.4998 22.9674C37.6155 22.8798 37.7357 22.7945 37.8537 22.7113C38 22.6107 38.1464 22.5144 38.2971 22.4225C38.3736 22.3722 38.4501 22.3262 38.5287 22.2802C38.5615 22.2584 38.5964 22.2387 38.6314 22.219C38.7275 22.1621 38.8258 22.1074 38.9263 22.0549C39.0159 22.0067 39.1076 21.9586 39.1994 21.9126C39.2911 21.8645 39.3829 21.8185 39.4746 21.7748C39.5729 21.7288 39.6734 21.6829 39.7761 21.6391C39.8329 21.6128 39.8919 21.5888 39.9509 21.5647C39.9618 21.5581 39.9749 21.5516 39.988 21.5494C40.0732 21.5122 40.1584 21.4772 40.2458 21.4443C40.2698 21.4334 40.2961 21.4246 40.3223 21.4159L40.6216 21.0439L40.9645 20.6172C40.9842 20.4137 40.9908 20.2233 40.9908 20.0417C40.982 18.6237 40.3965 17.8512 39.7783 17.4311ZM37.609 17.6805C38.2644 17.4617 38.9613 17.5383 39.4725 17.884C40.1475 18.3436 40.473 19.1248 40.4402 20.2102C36.5342 21.5078 33.5675 24.5341 31.5861 29.2323C32.0645 25.0921 33.4714 19.0613 37.609 17.6805Z" fill="#343738"/>
<path d="M40.4401 20.2102C36.5341 21.5078 33.5674 24.5342 31.5859 29.2323C32.0644 25.0922 33.4712 19.0613 37.6089 17.6806C38.2643 17.4617 38.9611 17.5383 39.4723 17.8841C40.1474 18.3436 40.4729 19.1248 40.4401 20.2102Z" fill="#F8A629"/>
<path d="M41.5237 20.464C41.5193 20.5319 41.515 20.5997 41.5084 20.6697C41.4866 20.8973 41.3293 21.0811 41.1217 21.1424H41.1196C41.0562 21.1621 40.9863 21.1686 40.9142 21.1621C40.8028 21.1533 40.7023 21.1096 40.6215 21.0439C40.5385 20.9783 40.4773 20.8885 40.4445 20.7857C40.4227 20.7179 40.4139 20.6435 40.4205 20.5669C40.4314 20.4443 40.438 20.324 40.4401 20.2102C40.4729 19.1248 40.1474 18.3436 39.4724 17.8841C38.9612 17.5383 38.2643 17.4617 37.6089 17.6806C33.4713 19.0613 32.0644 25.0922 31.586 29.2323C31.5008 29.9764 31.4462 30.6591 31.4112 31.2412C31.3762 31.7838 31.3588 32.239 31.3522 32.5804C31.3413 32.9983 31.3435 33.2434 31.3435 33.2609C31.3435 33.3003 31.3435 33.3397 31.3326 33.3791C31.3304 33.3878 31.3282 33.3944 31.326 33.4032C31.3238 33.4141 31.3194 33.4272 31.3173 33.4382C31.2474 33.6548 31.0464 33.8124 30.8061 33.8167H30.7973C30.7493 33.8167 30.7034 33.8102 30.6597 33.7992C30.4281 33.738 30.2555 33.5279 30.2512 33.2784V33.1996C30.2468 32.6482 30.2599 29.4512 31.0092 25.9609C32.1146 20.7944 34.2206 17.6587 37.2637 16.6411C38.2403 16.3151 39.2932 16.442 40.0862 16.9803C40.7438 17.4289 41.4822 18.2867 41.5346 19.8973C41.539 20.0767 41.5368 20.2649 41.5237 20.464Z" fill="black"/>
<path d="M59.2955 28.6197L59.2933 28.6153C56.7854 22.381 52.6893 15.8228 47.787 15.5536C44.6434 15.3808 44.7199 18.2495 44.8946 19.4793C44.9405 19.7923 44.9907 20.0002 44.9973 20.0242L45.4364 20.3481L45.7663 20.591H45.7685C45.8515 20.5954 45.9367 20.6019 46.0197 20.6085C46.0918 20.6129 46.1661 20.6194 46.2381 20.626C46.3212 20.6326 46.4042 20.6413 46.4872 20.6522C46.5309 20.6566 46.5724 20.661 46.6161 20.6676C46.6969 20.6763 46.7799 20.6873 46.8608 20.7004C47.0355 20.7245 47.2125 20.7551 47.3851 20.7879C47.4965 20.8098 47.6079 20.8317 47.7171 20.8558C48.0033 20.917 48.2895 20.9892 48.5735 21.0724C48.6456 21.0943 48.7177 21.1162 48.7898 21.138C48.8662 21.1599 48.9427 21.1862 49.0191 21.2103C49.0934 21.2343 49.1677 21.2606 49.242 21.2868C49.3162 21.3153 49.3905 21.3415 49.467 21.37C49.5413 21.3984 49.6155 21.4269 49.6898 21.4553C49.7641 21.4838 49.8384 21.5144 49.9126 21.5451C50.0612 21.6063 50.2097 21.672 50.3561 21.7398C50.651 21.8755 50.9438 22.0221 51.2321 22.1818C51.3042 22.2212 51.3763 22.2606 51.4484 22.3022C51.5926 22.3853 51.7346 22.4707 51.8788 22.5582C51.9705 22.6151 52.0601 22.672 52.1519 22.7311C52.2414 22.7902 52.3332 22.8493 52.4227 22.9105C52.5145 22.9718 52.6041 23.0353 52.6936 23.0987C52.7832 23.1622 52.8728 23.2256 52.9623 23.2913C53.0956 23.3876 53.2245 23.4882 53.3556 23.5911C53.6046 23.7858 53.8515 23.9915 54.0983 24.206C54.284 24.3679 54.4675 24.5342 54.6489 24.7071C54.7035 24.7574 54.7559 24.8077 54.8105 24.8603C54.935 24.9806 55.0596 25.1032 55.1841 25.2301C55.1906 25.2366 55.1972 25.2432 55.2059 25.252C55.3217 25.3701 55.4375 25.4905 55.5533 25.613C55.6756 25.7443 55.798 25.8778 55.9203 26.0135C56.0404 26.1491 56.1628 26.287 56.2829 26.427C56.3725 26.5321 56.4621 26.6393 56.5516 26.7465C56.6041 26.8078 56.6543 26.8713 56.7067 26.9347C56.7854 27.031 56.8619 27.1295 56.9405 27.2279C57.065 27.3855 57.1874 27.5452 57.3119 27.7072C57.3752 27.7903 57.4386 27.8757 57.5019 27.9632C57.5675 28.0507 57.6308 28.1383 57.6942 28.2258C57.7554 28.3133 57.8187 28.3987 57.8799 28.4862C57.941 28.5737 58.0044 28.6613 58.0656 28.7532C58.1202 28.8297 58.1726 28.9063 58.225 28.9851C58.5396 29.449 58.8498 29.9304 59.1557 30.4337L59.4943 30.681L60.272 31.2543C59.9793 30.3965 59.6538 29.5103 59.2955 28.6197ZM45.8777 16.7287C46.2622 16.2582 46.8804 16.0525 47.7564 16.1007C50.5658 16.2561 54.4785 19.1861 57.8733 26.6459C54.2534 22.0155 50.0896 19.6128 45.4451 19.4837C45.3272 18.7332 45.2813 17.4574 45.8777 16.7287Z" fill="#343738"/>
<path d="M57.8734 26.646C54.2536 22.0157 50.0897 19.613 45.4453 19.4839C45.3273 18.7333 45.2814 17.4575 45.8778 16.7289C46.2623 16.2584 46.8805 16.0527 47.7566 16.1008C50.566 16.2562 54.4786 19.1863 57.8734 26.646Z" fill="#F8A629"/>
<path d="M60.5364 31.7314C60.508 31.7489 60.4796 31.7621 60.4468 31.773C60.39 31.7927 60.3288 31.8015 60.272 31.8015C60.0448 31.8015 59.8307 31.6592 59.7543 31.4316C59.6691 31.1778 59.5817 30.9283 59.4943 30.6811C59.278 30.0705 59.0574 29.4797 58.8346 28.913C58.52 28.1143 58.201 27.3637 57.8755 26.6503C57.8755 26.6503 57.8748 26.6489 57.8733 26.6459C54.4785 19.1862 50.5659 16.2561 47.7565 16.1007C46.8804 16.0526 46.2622 16.2583 45.8777 16.7288C45.2813 17.4575 45.3272 18.7332 45.4452 19.4838C45.4714 19.6479 45.4998 19.7858 45.526 19.8886L45.5435 19.9543V20.0352C45.5435 20.1512 45.502 20.2606 45.4364 20.3481C45.349 20.4707 45.2114 20.5538 45.0541 20.5713H45.0497C45.0323 20.5713 45.0148 20.5713 44.9973 20.5713C44.9908 20.5713 44.9842 20.5713 44.9777 20.5713H44.9733C44.7177 20.5626 44.508 20.3766 44.4599 20.1337C44.4555 20.1118 44.4468 20.0812 44.4381 20.0396C44.414 19.9258 44.3769 19.7376 44.3441 19.4969C44.2262 18.6238 44.1781 17.0811 45.0323 16.0373C45.6461 15.2867 46.5812 14.9388 47.8155 15.0088C50.5309 15.1576 53.1852 17.0483 55.7019 20.6304C57.6134 23.346 59.4113 27.0354 60.7679 31.0224V31.0268C60.7767 31.0443 60.781 31.0618 60.7876 31.0793C60.875 31.3332 60.7636 31.6089 60.5364 31.7314Z" fill="black"/>
<path d="M68.0207 54.5066V54.5001C67.2757 50.338 65.0868 40.0073 60.5363 31.7313C60.4511 31.5738 60.3615 31.4162 60.2741 31.2608C60.2741 31.2587 60.2719 31.2565 60.2719 31.2543C59.8153 30.449 59.3369 29.6656 58.8344 28.9129C55.5204 23.9411 51.1752 20.2386 45.5434 20.0351C45.3642 20.0264 45.1807 20.0242 44.9972 20.0242C44.8137 20.0242 44.6258 20.0307 44.4379 20.0395C43.7716 20.0679 43.0879 20.1467 42.3866 20.2736C42.0917 20.3283 41.8055 20.3896 41.5237 20.464C41.3336 20.51 41.1479 20.5625 40.9644 20.6172C40.7875 20.6697 40.6149 20.7266 40.4445 20.7857C35.8612 22.3853 33.0649 26.3679 31.4112 31.2412C31.1862 31.8998 30.983 32.5738 30.7995 33.2609C30.7995 33.2631 30.7973 33.2675 30.7973 33.2697C30.7493 33.4447 30.7056 33.622 30.6597 33.7992C28.2479 43.421 29.456 55.2813 30.0196 59.5331C30.0851 60.0364 30.1419 60.4324 30.1834 60.706L30.3254 60.7191C30.7012 58.6884 31.3828 56.7649 32.3222 55.0012C34.8476 50.2527 39.2255 46.6399 44.4904 45.1344C46.2381 44.6333 48.0862 44.3663 49.9956 44.3663C50.3626 44.3663 50.7274 44.3772 51.0879 44.3969C56.5144 44.688 61.3664 47.1476 64.7984 50.9245C66.2009 52.4672 67.3653 54.2309 68.237 56.1588L68.2938 56.1456C68.2501 55.8568 68.1605 55.2922 68.0207 54.5066ZM66.6553 52.349C66.6357 52.3206 66.6138 52.2899 66.592 52.2615C66.533 52.1805 66.474 52.1018 66.415 52.023C66.3801 51.9748 66.3429 51.9267 66.3058 51.8807C66.2686 51.8304 66.2315 51.7823 66.1922 51.7341C66.0873 51.5985 65.9803 51.465 65.871 51.3337C65.8252 51.2768 65.7793 51.2199 65.729 51.163C65.7247 51.1542 65.7159 51.1455 65.7094 51.1367C65.6919 51.1149 65.6744 51.093 65.6548 51.0711C65.6198 51.0273 65.5827 50.9858 65.5434 50.942C65.5215 50.9179 65.4997 50.8938 65.48 50.8698C65.4603 50.8435 65.4385 50.8194 65.4166 50.7954C65.3467 50.7144 65.2768 50.6356 65.2047 50.5569C65.0911 50.4299 64.9754 50.3074 64.8574 50.1848C64.8574 50.1827 64.8552 50.1827 64.8552 50.1827C64.7372 50.0601 64.6193 49.9398 64.4991 49.8194C64.4205 49.7384 64.3396 49.6597 64.2588 49.5831C64.1889 49.5152 64.119 49.4474 64.0469 49.3818C63.586 48.9463 63.1075 48.5371 62.6138 48.152C62.5767 48.1213 62.5373 48.0929 62.5002 48.0644C62.4871 48.0513 62.4718 48.0404 62.4587 48.0316C62.4172 47.9988 62.3735 47.966 62.332 47.9353C62.3254 47.9288 62.3189 47.9244 62.3123 47.9222C62.249 47.8741 62.1856 47.8259 62.1223 47.78C62.1223 47.7756 62.1179 47.7756 62.1157 47.7756C62.107 47.7668 62.0961 47.7581 62.0873 47.7537C61.7269 47.4889 61.3598 47.2373 60.9863 47.0009C60.9601 46.9834 60.9338 46.9659 60.9076 46.9506H60.9054C60.8792 46.9353 60.853 46.9178 60.8268 46.9025C60.036 46.4079 59.2146 45.9703 58.3669 45.5917C58.2162 45.5261 58.0655 45.4604 57.9147 45.397H57.9125C57.6089 45.27 57.3009 45.1497 56.9907 45.0381H56.9885C56.8334 44.9812 56.6783 44.9265 56.5231 44.8761C56.3899 44.8324 56.2588 44.7886 56.1255 44.747C56.1015 44.7405 56.0775 44.7339 56.0535 44.7252L55.9683 44.6989C55.8568 44.6661 55.7454 44.6333 55.634 44.6026C55.4942 44.5632 55.3522 44.5238 55.2102 44.4866C55.1752 44.4757 55.1381 44.4669 55.1032 44.4582C55.0835 44.4538 55.0638 44.4494 55.0442 44.4451C54.8978 44.4079 54.7514 44.3729 54.6051 44.34C54.4434 44.3028 54.2796 44.2678 54.1157 44.235C54.0305 44.2175 53.9453 44.2 53.8579 44.1847C53.6176 44.1387 53.373 44.0971 53.1283 44.0599C52.9907 44.038 52.853 44.0184 52.7132 44.0008C52.6673 43.9943 52.6215 43.9877 52.5734 43.9833H52.5712C52.5712 43.9833 52.5647 43.9833 52.5603 43.9812C52.4598 43.9702 52.3571 43.9571 52.2544 43.944C52.2282 43.9418 52.1998 43.9374 52.1736 43.9352C51.9967 43.9177 51.8175 43.9002 51.6406 43.8871C51.634 43.8871 51.6296 43.8871 51.6231 43.8871C51.5925 43.8849 51.5619 43.8827 51.5313 43.8805C51.5204 43.8805 51.5073 43.8805 51.4964 43.8805H51.4898C51.3653 43.8717 51.243 43.863 51.1184 43.8564C51.0223 43.8499 50.9262 43.8455 50.8323 43.8411C50.5461 43.8302 50.2686 43.8236 49.9977 43.8236H49.989C49.8317 43.8236 49.6744 43.8258 49.5171 43.8302C49.3162 43.8345 49.1152 43.8411 48.9142 43.852C48.6761 43.863 48.4379 43.8805 48.1998 43.9002C48.0294 43.9155 47.8612 43.933 47.693 43.9527C47.5663 43.9658 47.4396 43.9812 47.3151 43.9987C47.2779 44.003 47.2408 44.0074 47.2036 44.014C47.1447 44.0205 47.0879 44.0293 47.0289 44.038C47.0049 44.0402 46.9786 44.0446 46.9546 44.049C46.8694 44.0599 46.782 44.0752 46.6968 44.0884C46.6772 44.0906 46.6575 44.0949 46.6378 44.0993C46.6138 44.0993 46.5898 44.1059 46.5657 44.1103C45.8142 44.2372 45.0715 44.4035 44.3418 44.6136C44.2173 44.6486 44.0928 44.6858 43.9683 44.7252C43.8459 44.7624 43.7214 44.8018 43.5991 44.8433C43.3522 44.9221 43.1075 45.0074 42.865 45.0994C42.7143 45.1541 42.5636 45.2131 42.415 45.2722C42.3932 45.281 42.3691 45.2897 42.3473 45.2985C42.2381 45.3422 42.1288 45.3882 42.0218 45.4342C42.0174 45.4342 42.0152 45.4363 42.013 45.4385C41.9366 45.4692 41.8623 45.502 41.788 45.5348C41.6679 45.5873 41.5499 45.6398 41.4341 45.6924C41.2768 45.7646 41.1217 45.839 40.9688 45.9156C40.8421 45.9768 40.7176 46.0403 40.5931 46.1059C40.5319 46.1344 40.4729 46.1672 40.4117 46.2C40.3964 46.2066 40.3833 46.2154 40.368 46.2241C40.2741 46.2723 40.1802 46.3248 40.0862 46.3773C39.6253 46.6311 39.1752 46.9047 38.734 47.1935C38.4478 47.3817 38.166 47.5765 37.8885 47.78C36.8508 48.5415 35.8831 49.3971 35.0027 50.338C34.9131 50.4321 34.8257 50.5262 34.7405 50.6225C34.6531 50.7166 34.5679 50.8129 34.4827 50.9092C34.4063 50.9989 34.332 51.0864 34.2599 51.1739C34.2228 51.2177 34.1878 51.2615 34.1507 51.3052H34.1485C34.0371 51.4387 33.93 51.5722 33.8252 51.7057C33.6133 51.977 33.4057 52.2549 33.2047 52.5394C33.1785 52.5788 33.1501 52.6182 33.1239 52.6576C33.1195 52.6598 33.1174 52.6641 33.1174 52.6663C33.0824 52.7167 33.0474 52.7648 33.0125 52.8151C32.9797 52.8655 32.9448 52.9158 32.912 52.9661C32.8159 53.1084 32.7219 53.2528 32.628 53.3972C32.5144 53.5788 32.4008 53.7626 32.2916 53.9486C32.2413 54.034 32.1911 54.1193 32.1408 54.2069C32.0382 54.3863 31.9377 54.5657 31.8416 54.7495C31.6952 55.0231 31.5554 55.301 31.4221 55.5833C31.3566 55.7211 31.291 55.8612 31.2277 56.0034C31.1643 56.1456 31.1032 56.2879 31.042 56.4323C30.983 56.5745 30.924 56.719 30.8672 56.8634C30.8213 56.9794 30.7755 57.0975 30.7318 57.2157C30.7077 57.2792 30.6837 57.3426 30.6619 57.4061C30.6225 57.5155 30.5832 57.6249 30.5461 57.7343C30.5199 57.8087 30.4958 57.8809 30.4718 57.9553C30.4478 58.0297 30.4237 58.1019 30.3997 58.1763C30.0742 55.3754 29.6788 50.8369 29.7749 45.8609C29.7837 45.4473 29.7946 45.0293 29.8099 44.6092C29.8274 44.1343 29.8492 43.6595 29.8754 43.1803C29.8885 42.9395 29.9038 42.701 29.9213 42.4603C29.9366 42.2218 29.9541 41.9811 29.9737 41.7404C29.9934 41.4865 30.0152 41.2305 30.0393 40.9767C30.1135 40.167 30.2053 39.3552 30.3145 38.5499C30.3517 38.2829 30.391 38.0138 30.4325 37.7468C30.5373 37.0641 30.6553 36.3857 30.7908 35.7161C30.8257 35.5367 30.8629 35.3573 30.9022 35.1778C30.9393 35.0071 30.9764 34.8364 31.0158 34.6658C31.0398 34.5651 31.0638 34.4623 31.0879 34.3616C31.16 34.0531 31.2386 33.7467 31.3194 33.4425C31.3216 33.4316 31.326 33.4185 31.3282 33.4075C31.3304 33.3988 31.3325 33.3922 31.3347 33.3834C31.444 32.9721 31.5619 32.5694 31.6821 32.1777C31.6821 32.1755 31.6843 32.1755 31.6821 32.1733H31.6843C31.7389 31.9961 31.7935 31.8232 31.8503 31.6525C32.0032 31.1908 32.1627 30.7444 32.3309 30.3133C32.3855 30.1755 32.4401 30.0376 32.4969 29.9019C32.569 29.7225 32.6455 29.5453 32.7219 29.3702C32.7984 29.1951 32.8749 29.0245 32.9557 28.856C33.0343 28.6853 33.1152 28.519 33.1982 28.3548C33.2725 28.2039 33.3511 28.0529 33.4276 27.9063C33.4363 27.8931 33.4429 27.8822 33.4472 27.8712C33.5324 27.7115 33.6198 27.5539 33.7072 27.4008C33.7968 27.2476 33.8841 27.0966 33.9759 26.9478C34.0393 26.8428 34.1026 26.7399 34.1703 26.6393C34.1769 26.6261 34.1856 26.613 34.1944 26.6021C34.2949 26.4423 34.3975 26.2869 34.5046 26.136C34.5636 26.0506 34.6225 25.9653 34.6859 25.8821C34.7056 25.8493 34.7296 25.8187 34.7536 25.788C34.7973 25.7246 34.8432 25.6611 34.8934 25.5998C34.948 25.5254 35.0027 25.4532 35.0616 25.381C35.0922 25.3394 35.1272 25.2957 35.16 25.2563C35.2495 25.1425 35.3413 25.0331 35.4352 24.9259C35.4571 24.8996 35.4789 24.8733 35.5008 24.8471C35.5707 24.7639 35.6428 24.6851 35.7148 24.6064C36.1474 24.1271 36.604 23.6939 37.0824 23.3022C37.1152 23.2737 37.1501 23.2475 37.1829 23.2212C37.2878 23.1359 37.3948 23.0527 37.5018 22.9717C37.6176 22.8842 37.7378 22.7989 37.8558 22.7157C38.0021 22.6151 38.1485 22.5188 38.2992 22.4269C38.3757 22.3765 38.4521 22.3306 38.5308 22.2846C38.5636 22.2628 38.5985 22.2431 38.6335 22.2234C38.7296 22.1665 38.8279 22.1118 38.9284 22.0592C39.018 22.0089 39.1097 21.9608 39.2015 21.917C39.2932 21.8689 39.385 21.8229 39.4767 21.7791C39.575 21.7332 39.6755 21.6872 39.7782 21.6435C39.835 21.6172 39.894 21.591 39.953 21.5691C39.9639 21.5625 39.977 21.5559 39.9901 21.5538C40.0753 21.5166 40.1605 21.4815 40.2479 21.4487C40.2719 21.4378 40.2981 21.429 40.3243 21.4203C40.5843 21.3196 40.8508 21.2299 41.1217 21.1467H41.1239C41.5718 21.0111 42.0283 20.8995 42.4871 20.8163C42.6968 20.7769 42.9065 20.7441 43.1163 20.7157C43.1512 20.7113 43.184 20.7047 43.2189 20.7025C43.3806 20.6785 43.5423 20.661 43.7017 20.6456C43.7782 20.6369 43.8547 20.6303 43.9311 20.6238C44.0753 20.6106 44.2195 20.6019 44.3637 20.5953C44.4576 20.5887 44.5537 20.5844 44.6477 20.5822C44.7569 20.5778 44.8661 20.5756 44.9754 20.5756H45.0562C45.2943 20.5756 45.5324 20.5822 45.7684 20.5953H45.7706C45.8536 20.5997 45.9388 20.6062 46.0218 20.6128C46.0939 20.6172 46.1681 20.6238 46.2402 20.6303C46.3233 20.6369 46.4063 20.6456 46.4893 20.6566C46.533 20.661 46.5745 20.6653 46.6182 20.6719C46.699 20.6806 46.782 20.6916 46.8629 20.7047C47.0376 20.7288 47.2146 20.7594 47.3872 20.7922C47.4986 20.8119 47.6078 20.8338 47.7192 20.8601C48.0054 20.9214 48.2916 20.9936 48.5756 21.0767C48.6477 21.0986 48.7198 21.1205 48.7919 21.1424C48.8683 21.1642 48.9448 21.1905 49.0212 21.2146C49.0955 21.2386 49.1698 21.2649 49.2441 21.2912C49.3183 21.3196 49.3926 21.3459 49.4691 21.3743C49.5434 21.4028 49.6176 21.4312 49.6919 21.4597C49.7662 21.4881 49.8405 21.5187 49.9147 21.5494C50.0633 21.6107 50.2118 21.6763 50.3582 21.7441C50.6531 21.8798 50.9459 22.0264 51.2342 22.1862C51.3063 22.2256 51.3784 22.2649 51.4505 22.3065C51.5947 22.3875 51.7389 22.4728 51.8809 22.5625C51.9726 22.6172 52.0644 22.6763 52.1539 22.7354C52.2457 22.7923 52.3353 22.8536 52.4248 22.9149C52.5144 22.9739 52.604 23.0374 52.6957 23.103C52.7853 23.1665 52.8749 23.23 52.9644 23.2956C53.0977 23.3919 53.2266 23.4925 53.3577 23.5954C53.6067 23.7902 53.8536 23.9958 54.1004 24.2103C54.2861 24.3722 54.4696 24.5385 54.6509 24.7114C54.7056 24.7617 54.758 24.8121 54.8126 24.8646C54.9371 24.9849 55.0616 25.1075 55.1862 25.2344C55.1927 25.241 55.1993 25.2475 55.208 25.2563C55.3238 25.3744 55.4396 25.4948 55.5554 25.6173C55.6777 25.7486 55.8 25.8821 55.9224 26.0178C56.0425 26.1535 56.1649 26.2913 56.285 26.4314C56.3746 26.5364 56.4642 26.6436 56.5537 26.7509C56.6062 26.8121 56.6564 26.8756 56.7088 26.939C56.7875 27.0353 56.8639 27.1338 56.9426 27.2323C57.0671 27.3898 57.1894 27.5496 57.314 27.7115C57.3773 27.7947 57.4407 27.88 57.504 27.9675C57.5696 28.0551 57.6329 28.1426 57.6963 28.2301C57.7574 28.3176 57.8208 28.403 57.882 28.4905C57.9431 28.578 58.0065 28.6656 58.0677 28.7575C58.1223 28.8341 58.1747 28.9107 58.2271 28.9894C58.5417 29.4533 58.8519 29.9348 59.1578 30.4381C59.2583 30.6022 59.3588 30.7685 59.4592 30.9392C59.5488 31.0923 59.6406 31.2499 59.7301 31.4075L59.8 31.5366C64.0054 38.9591 66.2533 48.3183 67.208 53.1499C67.0769 52.9508 66.9415 52.7539 66.8039 52.5591C66.7558 52.4891 66.7077 52.4212 66.6575 52.3534L66.6553 52.349Z" fill="#343738"/>
<path d="M68.8683 56.2988L68.853 56.2025V56.1959L68.8334 56.0646C68.6062 54.5635 66.4631 41.1604 60.8181 31.1142L60.77 31.0266V31.0223L60.746 30.9851C60.2741 30.1513 59.7913 29.3636 59.2954 28.6196L59.2932 28.6152C58.8301 27.9215 58.3582 27.265 57.8754 26.6501C57.8754 26.6501 57.8747 26.6487 57.8732 26.6458C54.2533 22.0154 50.0895 19.6127 45.445 19.4836C45.314 19.4792 45.1829 19.4771 45.0496 19.4771H44.9928C44.9601 19.4771 44.9273 19.4771 44.8945 19.4771C44.7132 19.4771 44.5297 19.4836 44.344 19.4946C43.669 19.5274 42.9786 19.6083 42.2883 19.7331C42.0371 19.779 41.7837 19.8337 41.5346 19.895C41.3511 19.9388 41.1698 19.9869 40.9907 20.0394C40.9295 20.0547 40.8683 20.0744 40.8071 20.0919C40.6848 20.1292 40.5625 20.1685 40.4401 20.2079C36.5341 21.5056 33.5674 24.5319 31.586 29.2301C31.3304 29.8384 31.0901 30.473 30.865 31.1382C30.6531 31.7728 30.4543 32.4337 30.2708 33.1186L30.2512 33.1974C27.3566 44.1146 29.2353 58.0909 29.6417 60.7869L29.6963 61.1436V61.1501L29.7072 61.2092L30.7711 61.3077L30.8148 61.0713L30.8607 60.8175C30.8803 60.7125 30.9 60.6096 30.9218 60.5068C31.0223 60.0035 31.1425 59.5067 31.2845 59.0166C31.3194 58.8984 31.3544 58.7802 31.3893 58.6621C31.4177 58.5702 31.4461 58.4761 31.4767 58.3842C31.5051 58.2923 31.5357 58.2004 31.5685 58.1085C31.6493 57.8634 31.7389 57.6227 31.8306 57.382C31.859 57.3076 31.8874 57.2353 31.918 57.1631C32.0032 56.9443 32.095 56.7299 32.1911 56.5154C32.237 56.4082 32.285 56.3031 32.3353 56.1981C32.403 56.0493 32.4729 55.9027 32.5472 55.7561C32.5559 55.7364 32.5647 55.7189 32.5756 55.6992C32.6499 55.5504 32.7241 55.4038 32.8028 55.2572C32.9055 55.0646 33.0103 54.8742 33.1217 54.686C33.1916 54.5613 33.2659 54.4366 33.3424 54.3118C33.3882 54.2309 33.4385 54.1521 33.4887 54.0733C33.5215 54.0208 33.5543 53.9683 33.5892 53.9158C33.6482 53.8217 33.7072 53.7298 33.7706 53.6379C33.8514 53.5153 33.9344 53.395 34.0174 53.2746C34.0655 53.2024 34.1157 53.1324 34.166 53.0645C34.2905 52.8895 34.4194 52.7166 34.5505 52.5459C34.6138 52.4606 34.6793 52.3774 34.7471 52.2943C34.8148 52.2089 34.8803 52.1258 34.9502 52.0448C35.0114 51.9682 35.0748 51.8938 35.1381 51.8194C35.149 51.8041 35.1621 51.7888 35.1731 51.7757C35.1905 51.756 35.208 51.7341 35.2255 51.7144C35.2714 51.6597 35.3172 51.6072 35.3653 51.5546C35.492 51.4058 35.6253 51.2614 35.7607 51.1192C35.8612 51.0098 35.9639 50.9025 36.0688 50.7953C36.1146 50.7472 36.1605 50.7012 36.2086 50.6553C36.3091 50.5524 36.4117 50.4518 36.5144 50.3533C36.5144 50.3533 36.5159 50.3518 36.5188 50.3489L36.5231 50.3445C36.5821 50.2876 36.6433 50.2286 36.7023 50.1739C36.7809 50.1016 36.8596 50.0294 36.9382 49.9572C37.0169 49.885 37.0977 49.815 37.1763 49.745C37.338 49.6027 37.4997 49.4627 37.6657 49.3292C37.7378 49.2701 37.8121 49.2088 37.8885 49.1497C38.0633 49.0097 38.2402 48.874 38.4216 48.7384C38.4849 48.6902 38.5483 48.6443 38.6138 48.5961C38.6313 48.583 38.6509 48.5699 38.6684 48.5567C39.018 48.3073 39.3762 48.0666 39.7411 47.839C40.0163 47.6683 40.2959 47.5042 40.5799 47.3444C41.1479 47.0293 41.7334 46.7405 42.3342 46.4823C42.4281 46.4429 42.5221 46.4035 42.616 46.3641C42.8978 46.2481 43.184 46.1387 43.4724 46.0359C43.5794 45.9965 43.6886 45.9593 43.7957 45.9221C44.0753 45.828 44.3571 45.7405 44.6411 45.6595C44.8552 45.5982 45.0715 45.5391 45.2899 45.4844C45.3992 45.4582 45.5106 45.4319 45.6198 45.4056C45.8383 45.3553 46.0589 45.3072 46.2796 45.2656C46.5089 45.2218 46.7383 45.1803 46.9677 45.1452C47.0726 45.1277 47.1753 45.1124 47.2801 45.0993C47.3937 45.084 47.5051 45.0687 47.6165 45.0555C47.728 45.0402 47.8394 45.0293 47.953 45.0183C48.0644 45.0052 48.178 44.9943 48.2916 44.9855C48.5581 44.9614 48.8268 44.9439 49.0955 44.9308C49.1174 44.9308 49.1392 44.9286 49.1632 44.9286C49.2834 44.922 49.4035 44.9199 49.5259 44.9177C49.681 44.9133 49.8383 44.9111 49.9934 44.9111C50.3342 44.9111 50.6903 44.922 51.0551 44.9417C51.3762 44.9592 51.6952 44.9855 52.012 45.0161C52.3287 45.049 52.6455 45.0905 52.9579 45.1365C53.2725 45.1846 53.5827 45.2393 53.8929 45.3028C54.2031 45.3663 54.5089 45.4363 54.8148 45.5129C55.1206 45.5917 55.4221 45.6748 55.7214 45.7667C55.8721 45.8127 56.0229 45.8608 56.1714 45.9111C56.32 45.9615 56.4664 46.0118 56.6127 46.0643C56.7263 46.1059 56.8377 46.1475 56.9491 46.189C56.9557 46.1912 56.9601 46.1934 56.9666 46.1956C57.0671 46.235 57.1698 46.2744 57.2703 46.316C57.3751 46.3575 57.4778 46.4013 57.5827 46.4429C57.5958 46.4516 57.6111 46.456 57.6242 46.4626C57.8077 46.5392 57.989 46.6201 58.1703 46.7055C58.1747 46.7077 58.1769 46.7098 58.1813 46.7098C58.308 46.7667 58.4303 46.828 58.5548 46.8893C58.6597 46.9418 58.7645 46.9943 58.8694 47.0468C59.0857 47.1584 59.302 47.2744 59.5139 47.3926C59.5838 47.432 59.6515 47.4736 59.7214 47.5108C59.7695 47.5414 59.8175 47.5676 59.8656 47.5961C59.8765 47.6027 59.8852 47.6092 59.8962 47.6158C59.9639 47.6552 60.0316 47.6968 60.0972 47.7361C60.2981 47.8587 60.4969 47.9856 60.6935 48.1147C60.7919 48.1804 60.8902 48.246 60.9863 48.3138C61.0846 48.3795 61.1807 48.4473 61.2768 48.5173C61.373 48.5852 61.4669 48.6552 61.563 48.7252C61.563 48.7252 61.563 48.7274 61.5652 48.7274C61.8164 48.9156 62.0655 49.1082 62.3102 49.3095C62.5548 49.5108 62.7951 49.7165 63.0311 49.931C63.149 50.0382 63.267 50.1476 63.3828 50.2592C63.4592 50.3314 63.5357 50.4036 63.61 50.4802C63.6493 50.5174 63.6886 50.5546 63.7258 50.594C63.953 50.8216 64.1758 51.0535 64.3921 51.2921C64.4816 51.3905 64.5734 51.4934 64.6608 51.594C64.6695 51.6028 64.6783 51.6137 64.6848 51.6225C64.7241 51.6684 64.7656 51.7144 64.8028 51.7603C64.8071 51.7647 64.8093 51.7691 64.8159 51.7735C64.9033 51.8785 64.9928 51.9835 65.0759 52.0886C65.1523 52.1783 65.2244 52.2702 65.2943 52.3599C65.3686 52.4518 65.4407 52.5437 65.5084 52.6378C65.5587 52.7035 65.6089 52.7691 65.6548 52.8326C65.7006 52.8917 65.7443 52.9529 65.7858 53.012C65.8339 53.0777 65.8798 53.1411 65.9235 53.2068C65.9912 53.3009 66.0567 53.395 66.1201 53.4912C66.1725 53.5678 66.2228 53.6444 66.2752 53.7232C66.3189 53.791 66.3648 53.8589 66.4085 53.9289C66.4456 53.9902 66.4849 54.0514 66.5242 54.1127C66.5898 54.2199 66.6553 54.3272 66.723 54.4366C66.7449 54.476 66.7689 54.5153 66.7908 54.5547C66.8279 54.6204 66.865 54.6838 66.9022 54.7495C66.9786 54.8808 67.0529 55.0143 67.125 55.1478C67.1621 55.2134 67.1971 55.2812 67.2321 55.3491C67.291 55.4629 67.35 55.5766 67.4068 55.6904C67.444 55.7648 67.4811 55.8392 67.516 55.9158C67.5925 56.0712 67.6646 56.2266 67.7367 56.3841L67.7607 56.4366L67.9224 56.7911L68.8683 56.5701L68.9055 56.5614L68.8661 56.2966L68.8683 56.2988ZM64.2566 49.583C64.1867 49.5152 64.1168 49.4474 64.0447 49.3817C63.5838 48.9462 63.1053 48.537 62.6116 48.1519C62.5745 48.1213 62.5352 48.0928 62.498 48.0644C62.4849 48.0512 62.4696 48.0403 62.4565 48.0315C62.415 47.9987 62.3713 47.9659 62.3298 47.9353C62.3233 47.9287 62.3167 47.9243 62.3102 47.9221C62.2468 47.874 62.1834 47.8259 62.1201 47.7799C62.1201 47.7755 62.1157 47.7755 62.1135 47.7755C62.1048 47.7668 62.0939 47.758 62.0851 47.7536C61.7247 47.4889 61.3577 47.2372 60.9841 47.0009C60.9579 46.9834 60.9317 46.9659 60.9055 46.9506H60.9033C60.8771 46.9352 60.8508 46.9177 60.8246 46.9024C60.0338 46.4079 59.2124 45.9702 58.3648 45.5917C58.214 45.526 58.0633 45.4604 57.9126 45.3969H57.9104C57.6067 45.27 57.2987 45.1496 56.9885 45.038H56.9863C56.8312 44.9811 56.6761 44.9264 56.521 44.8761C56.5079 44.8695 56.4969 44.8652 56.4838 44.8608C56.3637 44.8214 56.2457 44.7842 56.1255 44.747C56.1015 44.7404 56.0775 44.7339 56.0535 44.7251L55.9683 44.6988C55.9399 44.6901 55.9115 44.6813 55.8831 44.6726C55.8 44.6485 55.717 44.6244 55.634 44.6026C55.4942 44.5632 55.3522 44.5238 55.2102 44.4866C55.1753 44.4756 55.1381 44.4669 55.1032 44.4581C55.0835 44.4538 55.0638 44.4494 55.0442 44.445C55.0223 44.4384 55.0005 44.4319 54.9786 44.4275C54.9437 44.4187 54.9109 44.41 54.8781 44.4034L54.8323 44.3903C54.8192 44.3881 54.8061 44.3837 54.7929 44.3815C54.7296 44.3662 54.6684 44.3531 54.6051 44.34C54.4805 44.3093 54.3582 44.2831 54.2337 44.2568C54.1944 44.2503 54.155 44.2415 54.1157 44.2349C54.0305 44.2174 53.9453 44.1999 53.8579 44.1846C53.8208 44.1759 53.7837 44.1671 53.7465 44.1605C53.6242 44.1387 53.4997 44.1168 53.3773 44.0971C53.2943 44.0839 53.2113 44.0708 53.1283 44.0599C53.0453 44.0467 52.9623 44.0336 52.8792 44.0227C52.8246 44.0139 52.7678 44.0074 52.7132 44.0008C52.6673 43.9942 52.6215 43.9877 52.5734 43.9833H52.5712C52.5712 43.9833 52.5647 43.9833 52.5603 43.9811C52.4598 43.9702 52.3571 43.957 52.2544 43.9439C52.2282 43.9417 52.1998 43.9373 52.1736 43.9351C51.9967 43.9176 51.8175 43.9001 51.6406 43.887C51.634 43.887 51.6296 43.887 51.6231 43.887C51.5925 43.8848 51.5619 43.8826 51.5313 43.8804C51.5204 43.8804 51.5073 43.8804 51.4964 43.8804H51.4898C51.3653 43.8717 51.243 43.8629 51.1185 43.8564C51.0223 43.8498 50.9262 43.8454 50.8323 43.841C50.5461 43.8301 50.2686 43.8235 49.9978 43.8235H49.989C49.8317 43.8235 49.6744 43.8257 49.5171 43.8301C49.3162 43.8345 49.1152 43.8411 48.9142 43.852C48.6761 43.8629 48.438 43.8804 48.1998 43.9001C48.0294 43.9155 47.8612 43.933 47.693 43.9527C47.5663 43.9658 47.4396 43.9811 47.3151 43.9986C47.2779 44.003 47.2408 44.0074 47.2036 44.0139C47.1447 44.0205 47.0879 44.0292 47.0289 44.038C47.0049 44.0402 46.9786 44.0446 46.9546 44.0489C46.8694 44.0599 46.782 44.0752 46.6968 44.0883C46.6772 44.0905 46.6575 44.0949 46.6378 44.0993C46.6138 44.0993 46.5898 44.1058 46.5657 44.1102C45.8142 44.2371 45.0715 44.4034 44.3418 44.6135C44.2173 44.6485 44.0928 44.6857 43.9683 44.7251C43.8459 44.7623 43.7214 44.8017 43.5991 44.8433C43.3522 44.922 43.1075 45.0074 42.865 45.0993C42.7143 45.154 42.5636 45.2131 42.415 45.2722C42.3932 45.2809 42.3691 45.2897 42.3473 45.2984C42.2381 45.3422 42.1288 45.3881 42.0218 45.4341C42.0174 45.4341 42.0152 45.4363 42.013 45.4385C41.9366 45.4691 41.8623 45.5019 41.788 45.5348C41.6679 45.5873 41.5499 45.6398 41.4341 45.6923C41.2768 45.7645 41.1217 45.8389 40.9688 45.9133C40.8421 45.9768 40.7176 46.0402 40.5931 46.1059C40.5319 46.1343 40.4729 46.1672 40.4117 46.2C40.3964 46.2066 40.3833 46.2153 40.368 46.2241C40.2741 46.2722 40.1802 46.3247 40.0862 46.3772C39.6253 46.6311 39.1753 46.9046 38.734 47.1935C38.4478 47.3816 38.166 47.5786 37.8885 47.7799C36.8508 48.5414 35.8831 49.397 35.0027 50.338C34.9131 50.4321 34.8257 50.5262 34.7405 50.6224C34.6531 50.7165 34.5679 50.8128 34.4827 50.9091C34.4063 50.9988 34.332 51.0864 34.2599 51.1739C34.2228 51.2176 34.1878 51.2614 34.1507 51.3052C34.1485 51.3052 34.1485 51.3074 34.1485 51.3074C34.0371 51.4387 33.93 51.5721 33.8252 51.7056C33.6133 51.977 33.4057 52.2549 33.2047 52.5393C33.1785 52.5787 33.1501 52.6181 33.1239 52.6575C33.1195 52.6597 33.1174 52.6641 33.1174 52.6663C33.0824 52.7166 33.0475 52.7647 33.0125 52.8151C32.9797 52.8654 32.9448 52.9157 32.912 52.9661C32.8945 52.9901 32.8792 53.012 32.8639 53.0361C32.8618 53.0383 32.8596 53.0426 32.8574 53.0448C32.7809 53.1608 32.7045 53.279 32.628 53.3971C32.5144 53.5788 32.4008 53.7626 32.2916 53.9486C32.2413 54.0339 32.1911 54.1193 32.1408 54.2068C32.0382 54.3862 31.9377 54.5657 31.8416 54.7495C31.6952 55.023 31.5554 55.3009 31.4221 55.5832C31.3566 55.7211 31.291 55.8611 31.2277 56.0034C31.1643 56.1456 31.1032 56.2878 31.042 56.4323C30.9961 56.5395 30.9524 56.6467 30.9087 56.7539C30.8956 56.7911 30.8803 56.8261 30.8672 56.8633C30.8388 56.9356 30.8104 57.0078 30.782 57.08C30.7667 57.1237 30.7493 57.1697 30.7318 57.2156C30.7077 57.2791 30.6837 57.3426 30.6619 57.406C30.6225 57.5154 30.5832 57.6248 30.5461 57.7343C30.5199 57.8087 30.4958 57.8809 30.4718 57.9553C30.4478 58.0297 30.4237 58.1019 30.3997 58.1763C30.0742 55.3753 29.6788 50.8369 29.7749 45.8608C29.7837 45.4472 29.7946 45.0293 29.8099 44.6091C29.8274 44.1343 29.8492 43.6594 29.8754 43.1802C29.8885 42.9395 29.9038 42.701 29.9213 42.4603C29.9366 42.2217 29.9541 41.981 29.9737 41.7403C29.9934 41.4865 30.0152 41.2305 30.0393 40.9766C30.1135 40.167 30.2053 39.3551 30.3145 38.5499C30.3517 38.2829 30.391 38.0137 30.4325 37.7468C30.5373 37.064 30.6553 36.3857 30.7908 35.7161C30.8257 35.5366 30.8629 35.3572 30.9022 35.1778C30.9393 35.0071 30.9765 34.8364 31.0158 34.6657C31.0398 34.565 31.0638 34.4622 31.0879 34.3615C31.16 34.053 31.2386 33.7466 31.3194 33.4425C31.3216 33.4315 31.326 33.4184 31.3282 33.4075C31.3304 33.3987 31.3325 33.3921 31.3347 33.3834C31.444 32.972 31.5619 32.5694 31.6821 32.1777C31.6821 32.1755 31.6843 32.1755 31.6821 32.1733C31.7367 31.9982 31.7935 31.8232 31.8503 31.6525C32.0032 31.1908 32.1627 30.7444 32.3309 30.3133C32.3833 30.1754 32.4379 30.0376 32.4969 29.9019C32.569 29.7224 32.6433 29.5452 32.7219 29.3701C32.7984 29.1951 32.8749 29.0244 32.9557 28.8559C33.0322 28.6852 33.113 28.5189 33.1982 28.3548C33.2725 28.2038 33.3511 28.0528 33.4276 27.9062C33.4363 27.8931 33.4429 27.8821 33.4472 27.8712C33.5324 27.7114 33.6198 27.5539 33.7072 27.4007C33.7968 27.2475 33.8842 27.0965 33.9759 26.9477C34.0393 26.8427 34.1026 26.7399 34.1703 26.6392C34.1769 26.6261 34.1834 26.6151 34.1944 26.602C34.2949 26.4423 34.3975 26.2869 34.5046 26.1359C34.5636 26.0506 34.6225 25.9652 34.6859 25.8821C34.7056 25.8492 34.7296 25.8186 34.7536 25.788C34.7995 25.7245 34.8454 25.6611 34.8934 25.5998C34.9481 25.5254 35.0027 25.4532 35.0617 25.381C35.0944 25.3394 35.1272 25.2978 35.16 25.2562C35.2495 25.1424 35.3413 25.033 35.4352 24.9258C35.4571 24.8995 35.4789 24.8733 35.5008 24.847C35.5707 24.7639 35.6428 24.6851 35.7148 24.6063C36.1474 24.1271 36.604 23.6938 37.0824 23.3021C37.1152 23.2737 37.1501 23.2474 37.1829 23.2212C37.2878 23.1358 37.3948 23.0527 37.5018 22.9717C37.6176 22.8842 37.7378 22.7988 37.8558 22.7157C38.0021 22.615 38.1485 22.5187 38.2992 22.4268C38.3757 22.3765 38.4521 22.3305 38.5308 22.2846C38.5636 22.2627 38.5985 22.243 38.6335 22.2233C38.7296 22.1664 38.8279 22.1117 38.9284 22.0592C39.018 22.011 39.1097 21.9629 39.2015 21.917C39.2932 21.8688 39.385 21.8229 39.4767 21.7791C39.575 21.7331 39.6755 21.6872 39.7782 21.6434C39.835 21.6172 39.894 21.5931 39.953 21.569C39.9639 21.5625 39.977 21.5559 39.9901 21.5537C40.0753 21.5165 40.1605 21.4815 40.2479 21.4487C40.2719 21.4377 40.2981 21.429 40.3243 21.4202C40.5843 21.3196 40.8508 21.2298 41.1217 21.1467H41.1239C41.5718 21.011 42.0283 20.8994 42.4871 20.8163C42.6968 20.7769 42.9065 20.744 43.1163 20.7156C43.1512 20.7112 43.184 20.7047 43.2189 20.7025C43.3806 20.6784 43.5423 20.6609 43.7017 20.6456C43.7782 20.6368 43.8547 20.6303 43.9311 20.6237C44.0753 20.6106 44.2195 20.6018 44.3637 20.5952C44.4576 20.5887 44.5537 20.5843 44.6477 20.5821C44.7569 20.5777 44.8661 20.5756 44.9754 20.5756H45.0562C45.2943 20.5756 45.5324 20.5821 45.7684 20.5952H45.7706C45.8536 20.5996 45.9388 20.6062 46.0218 20.6128C46.0939 20.6171 46.1682 20.6237 46.2402 20.6303C46.3233 20.6368 46.4063 20.6456 46.4893 20.6565C46.533 20.6609 46.5745 20.6653 46.6182 20.6718C46.699 20.6806 46.782 20.6915 46.8629 20.7047C47.0376 20.7287 47.2146 20.7594 47.3872 20.7922C47.4986 20.8141 47.61 20.836 47.7192 20.86C48.0054 20.9213 48.2916 20.9935 48.5756 21.0767C48.6477 21.0985 48.7198 21.1204 48.7919 21.1423C48.8683 21.1642 48.9448 21.1905 49.0212 21.2145C49.0955 21.2386 49.1698 21.2649 49.2441 21.2911C49.3183 21.3196 49.3926 21.3458 49.4691 21.3743C49.5434 21.4027 49.6176 21.4312 49.6919 21.4596C49.7662 21.4881 49.8405 21.5187 49.9147 21.5493C50.0633 21.6106 50.2118 21.6762 50.3582 21.7441C50.6531 21.8798 50.9459 22.0264 51.2342 22.1861C51.3063 22.2255 51.3784 22.2649 51.4505 22.3065C51.5947 22.3896 51.7367 22.475 51.8809 22.5625C51.9726 22.6194 52.0622 22.6763 52.154 22.7354C52.2435 22.7944 52.3353 22.8535 52.4248 22.9148C52.5166 22.9761 52.6062 23.0395 52.6957 23.103C52.7853 23.1664 52.8749 23.2299 52.9644 23.2956C53.0977 23.3918 53.2266 23.4925 53.3577 23.5953C53.6067 23.7901 53.8536 23.9958 54.1004 24.2102C54.2861 24.3722 54.4696 24.5385 54.6509 24.7113C54.7056 24.7617 54.758 24.812 54.8126 24.8645C54.9371 24.9849 55.0617 25.1074 55.1862 25.2343C55.1927 25.2409 55.1993 25.2475 55.208 25.2562C55.3238 25.3744 55.4396 25.4947 55.5554 25.6173C55.6777 25.7486 55.8 25.8821 55.9224 26.0177C56.0425 26.1534 56.1649 26.2913 56.285 26.4313C56.3746 26.5364 56.4642 26.6436 56.5537 26.7508C56.6062 26.8121 56.6564 26.8755 56.7088 26.939C56.7875 27.0353 56.8639 27.1337 56.9426 27.2322C57.0671 27.3898 57.1894 27.5495 57.314 27.7114C57.3773 27.7946 57.4407 27.8799 57.504 27.9675C57.5696 28.055 57.6329 28.1425 57.6963 28.2301C57.7574 28.3176 57.8208 28.4029 57.882 28.4905C57.9431 28.578 58.0065 28.6655 58.0677 28.7574C58.1223 28.834 58.1747 28.9106 58.2271 28.9894C58.5417 29.4533 58.8519 29.9347 59.1578 30.438C59.2583 30.6021 59.3588 30.7684 59.4592 30.9391C59.5488 31.0923 59.6406 31.2498 59.7301 31.4074L59.8 31.5365C64.0054 38.9591 66.2534 48.3182 67.208 53.1499C67.0769 52.9507 66.9415 52.7538 66.8039 52.559C66.7558 52.489 66.7077 52.4212 66.6575 52.3533C66.6378 52.3249 66.616 52.2943 66.5942 52.2658C66.5352 52.1849 66.4762 52.1061 66.4172 52.0273C66.3822 51.9792 66.3451 51.931 66.308 51.8851C66.2708 51.8347 66.2337 51.7866 66.1944 51.7384C66.0895 51.6028 65.9825 51.4693 65.8732 51.338C65.8274 51.2811 65.7815 51.2242 65.7312 51.1673C65.7269 51.1586 65.7181 51.1498 65.7116 51.1411C65.6919 51.1192 65.6744 51.0973 65.6548 51.0754C65.6198 51.0316 65.5827 50.9901 65.5434 50.9463C65.5215 50.9222 65.4997 50.8982 65.48 50.8741C65.4603 50.8478 65.4385 50.8238 65.4166 50.7997C65.3467 50.7187 65.2768 50.6399 65.2047 50.5612C65.0911 50.4342 64.9754 50.3117 64.8574 50.1892C64.8574 50.187 64.8552 50.187 64.8552 50.187C64.7372 50.0644 64.6193 49.9441 64.4991 49.8237C64.4205 49.7428 64.3396 49.664 64.2588 49.5874L64.2566 49.583Z" fill="black"/>
<path d="M67.2058 53.1454C67.0748 52.9463 66.9393 52.7493 66.8017 52.5546C66.7536 52.4845 66.7056 52.4167 66.6553 52.3489C66.6357 52.3204 66.6138 52.2898 66.592 52.2613C66.533 52.1804 66.474 52.1016 66.415 52.0228C66.3801 51.9747 66.3429 51.9265 66.3058 51.8806C66.2686 51.8302 66.2315 51.7821 66.1922 51.734C66.0873 51.5983 65.9803 51.4648 65.871 51.3335C65.8252 51.2766 65.7793 51.2197 65.729 51.1628C65.7247 51.1541 65.7159 51.1453 65.7094 51.1366C65.6897 51.1147 65.6722 51.0928 65.6526 51.0709C65.6176 51.0272 65.5805 50.9856 65.5412 50.9418C65.5018 50.8937 65.4582 50.8433 65.4145 50.7952C65.3446 50.7142 65.2747 50.6355 65.2026 50.5567C65.089 50.4298 64.9732 50.3072 64.8552 50.1847C64.8552 50.1825 64.853 50.1825 64.853 50.1825C64.7351 50.0578 64.6171 49.9374 64.4969 49.8192C64.4183 49.7383 64.3375 49.6595 64.2566 49.5829C64.1867 49.5129 64.1168 49.4472 64.0447 49.3816C63.5838 48.9461 63.1053 48.5369 62.6116 48.1518C62.5745 48.1212 62.5352 48.0905 62.498 48.0643C62.4849 48.0511 62.4696 48.0402 62.4565 48.0314C62.415 47.9964 62.3713 47.9658 62.3298 47.9352C62.3233 47.9286 62.3167 47.9242 62.3102 47.922C62.2468 47.8717 62.1834 47.8236 62.1201 47.7798C62.1201 47.7754 62.1157 47.7754 62.1135 47.7754C62.1048 47.7667 62.0939 47.7579 62.0851 47.7535C61.7247 47.4888 61.3577 47.2371 60.9841 47.0008C60.9579 46.9833 60.9317 46.9658 60.9055 46.9504H60.9033C60.8771 46.9329 60.8508 46.9154 60.8246 46.9023C60.0338 46.4078 59.2124 45.9701 58.3648 45.5915C58.214 45.5259 58.0633 45.4602 57.9126 45.3968H57.9104C57.6067 45.2699 57.2987 45.1495 56.9885 45.0379H56.9863C56.8312 44.9788 56.6761 44.9263 56.521 44.876C56.5079 44.8694 56.4969 44.865 56.4838 44.8607C56.3637 44.8213 56.2457 44.7841 56.1256 44.7469C56.1015 44.7403 56.0775 44.7337 56.0535 44.725L55.9683 44.6987C55.9399 44.69 55.9115 44.6812 55.8831 44.6725C55.8 44.6484 55.717 44.6243 55.634 44.6024C55.4942 44.5609 55.3522 44.5215 55.2102 44.4865C55.1753 44.4755 55.1381 44.4668 55.1032 44.458C55.0617 44.4449 55.0201 44.4361 54.9786 44.4274C54.9437 44.4186 54.9109 44.4099 54.8781 44.4033L54.8323 44.3902C54.8192 44.388 54.8061 44.3836 54.7929 44.3814C54.7296 44.3661 54.6684 44.353 54.6051 44.3399C54.4806 44.3092 54.3582 44.283 54.2337 44.2567C54.072 44.2217 53.9082 44.1889 53.7465 44.1604C53.6242 44.1385 53.4997 44.1167 53.3773 44.097C53.2113 44.0685 53.0453 44.0444 52.8792 44.0226C52.8246 44.0138 52.7678 44.0072 52.7132 44.0007C52.6673 43.9941 52.6215 43.9875 52.5734 43.9832H52.5712C52.5712 43.9832 52.5647 43.9832 52.5603 43.981C52.4598 43.97 52.3571 43.9569 52.2544 43.9438C52.2282 43.9416 52.1998 43.9372 52.1736 43.935C51.9967 43.9175 51.8175 43.9 51.6406 43.8869C51.634 43.8869 51.6297 43.8869 51.6231 43.8869C51.5925 43.8847 51.5619 43.8825 51.5313 43.8803C51.5204 43.8803 51.5073 43.8803 51.4964 43.8803H51.4898C51.3653 43.8694 51.243 43.8606 51.1185 43.8541C51.0223 43.8497 50.9262 43.8453 50.8323 43.8409C50.5461 43.83 50.2686 43.8234 49.9978 43.8234H49.989C49.8317 43.8234 49.6744 43.8256 49.5171 43.83C49.3162 43.8344 49.1152 43.8409 48.9142 43.8519C48.6761 43.8628 48.438 43.8803 48.1998 43.9C48.0294 43.9153 47.8612 43.9328 47.693 43.9525C47.5663 43.9657 47.4396 43.981 47.3151 43.9985C47.2779 44.0029 47.2408 44.0072 47.2037 44.0138C47.1447 44.0204 47.0879 44.0291 47.0289 44.0379C47.0049 44.0401 46.9786 44.0444 46.9546 44.0488C46.8694 44.0598 46.782 44.0751 46.6968 44.0882C46.6772 44.0904 46.6575 44.0948 46.6378 44.0991C46.6138 44.0991 46.5898 44.1057 46.5658 44.1101C45.8142 44.237 45.0715 44.4033 44.3418 44.6134C44.2173 44.6484 44.0928 44.6856 43.9683 44.725C43.8459 44.7622 43.7214 44.8016 43.5991 44.8432C43.3522 44.9219 43.1075 45.0073 42.865 45.0992C42.7143 45.1539 42.5658 45.2108 42.415 45.2721C42.3932 45.2808 42.3691 45.2896 42.3473 45.2983C42.2381 45.3421 42.1288 45.388 42.0218 45.434C42.0174 45.434 42.0152 45.4362 42.013 45.4384C41.9366 45.469 41.8623 45.5018 41.788 45.5346C41.6679 45.5872 41.5499 45.6397 41.4341 45.6922C41.2768 45.7644 41.1217 45.8388 40.9688 45.9132C40.8421 45.9767 40.7176 46.0401 40.5931 46.1058C40.5319 46.1342 40.4729 46.167 40.4117 46.1999C40.3964 46.2064 40.3833 46.2152 40.368 46.2239C40.2741 46.2721 40.1802 46.3246 40.0862 46.3771C39.6253 46.631 39.1753 46.9045 38.734 47.1933C38.4478 47.3815 38.166 47.5763 37.8885 47.7798C36.8508 48.5413 35.8831 49.3969 35.0027 50.3379C34.9131 50.432 34.8257 50.526 34.7405 50.6223C34.6509 50.7164 34.5658 50.8127 34.4827 50.909C34.4063 50.9987 34.332 51.0862 34.2599 51.1738C34.2206 51.2175 34.1834 51.2613 34.1485 51.3051C34.0371 51.4385 33.93 51.572 33.8252 51.7055C33.6133 51.9769 33.4057 52.2548 33.2047 52.5392C33.1785 52.5786 33.1501 52.618 33.1239 52.6574C33.1195 52.6596 33.1174 52.664 33.1174 52.6662C33.0824 52.7165 33.0475 52.7646 33.0125 52.815C32.9601 52.8872 32.912 52.9616 32.8639 53.036C32.8618 53.0382 32.8596 53.0425 32.8574 53.0447C32.7809 53.1607 32.7045 53.2789 32.628 53.397C32.5144 53.5787 32.4008 53.7625 32.2916 53.9485C32.2413 54.0338 32.1911 54.1192 32.1408 54.2067C32.0382 54.3861 31.9377 54.5656 31.8416 54.7494C31.6952 55.0229 31.5554 55.3008 31.4221 55.5831C31.4112 55.6028 31.4003 55.6247 31.3915 55.6444C31.35 55.7341 31.3085 55.8238 31.267 55.9135C31.2539 55.9442 31.2408 55.9726 31.2277 56.0032C31.1643 56.1455 31.1032 56.2877 31.042 56.4321C30.9961 56.5394 30.9524 56.6466 30.9087 56.7538C30.8956 56.7844 30.8825 56.8173 30.8694 56.8479C30.8672 56.8545 30.865 56.8632 30.8607 56.872C30.8345 56.942 30.8082 57.0098 30.782 57.0799C30.7667 57.1236 30.7493 57.1696 30.7318 57.2155C30.7077 57.279 30.6837 57.3424 30.6619 57.4059C30.6357 57.4716 30.6138 57.5372 30.5898 57.6029C30.5832 57.6204 30.5767 57.6401 30.5701 57.6597C30.5614 57.6838 30.5526 57.7079 30.5461 57.7341C30.5264 57.7867 30.509 57.8392 30.4915 57.8917C30.4849 57.9136 30.4784 57.9333 30.4718 57.9552C30.4478 58.0296 30.4238 58.1018 30.3997 58.1762C30.0742 55.3752 29.6788 50.8368 29.7749 45.8607C29.7837 45.4471 29.7946 45.0292 29.8099 44.609C29.8274 44.1342 29.8492 43.6593 29.8754 43.1801C29.8885 42.9394 29.9038 42.7009 29.9213 42.4601C29.9366 42.2216 29.9541 41.9809 29.9737 41.7402C29.9934 41.4864 30.0152 41.2304 30.0393 40.9765C30.1135 40.1669 30.2053 39.355 30.3145 38.5497C30.3517 38.2828 30.391 38.0136 30.4325 37.7467C30.5374 37.0639 30.6553 36.3856 30.7908 35.716C30.8257 35.5365 30.8629 35.3571 30.9022 35.1776C30.9393 35.007 30.9765 34.8363 31.0158 34.6656C31.0398 34.5649 31.0638 34.4621 31.0879 34.3614C31.16 34.0529 31.2386 33.7465 31.3194 33.4424C31.3216 33.4314 31.326 33.4183 31.3282 33.4074C31.3304 33.3986 31.3325 33.392 31.3347 33.3833C31.444 32.9719 31.5619 32.5692 31.6821 32.1776C31.6821 32.1754 31.6843 32.1754 31.6821 32.1732H31.6843C31.7389 31.9959 31.7935 31.8231 31.8503 31.6524C32.0032 31.1906 32.1627 30.7442 32.3309 30.3132C32.3855 30.1753 32.4401 30.0374 32.4969 29.9018C32.569 29.7223 32.6455 29.5451 32.7219 29.37C32.7984 29.195 32.8749 29.0243 32.9557 28.8558C33.0343 28.6851 33.1152 28.5188 33.1982 28.3547C33.2725 28.2037 33.3511 28.0527 33.4276 27.9061C33.4363 27.893 33.4429 27.882 33.4472 27.8711C33.5324 27.7113 33.6198 27.5538 33.7072 27.4006C33.7968 27.2474 33.8842 27.0964 33.9759 26.9476C34.0393 26.8426 34.1026 26.7397 34.1703 26.6391C34.1769 26.626 34.1856 26.6128 34.1944 26.6019C34.2949 26.4421 34.3975 26.2868 34.5046 26.1358C34.5636 26.0504 34.6226 25.9651 34.6859 25.882C34.7056 25.8491 34.7296 25.8185 34.7536 25.7879C34.7995 25.7244 34.8454 25.6609 34.8934 25.5997C34.9481 25.5253 35.0027 25.4531 35.0617 25.3808C35.0944 25.3393 35.1272 25.2977 35.16 25.2561C35.2495 25.1423 35.3413 25.0329 35.4352 24.9257C35.4571 24.8994 35.4789 24.8732 35.5008 24.8469C35.5707 24.7638 35.6428 24.685 35.7148 24.6062C36.1474 24.127 36.604 23.6937 37.0824 23.302C37.1152 23.2736 37.1501 23.2473 37.1829 23.221C37.2878 23.1357 37.3948 23.0525 37.5019 22.9716C37.6176 22.884 37.7378 22.7987 37.8558 22.7155C38.0021 22.6149 38.1485 22.5186 38.2992 22.4267C38.3757 22.3764 38.4522 22.3304 38.5308 22.2845C38.5636 22.2626 38.5985 22.2429 38.6335 22.2232C38.7296 22.1663 38.8279 22.1116 38.9284 22.0591C39.018 22.0109 39.1097 21.9628 39.2015 21.9168C39.2932 21.8687 39.385 21.8227 39.4767 21.779C39.575 21.733 39.6755 21.6871 39.7782 21.6433C39.835 21.617 39.894 21.593 39.953 21.5689C39.9639 21.5623 39.977 21.5558 39.9901 21.5536C40.0753 21.5164 40.1605 21.4814 40.2479 21.4486C40.2719 21.4376 40.2981 21.4289 40.3244 21.4201C40.5843 21.3194 40.8508 21.2297 41.1217 21.1466H41.1239C41.5718 21.0109 42.0283 20.8993 42.4871 20.8161C42.6968 20.7768 42.9065 20.7439 43.1163 20.7155C43.1512 20.7111 43.184 20.7045 43.2189 20.7024C43.3806 20.6783 43.5423 20.6608 43.7017 20.6455C43.7782 20.6367 43.8547 20.6301 43.9311 20.6236C44.0753 20.6105 44.2195 20.6017 44.3637 20.5951C44.4576 20.5886 44.5537 20.5842 44.6477 20.582C44.7569 20.5776 44.8661 20.5754 44.9754 20.5754H44.9797C44.9797 20.5754 44.9928 20.5754 44.9994 20.5754C45.0169 20.5754 45.0343 20.5754 45.0518 20.5754H45.0562C45.2943 20.5754 45.5324 20.582 45.7684 20.5951H45.7706C45.8536 20.5995 45.9388 20.6061 46.0218 20.6126C46.0939 20.617 46.1682 20.6236 46.2402 20.6301C46.3233 20.6367 46.4063 20.6455 46.4893 20.6564C46.533 20.6608 46.5745 20.6652 46.6182 20.6717C46.699 20.6805 46.782 20.6914 46.8629 20.7045C47.0376 20.7286 47.2146 20.7593 47.3872 20.7921C47.4986 20.814 47.61 20.8358 47.7192 20.8599C48.0054 20.9212 48.2916 20.9934 48.5756 21.0765C48.6477 21.0984 48.7198 21.1203 48.7919 21.1422C48.8683 21.1641 48.9448 21.1903 49.0212 21.2144C49.0955 21.2385 49.1698 21.2647 49.2441 21.291C49.3183 21.3194 49.3926 21.3457 49.4691 21.3742C49.5434 21.4026 49.6176 21.431 49.6919 21.4595C49.7662 21.4879 49.8405 21.5186 49.9147 21.5492C50.0633 21.6127 50.2118 21.6761 50.3582 21.744C50.6531 21.8796 50.9459 22.0263 51.2342 22.186C51.3063 22.2254 51.3784 22.2648 51.4505 22.3063C51.5947 22.3895 51.7367 22.4748 51.8809 22.5624C51.9726 22.6193 52.0622 22.6762 52.154 22.7352C52.2435 22.7943 52.3353 22.8534 52.4248 22.9147C52.5166 22.976 52.6062 23.0394 52.6957 23.1029C52.7853 23.1663 52.8749 23.2298 52.9644 23.2954C53.0977 23.3917 53.2266 23.4924 53.3577 23.5952C53.6067 23.79 53.8536 23.9957 54.1004 24.2101C54.2861 24.3721 54.4696 24.5384 54.6509 24.7112C54.7056 24.7616 54.758 24.8119 54.8126 24.8644C54.9371 24.9848 55.0617 25.1073 55.1862 25.2342C55.1927 25.2408 55.1993 25.2474 55.208 25.2561C55.3238 25.3743 55.4396 25.4946 55.5554 25.6172C55.6777 25.7485 55.8 25.882 55.9224 26.0176C56.0425 26.1533 56.1649 26.2912 56.285 26.4312C56.3746 26.5362 56.4642 26.6435 56.5537 26.7507C56.6062 26.812 56.6564 26.8754 56.7088 26.9389C56.7875 27.0352 56.8639 27.1336 56.9426 27.2321C57.0671 27.3897 57.1895 27.5494 57.314 27.7113C57.3773 27.7945 57.4407 27.8798 57.504 27.9674C57.5696 28.0549 57.6329 28.1424 57.6963 28.2299C57.7574 28.3175 57.8208 28.4028 57.882 28.4903C57.9431 28.5779 58.0065 28.6654 58.0677 28.7573C58.1223 28.8339 58.1747 28.9105 58.2271 28.9893C58.5417 29.4532 58.8519 29.9346 59.1578 30.4379C59.2583 30.602 59.3588 30.7683 59.4592 30.939C59.5488 31.0922 59.6406 31.2497 59.7301 31.4073L59.8 31.5364C64.0054 38.9589 66.2533 48.3181 67.208 53.1498L67.2058 53.1454Z" fill="#F8A629"/>
<path d="M30.544 57.7299C30.5178 57.8043 30.4938 57.8765 30.4697 57.9509C30.4763 57.929 30.4828 57.9093 30.4894 57.8874C30.5069 57.8349 30.5243 57.7824 30.544 57.7299Z" fill="white"/>
<path d="M30.6597 57.4016C30.6204 57.511 30.5811 57.6204 30.5439 57.7298C30.5505 57.7036 30.5592 57.6795 30.568 57.6554C30.5745 57.6358 30.5811 57.6161 30.5876 57.5986C30.6117 57.5329 30.6335 57.4673 30.6597 57.4016Z" fill="white"/>
<path d="M31.0397 56.4279C30.9807 56.5701 30.9217 56.7145 30.8649 56.8589C30.8191 56.9749 30.7732 57.0931 30.7295 57.2112C30.747 57.1653 30.7644 57.1193 30.7797 57.0756C30.806 57.0056 30.8322 56.9377 30.8584 56.8677C30.8628 56.8589 30.8649 56.8502 30.8671 56.8436C30.8802 56.813 30.8933 56.7802 30.9064 56.7495C30.9501 56.6423 30.9938 56.5351 31.0397 56.4279Z" fill="white"/>
<path d="M31.42 55.5789C31.3545 55.7167 31.2889 55.8568 31.2256 55.999C31.2387 55.9684 31.2518 55.9399 31.2649 55.9093C31.3064 55.8196 31.3479 55.7298 31.3894 55.6401C31.3982 55.6204 31.4091 55.5986 31.42 55.5789Z" fill="white"/>
<path d="M33.0102 52.8108C32.9775 52.8611 32.9425 52.9115 32.9097 52.9618C32.8136 53.104 32.7197 53.2484 32.6257 53.3929C32.7022 53.2747 32.7787 53.1565 32.8551 53.0406C32.8573 53.0384 32.8595 53.034 32.8617 53.0318C32.9097 52.9574 32.9578 52.883 33.0102 52.8108Z" fill="white"/>
<path d="M34.2577 51.1694C34.2205 51.2132 34.1856 51.257 34.1484 51.3007H34.1462C34.1812 51.257 34.2183 51.2132 34.2577 51.1694Z" fill="white"/>
<path d="M41.4319 45.688C41.2746 45.7602 41.1195 45.8346 40.9666 45.9112C41.1195 45.8346 41.2746 45.7602 41.4319 45.688Z" fill="white"/>
<path d="M51.4876 43.8761C51.3631 43.8673 51.2408 43.8586 51.1163 43.852C51.0201 43.8454 50.924 43.841 50.8301 43.8367C50.924 43.841 51.0201 43.8454 51.1163 43.8498C51.2408 43.8564 51.3631 43.8651 51.4876 43.8761Z" fill="white"/>
<path d="M53.126 44.0598C52.9884 44.0379 52.8508 44.0182 52.7109 44.0007C52.7656 44.0073 52.8224 44.0139 52.877 44.0226C52.96 44.0336 53.043 44.0467 53.126 44.0598Z" fill="white"/>
<path d="M54.6028 44.3399C54.4411 44.3027 54.2773 44.2677 54.1134 44.2349C54.0282 44.2174 53.943 44.1999 53.8556 44.1845C53.6153 44.1386 53.3707 44.097 53.126 44.0598C53.209 44.0708 53.292 44.0839 53.375 44.097C53.4974 44.1167 53.6219 44.1386 53.7442 44.1605C53.9059 44.1889 54.0697 44.2217 54.2314 44.2568C54.3559 44.283 54.4782 44.3093 54.6028 44.3399Z" fill="white"/>
<path d="M55.1009 44.4583C55.0812 44.4539 55.0616 44.4495 55.0419 44.4451C54.8955 44.4079 54.7492 44.3729 54.6028 44.3401C54.6661 44.3532 54.7273 44.3663 54.7907 44.3817C54.8038 44.3817 54.8169 44.3882 54.83 44.3904L54.8759 44.4035C54.9086 44.4101 54.9414 44.4189 54.9764 44.4276C55.0179 44.4364 55.0594 44.4451 55.1009 44.4583Z" fill="white"/>
<path d="M55.9661 44.6988C55.8547 44.666 55.7433 44.6332 55.6318 44.6025C55.7149 44.6244 55.7979 44.6485 55.8809 44.6726C55.9093 44.6813 55.9377 44.6901 55.9661 44.6988Z" fill="white"/>
<path d="M56.5209 44.8762C56.3876 44.8324 56.2566 44.7886 56.1233 44.7471C56.2434 44.7843 56.3614 44.8215 56.4816 44.8609C56.4947 44.8652 56.5056 44.8696 56.5187 44.874L56.5209 44.8762Z" fill="white"/>
<path d="M65.7094 51.1367C65.6919 51.1148 65.6744 51.0929 65.6548 51.071C65.6744 51.0929 65.6919 51.1148 65.7116 51.1367H65.7094Z" fill="white"/>
</g>
<defs>
<clipPath id="clip0_858_1960">
<rect width="48" height="70" fill="white" transform="translate(26 15)"/>
</clipPath>
</defs>
</svg>
