<svg width="1000" height="300" viewBox="0 0 1000 300" fill="none" xmlns="http://www.w3.org/2000/svg">
<g clip-path="url(#clip0_1108_2868)">
<rect width="1000" height="300" fill="#FFA800"/>
<g opacity="0.8">
<path d="M825.164 516.974V238.186C825.164 166.776 880.706 108.711 949.11 108.711C1017.51 108.711 1073.06 166.776 1073.06 238.186V516.854L825.164 516.974ZM1067.41 511.203V238.307C1067.41 170.143 1014.39 114.722 949.11 114.722C883.831 114.722 830.815 170.022 830.815 238.307V511.203H1067.41Z" fill="white" fill-opacity="0.8"/>
<path d="M949.11 110.033C1016.79 110.033 1071.85 167.497 1071.85 238.306V515.892H826.367V238.306C826.367 167.618 881.427 110.033 949.11 110.033ZM829.612 512.405H1068.61V238.306C1068.61 169.421 1014.99 113.519 949.11 113.519C883.23 113.519 829.612 169.421 829.612 238.306V512.405ZM949.11 107.628C880.104 107.628 823.962 166.175 823.962 238.306V518.176H1074.14V238.306C1074.26 166.295 1018.12 107.628 949.11 107.628ZM832.017 510.001V238.306C832.017 170.743 884.552 115.924 949.11 115.924C1013.67 115.924 1066.2 170.864 1066.2 238.306V510.001H832.017Z" fill="white" fill-opacity="0.8"/>
</g>
<path d="M658.661 694.176V156.678C658.661 85.2678 714.202 27.2021 782.607 27.2021C851.011 27.2021 906.553 85.2678 906.553 156.678V694.176H658.661ZM900.782 688.406V156.678C900.782 88.5137 847.766 33.0928 782.487 33.0928C717.208 33.0928 664.191 88.5137 664.191 156.678V688.406H900.782Z" fill="white" fill-opacity="0.8"/>
<path d="M782.607 28.4044C850.29 28.4044 905.35 85.8689 905.35 156.678V692.974H659.863V156.678C659.863 85.9891 714.924 28.4044 782.607 28.4044ZM663.109 689.608H902.104V156.678C902.104 87.7924 848.487 31.8907 782.607 31.8907C716.727 31.8907 663.109 87.9126 663.109 156.678V689.608ZM782.607 26C713.601 26 657.459 84.5465 657.459 156.678V695.378H907.634V156.678C907.634 84.6667 851.492 26 782.607 26ZM665.514 687.204V156.678C665.514 89.1148 718.049 34.2951 782.607 34.2951C847.164 34.2951 899.7 89.235 899.7 156.678V687.204H665.514Z" fill="white" fill-opacity="0.8"/>
<path d="M677.055 694.176V161.126C677.055 100.415 724.421 50.8853 782.607 50.8853C840.793 50.8853 888.159 100.295 888.159 161.126V694.056H677.055V694.176ZM882.389 688.406V161.126C882.389 103.541 837.547 56.776 782.487 56.776C727.427 56.776 682.585 103.661 682.585 161.126V688.286H882.389V688.406Z" fill="white" fill-opacity="0.8"/>
<path d="M782.607 52.2076C840.072 52.2076 886.957 101.137 886.957 161.246V692.974H678.257V161.246C678.257 101.137 725.022 52.2076 782.607 52.2076ZM681.503 689.608H883.711V161.126C883.711 102.94 838.389 55.5737 782.607 55.5737C726.825 55.5737 681.503 102.94 681.503 161.126V689.608ZM782.607 49.8032C723.82 49.8032 675.853 99.8143 675.853 161.246V695.378H889.241V161.246C889.241 99.8143 841.394 49.8032 782.607 49.8032ZM683.907 687.204V161.126C683.907 104.262 728.148 57.9781 782.607 57.9781C837.066 57.9781 881.307 104.262 881.307 161.126V687.083H683.907V687.204Z" fill="white" fill-opacity="0.8"/>
<path d="M696.169 694.176V165.334C696.169 115.683 734.88 75.1694 782.487 75.1694C830.093 75.1694 868.804 115.563 868.804 165.334V694.176H696.169ZM863.274 688.406V165.334C863.274 118.809 827.088 80.9399 782.607 80.9399C738.126 80.9399 701.94 118.809 701.94 165.334V688.406H863.274Z" fill="white" fill-opacity="0.8"/>
<path d="M782.607 76.3717C829.613 76.3717 867.722 116.284 867.722 165.334V692.974H697.372V165.334C697.372 116.284 735.601 76.3717 782.607 76.3717ZM700.618 689.608H864.476V165.334C864.476 118.088 827.689 79.7378 782.607 79.7378C737.525 79.7378 700.738 118.088 700.738 165.334L700.618 689.608ZM782.607 73.9673C734.279 73.9673 695.088 114.962 695.088 165.334V695.378H870.126V165.334C870.126 114.962 830.815 73.9673 782.607 73.9673ZM703.022 687.203V165.334C703.022 119.41 738.727 82.1421 782.487 82.1421C826.246 82.1421 861.951 119.41 861.951 165.334V687.203H703.022Z" fill="white" fill-opacity="0.8"/>
<path d="M781.558 106.52C820.692 106.52 852.379 136.587 852.379 173.574V686.504H715.912V168.682C715.912 134.32 745.326 106.52 781.558 106.52Z" fill="white" fill-opacity="0.8"/>
<g opacity="0.8">
<path d="M843.558 516.973V242.754C843.558 182.044 890.924 132.514 949.11 132.514C1007.3 132.514 1054.66 181.924 1054.66 242.754V516.973H843.558ZM1049.01 511.203V242.754C1049.01 185.17 1004.17 138.404 949.11 138.404C894.05 138.404 849.208 185.29 849.208 242.754V511.203H1049.01Z" fill="white" fill-opacity="0.8"/>
<path d="M949.11 133.836C1006.57 133.836 1053.46 182.765 1053.46 242.874V515.891H844.76V242.754C844.76 182.765 891.645 133.836 949.11 133.836ZM848.006 512.405H1050.21V242.754C1050.21 184.568 1004.89 137.202 949.11 137.202C893.329 137.202 848.006 184.568 848.006 242.754V512.405ZM949.11 131.432C890.323 131.432 842.356 181.443 842.356 242.874V518.296H1055.74V242.754C1055.86 181.322 1008.02 131.432 949.11 131.432ZM850.41 510.001V242.754C850.41 185.891 894.651 139.607 949.11 139.607C1003.57 139.607 1047.81 185.891 1047.81 242.754V510.001H850.41Z" fill="white" fill-opacity="0.8"/>
</g>
<g opacity="0.8">
<path d="M862.793 516.974V246.962C862.793 197.312 901.503 156.798 949.11 156.798C996.717 156.798 1035.43 197.192 1035.43 246.962V516.974H862.793ZM1029.9 511.203V246.962C1029.9 200.438 993.711 162.569 949.23 162.569C904.749 162.569 868.563 200.438 868.563 246.962V511.203H1029.9Z" fill="white" fill-opacity="0.8"/>
<path d="M949.11 158C995.995 158 1034.22 197.913 1034.22 246.962V515.772H863.995V246.962C863.995 197.913 902.225 158 949.11 158ZM867.241 512.405H1031.1V246.962C1031.1 199.716 994.312 161.366 949.23 161.366C904.148 161.366 867.361 199.716 867.361 246.962V512.405H867.241ZM949.11 155.596C900.902 155.596 861.591 196.591 861.591 246.962V518.176H1036.63V246.962C1036.63 196.591 997.438 155.596 949.11 155.596ZM869.645 510.001V246.962C869.645 201.039 905.35 163.771 949.11 163.771C992.87 163.771 1028.57 201.039 1028.57 246.962V510.001H869.645Z" fill="white" fill-opacity="0.8"/>
</g>
<g opacity="0.8">
<path d="M946.585 188.536C983.853 188.536 1014.03 218.831 1014.03 256.099V514.089H884.071V251.05C884.071 216.547 912.082 188.536 946.585 188.536Z" fill="white" fill-opacity="0.8"/>
</g>
<g opacity="0.8">
<path d="M472.202 694.176V315.848C472.202 244.438 527.743 186.372 596.147 186.372C664.552 186.372 720.093 244.438 720.093 315.848V694.056H472.202V694.176ZM714.443 688.406V315.848C714.443 247.683 661.426 192.263 596.147 192.263C530.869 192.263 477.852 247.683 477.852 315.848V688.286H714.443V688.406Z" fill="white" fill-opacity="0.8"/>
<path d="M596.148 187.694C663.831 187.694 718.891 245.159 718.891 315.968V692.974H473.404V315.968C473.404 245.279 528.465 187.694 596.148 187.694ZM476.65 689.608H715.645V315.848C715.645 246.962 662.028 191.061 596.148 191.061C530.268 191.061 476.65 247.082 476.65 315.848V689.608ZM596.148 185.29C527.142 185.29 471 243.837 471 315.968V695.378H721.175V315.968C721.296 243.837 665.153 185.29 596.148 185.29ZM479.055 687.204V315.848C479.055 248.285 531.59 193.465 596.148 193.465C660.705 193.465 713.241 248.405 713.241 315.848V687.083H479.055V687.204Z" fill="white" fill-opacity="0.8"/>
</g>
<g opacity="0.8">
<path d="M490.596 694.176V314.766C490.596 254.055 537.962 204.525 596.148 204.525C654.334 204.525 701.7 253.935 701.7 314.766V694.176H490.596ZM696.05 688.406V314.646C696.05 257.061 651.208 210.296 596.148 210.296C541.088 210.296 496.246 257.181 496.246 314.646V688.286H696.05V688.406Z" fill="white" fill-opacity="0.8"/>
<path d="M596.148 205.727C653.613 205.727 700.498 254.656 700.498 314.766V692.974H491.798V314.766C491.798 254.656 538.563 205.727 596.148 205.727ZM495.044 689.608H697.252V314.766C697.252 256.58 651.93 209.214 596.148 209.214C540.366 209.214 495.044 256.58 495.044 314.766V689.608ZM596.148 203.323C537.361 203.323 489.394 253.334 489.394 314.766V695.379H702.782V314.766C702.782 253.334 654.935 203.323 596.148 203.323ZM497.448 687.204V314.766C497.448 257.902 541.689 211.618 596.148 211.618C650.607 211.618 694.848 257.902 694.848 314.766V687.204H497.448Z" fill="white" fill-opacity="0.8"/>
</g>
<g opacity="0.8">
<path d="M509.831 694.176V313.083C509.831 263.432 548.541 222.918 596.148 222.918C643.754 222.918 682.465 263.312 682.465 313.083V694.176H509.831ZM676.815 688.406V313.083C676.815 266.558 640.629 228.689 596.148 228.689C551.667 228.689 515.481 266.558 515.481 313.083V688.406H676.815Z" fill="white" fill-opacity="0.8"/>
<path d="M596.148 224.121C643.153 224.121 681.263 264.033 681.263 313.083V692.974H511.033V313.083C511.033 264.033 549.142 224.121 596.148 224.121ZM514.159 689.608H678.017V313.083C678.017 265.837 641.23 227.487 596.148 227.487C551.066 227.487 514.279 265.837 514.279 313.083V689.608H514.159ZM596.148 221.716C547.82 221.716 508.629 262.711 508.629 313.083V695.378H683.667V313.083C683.667 262.711 644.356 221.716 596.148 221.716ZM516.563 687.204V313.083C516.563 267.159 552.268 229.891 596.028 229.891C639.787 229.891 675.492 267.159 675.492 313.083V687.204H516.563Z" fill="white" fill-opacity="0.8"/>
</g>
<g opacity="0.8">
<path d="M593.623 247.684C630.891 247.684 661.186 277.979 661.186 315.247V691.291H531.109V310.197C531.109 275.695 559.12 247.684 593.623 247.684Z" fill="white" fill-opacity="0.8"/>
</g>
<path d="M127.3 127.1C127.3 125.767 127.7 124.733 128.5 124C129.3 123.267 130.333 122.9 131.6 122.9C132.867 122.9 133.767 123.2 134.3 123.8C134.9 124.4 135.3 125.033 135.5 125.7C135.7 126.3 135.8 126.767 135.8 127.1V132.1C135.8 133.9 136.633 134.8 138.3 134.8H140.9C142.433 134.8 143.5 135.2 144.1 136C144.7 136.8 145 137.7 145 138.7C145 139.833 144.633 140.8 143.9 141.6C143.167 142.333 142.167 142.7 140.9 142.7H138.3C136.633 142.7 135.8 143.433 135.8 144.9V153.6C135.8 154.867 135.367 155.9 134.5 156.7C133.7 157.5 132.733 157.9 131.6 157.9C130.333 157.9 129.3 157.5 128.5 156.7C127.7 155.9 127.3 154.867 127.3 153.6V127.1ZM95 128.9C95 127.767 95.4 126.833 96.2 126.1C97 125.3 98.0333 124.9 99.3 124.9C100.433 124.9 101.4 125.3 102.2 126.1C103.067 126.833 103.5 127.767 103.5 128.9V137.5C103.5 138.567 103.767 139.5 104.3 140.3C104.9 141.1 105.867 141.5 107.2 141.5H118C119.2 141.5 120.2 141.833 121 142.5C121.867 143.167 122.3 144.133 122.3 145.4C122.3 146.6 121.867 147.6 121 148.4C120.2 149.133 119.2 149.5 118 149.5H101.4C99.6667 149.5 98.1667 148.967 96.9 147.9C95.6333 146.767 95 145.2 95 143.2V128.9ZM169.457 113.2C171.39 113.2 172.924 113.733 174.057 114.8C175.257 115.867 175.857 117.433 175.857 119.5V128.9C175.857 130.767 175.224 132.267 173.957 133.4C172.69 134.533 171.19 135.1 169.457 135.1H162.357C161.09 135.1 160.29 135.4 159.957 136C159.69 136.533 159.557 137.067 159.557 137.6V138.3C159.557 138.967 159.69 139.667 159.957 140.4C160.29 141.133 161.19 141.5 162.657 141.5H172.957C174.157 141.5 175.124 141.867 175.857 142.6C176.657 143.333 177.057 144.333 177.057 145.6C177.057 146.8 176.657 147.767 175.857 148.5C175.124 149.167 174.157 149.5 172.957 149.5H157.357C155.624 149.5 154.124 148.933 152.857 147.8C151.59 146.6 150.957 145.067 150.957 143.2V133.7C150.957 131.767 151.624 130.2 152.957 129C154.29 127.8 155.89 127.2 157.757 127.2H164.557C165.757 127.2 166.557 126.933 166.957 126.4C167.357 125.867 167.557 125.367 167.557 124.9V124C167.557 123.333 167.357 122.733 166.957 122.2C166.624 121.6 165.724 121.3 164.257 121.3H155.457C154.257 121.3 153.257 120.933 152.457 120.2C151.657 119.467 151.257 118.467 151.257 117.2C151.257 116.067 151.657 115.133 152.457 114.4C153.257 113.6 154.257 113.2 155.457 113.2H169.457ZM183.257 181.5C182.19 180.567 181.257 179.667 180.457 178.8C179.724 178 178.924 177.167 178.057 176.3C177.057 175.367 176.157 174.833 175.357 174.7C174.557 174.633 173.624 175.1 172.557 176.1L166.357 182.3C165.29 183.233 164.157 183.533 162.957 183.2C161.757 182.933 160.79 182.467 160.057 181.8C159.257 180.867 158.924 179.833 159.057 178.7C159.19 177.633 159.69 176.767 160.557 176.1C161.024 175.7 161.49 175.333 161.957 175C162.424 174.667 162.89 174.3 163.357 173.9C165.29 172.433 167.024 170.867 168.557 169.2C170.157 167.533 170.924 165.233 170.857 162.3C170.724 161.1 171.09 160.133 171.957 159.4C172.824 158.6 173.824 158.2 174.957 158.2C176.157 158.2 177.19 158.6 178.057 159.4C178.924 160.133 179.29 161.1 179.157 162.3C178.957 165.167 179.624 167.4 181.157 169C182.757 170.6 184.657 172.2 186.857 173.8C187.257 174 187.624 174.233 187.957 174.5C188.357 174.767 188.724 175.033 189.057 175.3C189.924 175.967 190.357 176.933 190.357 178.2C190.424 179.533 190.057 180.633 189.257 181.5C188.457 182.3 187.457 182.7 186.257 182.7C185.057 182.767 184.057 182.367 183.257 181.5ZM183.257 127.1C183.257 125.767 183.657 124.733 184.457 124C185.257 123.267 186.29 122.9 187.557 122.9C188.824 122.9 189.724 123.2 190.257 123.8C190.857 124.4 191.257 125.033 191.457 125.7C191.657 126.3 191.757 126.767 191.757 127.1V132.1C191.757 133.9 192.59 134.8 194.257 134.8H196.857C198.39 134.8 199.457 135.2 200.057 136C200.657 136.8 200.957 137.7 200.957 138.7C200.957 139.833 200.59 140.8 199.857 141.6C199.124 142.333 198.124 142.7 196.857 142.7H194.257C192.59 142.7 191.757 143.433 191.757 144.9V153.6C191.757 154.867 191.324 155.9 190.457 156.7C189.657 157.5 188.69 157.9 187.557 157.9C186.29 157.9 185.257 157.5 184.457 156.7C183.657 155.9 183.257 154.867 183.257 153.6V127.1ZM239.814 160.3C241.747 160.3 243.281 160.833 244.414 161.9C245.614 162.9 246.214 164.433 246.214 166.5V175.8C246.214 177.667 245.581 179.133 244.314 180.2C243.047 181.333 241.547 181.9 239.814 181.9H233.014C231.747 181.9 230.947 182.167 230.614 182.7C230.347 183.233 230.214 183.8 230.214 184.4V185.2C230.214 185.867 230.347 186.5 230.614 187.1C230.947 187.7 231.847 188 233.314 188H242.814C244.014 188 244.981 188.333 245.714 189C246.514 189.733 246.914 190.733 246.914 192C246.914 193.133 246.514 194.1 245.714 194.9C244.981 195.7 244.014 196.1 242.814 196.1H228.014C226.281 196.1 224.781 195.5 223.514 194.3C222.247 193.1 221.614 191.567 221.614 189.7V180.5C221.614 178.567 222.281 177 223.614 175.8C224.947 174.6 226.547 174 228.414 174H234.914C236.114 174 236.914 173.733 237.314 173.2C237.714 172.733 237.914 172.233 237.914 171.7V170.9C237.914 170.3 237.714 169.7 237.314 169.1C236.981 168.5 236.081 168.2 234.614 168.2H226.114C224.914 168.2 223.914 167.833 223.114 167.1C222.314 166.433 221.914 165.467 221.914 164.2C221.914 163 222.314 162.067 223.114 161.4C223.914 160.667 224.914 160.3 226.114 160.3H239.814ZM213.314 149.9C211.447 149.9 209.914 149.3 208.714 148.1C207.514 146.9 206.914 145.367 206.914 143.5V131.1C206.914 129.233 207.514 127.733 208.714 126.6C209.914 125.467 211.447 124.9 213.314 124.9H226.114C227.981 124.9 229.481 125.467 230.614 126.6C231.814 127.733 232.414 129.233 232.414 131.1V143.5C232.414 145.367 231.814 146.9 230.614 148.1C229.481 149.3 227.981 149.9 226.114 149.9H213.314ZM240.214 127.1C240.214 125.767 240.614 124.733 241.414 124C242.214 123.267 243.247 122.9 244.514 122.9C245.781 122.9 246.681 123.2 247.214 123.8C247.814 124.4 248.214 125.033 248.414 125.7C248.614 126.3 248.714 126.767 248.714 127.1V132.1C248.714 133.9 249.547 134.8 251.214 134.8H253.814C255.347 134.8 256.414 135.2 257.014 136C257.614 136.8 257.914 137.7 257.914 138.7C257.914 139.833 257.547 140.8 256.814 141.6C256.081 142.333 255.081 142.7 253.814 142.7H251.214C249.547 142.7 248.714 143.433 248.714 144.9V153.6C248.714 154.867 248.281 155.9 247.414 156.7C246.614 157.5 245.647 157.9 244.514 157.9C243.247 157.9 242.214 157.5 241.414 156.7C240.614 155.9 240.214 154.867 240.214 153.6V127.1ZM215.214 138.8C215.214 139.667 215.314 140.4 215.514 141C215.781 141.533 216.381 141.8 217.314 141.8H221.514C222.581 141.8 223.247 141.533 223.514 141C223.847 140.4 224.014 139.667 224.014 138.8V135.5C224.014 134.767 223.847 134.133 223.514 133.6C223.247 133.067 222.547 132.8 221.414 132.8H217.614C216.681 132.8 216.047 133.1 215.714 133.7C215.381 134.233 215.214 134.833 215.214 135.5V138.8ZM289.245 148.2C288.179 147.133 287.245 146.167 286.445 145.3C285.712 144.433 284.912 143.567 284.045 142.7C283.045 141.767 282.145 141.267 281.345 141.2C280.545 141.133 279.612 141.6 278.545 142.6C277.412 143.667 276.279 144.767 275.145 145.9C274.079 147.033 273.145 148 272.345 148.8C271.279 149.733 270.145 150.067 268.945 149.8C267.745 149.533 266.779 149.067 266.045 148.4C265.245 147.467 264.879 146.433 264.945 145.3C265.079 144.167 265.579 143.267 266.445 142.6C266.845 142.267 267.245 141.967 267.645 141.7C268.045 141.367 268.479 141.033 268.945 140.7C270.279 139.633 271.579 138.533 272.845 137.4C274.112 136.267 275.112 134.933 275.845 133.4C276.645 131.867 276.979 129.967 276.845 127.7C276.712 126.5 277.079 125.5 277.945 124.7C278.812 123.9 279.812 123.5 280.945 123.5C282.145 123.5 283.179 123.9 284.045 124.7C284.912 125.5 285.279 126.5 285.145 127.7C285.012 130.033 285.279 131.933 285.945 133.4C286.612 134.867 287.545 136.133 288.745 137.2C290.012 138.267 291.379 139.333 292.845 140.4C293.245 140.6 293.612 140.833 293.945 141.1C294.279 141.367 294.645 141.633 295.045 141.9C295.912 142.567 296.345 143.567 296.345 144.9C296.412 146.233 296.045 147.3 295.245 148.1C294.445 148.967 293.412 149.433 292.145 149.5C290.945 149.5 289.979 149.067 289.245 148.2ZM294.245 155.5C295.645 155.5 296.679 155.9 297.345 156.7C298.079 157.5 298.445 158.433 298.445 159.5C298.445 160.567 298.045 161.5 297.245 162.3C296.512 163.033 295.512 163.4 294.245 163.4H266.745C265.479 163.4 264.445 163.033 263.645 162.3C262.845 161.5 262.445 160.567 262.445 159.5C262.445 158.433 262.779 157.5 263.445 156.7C264.179 155.9 265.279 155.5 266.745 155.5H294.245ZM313.314 149.9C311.447 149.9 309.914 149.3 308.714 148.1C307.514 146.9 306.914 145.367 306.914 143.5V131.1C306.914 129.233 307.514 127.733 308.714 126.6C309.914 125.467 311.447 124.9 313.314 124.9H326.114C327.981 124.9 329.481 125.467 330.614 126.6C331.814 127.733 332.414 129.233 332.414 131.1V143.5C332.414 145.367 331.814 146.9 330.614 148.1C329.481 149.3 327.981 149.9 326.114 149.9H313.314ZM326.514 183.6C324.647 183.6 323.114 183.033 321.914 181.9C320.714 180.767 320.114 179.267 320.114 177.4V166.3C320.114 164.433 320.714 162.933 321.914 161.8C323.114 160.667 324.647 160.1 326.514 160.1H339.614C341.547 160.1 343.081 160.667 344.214 161.8C345.347 162.933 345.914 164.433 345.914 166.3V177.4C345.914 179.267 345.347 180.767 344.214 181.9C343.081 183.033 341.547 183.6 339.614 183.6H326.514ZM348.414 153.2C348.414 154.467 348.014 155.5 347.214 156.3C346.481 157.1 345.514 157.5 344.314 157.5C343.114 157.5 342.081 157.1 341.214 156.3C340.347 155.5 339.914 154.467 339.914 153.2V126.9C339.914 126.567 340.014 126.1 340.214 125.5C340.481 124.833 340.914 124.2 341.514 123.6C342.181 123 343.114 122.7 344.314 122.7C345.581 122.7 346.581 123.1 347.314 123.9C348.047 124.633 348.414 125.633 348.414 126.9V153.2ZM315.214 138.8C315.214 139.667 315.314 140.4 315.514 141C315.781 141.533 316.381 141.8 317.314 141.8H321.514C322.581 141.8 323.247 141.533 323.514 141C323.847 140.4 324.014 139.667 324.014 138.8V135.5C324.014 134.767 323.847 134.133 323.514 133.6C323.247 133.067 322.547 132.8 321.414 132.8H317.614C316.681 132.8 316.047 133.1 315.714 133.7C315.381 134.233 315.214 134.833 315.214 135.5V138.8ZM328.614 172.9C328.614 173.767 328.747 174.467 329.014 175C329.281 175.533 329.914 175.8 330.914 175.8H334.714C335.781 175.8 336.481 175.533 336.814 175C337.214 174.467 337.414 173.767 337.414 172.9V170.4C337.414 169.6 337.214 168.967 336.814 168.5C336.481 168.1 335.747 167.9 334.614 167.9H331.114C330.181 167.9 329.514 168.133 329.114 168.6C328.781 169.133 328.614 169.767 328.614 170.5V172.9Z" fill="white"/>
</g>
<defs>
<clipPath id="clip0_1108_2868">
<rect width="1000" height="300" fill="white"/>
</clipPath>
</defs>
</svg>
