<svg width="100" height="100" viewBox="0 0 100 100" fill="none" xmlns="http://www.w3.org/2000/svg">
<g clip-path="url(#clip0_858_2505)">
<path d="M30.8347 52.3762L30.3811 51.4711L26.6202 43.9536C26.2746 43.2084 26.4387 42.3249 27.0263 41.7524L44.001 25.2162C44.7614 24.4753 45.9192 24.3219 46.8459 24.8404L68.8884 37.1512C69.5991 37.5487 69.9858 38.348 69.8562 39.1516L68.4132 48.0796L30.8347 52.3762Z" fill="#343738"/>
<path d="M30.8368 52.9162C30.6381 52.9162 30.448 52.806 30.353 52.6181L26.1385 44.1934C25.6913 43.2256 25.9008 42.0958 26.6504 41.3635L43.6229 24.8295C44.5475 23.9287 45.9797 23.7386 47.1073 24.3694L69.1498 36.6803C70.0549 37.1858 70.5539 38.214 70.3876 39.2379L68.9446 48.166C68.897 48.4597 68.6184 48.6606 68.3246 48.6131C68.0308 48.5656 67.8299 48.2891 67.8774 47.9931L69.3204 39.0651C69.4133 38.4883 69.1325 37.9073 68.6227 37.6221L46.5824 25.3134C45.8695 24.9159 44.9623 25.0348 44.3769 25.605L27.4043 42.1391C26.9809 42.5516 26.8621 43.1889 27.1105 43.7268L31.3186 52.1364C31.4525 52.4042 31.3445 52.7283 31.0766 52.86C30.9989 52.8989 30.9168 52.9183 30.8347 52.9183L30.8368 52.9162Z" fill="black"/>
<path d="M44.0701 74.8095L42.8043 74.9175L26.4863 76.3022C25.8966 76.3518 25.43 75.8118 25.5639 75.235L28.303 63.4124L28.5903 62.1746C28.7285 62.3344 28.8776 62.4856 29.0396 62.6217C29.6833 63.1704 30.5064 63.5182 31.405 63.5636C31.3942 63.5398 31.3856 63.5161 31.3769 63.4923C31.3402 63.4016 31.3056 63.3108 31.2732 63.2201C31.2538 63.1704 31.2322 63.1207 31.2149 63.0689C31.1955 63.0192 31.176 62.9674 31.1587 62.9155C31.0788 62.6995 31.0054 62.4813 30.9362 62.2631C30.8866 62.1163 30.8412 61.9694 30.798 61.8203C30.7786 61.7577 30.7591 61.6929 30.744 61.6302C30.7094 61.5136 30.677 61.3969 30.6446 61.2781C30.6036 61.1269 30.5669 60.9757 30.528 60.8245C30.528 60.8201 30.5258 60.8137 30.5237 60.8072C30.4869 60.6538 30.4524 60.4983 30.42 60.3449C30.3919 60.2239 30.3681 60.103 30.3444 59.982C30.3422 59.969 30.3379 59.9582 30.3379 59.9453C30.3271 59.8999 30.3184 59.8545 30.312 59.8092C30.2882 59.6882 30.2666 59.5694 30.2472 59.4484C30.2428 59.429 30.2385 59.4096 30.2364 59.3901C30.2104 59.2346 30.1867 59.079 30.1651 58.9235C30.1413 58.7723 30.1219 58.6189 30.1046 58.4656C30.0916 58.3662 30.0808 58.269 30.0722 58.1718V58.1674C30.0679 58.1329 30.0635 58.0983 30.0614 58.0659C30.0506 57.9601 30.0398 57.8564 30.0333 57.7505C30.0268 57.6879 30.0203 57.6252 30.0182 57.5626C30.016 57.5367 30.0139 57.5108 30.0117 57.4827C30.0074 57.4222 30.0031 57.3595 30.0009 57.2991C29.9923 57.204 29.9879 57.109 29.9836 57.0139C29.9815 56.9858 29.9815 56.9599 29.9815 56.9318V56.9232C29.9728 56.7871 29.9685 56.6488 29.9663 56.5106C29.9642 56.4263 29.962 56.3399 29.962 56.2535V56.247L30.3163 54.7263L30.6338 53.3567L30.7375 52.9096L30.7634 52.7972L30.8369 52.9182L31.068 53.3027L31.1631 53.4583L31.202 53.5231C31.1458 53.9357 31.1069 54.3504 31.0788 54.7608C31.0702 54.925 31.0615 55.0892 31.0551 55.2512C31.0464 55.4845 31.0421 55.7135 31.0399 55.9446V56.0224C31.0399 58.7442 31.5973 61.3775 32.6968 63.8466C34.8462 68.6724 38.8403 72.308 43.6273 74.0772L43.7591 74.2932L44.0701 74.8095Z" fill="#343738"/>
<path d="M31.2882 52.9183L31.204 53.2855L31.1629 53.4583L30.9037 54.5773L30.0721 58.1675C30.0677 58.1329 30.0634 58.0984 30.0613 58.066C30.0505 57.9601 30.0397 57.8564 30.0332 57.7506C30.0267 57.6879 30.0202 57.6253 30.0181 57.5627C30.0159 57.5367 30.0137 57.5108 30.0116 57.4827C30.0073 57.4222 30.0029 57.3596 30.0008 57.2991C29.9921 57.2041 29.9878 57.109 29.9835 57.014C29.9813 56.9859 29.9813 56.96 29.9813 56.9319V56.9232C29.9727 56.7871 29.9684 56.6489 29.9662 56.5106C29.964 56.4264 29.9619 56.34 29.9619 56.2536V56.2471C29.9597 56.1737 29.9597 56.0959 29.9597 56.0224V55.9965C29.9057 56.0203 29.8517 56.0462 29.7999 56.0743C29.6573 56.1477 29.5212 56.2277 29.3916 56.3184L29.7135 54.9272L30.2298 52.7087L30.2341 52.6871V52.6742C30.2492 52.618 30.2708 52.564 30.301 52.5165C30.4004 52.3523 30.5797 52.2508 30.7741 52.2573C30.8108 52.2573 30.8476 52.2616 30.8843 52.2702C30.9513 52.2853 31.0139 52.3134 31.0657 52.3501C31.0657 52.3501 31.0679 52.3501 31.0679 52.3523C31.1781 52.4279 31.258 52.5424 31.2861 52.6742C31.2926 52.6936 31.2947 52.7109 31.2947 52.7303C31.3055 52.793 31.3034 52.8556 31.2882 52.9183Z" fill="black"/>
<path d="M44.608 74.7641C44.6339 75.0601 44.4136 75.3215 44.1155 75.3474L44.0183 75.356L26.5316 76.8401C26.4906 76.8401 26.4495 76.8444 26.4085 76.8444C26.0002 76.8444 25.6179 76.6716 25.3457 76.3562C25.0476 76.0127 24.9353 75.5591 25.0368 75.1141L27.8515 62.9674L28.1734 61.5806C28.2922 61.7923 28.4326 61.991 28.5903 62.1746C28.7285 62.3345 28.8776 62.4857 29.0396 62.6218L28.7739 63.7753L26.0909 75.3582C26.0564 75.5008 26.1212 75.6023 26.1622 75.6498C26.1946 75.6887 26.2875 75.7773 26.4409 75.7643L41.7479 74.4639H41.7522L43.7591 74.2932L44.0248 74.2716C44.3229 74.2457 44.5821 74.466 44.608 74.7641Z" fill="black"/>
<path d="M76.7385 72.7531H60.8503L61.0167 72.213L61.1031 71.9322C65.1707 69.1629 68.1582 64.8663 69.1627 59.779C69.4068 58.5521 69.5321 57.2884 69.5321 56.0225C69.5321 54.4672 69.3442 52.9161 68.9748 51.4148C68.9489 51.3003 68.9208 51.1966 68.8927 51.0908L68.8084 50.7797C68.7501 50.5724 68.6896 50.3671 68.6248 50.1641C68.6205 50.1576 68.6183 50.149 68.6183 50.1425L68.1539 48.9241L68.1647 48.8896L68.2403 48.6476L68.2554 48.5979L68.4131 48.0817L68.6054 48.5828L68.6097 48.6001L69.2923 50.3974L70.448 53.4367C70.448 53.4367 70.4502 53.4389 70.4502 53.4411C70.4631 53.562 70.4783 53.6808 70.4912 53.7997C70.4934 53.8256 70.4955 53.8493 70.4999 53.8731C70.515 54.02 70.5279 54.169 70.5409 54.3159C70.5452 54.3721 70.5495 54.4283 70.5539 54.4844C70.5647 54.6227 70.5733 54.7588 70.5798 54.897C70.5906 55.0526 70.5971 55.2081 70.6014 55.3636C70.6036 55.4284 70.6057 55.4932 70.6057 55.5602C70.61 55.7136 70.6122 55.8691 70.6122 56.0225C70.6122 56.2277 70.61 56.4329 70.6014 56.6381C70.6014 56.7224 70.5971 56.8045 70.5927 56.8887C70.5906 56.9794 70.5863 57.068 70.5798 57.1566C70.5733 57.2797 70.5668 57.4007 70.556 57.5238C70.5495 57.6318 70.5409 57.7377 70.5301 57.8457C70.5258 57.891 70.5215 57.9386 70.5171 57.9861C70.5085 58.0703 70.4999 58.1546 70.4912 58.2388C70.4696 58.4462 70.4437 58.6536 70.4135 58.8588C70.4005 58.9474 70.3875 59.0381 70.3746 59.1267C70.3746 59.1353 70.3724 59.1418 70.3702 59.1504C70.8822 58.9603 71.338 58.673 71.7204 58.308C71.8673 58.1697 72.0033 58.0185 72.1265 57.8565L72.5607 59.0014L77.4124 71.7745C77.5917 72.2476 77.2439 72.7531 76.7385 72.7531Z" fill="#343738"/>
<path d="M70.6014 55.3636L68.6939 50.3434L68.6248 50.1641C68.6248 50.1641 68.6183 50.149 68.6183 50.1425L68.1539 48.9241L68.0588 48.6714L67.9076 48.2739V48.2696C67.9011 48.2545 67.8968 48.2394 67.8925 48.2242C67.8882 48.2091 67.886 48.1962 67.8838 48.1832C67.8795 48.1724 67.8795 48.1616 67.8774 48.1508V48.1422C67.8752 48.1227 67.873 48.1033 67.873 48.0817C67.873 48.0557 67.8752 48.0277 67.8795 48.0017C67.8838 47.9758 67.8882 47.9521 67.8946 47.9283C67.9422 47.7728 68.0567 47.6388 68.2208 47.5762C68.2532 47.5632 68.2835 47.5546 68.3159 47.5503L68.3656 47.5438C68.4109 47.5395 68.4541 47.5416 68.4973 47.5503H68.4995C68.6745 47.5783 68.83 47.6907 68.9056 47.8635C68.9099 47.8721 68.9143 47.8808 68.9164 47.8894L68.9683 48.019V48.0255L69.1584 48.5288L69.6206 49.7407L69.8971 50.473L70.3724 51.7216C70.2946 51.6935 70.2168 51.6654 70.1369 51.6416C70.1456 51.6805 70.1542 51.7194 70.1607 51.7583C70.1628 51.7669 70.165 51.7734 70.165 51.7821C70.1931 51.9009 70.2168 52.0197 70.2384 52.1385C70.3227 52.5705 70.3918 53.0026 70.448 53.4368C70.448 53.4389 70.4501 53.4389 70.4501 53.4411C70.4631 53.562 70.4782 53.6809 70.4912 53.7997C70.4933 53.8256 70.4955 53.8493 70.4998 53.8731C70.5149 54.02 70.5279 54.1691 70.5409 54.3159C70.5452 54.3721 70.5495 54.4283 70.5538 54.4844C70.5646 54.6227 70.5733 54.7588 70.5798 54.897C70.5906 55.0526 70.597 55.2081 70.6014 55.3636Z" fill="black"/>
<path d="M77.7775 72.7466C77.5421 73.0901 77.1532 73.2932 76.7385 73.2932H60.8503C60.5522 73.2932 60.3103 73.0512 60.3103 72.7531C60.3103 72.455 60.5522 72.2131 60.8503 72.2131H76.7385C76.8206 72.2131 76.8681 72.1634 76.8875 72.1353C76.9091 72.1051 76.9372 72.0446 76.9091 71.9647L72.1286 59.3838L71.7204 58.308C71.8673 58.1698 72.0034 58.0185 72.1265 57.8565C72.2626 57.6794 72.3835 57.4915 72.4894 57.2927L72.9646 58.5435L77.9179 71.5823C78.0648 71.9711 78.013 72.4053 77.7775 72.7466Z" fill="black"/>
<path d="M46.1222 56.3616C44.379 58.524 42.3117 59.2066 40.3999 59.2066C38.2506 59.2066 36.2956 58.3447 35.2112 57.7571L35.7275 56.8066C37.9741 58.0271 42.2037 59.5025 45.2819 55.6833L46.1222 56.3616Z" fill="black"/>
<path d="M35.7232 56.8045L35.2112 57.7549C34.4119 57.3229 33.9237 56.96 33.9043 56.9449L34.5524 56.0808C34.5524 56.0808 35.0017 56.4135 35.7232 56.8045Z" fill="black"/>
<path d="M64.9115 55.4134C63.2525 57.714 61.33 58.9474 59.1979 59.077C59.0726 59.0835 58.9473 59.0878 58.8242 59.0878C55.4219 59.0878 52.8059 56.299 52.6914 56.1759L53.0889 55.8087L53.4842 55.4414H53.4864C53.5792 55.5408 56.111 58.1806 59.1395 57.9969C60.9282 57.8868 62.5764 56.8045 64.0345 54.7826L64.9115 55.4134Z" fill="black"/>
<path d="M32.6967 63.8467C31.5971 61.3776 31.0398 58.7443 31.0398 56.0225V55.9447C31.042 55.7136 31.0463 55.4846 31.0549 55.2513C31.0614 55.0893 31.0701 54.9251 31.0787 54.761L31.0895 54.532L30.9037 54.5773L30.3853 54.707C30.3615 54.7134 30.3378 54.7178 30.3162 54.7264C30.206 54.7545 30.1001 54.7869 29.9943 54.8236C29.8992 54.8539 29.8042 54.8884 29.7135 54.9273C29.5731 54.9813 29.437 55.0439 29.3052 55.1131C27.6116 55.9815 26.5618 57.701 26.5618 59.6041C26.5618 60.8959 27.05 62.0753 27.8514 62.9675C27.9918 63.1252 28.143 63.2742 28.3029 63.4125C28.4519 63.5421 28.6096 63.6652 28.7738 63.7754C29.5817 64.3262 30.5559 64.6481 31.6058 64.6481C31.6944 64.6481 31.7829 64.6459 31.8715 64.6416C32.0097 64.633 32.148 64.62 32.2798 64.6006L32.9883 64.5012L32.6967 63.8467ZM29.0395 62.6219C28.8775 62.4858 28.7284 62.3346 28.5902 62.1747C28.4325 61.9911 28.2921 61.7923 28.1733 61.5806C27.8341 60.9974 27.6419 60.3234 27.6419 59.6041C27.6419 58.2691 28.3007 57.0464 29.3916 56.3185C29.5212 56.2277 29.6573 56.1478 29.7999 56.0744C29.8517 56.0463 29.9057 56.0203 29.9597 55.9966V56.0225C29.9597 56.096 29.9597 56.1737 29.9619 56.2472V56.2515C29.9619 56.3401 29.964 56.4265 29.9662 56.5107C29.9684 56.649 29.9727 56.7872 29.9813 56.9233V56.9319C29.9813 56.96 29.9813 56.9859 29.9835 57.014C29.9878 57.1091 29.9921 57.2041 30.0008 57.2992C30.0029 57.3597 30.0073 57.4223 30.0116 57.4828C30.0116 57.5109 30.0159 57.5368 30.0181 57.5627C30.0202 57.6254 30.0267 57.688 30.0332 57.7507C30.0397 57.8565 30.0505 57.9602 30.0613 58.066C30.0634 58.0984 30.0677 58.133 30.0721 58.1676V58.1719C30.0807 58.2691 30.0915 58.3663 30.1045 58.4657C30.1217 58.619 30.1412 58.7724 30.1649 58.9236C30.1865 59.0792 30.2103 59.2347 30.2362 59.3902C30.2384 59.4097 30.2427 59.4291 30.247 59.4486C30.2665 59.5695 30.2881 59.6883 30.3118 59.8093C30.3183 59.8547 30.327 59.9 30.3378 59.9454C30.3378 59.9584 30.3421 59.9692 30.3442 59.9821C30.368 60.1031 30.3918 60.2241 30.4198 60.345C30.4523 60.4984 30.4868 60.6539 30.5235 60.8073C30.5235 60.8138 30.5279 60.8203 30.5279 60.8246C30.5667 60.9758 30.6035 61.127 30.6445 61.2782C30.6769 61.397 30.7093 61.5137 30.7439 61.6303C30.759 61.693 30.7784 61.7578 30.7979 61.8204C30.8411 61.9695 30.8864 62.1164 30.9361 62.2633C31.0053 62.4814 31.0787 62.6996 31.1586 62.9156C31.1759 62.9675 31.1954 63.0193 31.2148 63.069C31.2321 63.1209 31.2537 63.1705 31.2731 63.2202C31.3055 63.311 31.3401 63.4017 31.3768 63.4924C31.3854 63.5162 31.3941 63.5399 31.4049 63.5637C30.5063 63.5183 29.6832 63.1705 29.0395 62.6219Z" fill="black"/>
<path d="M31.4049 63.5637C30.5062 63.5183 29.6832 63.1705 29.0395 62.6219C28.8775 62.4858 28.7284 62.3345 28.5902 62.1747C28.4325 61.9911 28.2921 61.7923 28.1732 61.5806C27.8341 60.9974 27.6418 60.3234 27.6418 59.6041C27.6418 58.2691 28.3007 57.0464 29.3916 56.3184C29.5212 56.2277 29.6573 56.1478 29.7999 56.0743C29.8517 56.0463 29.9057 56.0203 29.9597 55.9966V56.0225C29.9597 56.096 29.9597 56.1737 29.9619 56.2472V56.2515C29.9619 56.3401 29.964 56.4265 29.9662 56.5107C29.9684 56.649 29.9727 56.7872 29.9813 56.9233V56.9319C29.9813 56.96 29.9813 56.9859 29.9835 57.014C29.9878 57.1091 29.9921 57.2041 30.0008 57.2992C30.0029 57.3597 30.0072 57.4223 30.0116 57.4828C30.0116 57.5109 30.0159 57.5368 30.018 57.5627C30.0202 57.6254 30.0267 57.688 30.0332 57.7506C30.0396 57.8565 30.0504 57.9602 30.0612 58.066C30.0634 58.0984 30.0677 58.133 30.072 58.1676V58.1719C30.0807 58.2691 30.0915 58.3663 30.1044 58.4657C30.1217 58.619 30.1412 58.7724 30.1649 58.9236C30.1865 59.0792 30.2103 59.2347 30.2362 59.3902C30.2384 59.4097 30.2427 59.4291 30.247 59.4486C30.2665 59.5695 30.2881 59.6883 30.3118 59.8093C30.3183 59.8547 30.3269 59.9 30.3377 59.9454C30.3377 59.9584 30.3421 59.9692 30.3442 59.9821C30.368 60.1031 30.3918 60.2241 30.4198 60.345C30.4522 60.4984 30.4868 60.6539 30.5235 60.8073C30.5235 60.8138 30.5278 60.8203 30.5278 60.8246C30.5667 60.9758 30.6035 61.127 30.6445 61.2782C30.6769 61.397 30.7093 61.5137 30.7439 61.6303C30.759 61.693 30.7784 61.7578 30.7979 61.8204C30.8411 61.9695 30.8864 62.1164 30.9361 62.2633C31.0052 62.4814 31.0787 62.6996 31.1586 62.9156C31.1759 62.9675 31.1953 63.0193 31.2148 63.069C31.2321 63.1209 31.2537 63.1705 31.2731 63.2202C31.3055 63.3109 31.3401 63.4017 31.3768 63.4924C31.3854 63.5162 31.3941 63.5399 31.4049 63.5637Z" fill="white"/>
<path d="M70.0137 50.4968C69.9748 50.4881 69.9359 50.4795 69.8971 50.473C69.8776 50.4687 69.8582 50.4665 69.8409 50.4622C69.7178 50.4406 69.5925 50.4233 69.4629 50.4125L69.2922 50.3974L68.6938 50.3434L68.8105 50.7797L68.8947 51.0908C68.9228 51.1967 68.9509 51.3003 68.9768 51.4148C69.3462 52.9162 69.5342 54.4672 69.5342 56.0225C69.5342 57.2884 69.4089 58.5521 69.1648 59.779L69.0136 60.5394L69.7804 60.4185C69.9057 60.399 70.031 60.3731 70.152 60.345C70.8929 60.17 71.5647 59.8374 72.1307 59.3837C72.2819 59.2671 72.4266 59.1375 72.5627 59.0014C72.7053 58.8588 72.8414 58.7054 72.9667 58.5434C73.6342 57.6858 74.0273 56.6036 74.0273 55.4349C74.0273 53.0566 72.3381 50.9785 70.0159 50.4968H70.0137ZM72.1264 57.8565C72.0032 58.0185 71.8671 58.1697 71.7203 58.308C71.3379 58.673 70.8821 58.9603 70.3701 59.1504C70.3723 59.1418 70.3745 59.1353 70.3745 59.1267C70.3874 59.0381 70.4004 58.9474 70.4133 58.8588C70.4436 58.6536 70.4695 58.4462 70.4911 58.2388C70.4998 58.1546 70.5084 58.0703 70.517 57.9861C70.5214 57.9386 70.5257 57.891 70.53 57.8457C70.5408 57.7377 70.5494 57.6318 70.5559 57.5238C70.5667 57.4007 70.5732 57.2797 70.5797 57.1566C70.5862 57.068 70.5905 56.9795 70.5926 56.8887C70.597 56.8045 70.6013 56.7224 70.6013 56.6381C70.6099 56.4329 70.6121 56.2277 70.6121 56.0225C70.6121 55.8691 70.6099 55.7136 70.6056 55.5602C70.6056 55.4933 70.6034 55.4284 70.6013 55.3636C70.597 55.2081 70.5905 55.0526 70.5797 54.897C70.5732 54.7588 70.5646 54.6227 70.5538 54.4844C70.5494 54.4283 70.5451 54.3721 70.5408 54.316C70.5278 54.1691 70.5149 54.02 70.4998 53.8731C70.4954 53.8494 70.4933 53.8256 70.4911 53.7997C70.4782 53.6787 70.463 53.5577 70.4479 53.4368C70.3917 53.0026 70.3226 52.5705 70.2384 52.1385C70.2168 52.0197 70.193 51.9009 70.1649 51.7821C70.1649 51.7734 70.1649 51.7669 70.1606 51.7583C70.1541 51.7194 70.1455 51.6805 70.1368 51.6417C70.2168 51.6654 70.2945 51.6935 70.3723 51.7216C71.8931 52.2919 72.9451 53.7694 72.9451 55.4349C72.9451 56.1046 72.7809 56.7375 72.4893 57.2927C72.3834 57.4914 72.2625 57.6794 72.1264 57.8565Z" fill="black"/>
<path d="M72.9452 55.4349C72.9452 56.1045 72.781 56.7375 72.4894 57.2926C72.3835 57.4914 72.2626 57.6793 72.1265 57.8564C72.0034 58.0185 71.8673 58.1697 71.7204 58.3079C71.338 58.673 70.8822 58.9603 70.3703 59.1504C70.3724 59.1417 70.3746 59.1353 70.3746 59.1266C70.3875 59.0381 70.4005 58.9473 70.4135 58.8588C70.4437 58.6535 70.4696 58.4462 70.4912 58.2388C70.4999 58.1545 70.5085 58.0703 70.5172 57.986C70.5215 57.9385 70.5258 57.891 70.5301 57.8456C70.5409 57.7376 70.5496 57.6318 70.556 57.5238C70.5668 57.4006 70.5733 57.2797 70.5798 57.1565C70.5863 57.068 70.5906 56.9794 70.5928 56.8887C70.5971 56.8044 70.6014 56.7223 70.6014 56.6381C70.61 56.4329 70.6122 56.2277 70.6122 56.0224C70.6122 55.8691 70.61 55.7135 70.6057 55.5602C70.6057 55.4932 70.6036 55.4284 70.6014 55.3636C70.5971 55.2081 70.5906 55.0525 70.5798 54.897C70.5733 54.7587 70.5647 54.6226 70.5539 54.4844C70.5496 54.4282 70.5452 54.3721 70.5409 54.3159C70.528 54.169 70.515 54.02 70.4999 53.8731C70.4956 53.8493 70.4934 53.8255 70.4912 53.7996C70.4783 53.6808 70.4631 53.562 70.4502 53.441C70.4502 53.4389 70.448 53.4389 70.448 53.4367C70.3919 53.0025 70.3227 52.5705 70.2385 52.1384C70.2169 52.0196 70.1931 51.9008 70.165 51.782C70.165 51.7734 70.165 51.7669 70.1607 51.7583C70.1542 51.7194 70.1456 51.6805 70.137 51.6416C70.2169 51.6654 70.2947 51.6934 70.3724 51.7215C71.8932 52.2918 72.9452 53.7694 72.9452 55.4349Z" fill="white"/>
<path d="M68.3224 47.8743C68.3527 47.9412 68.3829 48.0104 68.411 48.0795L67.7716 48.1616L31.4546 52.7087L30.7612 52.7952C30.7828 52.6547 30.8066 52.5143 30.8347 52.3761L68.3224 47.8743Z" fill="#343738"/>
<path d="M69.1757 48.5267H69.1584L68.6097 48.6001L68.5082 48.6131L68.4563 48.6196H68.4542L68.2403 48.6477L68.0761 48.6693H68.0589L67.8407 48.6995L31.204 53.2856L31.0679 53.3028L30.6338 53.3568L30.1261 53.4216H30.1196L30.165 53.1235L30.2298 52.7153V52.7088L30.2341 52.6872V52.6742L30.2708 52.456C30.2816 52.4042 30.2903 52.3588 30.2989 52.3113C30.3011 52.2984 30.3054 52.2832 30.3076 52.2703C30.3421 52.1018 30.4523 51.9678 30.5949 51.8966C30.6986 51.8426 30.8195 51.8231 30.9427 51.849C31.1068 51.8814 31.2364 51.9851 31.3099 52.1212C31.3207 52.1407 31.3293 52.1601 31.338 52.1817L31.3898 52.1752L67.7067 47.628L67.8536 47.6086C67.8839 47.5589 67.9206 47.5136 67.9638 47.4747C68.0049 47.4379 68.0502 47.4077 68.0999 47.3839C68.2403 47.3191 68.3937 47.3213 68.5255 47.3775H68.5276C68.5946 47.4034 68.6551 47.4444 68.7069 47.4984C68.748 47.5373 68.7825 47.587 68.8084 47.6432L68.9057 47.8635C68.9057 47.8635 68.9143 47.8808 68.9165 47.8894L68.9683 48.019L69.1757 48.5267Z" fill="black"/>
<path d="M70.6057 55.5603C70.6057 55.4933 70.6035 55.4285 70.6013 55.3637C70.597 55.2081 70.5905 55.0526 70.5797 54.8971C70.5732 54.7588 70.5646 54.6227 70.5538 54.4845C70.5495 54.4283 70.5452 54.3721 70.5408 54.316C70.5279 54.1691 70.5149 54.02 70.4998 53.8731C70.4955 53.8494 70.4933 53.8256 70.4912 53.7997C70.4782 53.6809 70.4631 53.5621 70.4501 53.4411C70.4501 53.439 70.448 53.439 70.448 53.4368C70.3918 53.0026 70.3227 52.5706 70.2384 52.1385C70.2168 52.0197 70.1931 51.9009 70.165 51.7821C70.165 51.7735 70.165 51.767 70.1607 51.7583C70.1196 51.5596 70.0721 51.3609 70.0246 51.1643C69.9986 51.0455 69.9684 50.9288 69.936 50.8122C69.9058 50.6955 69.8733 50.5789 69.8409 50.4622C69.7718 50.2203 69.6984 49.9805 69.6206 49.7407C69.4305 49.151 69.2123 48.5721 68.9704 48.0126V48.0083C68.9531 47.9672 68.9358 47.9305 68.9164 47.8895C68.9142 47.8808 68.9099 47.8722 68.9056 47.8635L68.8084 47.6432L68.7436 47.4941L68.7069 47.4985L68.5038 47.5244L68.3677 47.5438L68.318 47.5503L67.9465 47.5978L67.8557 47.6086L67.7089 47.6281L31.3898 52.1752L31.3379 52.1817L30.7741 52.2509H30.7719L30.2989 52.3113H30.2945L30.2708 52.4539L30.2362 52.6743V52.6872L30.2297 52.7088V52.7153L30.1649 53.1236C30.152 53.2229 30.1369 53.3223 30.1261 53.4217C30.0656 53.8904 30.0202 54.3592 29.9943 54.8236C29.9878 54.9511 29.9813 55.0785 29.977 55.206C29.9662 55.4501 29.9619 55.692 29.9597 55.9404V56.0225C29.9597 56.096 29.9597 56.1737 29.9619 56.2472V56.2515C29.9619 56.3401 29.964 56.4265 29.9662 56.5107C29.9684 56.649 29.9727 56.7872 29.9813 56.9233V56.932C29.9813 56.96 29.9813 56.986 29.9835 57.0141C29.9878 57.1091 29.9921 57.2041 30.0008 57.2992C30.0029 57.3597 30.0072 57.4223 30.0116 57.4828C30.0116 57.5109 30.0159 57.5368 30.018 57.5627C30.0202 57.6254 30.0267 57.688 30.0332 57.7507C30.0396 57.8565 30.0504 57.9602 30.0612 58.0661C30.0634 58.0985 30.0677 58.133 30.072 58.1676V58.1719C30.0807 58.2691 30.0915 58.3663 30.1044 58.4657C30.1217 58.6191 30.1412 58.7724 30.1649 58.9236C30.1865 59.0792 30.2103 59.2347 30.2362 59.3902C30.2384 59.4097 30.2427 59.4291 30.247 59.4486C30.2665 59.5695 30.2881 59.6884 30.3118 59.8093C30.3183 59.8547 30.3269 59.9 30.3377 59.9454C30.3377 59.9584 30.3421 59.9692 30.3442 59.9821C30.368 60.1031 30.3918 60.2241 30.4198 60.345C30.4522 60.4984 30.4868 60.654 30.5235 60.8073C30.5235 60.8138 30.5278 60.8203 30.5278 60.8246C30.5667 60.9758 30.6035 61.127 30.6445 61.2782C30.6769 61.3971 30.7093 61.5137 30.7439 61.6304C30.759 61.693 30.7784 61.7578 30.7979 61.8204C30.8411 61.9695 30.8864 62.1164 30.9361 62.2633C31.0052 62.4815 31.0787 62.6996 31.1586 62.9157C31.1759 62.9675 31.1953 63.0193 31.2148 63.069C31.2321 63.1209 31.2537 63.1706 31.2731 63.2202C31.3055 63.311 31.3401 63.4017 31.3768 63.4924C31.3854 63.5162 31.3941 63.5399 31.4049 63.5637C31.4999 63.8057 31.6036 64.0476 31.7095 64.2874C31.7635 64.4062 31.8175 64.525 31.8715 64.6416C33.9388 69.0506 37.4793 72.4853 41.7478 74.464H41.7521C42.0999 74.626 42.4477 74.7772 42.8041 74.9176C43.2038 75.0775 43.6077 75.2222 44.0182 75.3561C46.0098 76.002 48.1225 76.3477 50.287 76.3477C54.1732 76.3477 57.852 75.2373 60.9842 73.2932C61.265 73.1203 61.5394 72.9411 61.8116 72.7531C62.0643 72.5803 62.3149 72.3988 62.559 72.2131C66.3285 69.3573 69.0978 65.2033 70.1498 60.345C70.1758 60.2262 70.1995 60.1096 70.2233 59.9908C70.2795 59.7121 70.327 59.4313 70.3702 59.1505C70.3724 59.1418 70.3745 59.1353 70.3745 59.1267C70.3875 59.0381 70.4004 58.9474 70.4134 58.8588C70.4436 58.6536 70.4696 58.4462 70.4912 58.2389C70.4998 58.1546 70.5084 58.0704 70.5171 57.9861C70.5214 57.9386 70.5257 57.8911 70.53 57.8457C70.5408 57.7377 70.5495 57.6319 70.556 57.5239C70.5668 57.4007 70.5732 57.2798 70.5797 57.1566C70.5862 57.0681 70.5905 56.9795 70.5927 56.8888C70.597 56.8045 70.6013 56.7224 70.6013 56.6382C70.61 56.433 70.6121 56.2277 70.6121 56.0225C70.6121 55.8692 70.61 55.7136 70.6057 55.5603ZM61.103 71.9322C57.9945 74.0449 54.2553 75.2676 50.287 75.2676C47.9735 75.2676 45.7247 74.8507 43.6272 74.0773C38.8402 72.3081 34.846 68.6725 32.6967 63.8467C31.5971 61.3776 31.0398 58.7444 31.0398 56.0225V55.9448C31.042 55.7136 31.0463 55.4846 31.0549 55.2513C31.0614 55.0893 31.07 54.9252 31.0787 54.761C31.1068 54.3505 31.1457 53.9358 31.2018 53.5232L31.2342 53.2834L67.8406 48.6995L68.0588 48.6714H68.0761C68.1063 48.7427 68.1366 48.8162 68.1646 48.8896C68.331 49.2979 68.48 49.717 68.6183 50.1425C68.6183 50.149 68.6204 50.1576 68.6248 50.1641C68.6896 50.3672 68.7501 50.5724 68.8084 50.7798L68.8926 51.0908C68.9207 51.1967 68.9488 51.3004 68.9747 51.4149C69.3441 52.9162 69.532 54.4672 69.532 56.0225C69.532 57.2884 69.4068 58.5521 69.1627 59.7791C68.1582 64.8663 65.1706 69.1629 61.103 71.9322ZM67.9076 48.274V48.2696C67.9011 48.2545 67.8968 48.2394 67.8925 48.2243C67.8881 48.2135 67.886 48.2005 67.8838 48.1897V48.1832C67.8838 48.1832 67.8795 48.1616 67.8773 48.1508V48.1422L55.4693 49.5614L54.022 49.7278L31.3725 52.3178C31.3746 52.3373 31.3768 52.3589 31.3768 52.3783V52.3826C31.3768 52.3826 31.3768 52.3913 31.3768 52.3956V52.4107C31.3768 52.4258 31.3746 52.4409 31.3725 52.4561C31.3682 52.482 31.3638 52.5079 31.3552 52.5338C31.3401 52.5835 31.3163 52.631 31.2882 52.6743C31.2947 52.6937 31.2969 52.711 31.2969 52.7304C31.3077 52.7931 31.3055 52.8557 31.2904 52.9183L31.2061 53.2856L31.1651 53.4584L31.204 53.5232L31.2364 53.2834L67.8428 48.6995L68.061 48.6714L67.9097 48.274H67.9076Z" fill="black"/>
<path d="M68.9747 51.4148C68.9488 51.3003 68.9207 51.1966 68.8926 51.0908L68.8084 50.7797C68.75 50.5723 68.6896 50.3671 68.6248 50.1641C68.6204 50.1576 68.6183 50.1489 68.6183 50.1425L68.1538 48.9241L68.0588 48.6714L67.8406 48.6995L31.2342 53.2834L31.2018 53.5231C31.1456 53.9357 31.1068 54.3505 31.0787 54.7609C31.07 54.9251 31.0614 55.0893 31.0549 55.2513C31.0463 55.4846 31.042 55.7136 31.0398 55.9447V56.0225C31.0398 58.7443 31.5971 61.3776 32.6967 63.8466C34.846 68.6725 38.8402 72.3081 43.6272 74.0773C45.7247 74.8506 47.9734 75.2675 50.287 75.2675C54.2552 75.2675 57.9945 74.0449 61.103 71.9322C65.1706 69.1628 68.1582 64.8663 69.1626 59.779C69.4067 58.552 69.532 57.2883 69.532 56.0225C69.532 54.4671 69.3441 52.9161 68.9747 51.4148Z" fill="white"/>
<path d="M40.9053 60.7555C38.7559 60.7555 36.801 59.8936 35.7166 59.306L36.2307 58.3577C38.4773 59.5782 42.7069 61.0536 45.7851 57.2344L46.6255 57.9127C44.8822 60.075 42.8149 60.7576 40.9031 60.7576L40.9053 60.7555Z" fill="black"/>
<path d="M59.3295 60.6367C55.9272 60.6367 53.3113 57.8479 53.1968 57.7247L53.9896 56.9924C54.0155 57.0205 56.571 59.7337 59.6428 59.5479C61.4335 59.4378 63.0796 58.3555 64.5377 56.3314L65.4148 56.9622C63.7557 59.2628 61.8332 60.4962 59.7011 60.6259C59.5758 60.6345 59.4505 60.6367 59.3274 60.6367H59.3295Z" fill="black"/>
<path d="M52.9331 65.3826C52.9331 65.3826 52.6004 64.4666 51.8768 64.2355C51.4015 64.0821 50.8161 64.2441 50.1378 64.7172L49.52 63.8316C50.4943 63.1533 51.4015 62.9459 52.2159 63.2116C53.4515 63.6155 53.9311 64.9721 53.9527 65.0305L52.9309 65.3826L53.4407 65.2076L52.9309 65.3847L52.9331 65.3826Z" fill="black"/>
<path d="M63.6607 63.9958C63.3842 63.9958 63.1207 63.8683 62.8809 63.6177C62.4143 63.1295 62.3538 62.1078 62.7016 60.5805C62.7578 60.3364 62.9522 60.1506 63.1985 60.1074C63.4447 60.0642 63.691 60.1679 63.8292 60.3775C64.4773 61.3625 64.6328 62.2763 64.6695 62.7342C64.6976 63.0842 64.5853 63.4233 64.3606 63.6696C64.1165 63.9374 63.8508 63.9958 63.6715 63.9979H63.6607V63.9958Z" fill="black"/>
</g>
<defs>
<clipPath id="clip0_858_2505">
<rect width="53" height="52.8445" fill="white" transform="translate(25 24)"/>
</clipPath>
</defs>
</svg>
