<?xml version="1.0" encoding="utf-8"?>
<!-- Generator: Adobe Illustrator 26.3.1, SVG Export Plug-In . SVG Version: 6.00 Build 0)  -->
<svg version="1.1" id="Layer_1" xmlns="http://www.w3.org/2000/svg" xmlns:xlink="http://www.w3.org/1999/xlink" x="0px" y="0px"
	 viewBox="0 0 390 844" style="enable-background:new 0 0 390 844;" xml:space="preserve">
<style type="text/css">
	.st0{clip-path:url(#SVGID_00000018954031404673528500000001457581849122183593_);}
	.st1{fill:#ED6E2D;}
	.st2{opacity:0.3;fill:#FFAD3C;}
	.st3{opacity:0.8;}
	.st4{fill:#FFAD3C;}
</style>
<g>
	<defs>
		<rect id="SVGID_1_" width="390" height="844"/>
	</defs>
	<clipPath id="SVGID_00000176031560455512284190000012310865475646753672_">
		<use xlink:href="#SVGID_1_"  style="overflow:visible;"/>
	</clipPath>
	<g style="clip-path:url(#SVGID_00000176031560455512284190000012310865475646753672_);">
		<g>
			<path class="st1" d="M133.1,327.2c0-0.7,0.2-1.3,0.6-1.7c0.5-0.4,1.1-0.6,1.8-0.6c0.8,0,1.4,0.2,1.8,0.7c0.4,0.4,0.6,1,0.6,1.6
				v4.1c0,0.6,0.1,1.1,0.3,1.6c0.2,0.5,0.8,0.7,1.8,0.7h2.4c0.8,0,1.4,0.2,1.7,0.7c0.4,0.5,0.6,1,0.6,1.5c0,1.4-0.8,2.1-2.2,2.1
				h-2.4c-0.9,0-1.5,0.2-1.8,0.6c-0.2,0.4-0.4,0.9-0.4,1.5v6.9c0,0.6-0.2,1.2-0.7,1.7c-0.4,0.5-1,0.7-1.6,0.7s-1.2-0.2-1.7-0.7
				c-0.5-0.5-0.7-1-0.7-1.7V327.2L133.1,327.2z M110.9,329c0-0.6,0.2-1.2,0.6-1.7c0.5-0.5,1.1-0.7,1.8-0.7c0.7,0,1.2,0.2,1.6,0.7
				c0.5,0.5,0.7,1,0.7,1.7v6.9c0,0.8,0.2,1.5,0.6,2.2c0.4,0.7,1.2,1,2.5,1h8.2c0.7,0,1.2,0.2,1.6,0.6c0.5,0.4,0.7,0.9,0.7,1.5
				c0,0.7-0.2,1.3-0.7,1.7c-0.4,0.4-1,0.6-1.6,0.6h-12.1c-1,0-1.9-0.3-2.7-1c-0.8-0.7-1.1-1.7-1.1-2.9L110.9,329L110.9,329z
				 M161.3,318.6c1.2,0,2.1,0.3,2.9,1c0.8,0.6,1.1,1.6,1.1,2.9v7c0,1.1-0.4,2-1.2,2.7c-0.8,0.6-1.7,1-2.8,1h-5.4
				c-0.9,0-1.6,0.3-2,0.9c-0.3,0.6-0.5,1.1-0.5,1.8v0.4c0,0.6,0.2,1.3,0.5,2c0.3,0.6,1.1,1,2.2,1h7.6c0.7,0,1.3,0.2,1.7,0.6
				c0.5,0.4,0.7,0.9,0.7,1.5c0,0.7-0.2,1.3-0.7,1.7c-0.4,0.4-1,0.6-1.7,0.6h-11.1c-1,0-1.9-0.4-2.7-1c-0.8-0.8-1.1-1.7-1.1-2.9V333
				c0-1.2,0.4-2.2,1.2-2.9c0.8-0.8,1.8-1.1,3-1.1h5.1c0.9,0,1.6-0.3,1.9-0.8c0.4-0.6,0.6-1.1,0.6-1.8v-0.7c0-0.6-0.2-1.3-0.6-1.8
				c-0.3-0.6-1.1-0.9-2.2-0.9h-6.5c-0.6,0-1.2-0.2-1.7-0.6c-0.4-0.4-0.6-1-0.6-1.6c0-0.7,0.2-1.2,0.6-1.6c0.5-0.4,1-0.6,1.7-0.6
				L161.3,318.6L161.3,318.6z M167,362.4c-0.9-0.8-1.6-1.2-2.2-1.1c-0.6,0.1-1.3,0.5-2.2,1.3l-4.9,4.3c-0.6,0.5-1.2,0.6-1.8,0.5
				c-0.6-0.1-1.2-0.3-1.5-0.7c-0.5-0.5-0.7-1.1-0.6-1.9c0.1-0.7,0.4-1.2,0.8-1.5c2.6-1.8,4.6-3.4,5.9-4.9c1.4-1.5,2-3.4,1.9-5.7
				c0-0.6,0.2-1.2,0.7-1.6c0.5-0.4,1-0.6,1.7-0.6s1.2,0.2,1.7,0.6c0.5,0.4,0.8,1,0.7,1.6c-0.1,1.6,0.1,2.9,0.6,4
				c0.6,1.1,1.4,2.1,2.6,3c1.2,1,2.7,2.1,4.5,3.4c0.5,0.4,0.7,0.9,0.8,1.6c0.1,0.7-0.2,1.3-0.7,1.8c-0.4,0.4-1,0.6-1.7,0.6
				c-0.6,0-1.2-0.2-1.8-0.6L167,362.4L167,362.4z M170.2,327.2c0-0.7,0.2-1.3,0.6-1.7c0.5-0.4,1.1-0.6,1.8-0.6
				c0.8,0,1.4,0.2,1.8,0.7c0.4,0.4,0.6,1,0.6,1.6v4.1c0,0.6,0.1,1.1,0.3,1.6c0.2,0.5,0.8,0.7,1.8,0.7h2.4c0.8,0,1.4,0.2,1.7,0.7
				c0.4,0.5,0.6,1,0.6,1.5c0,1.4-0.8,2.1-2.2,2.1H177c-0.9,0-1.5,0.2-1.8,0.6c-0.2,0.4-0.4,0.9-0.4,1.5v6.9c0,0.6-0.2,1.2-0.7,1.7
				c-0.4,0.5-1,0.7-1.6,0.7s-1.2-0.2-1.7-0.7c-0.5-0.5-0.7-1-0.7-1.7V327.2L170.2,327.2z M189.7,343.5c-1.1,0-2.1-0.4-2.8-1
				c-0.7-0.7-1.1-1.6-1.1-2.8v-9c0-1.1,0.4-2,1.1-2.7c0.8-0.8,1.7-1.1,2.8-1.1h9.4c1.2,0,2.2,0.4,2.9,1.1c0.7,0.7,1.1,1.6,1.1,2.7v9
				c0,1.2-0.4,2.1-1.1,2.8c-0.7,0.7-1.7,1-2.9,1H189.7z M207.9,351.3c1.2,0,2.1,0.3,2.8,1c0.8,0.6,1.1,1.6,1.1,2.8v6.6
				c0,1.2-0.4,2.1-1.2,2.7c-0.8,0.6-1.7,1-2.7,1H202c-0.9,0-1.6,0.3-2,0.8c-0.3,0.6-0.5,1.1-0.5,1.7v0.6c0,0.6,0.2,1.3,0.5,2
				s1.1,1,2.2,1h7.8c0.6,0,1.2,0.2,1.6,0.6c0.5,0.4,0.7,1,0.7,1.6s-0.2,1.2-0.7,1.5c-0.4,0.4-1,0.6-1.6,0.6h-11.4
				c-1,0-1.9-0.4-2.7-1c-0.8-0.6-1.1-1.6-1.1-2.7v-6.7c0-1.2,0.4-2.2,1.2-2.9s1.8-1.1,2.9-1.1h5.5c0.9,0,1.6-0.2,1.9-0.7
				c0.4-0.5,0.6-1,0.6-1.6v-0.6c0-0.6-0.2-1.3-0.6-1.8c-0.3-0.5-1.1-0.8-2.2-0.8h-6.9c-0.6,0-1.2-0.2-1.7-0.6
				c-0.4-0.4-0.6-0.9-0.6-1.5s0.2-1.2,0.6-1.5c0.5-0.4,1-0.6,1.7-0.6L207.9,351.3L207.9,351.3z M208.1,327.2c0-0.7,0.2-1.3,0.6-1.7
				c0.5-0.4,1.1-0.6,1.8-0.6c0.8,0,1.4,0.2,1.8,0.7c0.4,0.4,0.6,1,0.6,1.6v4.1c0,0.6,0.1,1.1,0.3,1.6c0.2,0.5,0.8,0.7,1.8,0.7h2.4
				c0.8,0,1.4,0.2,1.7,0.7c0.4,0.5,0.6,1,0.6,1.5c0,1.4-0.8,2.1-2.2,2.1h-2.4c-0.9,0-1.5,0.2-1.8,0.6c-0.2,0.4-0.4,0.9-0.4,1.5v6.9
				c0,0.6-0.2,1.2-0.7,1.7c-0.4,0.5-1,0.7-1.6,0.7s-1.2-0.2-1.7-0.7c-0.5-0.5-0.7-1-0.7-1.7V327.2L208.1,327.2z M190.4,336.2
				c0,0.8,0.1,1.5,0.4,2.1c0.3,0.5,0.9,0.8,1.9,0.8h3.2c1,0,1.7-0.3,2-0.8c0.3-0.6,0.5-1.3,0.5-2.1v-2.5c0-0.7-0.2-1.3-0.5-1.8
				c-0.3-0.5-1-0.8-2-0.8h-3c-1,0-1.6,0.3-2,0.8c-0.3,0.5-0.5,1.1-0.5,1.8V336.2z M237.5,338.2c-0.9-0.7-1.6-1.1-2.2-1.1
				c-0.5,0-1.2,0.3-2.1,1l-4.8,4.4c-0.6,0.5-1.2,0.6-1.9,0.6c-0.6-0.1-1.2-0.4-1.5-0.7c-0.4-0.5-0.6-1-0.6-1.8
				c0.1-0.7,0.3-1.2,0.7-1.5c2-1.4,3.5-2.6,4.6-3.7c1.2-1.1,2-2.3,2.4-3.5c0.5-1.3,0.8-2.7,0.8-4.3c0-0.7,0.2-1.2,0.6-1.6
				c0.5-0.4,1.1-0.6,1.8-0.6c0.6,0,1.2,0.2,1.7,0.6c0.5,0.4,0.8,0.9,0.7,1.6c-0.2,2.5,0.4,4.6,1.8,6.2c1.4,1.5,3.3,3.2,5.6,4.9
				c0.5,0.3,0.7,0.9,0.8,1.6s-0.2,1.4-0.6,1.9c-0.5,0.5-1,0.7-1.7,0.7s-1.2-0.2-1.8-0.7L237.5,338.2z M224.8,352.7
				c-1.4,0-2.2-0.7-2.2-2.2c0-0.6,0.2-1.2,0.6-1.6c0.4-0.4,1-0.6,1.6-0.6h19.7c0.6,0,1.2,0.2,1.6,0.6s0.6,1,0.6,1.6
				s-0.2,1.2-0.6,1.6c-0.4,0.4-1,0.6-1.6,0.6L224.8,352.7L224.8,352.7z M256.6,343.5c-1.1,0-2.1-0.4-2.8-1c-0.7-0.7-1.1-1.6-1.1-2.8
				v-9c0-1.1,0.4-2,1.1-2.7c0.8-0.8,1.7-1.1,2.8-1.1h9.5c1.2,0,2.2,0.4,2.9,1.1c0.7,0.7,1,1.6,1,2.7v9c0,1.2-0.4,2.1-1,2.8
				c-0.7,0.7-1.7,1-2.9,1H256.6z M265.2,367.1c-1.1,0-2-0.4-2.7-1c-0.7-0.7-1-1.6-1-2.7v-8.2c0-1.1,0.4-2,1-2.7s1.6-1,2.7-1h9.7
				c1.2,0,2.1,0.4,2.7,1c0.7,0.7,1,1.6,1,2.7v8.2c0,1.1-0.4,2-1,2.7c-0.6,0.7-1.6,1-2.7,1H265.2z M275,327.4c0-0.7,0.2-1.3,0.6-1.7
				c0.5-0.4,1-0.6,1.8-0.6c1.1,0,1.7,0.4,2,1c0.2,0.6,0.4,1,0.4,1.3v19.4c0,0.6-0.2,1.2-0.7,1.7c-0.4,0.5-1,0.7-1.6,0.7
				s-1.2-0.2-1.7-0.7s-0.7-1-0.7-1.7V327.4L275,327.4z M257.3,336.2c0,0.8,0.1,1.5,0.4,2.1c0.3,0.5,0.9,0.8,1.9,0.8h3.2
				c1,0,1.7-0.3,2-0.8c0.3-0.6,0.5-1.3,0.5-2.1v-2.5c0-0.7-0.2-1.3-0.5-1.8c-0.3-0.5-1-0.8-2-0.8h-3c-1,0-1.6,0.3-2,0.8
				c-0.3,0.5-0.5,1.1-0.5,1.8L257.3,336.2L257.3,336.2z M265.9,360.2c0,0.8,0.1,1.5,0.4,1.9c0.3,0.4,0.9,0.6,2,0.6h3.2
				c1.1,0,1.8-0.2,2-0.6s0.4-1,0.4-1.9v-2.1c0-0.8-0.2-1.3-0.5-1.8c-0.3-0.4-1-0.6-2-0.6h-3c-1,0-1.6,0.2-2,0.6
				c-0.3,0.5-0.5,1-0.5,1.8L265.9,360.2L265.9,360.2z"/>
			<path d="M115.7,393.1h-1.4v13.1h1.4v-6.6h2.1v-1.2h-2.1V393.1L115.7,393.1z M105.4,396.3h7.8v-1.1H110v-1.9h-1.4v1.9h-3.2V396.3z
				 M106.1,400.3c0,1.8,1.4,3,3.3,3.1c1.9,0,3.3-1.3,3.3-3.1c0-1.8-1.4-3-3.3-3S106.1,398.5,106.1,400.3z M107.4,400.3
				c0-1.1,0.8-1.9,1.9-1.9c1.1,0,1.9,0.8,1.9,1.9c0,1.1-0.8,1.9-1.9,1.9C108.2,402.2,107.4,401.5,107.4,400.3z M129,393.6h-9.2v1.1
				h7.8v1.4h-7.7v3.7h9.4v-1.1h-8v-1.5h7.7L129,393.6L129,393.6z M118.4,402.2h5.3v4.1h1.4v-4.1h5.3v-1.1h-12
				C118.4,401.1,118.4,402.2,118.4,402.2z M139.3,405.1c2.2,0,3.8-1.3,3.8-3.1c0-1.3-0.8-2.3-2.3-2.5v-0.1c1.1-0.3,1.9-1.1,1.9-2.4
				c0-1.6-1.3-2.9-3.4-2.9c-2,0-3.6,1.2-3.6,2.9h1.6c0-1,1-1.5,2.1-1.5c1.1,0,1.8,0.7,1.8,1.6c0,1-0.8,1.7-2.1,1.7h-0.9v1.3h0.9
				c1.5,0,2.4,0.8,2.4,1.8s-0.9,1.7-2.2,1.7c-1.2,0-2.1-0.6-2.2-1.5h-1.6C135.5,404,137.1,405.2,139.3,405.1L139.3,405.1z
				 M155.4,393.1H154v3.6h-2.9V394h-1.4v2.2h-3.3V394h-1.4v6.6h6.1v-2.8h2.9v5h1.4V393.1z M146.4,399.5v-2.2h3.3v2.2H146.4z
				 M146.8,406h8.9v-1.1h-7.5v-3h-1.4L146.8,406L146.8,406z M171.4,393.1H170v7.8h1.4v-3.3h1.9v-1.1h-1.9V393.1z M161.6,399.9h1
				c2.8,0,4.4-0.1,6.2-0.4l-0.1-1.1c-1.6,0.3-3.1,0.4-5.7,0.4v-3.6h4.5v-1.1h-5.9L161.6,399.9L161.6,399.9z M162.7,403.7
				c0,1.6,1.7,2.6,4.4,2.5c2.7,0,4.4-0.9,4.4-2.5s-1.7-2.5-4.4-2.5C164.4,401.1,162.7,402.1,162.7,403.7z M164.1,403.7
				c0-0.9,1.1-1.4,3-1.4c1.9,0,3,0.5,3,1.4c0,0.9-1.2,1.4-3,1.4C165.2,405.1,164.1,404.6,164.1,403.7z M184.9,393.1h-1.4v9.6h1.4
				V393.1z M174.1,399.8l0.8,1.1c1.5-0.6,2.7-1.8,3.2-3.3c0.6,1.4,1.7,2.5,3.2,3.1l0.7-1.1c-2-0.7-3.2-2.5-3.2-4.4v-1.3h-1.4v1.3
				C177.4,397.2,176.2,399,174.1,399.8L174.1,399.8z M176.3,406h9v-1.1h-7.6v-3h-1.4L176.3,406L176.3,406z M191.3,394.1
				c-2.1,0-3.6,1.3-3.6,3.1c0,1.9,1.5,3.1,3.6,3.1c2.1,0,3.6-1.3,3.6-3.1C194.8,395.3,193.3,394,191.3,394.1z M187.1,402.3l0.2,1.2
				c2.3,0,5.5,0,8.5-0.6l-0.1-1C192.8,402.3,189.5,402.3,187.1,402.3L187.1,402.3z M189.1,397.2c0-1.1,0.9-1.9,2.2-1.9
				s2.2,0.8,2.2,1.9s-0.9,1.9-2.2,1.9S189.1,398.4,189.1,397.2z M196.5,406.3h1.4v-13.1h-1.4V406.3z M207.3,393.6
				c-2,0-3.4,1.2-3.5,2.9c0,1.7,1.5,2.9,3.5,2.9s3.4-1.2,3.4-2.9C210.8,394.8,209.3,393.6,207.3,393.6z M205.2,396.5
				c0-1.1,0.9-1.8,2.1-1.8c1.2,0,2.1,0.7,2.1,1.8s-0.9,1.8-2.1,1.8S205.2,397.6,205.2,396.5z M205.9,401.5h7.2v1.2h-7.2v3.4h9V405
				h-7.7v-1.3h7.2v-3.3h-8.6L205.9,401.5L205.9,401.5z M213.1,399.8h1.4v-6.7h-1.4V399.8z M221.1,395.2v-1.4h-1.4v1.3
				c0,2-1.2,3.7-3.2,4.4l0.8,1.1c1.5-0.6,2.6-1.7,3.2-3.2c0.6,1.3,1.6,2.3,3.1,2.8l0.8-1.1C222.3,398.6,221.1,397,221.1,395.2
				L221.1,395.2z M218.2,403.8c0,1.5,1.7,2.4,4.4,2.4c2.7,0,4.4-0.9,4.4-2.4s-1.6-2.4-4.4-2.4C219.9,401.4,218.2,402.3,218.2,403.8z
				 M219.6,403.8c0-0.8,1.1-1.3,3-1.3s3,0.5,3,1.3c0,0.9-1.1,1.3-3,1.4C220.8,405.1,219.6,404.7,219.6,403.8z M225.5,401.1h1.4v-3.5
				h1.9v-1.2h-1.9v-3.3h-1.4V401.1z M240.8,393.1h-1.3v13.1h1.3V393.1z M229.7,398.8c0,2.9,1.1,4.6,2.8,4.6c1.6,0,2.7-1.6,2.8-4.1
				h1.5v6.3h1.3v-12.2h-1.3v4.8h-1.5c-0.2-2.5-1.2-4-2.8-4C230.8,394.2,229.7,396,229.7,398.8L229.7,398.8z M231,398.8
				c0-2.1,0.6-3.3,1.5-3.3c1,0,1.6,1.2,1.6,3.3s-0.6,3.3-1.6,3.3C231.6,402.1,231,400.9,231,398.8z M252.8,395v-1h-1.5v1
				c0,2.1-2.3,4.1-4.8,4.6l0.6,1.2c2.1-0.5,4-1.8,4.9-3.7c0.9,1.9,2.8,3.2,4.9,3.7l0.6-1.2C255.1,399.2,252.8,397.1,252.8,395
				L252.8,395z M246.2,404.5h12v-1.2h-12V404.5z M266,394.4h-6.1v8.6h6.1V394.4z M261.2,401.9v-6.4h3.4v6.4H261.2z M268.6,406.3h1.4
				v-13.1h-1.4V406.3z M282.7,397H275v-3.4h-1.4v4.5h9V397L282.7,397z M272.1,400.8h12v-1.1h-12V400.8z M273.6,405.9h9.2v-1.1h-7.8
				v-2.7h-1.4V405.9z"/>
			<path class="st2" d="M81.5,221H-80c-7.7,0-14,6.2-14,13.9s6.3,13.9,14,13.9H81.5c7.7,0,14-6.2,14-13.9S89.3,221,81.5,221z"/>
			<path class="st2" d="M135,236.3H-26.5c-7.7,0-14,6.2-14,13.9s6.3,13.8,14,13.8H135c7.7,0,14-6.2,14-13.9S142.7,236.3,135,236.3
				L135,236.3z"/>
			<path class="st2" d="M413.5,83H252c-7.7,0-14,6.2-14,13.8s6.3,13.8,14,13.8h161.5c7.7,0,14-6.2,14-13.8S421.3,83,413.5,83
				L413.5,83z"/>
			<path class="st2" d="M467,98.3H305.5c-7.7,0-14,6.2-14,13.8s6.3,13.8,14,13.8H467c7.7,0,14-6.2,14-13.8S474.7,98.3,467,98.3z"/>
			<path class="st2" d="M459.6,478.7H298.1c-7.7,0-14,6.2-14,13.9s6.3,13.9,14,13.9h161.5c7.7,0,14-6.2,14-13.9
				S467.4,478.7,459.6,478.7z"/>
			<path class="st2" d="M513.1,494H351.6c-7.7,0-14,6.2-14,13.8s6.3,13.8,14,13.8h161.5c7.7,0,14-6.2,14-13.8S520.8,494,513.1,494
				L513.1,494z"/>
			<g class="st3">
				<g>
					<path class="st4" d="M238.3,937.8V705.9c0-59.4,46.2-107.7,103.1-107.7s103.1,48.3,103.1,107.7v231.8L238.3,937.8L238.3,937.8z
						 M439.8,933V706c0-56.7-44.1-102.8-98.4-102.8S243,649.2,243,706v227H439.8L439.8,933z"/>
					<path class="st4" d="M341.4,599.3c56.3,0,102.1,47.8,102.1,106.7v230.9H239.3V706C239.3,647.2,285.1,599.3,341.4,599.3
						 M242,934h198.8V706c0-57.3-44.6-103.8-99.4-103.8S242,648.7,242,706L242,934 M341.4,597.3c-57.4,0-104.1,48.7-104.1,108.7
						v232.8h208.1V706C445.5,646.1,398.8,597.3,341.4,597.3L341.4,597.3z M244,932V706c0-56.2,43.7-101.8,97.4-101.8
						s97.4,45.7,97.4,101.8v226H244L244,932z"/>
				</g>
			</g>
			<g>
				<path class="st4" d="M99.8,1085.2V638.1c0-59.4,46.2-107.7,103.1-107.7s103.1,48.3,103.1,107.7v447.1H99.8z M301.2,1080.4V638.1
					c0-56.7-44.1-102.8-98.4-102.8s-98.4,46.1-98.4,102.8v442.3H301.2L301.2,1080.4z"/>
				<path class="st4" d="M202.9,531.4c56.3,0,102.1,47.8,102.1,106.7v446.1H100.8V638.1C100.8,579.3,146.6,531.4,202.9,531.4
					 M103.5,1081.4h198.8V638.1c0-57.3-44.6-103.8-99.4-103.8s-99.4,46.6-99.4,103.8L103.5,1081.4 M202.9,529.4
					c-57.4,0-104.1,48.7-104.1,108.7v448.1h208.1V638.1C306.9,578.2,260.2,529.4,202.9,529.4L202.9,529.4L202.9,529.4z
					 M105.5,1079.4V638.1c0-56.2,43.7-101.8,97.4-101.8s97.4,45.7,97.4,101.8v441.3H105.5L105.5,1079.4z"/>
			</g>
			<g>
				<path class="st4" d="M115.1,1085.2V641.8c0-50.5,39.4-91.7,87.8-91.7s87.8,41.1,87.8,91.7v443.3H115.1z M285.9,1080.4V641.8
					c0-47.9-37.3-86.8-83.1-86.8s-83.1,39-83.1,86.8v438.5H285.9L285.9,1080.4z"/>
				<path class="st4" d="M202.9,551.2c47.8,0,86.8,40.7,86.8,90.7v442.3H116.1V641.9C116.1,591.9,155,551.2,202.9,551.2
					 M118.8,1081.4h168.2V641.8c0-48.4-37.7-87.8-84.1-87.8s-84.1,39.4-84.1,87.8L118.8,1081.4 M202.9,549.2
					c-48.9,0-88.8,41.6-88.8,92.7v444.3h177.5V641.9C291.6,590.8,251.8,549.2,202.9,549.2L202.9,549.2L202.9,549.2z M120.8,1079.4
					V641.8c0-47.3,36.8-85.8,82.1-85.8s82.1,38.5,82.1,85.8v437.5H120.8L120.8,1079.4z"/>
			</g>
			<g>
				<path class="st4" d="M131,1085.2V645.3c0-41.3,32.2-75,71.8-75s71.8,33.6,71.8,75v439.9H131z M270,1080.4V645.3
					c0-38.7-30.1-70.2-67.1-70.2s-67.1,31.5-67.1,70.2v435.1H270z"/>
				<path class="st4" d="M202.9,571.3c39.1,0,70.8,33.2,70.8,74v438.9H132V645.3C132,604.5,163.8,571.3,202.9,571.3 M134.7,1081.4
					H271V645.3c0-39.3-30.6-71.2-68.1-71.2s-68.1,31.9-68.1,71.2L134.7,1081.4 M202.9,569.3c-40.2,0-72.8,34.1-72.8,76v440.9h145.6
					V645.3C275.7,603.4,243,569.3,202.9,569.3L202.9,569.3L202.9,569.3z M136.7,1079.4V645.3c0-38.2,29.7-69.2,66.1-69.2
					s66.1,31,66.1,69.2v434.1H136.7L136.7,1079.4z"/>
			</g>
			<path class="st4" d="M200.8,596.7L200.8,596.7c31,0,56.1,25.2,56.1,56.2v429.9H148.8v-434C148.8,620,172.1,596.7,200.8,596.7
				L200.8,596.7z"/>
			<g class="st3">
				<g>
					<path class="st4" d="M253.6,937.8V709.7c0-50.5,39.4-91.7,87.8-91.7s87.8,41.1,87.8,91.7v228.1H253.6z M424.5,933V709.7
						c0-47.9-37.3-86.8-83.1-86.8s-83.1,39-83.1,86.8V933H424.5L424.5,933z"/>
					<path class="st4" d="M341.4,619.1c47.8,0,86.8,40.7,86.8,90.7v227.1H254.6V709.7C254.6,659.8,293.6,619.1,341.4,619.1
						 M257.3,934h168.2V709.7c0-48.4-37.7-87.8-84.1-87.8s-84.1,39.4-84.1,87.8L257.3,934 M341.4,617.1c-48.9,0-88.8,41.6-88.8,92.7
						v229.1h177.5V709.7C430.2,658.6,390.4,617.1,341.4,617.1L341.4,617.1z M259.3,932V709.7c0-47.3,36.8-85.8,82.1-85.8
						s82.1,38.5,82.1,85.8V932H259.3L259.3,932z"/>
				</g>
			</g>
			<g class="st3">
				<g>
					<path class="st4" d="M269.6,937.8V713.2c0-41.3,32.2-75,71.8-75s71.8,33.6,71.8,75v224.6H269.6L269.6,937.8z M408.6,933V713.2
						c0-38.7-30.1-70.2-67.1-70.2s-67.1,31.5-67.1,70.2V933H408.6L408.6,933z"/>
					<path class="st4" d="M341.4,639.2c39,0,70.8,33.2,70.8,74v223.6H270.6V713.2C270.6,672.4,302.4,639.2,341.4,639.2 M273.3,934
						h136.3V713.2c0-39.3-30.6-71.2-68.1-71.2s-68.1,31.9-68.1,71.2V934 M341.4,637.2c-40.1,0-72.8,34.1-72.8,76v225.6h145.6V713.2
						C414.2,671.3,381.6,637.2,341.4,637.2L341.4,637.2L341.4,637.2z M275.3,932V713.2c0-38.2,29.7-69.2,66.1-69.2
						s66.1,31,66.1,69.2V932H275.3L275.3,932z"/>
				</g>
			</g>
			<g class="st3">
				<path class="st4" d="M339.3,664.6L339.3,664.6c31,0,56.1,25.2,56.1,56.2v214.6H287.3V716.6C287.3,687.9,310.6,664.6,339.3,664.6
					L339.3,664.6z"/>
			</g>
			<g class="st3">
				<g>
					<path class="st4" d="M-55.3,1085.2V770.5c0-59.4,46.2-107.7,103.1-107.7s103.1,48.3,103.1,107.7v314.6H-55.3z M146.2,1080.4
						V770.5c0-56.7-44.1-102.8-98.4-102.8s-98.4,46.1-98.4,102.8v309.8H146.2L146.2,1080.4z"/>
					<path class="st4" d="M47.8,663.9c56.3,0,102.1,47.8,102.1,106.7v313.6H-54.3V770.6C-54.3,711.8-8.5,663.9,47.8,663.9
						 M-51.6,1081.4h198.8V770.5c0-57.3-44.6-103.8-99.4-103.8s-99.4,46.6-99.4,103.8V1081.4 M47.8,661.9
						c-57.4,0-104.1,48.7-104.1,108.7v315.6h208.1V770.6C151.9,710.6,105.2,661.9,47.8,661.9C47.8,661.9,47.8,661.9,47.8,661.9z
						 M-49.6,1079.4V770.5c0-56.2,43.7-101.8,97.4-101.8s97.4,45.7,97.4,101.8v308.8H-49.6L-49.6,1079.4z"/>
				</g>
			</g>
			<g class="st3">
				<g>
					<path class="st4" d="M-40,1085.2V769.6c0-50.5,39.4-91.7,87.8-91.7s87.8,41.1,87.8,91.7v315.6H-40z M130.9,1080.4V769.5
						c0-47.9-37.3-86.8-83.1-86.8s-83.1,39-83.1,86.8v310.8H130.9L130.9,1080.4z"/>
					<path class="st4" d="M47.8,678.9c47.8,0,86.8,40.7,86.8,90.7v314.6H-39V769.6C-39,719.6-0.1,678.9,47.8,678.9 M-36.3,1081.4
						h168.2V769.6c0-48.4-37.7-87.8-84.1-87.8s-84.1,39.4-84.1,87.8L-36.3,1081.4 M47.8,676.9c-48.9,0-88.8,41.6-88.8,92.7v316.6
						h177.5V769.6C136.5,718.5,96.7,676.9,47.8,676.9L47.8,676.9L47.8,676.9z M-34.3,1079.4V769.6c0-47.3,36.8-85.8,82.1-85.8
						s82.1,38.5,82.1,85.8v309.8H-34.3z"/>
				</g>
			</g>
			<g class="st3">
				<g>
					<path class="st4" d="M-24,1085.2v-317c0-41.3,32.2-75,71.8-75s71.8,33.6,71.8,75v317H-24z M114.9,1080.4V768.2
						c0-38.7-30.1-70.2-67.1-70.2s-67.1,31.5-67.1,70.2v312.2L114.9,1080.4L114.9,1080.4z"/>
					<path class="st4" d="M47.8,694.2c39.1,0,70.8,33.2,70.8,74v316H-23v-316C-23,727.4,8.7,694.2,47.8,694.2 M-20.4,1081.4h136.3
						V768.2c0-39.3-30.6-71.2-68.1-71.2s-68.1,31.9-68.1,71.2V1081.4 M47.8,692.2c-40.2,0-72.8,34.1-72.8,76v318h145.6v-318
						C120.6,726.3,87.9,692.2,47.8,692.2L47.8,692.2L47.8,692.2z M-18.4,1079.4V768.2c0-38.2,29.7-69.2,66.1-69.2s66.1,31,66.1,69.2
						v311.2H-18.4z"/>
				</g>
			</g>
			<g class="st3">
				<path class="st4" d="M45.7,713.8L45.7,713.8c31,0,56.2,25.2,56.2,56.2v312.8H-6.3V765.8C-6.3,737.1,17,713.8,45.7,713.8
					L45.7,713.8z"/>
			</g>
		</g>
	</g>
</g>
</svg>
