<svg width="100" height="100" viewBox="0 0 100 100" fill="none" xmlns="http://www.w3.org/2000/svg">
<g clip-path="url(#clip0_872_1740)">
<path d="M47.3384 58.3314C45.6694 60.4592 43.6902 61.1309 41.86 61.1309C39.8001 61.1309 37.9285 60.2827 36.8924 59.7046C36.8862 59.7003 36.88 59.6961 36.8738 59.6918C36.638 59.5473 36.5532 59.2369 36.6856 58.984C36.82 58.7268 37.1343 58.6311 37.3846 58.7714C37.3929 58.7757 37.3991 58.7799 37.4073 58.7842C39.5644 59.9809 43.5951 61.4093 46.5339 57.6661C46.7117 57.4365 47.0385 57.4004 47.2598 57.5853C47.4831 57.7681 47.5183 58.104 47.3384 58.3314Z" fill="black"/>
<path d="M37.5916 59.4878C37.4985 59.6663 37.3207 59.7662 37.1366 59.7662C37.0539 59.7662 36.9691 59.7471 36.8926 59.7025C36.8864 59.6982 36.8802 59.6961 36.874 59.6918C36.1171 59.2731 35.66 58.9202 35.6393 58.9053C35.4118 58.731 35.3643 58.3973 35.5359 58.1614C35.7076 57.9275 36.0323 57.8808 36.2597 58.0551C36.2639 58.0593 36.6899 58.3846 37.3827 58.7672C37.391 58.7714 37.3993 58.7778 37.4075 58.7842C37.6392 58.9287 37.724 59.2369 37.5916 59.4878Z" fill="black"/>
<path d="M65.3246 57.3983C63.7363 59.6642 61.8978 60.8758 59.8565 61.0034C59.7366 61.0119 59.6166 61.0161 59.4988 61.0161C56.2415 61.0161 53.735 58.2698 53.6274 58.1486C53.433 57.9339 53.4454 57.5981 53.6564 57.3983C53.8653 57.2006 54.192 57.2133 54.3864 57.428C54.4112 57.4556 56.7048 59.9512 59.507 59.9512C59.6022 59.9512 59.7014 59.949 59.7986 59.9427C61.5131 59.8343 63.0911 58.7693 64.487 56.7776C64.6525 56.5395 64.9772 56.4864 65.2088 56.6564C65.4404 56.8286 65.4921 57.1602 65.3246 57.3983Z" fill="black"/>
<path d="M70.6895 52.69C70.5343 52.639 70.3751 52.5944 70.2117 52.5603C70.1559 52.5476 70.1 52.537 70.0442 52.5285C69.9263 52.5072 69.8064 52.4902 69.6844 52.4796L68.946 52.4094L69.0474 52.8048C69.0474 52.8048 69.0536 52.8282 69.0577 52.8409L69.1384 53.147C69.1508 53.2002 69.1653 53.2512 69.1777 53.3022C69.1797 53.3107 69.1797 53.3171 69.1818 53.3235C69.1942 53.3702 69.2046 53.417 69.2149 53.4659C69.2376 53.5573 69.2583 53.6508 69.279 53.7422C69.3845 54.2056 69.4713 54.6732 69.5396 55.1451C69.581 55.4278 69.6161 55.7127 69.6451 55.9975C69.6761 56.2824 69.6988 56.5672 69.7154 56.852C69.7381 57.2347 69.7485 57.6173 69.7485 57.9999C69.7485 59.2476 69.6306 60.4911 69.3969 61.6964L69.2521 62.4446L69.9863 62.3235C70.1062 62.3043 70.2241 62.2788 70.3399 62.2512C72.5114 61.7261 74.0501 59.7493 74.0501 57.4217C74.0501 55.2514 72.6624 53.3383 70.6895 52.69ZM70.553 61.0778C70.5592 61.0332 70.5674 60.9864 70.5716 60.9418C70.6191 60.6187 70.6584 60.2935 70.6895 59.9682C70.7039 59.8046 70.7184 59.6409 70.7287 59.4772C70.7391 59.356 70.7453 59.237 70.7515 59.1158C70.7577 59.0287 70.7618 58.9394 70.7639 58.8523C70.768 58.7694 70.7722 58.6886 70.7722 58.6057C70.7804 58.4038 70.7825 58.2018 70.7825 57.9999V57.9935C70.7825 57.8447 70.7804 57.6959 70.7784 57.5492C70.7722 57.3261 70.7639 57.105 70.7515 56.8839C70.7453 56.75 70.737 56.6182 70.7267 56.4864C70.7267 56.48 70.7246 56.4715 70.7246 56.463C70.7184 56.3716 70.7101 56.2781 70.7019 56.1867C70.6853 55.9848 70.6646 55.785 70.6398 55.5851C70.6171 55.396 70.5923 55.2068 70.5654 55.0176C70.5633 54.9942 70.5592 54.973 70.555 54.9517C70.5426 54.8646 70.5302 54.7774 70.5157 54.6924C70.4682 54.3948 70.4123 54.0972 70.3503 53.8039C70.3441 53.7656 70.3358 53.7252 70.3275 53.6869C71.9055 54.1822 73.0161 55.6999 73.0161 57.4217C73.0161 59.1435 72.0172 60.5209 70.553 61.0778Z" fill="black"/>
<path d="M73.0162 57.4217C73.0162 59.086 72.0173 60.5209 70.5531 61.0778C70.5593 61.0331 70.5675 60.9864 70.5717 60.9417C70.6192 60.6186 70.6585 60.2934 70.6896 59.9682C70.704 59.8045 70.7185 59.6408 70.7288 59.4772C70.7392 59.356 70.7454 59.237 70.7516 59.1158C70.7578 59.0286 70.7619 58.9394 70.764 58.8522C70.7681 58.7693 70.7723 58.6885 70.7723 58.6056C70.7806 58.4037 70.7826 58.2018 70.7826 57.9998V57.9935C70.7826 57.8447 70.7806 57.6959 70.7785 57.5492C70.7723 57.326 70.764 57.1049 70.7516 56.8839C70.7454 56.7499 70.7371 56.6182 70.7268 56.4864C70.7268 56.48 70.7247 56.4715 70.7247 56.463C70.7185 56.3716 70.7102 56.2781 70.702 56.1867C70.6854 55.9847 70.6647 55.7849 70.6399 55.5851C70.6192 55.3959 70.5944 55.2067 70.5655 55.0175C70.5634 54.9942 70.5593 54.9729 70.5551 54.9517C70.5427 54.8645 70.5303 54.7773 70.5158 54.6923C70.4683 54.3947 70.4124 54.0971 70.3504 53.8038C70.3442 53.7655 70.3359 53.7252 70.3276 53.6869C71.9056 54.1822 73.0162 55.6999 73.0162 57.4217Z" fill="white"/>
<path d="M33.3228 53.9377C33.3166 53.9696 33.3104 54.0015 33.3042 54.0355L33.2691 54.2098L33.2215 54.4585C33.2174 54.4755 33.2153 54.4946 33.2112 54.5117L33.1657 54.7667C33.1574 54.8114 33.1512 54.8603 33.1429 54.907C33.1222 55.0388 33.1016 55.1727 33.0829 55.3045C33.0333 55.6595 32.994 56.0145 32.9651 56.3695C32.9547 56.4885 32.9465 56.6075 32.9382 56.7266C32.9361 56.7606 32.934 56.7925 32.932 56.8265C32.9299 56.8584 32.9299 56.8924 32.9278 56.9243C32.9216 57.0135 32.9196 57.1007 32.9154 57.19C32.9154 57.207 32.9154 57.224 32.9154 57.241C32.9113 57.3558 32.9072 57.4684 32.903 57.5832V57.6406L32.6362 57.7086L32.5225 57.7384C32.4604 57.7533 32.4005 57.7703 32.3405 57.7894C32.1771 57.8404 32.0179 57.9021 31.8648 57.9765C31.8442 57.985 31.8235 57.9935 31.8028 58.0041C31.7718 58.019 31.7407 58.0339 31.7118 58.0509L31.2403 58.3017L31.0086 57.8107C30.9321 57.6491 30.897 57.4727 30.9052 57.2984C30.9032 57.2771 30.9052 57.258 30.9073 57.2367L31.1224 54.8092C31.1451 54.5223 31.2775 54.2651 31.4905 54.0823C31.6849 53.9165 31.9227 53.8272 32.1709 53.8336C32.1957 53.8336 32.2226 53.8336 32.2474 53.8378L32.6879 53.8782L32.8079 53.8888L33.3249 53.9377H33.3228Z" fill="#F8A629"/>
<path d="M34.6238 66.0177C34.6093 65.9858 34.5948 65.9518 34.5803 65.92L34.4852 65.6989C34.2391 65.1292 34.0199 64.551 33.8296 63.9644C33.7676 63.7688 33.7076 63.5732 33.6497 63.3755C33.1492 61.641 32.8969 59.8406 32.8969 57.9998V57.9233C32.8969 57.8085 32.899 57.6958 32.901 57.5832C32.9052 57.4684 32.9093 57.3557 32.9134 57.2409C32.9134 57.2239 32.9134 57.2069 32.9134 57.1899C32.9176 57.1006 32.9197 57.0135 32.9259 56.9242C32.9259 56.8923 32.9259 56.8583 32.93 56.8264L32.9424 56.5331L32.839 56.5586L32.2868 56.701L32.2703 56.7053C32.142 56.7371 32.0159 56.7754 31.8939 56.82C31.6643 56.8966 31.4451 56.9943 31.2342 57.1049C31.1204 57.1644 31.0087 57.2303 30.9012 57.2983C29.4783 58.1996 28.6077 59.7832 28.6077 61.522C28.6077 64.2598 30.775 66.4854 33.4367 66.4854C33.5235 66.4854 33.6083 66.4832 33.6911 66.479C33.8234 66.4726 33.9537 66.4599 34.084 66.4407L34.7603 66.3408L34.6217 66.0177H34.6238ZM29.6438 61.522C29.6438 60.051 30.4359 58.7225 31.7098 58.0508C31.7388 58.0338 31.7698 58.0189 31.8008 58.004C31.8215 57.9934 31.8422 57.9828 31.8629 57.9721V57.9998C31.8629 58.1592 31.8649 58.3186 31.8691 58.478C31.8691 58.5524 31.8711 58.6268 31.8753 58.6991C31.8773 58.8182 31.8835 58.9372 31.8897 59.0562C31.8959 59.2071 31.9063 59.3559 31.9187 59.5069C31.9187 59.5749 31.927 59.6429 31.9332 59.7088C31.9394 59.8087 31.9497 59.9086 31.9601 60.0085C31.9683 60.0957 31.9766 60.1828 31.9869 60.27C31.9952 60.3635 32.0076 60.4549 32.02 60.5484C32.0221 60.5824 32.0262 60.6186 32.0324 60.6526C32.0511 60.7993 32.0717 60.9481 32.0945 61.0947C32.111 61.218 32.1317 61.3392 32.1545 61.4625C32.1669 61.5517 32.1834 61.641 32.2 61.7303C32.2579 62.0449 32.322 62.3595 32.3964 62.672C32.4357 62.8399 32.4771 63.0057 32.5184 63.1715C32.5743 63.384 32.6322 63.5945 32.6942 63.8028C32.7273 63.9155 32.7604 64.026 32.7956 64.1365C32.839 64.2747 32.8845 64.4129 32.9321 64.551C32.9589 64.6339 32.9879 64.7168 33.0189 64.7997C33.0582 64.9166 33.0996 65.0314 33.143 65.1462C33.1492 65.1611 33.1533 65.176 33.1596 65.1887C33.1885 65.2653 33.2175 65.3418 33.2464 65.4183C31.2424 65.3163 29.6438 63.6072 29.6438 61.522Z" fill="black"/>
<path d="M33.2464 65.4183C31.2424 65.3163 29.6438 63.6073 29.6438 61.522C29.6438 60.0511 30.4359 58.7225 31.7098 58.0508C31.7388 58.0338 31.7698 58.019 31.8008 58.0041C31.8215 57.9934 31.8422 57.9849 31.8629 57.9764V57.9998C31.8629 58.1592 31.8649 58.3187 31.8691 58.4781C31.8691 58.5525 31.8711 58.6269 31.8753 58.6992C31.8773 58.8182 31.8836 58.9372 31.8898 59.0563C31.896 59.2072 31.9063 59.356 31.9187 59.5069C31.9187 59.5749 31.927 59.643 31.9332 59.7088C31.9394 59.8088 31.9497 59.9087 31.9601 60.0086C31.9683 60.0957 31.9766 60.1829 31.987 60.27C31.9952 60.3635 32.0076 60.4549 32.02 60.5485C32.0221 60.5825 32.0262 60.6186 32.0325 60.6526C32.0511 60.7993 32.0717 60.9481 32.0945 61.0948C32.111 61.2181 32.1317 61.3392 32.1545 61.4625C32.1669 61.5518 32.1834 61.6411 32.2 61.7303C32.2579 62.0449 32.322 62.3595 32.3964 62.672C32.4357 62.8399 32.4771 63.0057 32.5185 63.1715C32.5743 63.3841 32.6322 63.5945 32.6942 63.8028C32.7273 63.9155 32.7604 64.026 32.7956 64.1366C32.839 64.2747 32.8845 64.4129 32.9321 64.5511C32.959 64.634 32.9879 64.7169 33.0189 64.7998C33.0582 64.9167 33.0996 65.0315 33.143 65.1463C33.1492 65.1611 33.1534 65.176 33.1596 65.1888C33.1885 65.2653 33.2175 65.3418 33.2464 65.4183Z" fill="white"/>
<path d="M70.5404 53.3617L70.348 53.6805L70.3232 53.6741L69.9923 53.5997C69.8641 53.5721 69.7317 53.5508 69.589 53.5381L69.2292 53.5041L69.1816 53.3234C69.1816 53.3234 69.1795 53.3106 69.1775 53.3021L69.1361 53.1448C69.0782 52.9174 69.0162 52.69 68.95 52.4646C68.7763 51.8843 68.5777 51.3147 68.3544 50.7641C68.3047 50.643 68.2551 50.5218 68.2034 50.4006C68.1951 50.3815 68.1889 50.3624 68.1827 50.3454L68.1207 50.2029L67.9201 49.7502L67.856 49.6035L68.3668 49.4908L68.6025 49.4377L68.9396 49.3633C68.9955 49.3506 69.0534 49.3442 69.1113 49.3442C69.2892 49.3357 69.467 49.3739 69.6242 49.4568C69.9034 49.6014 70.104 49.865 70.1722 50.1817L70.6727 52.5773C70.681 52.6134 70.6851 52.6517 70.6893 52.69C70.7141 52.9238 70.6624 53.1597 70.5404 53.3617Z" fill="#F8A629"/>
<path d="M70.7782 57.5492C70.772 57.326 70.7637 57.105 70.7513 56.8839C70.7451 56.75 70.7369 56.6182 70.7265 56.4864C70.7265 56.48 70.7245 56.4715 70.7245 56.463C70.7183 56.3716 70.71 56.2781 70.7017 56.1867C70.6852 55.9847 70.6645 55.7849 70.6397 55.5851C70.6169 55.3959 70.5921 55.2067 70.5652 55.0176C70.5631 54.9942 70.559 54.9729 70.5549 54.9517C70.5425 54.8645 70.5301 54.7774 70.5156 54.6923C70.468 54.3948 70.4122 54.0972 70.3501 53.8038C70.3419 53.7613 70.3336 53.7167 70.3232 53.6742C70.2902 53.5211 70.2571 53.3702 70.2198 53.2193C70.195 53.1024 70.1661 52.9876 70.1371 52.8728C70.1082 52.758 70.0771 52.6432 70.044 52.5284C69.8104 51.6803 69.5229 50.8513 69.1858 50.0563V50.052C69.1754 50.0223 69.163 49.9989 69.1506 49.9713L68.9935 49.6078L68.6274 49.6567L68.4557 49.6801L68.0008 49.7396L67.9201 49.7502H67.9139L33.2691 54.2098H33.267L33.2319 54.2141L32.7293 54.2778L32.6962 54.2821L32.1854 54.348L32.1813 54.3607C32.1813 54.3607 32.1833 54.365 32.1813 54.3671L32.1213 54.7391C32.0117 55.4321 31.9352 56.1314 31.8959 56.8201C31.8897 56.9477 31.8835 57.0731 31.8793 57.1985C31.869 57.4366 31.8649 57.6746 31.8628 57.9191V57.9999C31.8628 58.1593 31.8649 58.3187 31.869 58.4781C31.869 58.5525 31.8711 58.6269 31.8752 58.6992C31.8773 58.8182 31.8835 58.9373 31.8897 59.0563C31.8959 59.2072 31.9062 59.356 31.9186 59.5069C31.9186 59.575 31.9269 59.643 31.9331 59.7089C31.9393 59.8088 31.9497 59.9087 31.96 60.0086C31.9683 60.0957 31.9765 60.1829 31.9869 60.27C31.9952 60.3636 32.0076 60.455 32.02 60.5485C32.022 60.5825 32.0262 60.6187 32.0324 60.6527C32.051 60.7993 32.0717 60.9481 32.0944 61.0948C32.111 61.2181 32.1316 61.3392 32.1544 61.4625C32.1668 61.5518 32.1833 61.6411 32.1999 61.7304C32.2578 62.045 32.3219 62.3596 32.3964 62.672C32.4357 62.84 32.477 63.0058 32.5184 63.1716C32.5742 63.3841 32.6321 63.5946 32.6942 63.8029C32.7273 63.9155 32.7603 64.0261 32.7955 64.1366C32.8389 64.2748 32.8844 64.4129 32.932 64.5511C32.9589 64.634 32.9878 64.7169 33.0189 64.7998C33.0582 64.9167 33.0995 65.0315 33.1429 65.1463C33.1492 65.1612 33.1533 65.176 33.1595 65.1888C33.2774 65.5055 33.4056 65.8201 33.54 66.1326C33.5897 66.2495 33.6414 66.3643 33.6931 66.4791C36.8903 73.4895 43.7709 78.0001 51.3236 78.0001C60.4729 78.0001 68.4144 71.3978 70.3398 62.2512C70.3646 62.1364 70.3874 62.0195 70.4101 61.9047C70.4721 61.5858 70.5259 61.2648 70.5714 60.9418C70.619 60.6187 70.6583 60.2934 70.6893 59.9682C70.7038 59.8045 70.7182 59.6409 70.7286 59.4772C70.7389 59.356 70.7451 59.237 70.7513 59.1158C70.7575 59.0287 70.7617 58.9394 70.7637 58.8522C70.7679 58.7693 70.772 58.6886 70.772 58.6057C70.7803 58.4037 70.7824 58.2018 70.7824 57.9999V57.9935C70.7824 57.8447 70.7803 57.6959 70.7782 57.5492ZM51.3236 76.9373C44.168 76.9373 37.6514 72.6626 34.6237 66.0178C34.6092 65.9859 34.5948 65.9519 34.5803 65.92C34.5472 65.8456 34.5162 65.7734 34.4831 65.699C34.4004 65.5098 34.3218 65.3185 34.2473 65.125C34.1356 64.8466 34.0302 64.5639 33.935 64.279C33.8999 64.1749 33.8647 64.0707 33.8296 63.9644C33.7675 63.7689 33.7075 63.5733 33.6496 63.3756C33.1492 61.6411 32.8968 59.8407 32.8968 57.9999V57.9233C32.8968 57.8085 32.8989 57.6959 32.901 57.5832C32.9051 57.4684 32.9093 57.3558 32.9134 57.241C32.9134 57.224 32.9134 57.207 32.9134 57.19C32.9175 57.1007 32.9196 57.0136 32.9258 56.9243C32.9258 56.8924 32.9258 56.8584 32.9299 56.8265C32.932 56.7925 32.9341 56.7606 32.9361 56.7266C32.9444 56.6076 32.9527 56.4885 32.963 56.3695C32.992 56.0145 33.0313 55.6595 33.0809 55.3045L68.129 50.7939L68.3523 50.7641C68.5757 51.3147 68.7742 51.8844 68.948 52.4647C68.981 52.5773 69.0121 52.69 69.0452 52.8048C69.0472 52.8154 69.0514 52.8281 69.0555 52.8409L69.1362 53.147C69.1486 53.2001 69.163 53.2512 69.1754 53.3022C69.1775 53.3107 69.1775 53.317 69.1796 53.3234C69.192 53.3702 69.2023 53.417 69.2127 53.4658C69.2354 53.5572 69.2561 53.6508 69.2768 53.7422C69.3802 54.2056 69.467 54.6753 69.5374 55.1451C69.5787 55.4278 69.6139 55.7127 69.6428 55.9975C69.6718 56.2823 69.6945 56.5672 69.7132 56.852C69.7359 57.2346 69.7462 57.6172 69.7462 57.9999C69.7462 59.2476 69.6284 60.4911 69.3947 61.6964C67.6947 70.5284 60.0944 76.9373 51.3215 76.9373H51.3236Z" fill="black"/>
<path d="M69.7152 56.852C69.6966 56.5672 69.6739 56.2823 69.6449 55.9975C69.616 55.7127 69.5808 55.4278 69.5394 55.1451C69.4691 54.6754 69.3823 54.2056 69.2789 53.7422C69.2582 53.6508 69.2375 53.5573 69.2148 53.4659C69.2044 53.417 69.1941 53.3702 69.1817 53.3234C69.1796 53.3171 69.1796 53.3107 69.1775 53.3022L69.1362 53.1449C69.0783 52.9174 69.0162 52.69 68.95 52.4647C68.7763 51.8844 68.5778 51.3147 68.3544 50.7642L68.1311 50.7939L33.083 55.3045C33.0334 55.6595 32.9941 56.0145 32.9651 56.3695C32.9548 56.4885 32.9465 56.6076 32.9382 56.7266C32.9362 56.7606 32.9341 56.7925 32.932 56.8265C32.9299 56.8584 32.9299 56.8924 32.9279 56.9243C32.9217 57.0136 32.9196 57.1007 32.9155 57.19C32.9155 57.207 32.9155 57.224 32.9155 57.241C32.9113 57.3558 32.9072 57.4685 32.9031 57.5832C32.901 57.6959 32.8989 57.8086 32.8989 57.9233V57.9999C32.8989 59.8407 33.1512 61.6411 33.6517 63.3756C33.8792 64.1643 34.1584 64.938 34.4872 65.699L34.5824 65.92C34.5968 65.9519 34.6113 65.9859 34.6258 66.0178C37.6535 72.6626 44.1701 76.9373 51.3257 76.9373C60.0986 76.9373 67.6988 70.5284 69.3988 61.6964C69.6325 60.4911 69.7504 59.2476 69.7504 57.9999C69.7504 57.6173 69.7401 57.2346 69.7173 56.852H69.7152Z" fill="white"/>
<path d="M68.677 50.1859L68.0648 50.2666L33.2959 54.7411L32.6321 54.8262C32.6528 54.688 32.6755 54.5498 32.7024 54.4138C33.0581 52.4412 33.7034 50.5727 34.5926 48.8595C36.9834 44.2468 41.1278 40.7374 46.112 39.2749C47.7664 38.7881 49.516 38.5288 51.3236 38.5288C51.671 38.5288 52.0164 38.5394 52.3576 38.5586C57.4948 38.8413 62.088 41.2305 65.337 44.8994C66.6647 46.398 67.767 48.1112 68.5922 49.9839C68.6211 50.0498 68.6501 50.1179 68.677 50.1859Z" fill="#343738"/>
<path d="M32.0159 55.4405L32.1213 54.7454C32.1441 54.5988 32.1668 54.4521 32.1958 54.3097C32.5556 52.3201 33.2092 50.3985 34.1357 48.6108C36.6112 43.8345 40.9252 40.2464 45.9693 38.7648C47.6983 38.2568 49.4996 37.9974 51.3236 37.9974C51.667 37.9974 52.0247 38.0081 52.3866 38.0272C57.5155 38.3099 62.2515 40.6226 65.7197 44.5402C67.095 46.0919 68.22 47.8498 69.0638 49.7629C69.0948 49.8352 69.1279 49.9096 69.1569 49.984L69.4092 50.6238L68.1311 50.7917L32.0159 55.4384V55.4405ZM51.3236 39.0603C49.5968 39.0603 47.8906 39.3047 46.2547 39.7851C41.4774 41.1859 37.395 44.5848 35.0498 49.1082C34.2184 50.7109 33.6186 52.4242 33.2691 54.2076L67.916 49.748C67.1446 48.1113 66.1499 46.6021 64.9566 45.2544C61.6703 41.543 57.1867 39.3536 52.3329 39.0858C51.9896 39.0666 51.6525 39.056 51.3257 39.056L51.3236 39.0603Z" fill="black"/>
<path d="M68.6584 49.9691L68.5922 49.984C67.767 48.1113 66.6648 46.398 65.337 44.8994C62.088 41.2306 57.4948 38.8413 52.3576 38.5586C52.0164 38.5395 51.671 38.5289 51.3236 38.5289C49.5161 38.5289 47.7665 38.7882 46.112 39.275C41.1279 40.7374 36.9834 44.2469 34.5927 48.8595C33.7034 50.5728 33.0581 52.4412 32.7024 54.4139C32.7024 54.4139 32.6507 53.2809 32.7024 51.4571C32.75 49.7523 32.8886 47.446 33.2443 44.8994C34.1584 38.3716 36.4995 30.2707 42.4101 26.7358C48.1304 23.3135 52.8209 24.4507 55.9458 26.2447C58.078 27.4691 59.8524 29.261 61.1533 31.3867C62.3197 33.2955 64.3257 36.7731 65.9802 40.6311C66.8571 42.6781 67.6347 44.8293 68.1372 46.9124C68.3875 47.9561 68.5695 48.9828 68.6584 49.9691Z" fill="#343738"/>
<path d="M32.3942 59.0307L32.1853 54.4393C32.1832 54.3926 32.1336 53.266 32.1853 51.4422C32.2474 49.2017 32.4314 46.974 32.7313 44.825C33.6309 38.3949 35.9968 29.9582 42.1494 26.2787C48.1841 22.6651 53.1207 24.0149 56.198 25.7813C58.353 27.0184 60.2163 28.8593 61.5916 31.1039C62.6794 32.8852 64.7579 36.4606 66.4537 40.4164C67.4402 42.7206 68.1764 44.8633 68.6397 46.7849C68.9065 47.9008 69.0864 48.9552 69.1733 49.9202L69.2146 50.39L68.2923 50.594L68.1206 50.2029C67.3223 48.3919 66.2573 46.7275 64.9543 45.2565C61.6681 41.5451 57.1845 39.3557 52.3307 39.0879C51.9874 39.0688 51.6503 39.0581 51.3235 39.0581C49.5966 39.0581 47.8905 39.3026 46.2546 39.783C41.4773 41.1838 37.3949 44.5827 35.0496 49.1061C34.1707 50.7981 33.5523 52.6155 33.2111 54.5073L32.3963 59.0265L32.3942 59.0307ZM49.7311 25.0692C47.6464 25.0692 45.2702 25.6389 42.6685 27.1949C36.8737 30.6618 34.6215 38.7775 33.755 44.9759C33.5048 46.7657 33.3331 48.6809 33.2504 50.5643C33.511 49.8968 33.8046 49.2464 34.1355 48.6108C36.611 43.8345 40.9251 40.2464 45.9692 38.7648C47.6981 38.2568 49.4994 37.9974 51.3235 37.9974C51.6668 37.9974 52.0246 38.0081 52.3865 38.0272C57.5154 38.3099 62.2513 40.6226 65.7195 44.5402C66.433 45.3458 67.0804 46.2067 67.6532 47.1143C67.647 47.0888 67.6408 47.0633 67.6346 47.0378C67.1858 45.1757 66.4703 43.0905 65.5065 40.8437C63.8376 36.9495 61.7881 33.423 60.7147 31.6672C59.4325 29.5714 57.6953 27.856 55.6934 26.706C54.1671 25.8302 52.1466 25.0671 49.7311 25.0671V25.0692Z" fill="black"/>
<path d="M69.1736 49.919L68.1436 50.0123L68.1621 50.2283L69.1921 50.1349L69.1736 49.919Z" fill="black"/>
<path d="M33.2442 44.8994C32.8885 47.4459 32.7499 49.7523 32.7024 51.457C23.3587 53.3829 23.4228 53.2235 22.5625 49.3229C21.7084 45.4542 33.0622 44.9079 33.2442 44.8994Z" fill="#343738"/>
<path d="M25.3482 53.1916C24.978 53.1916 24.6596 53.164 24.3824 53.1044C22.7879 52.7665 22.5067 51.4889 22.0806 49.5567L22.0558 49.4398C21.9048 48.7575 22.0496 48.0922 22.4777 47.5182C24.4527 44.8527 32.3281 44.4105 33.2194 44.368L33.844 44.3383L33.7551 44.9738C33.4655 47.0548 33.2794 49.3016 33.2173 51.4719L33.2049 51.8949L32.8017 51.9778C29.137 52.7324 26.8331 53.1895 25.3482 53.1895V53.1916ZM32.6445 45.4691C30.0077 45.6583 24.6141 46.3916 23.3008 48.1644C23.0568 48.4939 22.9823 48.8255 23.065 49.2081L23.0899 49.325C23.5242 51.2976 23.6896 51.8737 24.5913 52.065C25.7453 52.3116 28.1278 51.8588 32.1957 51.0213C32.2619 49.1444 32.4108 47.2823 32.6424 45.4691H32.6445Z" fill="black"/>
<path d="M33.2463 45.4307C32.9609 45.4307 32.7292 45.1927 32.7292 44.8993C32.7292 44.606 32.9609 44.3679 33.2463 44.3679C33.5317 44.3679 33.7633 44.606 33.7633 44.8993C33.7633 45.1927 33.5337 45.4307 33.2463 45.4307Z" fill="black"/>
<path d="M68.1373 46.9124C67.6347 44.8292 66.8571 42.6781 65.9802 40.6311C67.523 40.3718 77.4768 38.8285 77.483 42.5187C77.4871 46.5085 77.5823 46.6594 68.1373 46.9124Z" fill="#343738"/>
<path d="M67.734 47.4545L67.6347 47.04C67.1859 45.1779 66.4704 43.0926 65.5066 40.8458L65.2378 40.2187L65.8975 40.1082C66.7061 39.9722 68.8259 39.6491 71.0719 39.5768C74.1099 39.479 76.1698 39.8829 77.1976 40.7799C77.7291 41.2433 77.998 41.8279 78 42.5208V42.6399C78.0021 44.6167 78.0042 45.924 76.5358 46.6191C75.3094 47.1994 73.1503 47.312 68.1517 47.446L67.7361 47.4566L67.734 47.4545ZM66.7185 41.0499C67.5044 42.9523 68.1145 44.7358 68.5343 46.3704C72.6395 46.2577 75.0344 46.1578 76.1015 45.6519C76.9288 45.2608 76.9681 44.6146 76.966 42.6377V42.5187C76.966 42.1425 76.8254 41.847 76.5296 41.5877C75.0613 40.308 70.4742 40.4802 66.7206 41.0499H66.7185Z" fill="black"/>
<path d="M68.0566 47.4459V46.3831H68.0773C68.098 46.3831 68.1166 46.3831 68.1373 46.3831V47.4459H68.1166C68.0959 47.4459 68.0773 47.4459 68.0566 47.4459Z" fill="black"/>
<path d="M65.9801 40.6311C65.8499 40.6545 65.7795 40.6672 65.7795 40.6672L65.9801 40.6311Z" fill="#343738"/>
<path d="M65.7775 41.1986C65.5314 41.1986 65.3142 41.0179 65.2688 40.7607C65.2191 40.4716 65.4052 40.1953 65.6865 40.1443L65.8892 40.1081C66.1704 40.0571 66.4393 40.2506 66.4869 40.5396C66.5344 40.8287 66.3483 41.1051 66.067 41.154L65.8685 41.1901C65.8375 41.1965 65.8065 41.1986 65.7775 41.1986Z" fill="black"/>
<path d="M41.616 62.2808C39.5583 62.2808 37.6866 61.4327 36.6484 60.8545L37.1406 59.9214C39.2915 61.1224 43.3408 62.5742 46.2878 58.816L47.0923 59.4835C45.4234 61.6113 43.4442 62.283 41.6139 62.283L41.616 62.2808Z" fill="black"/>
<path d="M59.2549 62.1639C55.9976 62.1639 53.4932 59.4197 53.3835 59.2985L54.1425 58.5779C54.1674 58.6056 56.6139 61.2754 59.5548 61.0926C61.2692 60.9842 62.8451 59.9192 64.2411 57.9275L65.0807 58.5482C63.4924 60.812 61.6518 62.0257 59.6106 62.1533C59.4906 62.1618 59.3707 62.1639 59.2528 62.1639H59.2549Z" fill="black"/>
<path d="M53.1311 66.8318C53.1311 66.8318 52.8126 65.9305 52.1198 65.7031C51.6648 65.5521 51.1044 65.7116 50.455 66.1771L49.8635 65.3056C50.7962 64.6381 51.6648 64.4341 52.4445 64.6955C53.6275 65.093 54.0866 66.4279 54.1073 66.4853L53.1291 66.8318L53.6171 66.6596L53.1291 66.8339L53.1311 66.8318Z" fill="black"/>
<path d="M63.4014 65.4671C63.1367 65.4671 62.8844 65.3417 62.6548 65.0952C62.2081 64.6148 62.1502 63.6093 62.4832 62.1065C62.5369 61.8663 62.7231 61.6835 62.9588 61.641C63.1946 61.5985 63.4303 61.7005 63.5627 61.9067C64.1831 62.876 64.332 63.7751 64.3672 64.2258C64.3941 64.5701 64.2865 64.9039 64.0714 65.1462C63.8378 65.4098 63.5834 65.4671 63.4117 65.4693H63.4014V65.4671Z" fill="black"/>
</g>
<defs>
<clipPath id="clip0_872_1740">
<rect width="56" height="54" fill="white" transform="translate(22 24)"/>
</clipPath>
</defs>
</svg>
