<svg width="170" height="58" viewBox="0 0 170 58" fill="none" xmlns="http://www.w3.org/2000/svg">
<path d="M23.1431 9.21C23.1431 8.51 23.3531 7.95 23.7731 7.53C24.2398 7.11 24.8231 6.9 25.5231 6.9C26.3631 6.9 26.9465 7.13333 27.2731 7.6C27.6465 8.02 27.8331 8.55667 27.8331 9.21V13.27C27.8331 13.8767 27.9265 14.4133 28.1131 14.88C28.3465 15.3467 28.9531 15.58 29.9331 15.58H32.3131C33.1065 15.58 33.6665 15.8133 33.9931 16.28C34.3665 16.7467 34.5531 17.2367 34.5531 17.75C34.5531 19.15 33.8065 19.85 32.3131 19.85H29.9331C29.0465 19.85 28.4631 20.06 28.1831 20.48C27.9498 20.8533 27.8331 21.3667 27.8331 22.02V28.95C27.8331 29.6033 27.5998 30.1633 27.1331 30.63C26.7131 31.0967 26.1765 31.33 25.5231 31.33C24.8698 31.33 24.3098 31.0967 23.8431 30.63C23.3765 30.1633 23.1431 29.6033 23.1431 28.95V9.21ZM0.953125 11.03C0.953125 10.3767 1.16313 9.81667 1.58313 9.35C2.04979 8.88333 2.63313 8.65 3.33313 8.65C3.98646 8.65 4.52313 8.88333 4.94313 9.35C5.40979 9.81667 5.64313 10.3767 5.64313 11.03V17.96C5.64313 18.7067 5.82979 19.4533 6.20312 20.2C6.57646 20.9 7.41646 21.25 8.72313 21.25H16.9131C17.5665 21.25 18.1031 21.46 18.5231 21.88C18.9898 22.2533 19.2231 22.7667 19.2231 23.42C19.2231 24.12 18.9898 24.68 18.5231 25.1C18.1031 25.4733 17.5665 25.66 16.9131 25.66H4.80313C3.77646 25.66 2.86646 25.3333 2.07312 24.68C1.32646 23.98 0.953125 23 0.953125 21.74V11.03ZM51.2859 0.599997C52.4525 0.599997 53.4092 0.926664 54.1559 1.58C54.9025 2.23333 55.2759 3.21333 55.2759 4.52V11.52C55.2759 12.64 54.8792 13.5267 54.0859 14.18C53.2925 14.8333 52.3592 15.16 51.2859 15.16H45.8959C44.9625 15.16 44.3092 15.4633 43.9359 16.07C43.6092 16.63 43.4459 17.2133 43.4459 17.82V18.24C43.4459 18.8933 43.6092 19.57 43.9359 20.27C44.2625 20.9233 45.0092 21.25 46.1759 21.25H53.7359C54.4359 21.25 54.9959 21.46 55.4159 21.88C55.8825 22.2533 56.1159 22.7667 56.1159 23.42C56.1159 24.12 55.8825 24.68 55.4159 25.1C54.9959 25.4733 54.4359 25.66 53.7359 25.66H42.6059C41.5792 25.66 40.6692 25.31 39.8759 24.61C39.1292 23.8633 38.7559 22.9067 38.7559 21.74V14.95C38.7559 13.7367 39.1525 12.78 39.9459 12.08C40.7859 11.3333 41.7892 10.96 42.9559 10.96H48.0659C48.9992 10.96 49.6292 10.7033 49.9559 10.19C50.3292 9.63 50.5159 9.04667 50.5159 8.44V7.74C50.5159 7.08667 50.3292 6.48 49.9559 5.92C49.6292 5.31333 48.9059 5.01 47.7859 5.01H41.2759C40.6225 5.01 40.0625 4.82333 39.5959 4.45C39.1759 4.03 38.9659 3.49333 38.9659 2.84C38.9659 2.14 39.1759 1.60333 39.5959 1.23C40.0625 0.809997 40.6225 0.599997 41.2759 0.599997H51.2859ZM57.0259 44.42C56.1392 43.6267 55.3925 43.2533 54.7859 43.3C54.1792 43.3933 53.4559 43.8133 52.6159 44.56L47.7159 48.83C47.1559 49.2967 46.5492 49.46 45.8959 49.32C45.2425 49.2267 44.7292 48.9933 44.3559 48.62C43.8425 48.1067 43.6325 47.4767 43.7259 46.73C43.8192 46.03 44.0992 45.5167 44.5659 45.19C47.1792 43.4167 49.1625 41.7833 50.5159 40.29C51.8692 38.8433 52.4992 36.93 52.4059 34.55C52.4059 33.8967 52.6392 33.36 53.1059 32.94C53.5725 32.52 54.1325 32.31 54.7859 32.31C55.4392 32.31 55.9992 32.52 56.4659 32.94C56.9792 33.36 57.2125 33.8967 57.1659 34.55C57.0725 36.1367 57.2825 37.4667 57.7959 38.54C58.3559 39.6133 59.2192 40.6167 60.3859 41.55C61.5992 42.53 63.0925 43.65 64.8659 44.91C65.3325 45.2833 65.5892 45.82 65.6359 46.52C65.6825 47.22 65.4492 47.8267 64.9359 48.34C64.5159 48.76 63.9559 48.97 63.2559 48.97C62.6025 48.97 62.0192 48.76 61.5059 48.34L57.0259 44.42ZM60.2459 9.21C60.2459 8.51 60.4559 7.95 60.8759 7.53C61.3425 7.11 61.9259 6.9 62.6259 6.9C63.4659 6.9 64.0492 7.13333 64.3759 7.6C64.7492 8.02 64.9359 8.55667 64.9359 9.21V13.27C64.9359 13.8767 65.0292 14.4133 65.2159 14.88C65.4492 15.3467 66.0559 15.58 67.0359 15.58H69.4159C70.2092 15.58 70.7692 15.8133 71.0959 16.28C71.4692 16.7467 71.6559 17.2367 71.6559 17.75C71.6559 19.15 70.9092 19.85 69.4159 19.85H67.0359C66.1492 19.85 65.5659 20.06 65.2859 20.48C65.0525 20.8533 64.9359 21.3667 64.9359 22.02V28.95C64.9359 29.6033 64.7025 30.1633 64.2359 30.63C63.8159 31.0967 63.2792 31.33 62.6259 31.33C61.9725 31.33 61.4125 31.0967 60.9459 30.63C60.4792 30.1633 60.2459 29.6033 60.2459 28.95V9.21ZM79.725 25.45C78.605 25.45 77.6717 25.1 76.925 24.4C76.225 23.7 75.875 22.7667 75.875 21.6V12.57C75.875 11.45 76.225 10.54 76.925 9.84C77.6717 9.09333 78.605 8.72 79.725 8.72H89.175C90.3883 8.72 91.345 9.09333 92.045 9.84C92.745 10.54 93.095 11.45 93.095 12.57V21.6C93.095 22.7667 92.745 23.7 92.045 24.4C91.345 25.1 90.3883 25.45 89.175 25.45H79.725ZM97.855 33.29C99.0217 33.29 99.955 33.6167 100.655 34.27C101.402 34.9233 101.775 35.8567 101.775 37.07V43.72C101.775 44.8867 101.378 45.7967 100.585 46.45C99.7917 47.1033 98.8817 47.43 97.855 47.43H92.045C91.1117 47.43 90.4583 47.6867 90.085 48.2C89.7583 48.76 89.595 49.32 89.595 49.88V50.44C89.595 51.0933 89.7583 51.7467 90.085 52.4C90.4117 53.0533 91.1583 53.38 92.325 53.38H100.165C100.818 53.38 101.355 53.5667 101.775 53.94C102.242 54.36 102.475 54.8967 102.475 55.55C102.475 56.2033 102.242 56.7167 101.775 57.09C101.355 57.51 100.818 57.72 100.165 57.72H88.755C87.7283 57.72 86.8183 57.37 86.025 56.67C85.2783 56.0167 84.905 55.1067 84.905 53.94V47.22C84.905 46.0067 85.3017 45.0267 86.095 44.28C86.8883 43.5333 87.8683 43.16 89.035 43.16H94.565C95.4983 43.16 96.1283 42.9267 96.455 42.46C96.8283 41.9933 97.015 41.4567 97.015 40.85V40.22C97.015 39.5667 96.8283 38.96 96.455 38.4C96.1283 37.8867 95.405 37.63 94.285 37.63H87.355C86.7017 37.63 86.1417 37.42 85.675 37C85.255 36.6267 85.045 36.1133 85.045 35.46C85.045 34.8067 85.255 34.2933 85.675 33.92C86.1417 33.5 86.7017 33.29 87.355 33.29H97.855ZM98.065 9.21C98.065 8.51 98.275 7.95 98.695 7.53C99.1617 7.11 99.745 6.9 100.445 6.9C101.285 6.9 101.868 7.13333 102.195 7.6C102.568 8.02 102.755 8.55667 102.755 9.21V13.27C102.755 13.8767 102.848 14.4133 103.035 14.88C103.268 15.3467 103.875 15.58 104.855 15.58H107.235C108.028 15.58 108.588 15.8133 108.915 16.28C109.288 16.7467 109.475 17.2367 109.475 17.75C109.475 19.15 108.728 19.85 107.235 19.85H104.855C103.968 19.85 103.385 20.06 103.105 20.48C102.872 20.8533 102.755 21.3667 102.755 22.02V28.95C102.755 29.6033 102.522 30.1633 102.055 30.63C101.635 31.0967 101.098 31.33 100.445 31.33C99.7917 31.33 99.2317 31.0967 98.765 30.63C98.2983 30.1633 98.065 29.6033 98.065 28.95V9.21ZM80.425 18.24C80.425 19.08 80.565 19.78 80.845 20.34C81.125 20.8533 81.755 21.11 82.735 21.11H85.955C86.9817 21.11 87.635 20.8533 87.915 20.34C88.2417 19.78 88.405 19.08 88.405 18.24V15.72C88.405 15.02 88.2417 14.4133 87.915 13.9C87.635 13.3867 86.9583 13.13 85.885 13.13H82.875C81.895 13.13 81.2417 13.41 80.915 13.97C80.5883 14.4833 80.425 15.0667 80.425 15.72V18.24ZM127.538 20.2C126.651 19.5 125.928 19.1267 125.368 19.08C124.854 19.0333 124.154 19.3833 123.268 20.13L118.438 24.54C117.878 25.0067 117.248 25.1933 116.548 25.1C115.894 24.96 115.381 24.7267 115.008 24.4C114.588 23.9333 114.378 23.35 114.378 22.65C114.424 21.95 114.658 21.46 115.078 21.18C117.038 19.8267 118.578 18.59 119.698 17.47C120.864 16.35 121.681 15.1833 122.148 13.97C122.661 12.71 122.918 11.2633 122.918 9.63C122.918 8.93 123.128 8.39333 123.548 8.02C124.014 7.6 124.598 7.39 125.298 7.39C125.951 7.39 126.511 7.6 126.978 8.02C127.491 8.39333 127.724 8.93 127.678 9.63C127.491 12.15 128.098 14.2033 129.498 15.79C130.898 17.33 132.764 18.9633 135.098 20.69C135.564 21.0167 135.821 21.5533 135.868 22.3C135.914 23.0467 135.704 23.6767 135.238 24.19C134.771 24.6567 134.211 24.89 133.558 24.89C132.904 24.89 132.321 24.6567 131.808 24.19L127.538 20.2ZM114.798 34.69C113.351 34.69 112.628 33.9667 112.628 32.52C112.628 31.8667 112.814 31.33 113.188 30.91C113.608 30.49 114.144 30.28 114.798 30.28H134.538C135.191 30.28 135.728 30.49 136.148 30.91C136.568 31.33 136.778 31.8667 136.778 32.52C136.778 33.1733 136.568 33.71 136.148 34.13C135.728 34.5033 135.191 34.69 134.538 34.69H114.798ZM146.58 25.45C145.46 25.45 144.527 25.1 143.78 24.4C143.08 23.7 142.73 22.7667 142.73 21.6V12.57C142.73 11.45 143.08 10.54 143.78 9.84C144.527 9.09333 145.46 8.72 146.58 8.72H156.03C157.244 8.72 158.2 9.09333 158.9 9.84C159.6 10.54 159.95 11.45 159.95 12.57V21.6C159.95 22.7667 159.6 23.7 158.9 24.4C158.2 25.1 157.244 25.45 156.03 25.45H146.58ZM155.19 49.11C154.07 49.11 153.16 48.76 152.46 48.06C151.76 47.36 151.41 46.45 151.41 45.33V37.14C151.41 36.02 151.76 35.11 152.46 34.41C153.16 33.71 154.07 33.36 155.19 33.36H164.85C166.017 33.36 166.927 33.71 167.58 34.41C168.28 35.11 168.63 36.02 168.63 37.14V45.33C168.63 46.45 168.28 47.36 167.58 48.06C166.927 48.76 166.017 49.11 164.85 49.11H155.19ZM164.99 9.42C164.99 8.72 165.2 8.16 165.62 7.74C166.087 7.32 166.67 7.11 167.37 7.11C168.444 7.15666 169.097 7.50666 169.33 8.16C169.564 8.76667 169.68 9.18667 169.68 9.42V28.81C169.68 29.4633 169.447 30.0233 168.98 30.49C168.56 30.9567 168.024 31.19 167.37 31.19C166.717 31.19 166.157 30.9567 165.69 30.49C165.224 30.0233 164.99 29.4633 164.99 28.81V9.42ZM147.28 18.24C147.28 19.08 147.42 19.78 147.7 20.34C147.98 20.8533 148.61 21.11 149.59 21.11H152.81C153.837 21.11 154.49 20.8533 154.77 20.34C155.097 19.78 155.26 19.08 155.26 18.24V15.72C155.26 15.02 155.097 14.4133 154.77 13.9C154.49 13.3867 153.814 13.13 152.74 13.13H149.73C148.75 13.13 148.097 13.41 147.77 13.97C147.444 14.4833 147.28 15.0667 147.28 15.72V18.24ZM155.96 42.18C155.96 43.02 156.077 43.65 156.31 44.07C156.59 44.49 157.244 44.7 158.27 44.7H161.49C162.564 44.7 163.24 44.49 163.52 44.07C163.8 43.65 163.94 43.02 163.94 42.18V40.08C163.94 39.3333 163.777 38.75 163.45 38.33C163.17 37.91 162.494 37.7 161.42 37.7H158.41C157.43 37.7 156.777 37.91 156.45 38.33C156.124 38.7967 155.96 39.38 155.96 40.08V42.18Z" fill="#ED6E2D"/>
</svg>
