<svg width="100" height="100" viewBox="0 0 100 100" fill="none" xmlns="http://www.w3.org/2000/svg">
<g clip-path="url(#clip0_872_1687)">
<path d="M46.8386 65.1635C45.0388 67.4179 42.9068 68.1295 40.9309 68.1295C38.7119 68.1295 36.6937 67.231 35.5741 66.6184C35.5674 66.6139 35.5607 66.6094 35.5541 66.6049C35.2998 66.4517 35.2084 66.1207 35.3511 65.8549C35.4983 65.5847 35.8306 65.4788 36.1027 65.6252C36.1049 65.6252 36.1049 65.6274 36.1071 65.6274C38.4265 66.8999 42.7931 68.4381 45.971 64.4563C46.1651 64.2154 46.5152 64.1771 46.756 64.373C46.9947 64.5667 47.0326 64.9225 46.8386 65.1635Z" fill="black"/>
<path d="M36.33 66.3887C36.2297 66.5779 36.0356 66.6837 35.8394 66.6837C35.748 66.6837 35.6588 66.6635 35.574 66.6162C35.5673 66.6117 35.5606 66.6094 35.5539 66.6049C34.7399 66.1613 34.2448 65.7874 34.2248 65.7716C33.9772 65.5847 33.9282 65.2334 34.1133 64.9834C34.2984 64.7357 34.6463 64.6861 34.8938 64.8708C34.8983 64.8753 35.3577 65.2199 36.1026 65.6253C36.1048 65.6253 36.1048 65.6275 36.107 65.6275C36.3769 65.7784 36.475 66.1162 36.33 66.3887Z" fill="black"/>
<path d="M72.0234 59.1864C71.8539 59.1324 71.6822 59.0851 71.506 59.0491C71.4458 59.0355 71.3878 59.0243 71.3276 59.013C71.2005 58.9905 71.0711 58.9725 70.9351 58.9612L70.1389 58.8892L70.2504 59.3058C70.275 59.4026 70.3017 59.4972 70.3262 59.5941C70.3329 59.6188 70.3396 59.6414 70.3463 59.6661C70.3575 59.7044 70.3664 59.7405 70.3753 59.7765C70.382 59.799 70.3887 59.8215 70.3932 59.8463C70.4065 59.8981 70.4177 59.9522 70.4311 60.0062C70.8124 61.5714 71.0064 63.1884 71.0064 64.81C71.0064 65.6365 70.9574 66.4608 70.857 67.276C70.828 67.5192 70.7946 67.7625 70.7544 68.0057C70.7143 68.2489 70.6719 68.4877 70.6251 68.7286L70.5894 68.9088L70.469 69.5214L71.2607 69.393C71.39 69.3727 71.5171 69.3457 71.6443 69.3164C73.9837 68.7579 75.6451 66.6657 75.6451 64.1974C75.6451 61.9002 74.1487 59.8711 72.0234 59.1864ZM71.874 68.0733C71.8784 68.0485 71.8807 68.0215 71.8851 67.9967C71.9052 67.8616 71.9253 67.7242 71.9409 67.5891C71.9565 67.481 71.9699 67.3729 71.981 67.2648C71.9966 67.1296 72.01 66.9923 72.0234 66.8571C72.0368 66.722 72.0501 66.5869 72.0591 66.4495C72.0702 66.3121 72.0791 66.177 72.0858 66.0396C72.0925 65.9315 72.097 65.8234 72.1014 65.7131C72.1059 65.6275 72.1104 65.5396 72.1104 65.4518C72.1193 65.2379 72.1215 65.0239 72.1215 64.81C72.1215 64.6501 72.1193 64.4879 72.1148 64.328C72.1104 64.096 72.1014 63.8641 72.0881 63.6321C72.0814 63.4902 72.0724 63.3506 72.0613 63.2087C72.0568 63.1456 72.0524 63.0826 72.0457 63.0195C72.0345 62.8709 72.0212 62.72 72.0055 62.5714C72.0011 62.5331 71.9966 62.497 71.9922 62.461C71.9743 62.2853 71.952 62.1119 71.9297 61.9363C71.903 61.7471 71.8762 61.5579 71.845 61.3687C71.8137 61.1796 71.7803 60.9904 71.7446 60.8035C71.7089 60.6165 71.671 60.4296 71.6309 60.2427C73.3302 60.7652 74.5301 62.3732 74.5301 64.1974C74.5301 66.0216 73.4507 67.481 71.874 68.0733Z" fill="black"/>
<path d="M74.53 64.1974C74.53 65.9608 73.4507 67.481 71.8739 68.0733C71.8784 68.0485 71.8806 68.0215 71.8851 67.9967C71.9052 67.8616 71.9252 67.7242 71.9409 67.5891C71.9565 67.481 71.9698 67.3729 71.981 67.2648C71.9966 67.1296 72.01 66.9923 72.0234 66.8571C72.0367 66.722 72.0501 66.5869 72.059 66.4495C72.0702 66.3121 72.0791 66.177 72.0858 66.0396C72.0925 65.9315 72.097 65.8234 72.1014 65.7131C72.1059 65.6275 72.1103 65.5396 72.1103 65.4518C72.1193 65.2379 72.1215 65.0239 72.1215 64.81C72.1215 64.6501 72.1193 64.4879 72.1148 64.328C72.1103 64.096 72.1014 63.8641 72.088 63.6321C72.0814 63.4902 72.0724 63.3506 72.0613 63.2087C72.0568 63.1456 72.0524 63.0826 72.0457 63.0195C72.0345 62.8709 72.0211 62.72 72.0055 62.5714C72.0011 62.5331 71.9966 62.497 71.9921 62.461C71.9743 62.2853 71.952 62.1119 71.9297 61.9363C71.9029 61.7471 71.8762 61.5579 71.845 61.3687C71.8137 61.1796 71.7803 60.9904 71.7446 60.8035C71.7089 60.6165 71.671 60.4296 71.6309 60.2427C73.3302 60.7652 74.53 62.3732 74.53 64.1974Z" fill="white"/>
<path d="M66.2361 64.1749C64.5234 66.5756 62.5385 67.8593 60.3374 67.9944C60.208 68.0035 60.0787 68.0057 59.9516 68.0057C56.4391 68.0057 53.7384 65.0982 53.6202 64.9699C53.4128 64.7424 53.4262 64.3866 53.6514 64.1749C53.8789 63.9654 54.2313 63.9789 54.4409 64.2064C54.4766 64.2469 57.1104 67.0643 60.2772 66.8706C62.1237 66.7535 63.8253 65.6275 65.3307 63.5173C65.5113 63.265 65.8592 63.2087 66.109 63.3889C66.3588 63.5713 66.4145 63.9226 66.2361 64.1749Z" fill="black"/>
<path d="M32.9804 72.9671C32.8376 72.645 32.7038 72.3185 32.5789 71.9919C32.5321 71.8681 32.4875 71.7464 32.4429 71.6226C32.3537 71.3771 32.2689 71.1294 32.1931 70.8816C32.1552 70.7578 32.1173 70.6316 32.0794 70.5055C31.5397 68.6678 31.2676 66.7603 31.2676 64.8077V64.7289C31.2676 64.6072 31.2698 64.4879 31.2721 64.3685C31.2765 64.2492 31.2788 64.1298 31.2832 64.0104L31.2944 63.792C31.2988 63.7154 31.3011 63.6411 31.3055 63.5668L31.3189 63.256L30.5919 63.4384C30.4558 63.4722 30.3198 63.5127 30.1882 63.56C29.9407 63.6411 29.7021 63.7424 29.4768 63.8618C29.3541 63.9249 29.2337 63.9947 29.1178 64.0667C27.5812 65.0194 26.6445 66.6995 26.6445 68.5417C26.6445 71.4424 28.9795 73.8004 31.8519 73.8004C31.9456 73.8004 32.037 73.7981 32.1284 73.7936C32.2712 73.7846 32.4117 73.7733 32.5477 73.7531L33.2792 73.6472L32.9804 72.9671ZM27.7596 68.5417C27.7596 66.9832 28.6115 65.5734 29.9875 64.8617C30.041 64.8347 30.0968 64.8077 30.1525 64.7807V64.8077C30.1525 64.9788 30.1548 65.1478 30.1592 65.3167C30.1592 65.391 30.1615 65.4653 30.1659 65.5396C30.1682 65.6702 30.1748 65.7986 30.1815 65.927C30.1882 66.0914 30.1994 66.2535 30.2128 66.4157C30.2128 66.4765 30.2217 66.5373 30.2284 66.5981C30.2351 66.7152 30.2462 66.8323 30.2596 66.9494C30.2663 67.0328 30.2752 67.1138 30.2841 67.1972C30.2953 67.303 30.3086 67.4089 30.322 67.5147C30.3243 67.5485 30.3309 67.5845 30.3354 67.6206C30.3555 67.776 30.3778 67.9336 30.4023 68.089C30.4202 68.2174 30.4425 68.348 30.467 68.4786C30.4804 68.5732 30.4982 68.6678 30.5161 68.7624C30.5785 69.0957 30.6476 69.429 30.7279 69.7601C30.7703 69.938 30.8149 70.1137 30.8595 70.2893C30.9197 70.5145 30.9822 70.7375 31.0491 70.9582C31.0847 71.0753 31.1204 71.1947 31.1583 71.3118C31.2052 71.4582 31.2542 71.6046 31.3055 71.7509C31.3345 71.8388 31.3657 71.9266 31.3992 72.0144C31.4416 72.1383 31.4862 72.2599 31.533 72.3815C31.5375 72.3951 31.5441 72.4086 31.5486 72.4221C31.5798 72.5054 31.6111 72.5887 31.6445 72.6698C29.4835 72.5595 27.7596 70.751 27.7596 68.5417Z" fill="black"/>
<path d="M31.6444 72.672C29.4834 72.5617 27.7595 70.7533 27.7595 68.5439C27.7595 66.9855 28.6114 65.5756 29.9874 64.864C30.041 64.837 30.0967 64.8099 30.1525 64.7852V64.8099C30.1525 64.9811 30.1547 65.15 30.1592 65.3189C30.1592 65.3932 30.1614 65.4675 30.1658 65.5419C30.1681 65.6725 30.1748 65.8009 30.1815 65.9292C30.1881 66.0936 30.1993 66.2558 30.2127 66.4179C30.2127 66.4787 30.2216 66.5396 30.2283 66.6004C30.235 66.7175 30.2461 66.8346 30.2595 66.9517C30.2662 67.035 30.2751 67.1161 30.284 67.1994C30.2952 67.3053 30.3086 67.4111 30.322 67.517C30.3242 67.5508 30.3309 67.5868 30.3353 67.6228C30.3554 67.7782 30.3777 67.9359 30.4022 68.0913C30.4201 68.2196 30.4424 68.3502 30.4669 68.4809C30.4803 68.5755 30.4981 68.67 30.516 68.7646C30.5784 69.0979 30.6476 69.4313 30.7278 69.7623C30.7702 69.9402 30.8148 70.1159 30.8594 70.2916C30.9196 70.5168 30.9821 70.7397 31.049 70.9604C31.0847 71.0776 31.1203 71.1969 31.1583 71.314C31.2051 71.4604 31.2541 71.6068 31.3054 71.7532C31.3344 71.841 31.3657 71.9289 31.3991 72.0167C31.4415 72.1405 31.4861 72.2622 31.5329 72.3838C31.5374 72.3973 31.5441 72.4108 31.5485 72.4243C31.5797 72.5076 31.611 72.591 31.6444 72.672Z" fill="white"/>
<path d="M31.7448 60.4476L31.6735 60.7922L31.6445 60.9273L31.6021 61.1323C31.591 61.1931 31.5776 61.2516 31.5687 61.3147L31.5597 61.3755L31.533 61.5399C31.5107 61.6773 31.4884 61.8147 31.4705 61.9543C31.4638 61.9993 31.4571 62.0444 31.4505 62.0917C31.4326 62.2178 31.417 62.3439 31.4036 62.4678C31.3858 62.6232 31.3679 62.7763 31.3546 62.9317C31.3501 62.9813 31.3456 63.0331 31.3412 63.0849C31.33 63.211 31.3211 63.3371 31.3122 63.4632C31.31 63.4993 31.3077 63.533 31.3055 63.5691C31.301 63.6434 31.2988 63.7177 31.2943 63.7943C31.2899 63.8641 31.2877 63.9362 31.2854 64.0082C31.281 64.1298 31.2765 64.2492 31.272 64.3708V64.4316L30.8617 64.533C30.6164 64.5938 30.3778 64.6794 30.1525 64.783C30.0968 64.81 30.041 64.837 29.9875 64.864L29.4812 65.1298L29.2292 64.6118C29.1467 64.4406 29.1088 64.2537 29.1177 64.069C29.1155 64.0465 29.1177 64.0262 29.12 64.0037L29.3519 61.4318C29.4054 60.808 29.9496 60.3485 30.5673 60.4003H30.5874L31.0803 60.4476H31.7448Z" fill="#F8A629"/>
<path d="M69.9226 57.0897L69.5056 57.1438H69.5034L31.7672 61.916L31.698 61.3575L31.6445 60.9273L31.6289 60.7989L31.6735 60.7944V60.7922L69.035 56.0672H69.0373L69.6439 55.9907L69.7821 55.9727L69.8513 56.5312L69.9226 57.0897Z" fill="black"/>
<path d="M71.8607 59.8981L71.6533 60.2337L71.6287 60.2291L71.2697 60.1503C71.1292 60.1188 70.9887 60.0963 70.837 60.0828L70.4467 60.049L70.3932 59.8463C70.3888 59.8215 70.3821 59.799 70.3754 59.7765C70.3665 59.7404 70.3575 59.7044 70.3486 59.6706H70.3464V59.6661C70.3397 59.6413 70.333 59.6188 70.3263 59.5941C70.2773 59.4026 70.2237 59.2134 70.168 59.0243C70.0476 58.6189 69.9137 58.2158 69.7688 57.8216C69.7242 57.7023 69.6796 57.5829 69.6327 57.4636C69.6327 57.4591 69.6327 57.4545 69.6283 57.45C69.5859 57.3464 69.5458 57.2451 69.5034 57.1438C69.4499 57.0154 69.3964 56.887 69.3406 56.7586C69.3183 56.7023 69.296 56.6505 69.2759 56.6032C69.267 56.5852 69.2603 56.5672 69.2514 56.5492L69.0373 56.0695H69.0351L68.9749 55.9321L69.0172 55.9209L69.5658 55.788L69.6528 55.7655L70.1256 55.6641H70.1345C70.3888 55.6101 70.6497 55.6438 70.8749 55.761C71.1738 55.9118 71.3901 56.1934 71.4637 56.5267L72.0056 59.0671C72.0123 59.1053 72.019 59.1459 72.0235 59.1864C72.0502 59.4342 71.9945 59.6841 71.8607 59.8981Z" fill="#F8A629"/>
<path d="M72.1149 64.328C72.1104 64.0961 72.1015 63.8641 72.0881 63.6321C72.0814 63.4902 72.0725 63.3506 72.0614 63.2087C72.0569 63.1457 72.0524 63.0826 72.0457 63.0196C72.0346 62.8709 72.0212 62.72 72.0056 62.5714C72.0011 62.5331 71.9967 62.4971 71.9922 62.461C71.9744 62.2854 71.9521 62.112 71.9298 61.9363C71.903 61.7471 71.8763 61.5579 71.845 61.3688C71.8138 61.1796 71.7804 60.9904 71.7447 60.8035C71.709 60.6166 71.6711 60.4296 71.6309 60.2427C71.6309 60.2382 71.6309 60.2337 71.6287 60.2292C71.593 60.067 71.5573 59.9049 71.5172 59.745C71.4882 59.6211 71.457 59.4995 71.4258 59.3801C71.3945 59.2585 71.3611 59.1347 71.3276 59.013C71.0957 58.1888 70.8125 57.378 70.4891 56.601C70.4467 56.4997 70.4044 56.4028 70.362 56.3038L70.1947 55.9209L69.7822 55.9727L69.6439 55.9907L69.122 56.0583L69.0373 56.0695L46.5999 58.9072L31.6735 60.7922L31.6289 60.799L31.0759 60.8688L30.5005 60.9409L30.4893 61.0084L30.4336 61.3575C30.3934 61.6052 30.3578 61.8507 30.3265 62.0984C30.2619 62.5871 30.2173 63.0781 30.1883 63.5623C30.1816 63.6952 30.1749 63.8281 30.1704 63.9609C30.1593 64.2132 30.1548 64.4654 30.1526 64.7244V64.81C30.1526 64.9811 30.1548 65.15 30.1593 65.319C30.1593 65.3933 30.1615 65.4676 30.166 65.5419C30.1682 65.6725 30.1749 65.8009 30.1816 65.9293C30.1883 66.0937 30.1994 66.2558 30.2128 66.418C30.2128 66.4788 30.2217 66.5396 30.2284 66.6004C30.2351 66.7175 30.2463 66.8346 30.2596 66.9517C30.2663 67.0351 30.2752 67.1161 30.2842 67.1995C30.2953 67.3053 30.3087 67.4112 30.3221 67.517C30.3243 67.5508 30.331 67.5868 30.3355 67.6229C30.3555 67.7783 30.3778 67.9359 30.4024 68.0913C30.4202 68.2197 30.4425 68.3503 30.467 68.4809C30.4804 68.5755 30.4983 68.6701 30.5161 68.7647C30.5785 69.098 30.6477 69.4313 30.728 69.7624C30.7703 69.9403 30.8149 70.116 30.8595 70.2916C30.9198 70.5168 30.9822 70.7398 31.0491 70.9605C31.0848 71.0776 31.1205 71.197 31.1584 71.3141C31.2052 71.4605 31.2543 71.6069 31.3056 71.7532C31.3346 71.8411 31.3658 71.9289 31.3992 72.0167C31.4416 72.1406 31.4862 72.2622 31.533 72.3838C31.5375 72.3973 31.5442 72.4109 31.5487 72.4244C31.678 72.7599 31.814 73.0955 31.9612 73.4266C32.017 73.5504 32.0705 73.6743 32.1285 73.7959C35.5763 81.2256 42.9937 86.0001 51.1382 86.0001C61.0043 86.0001 69.5703 79.0073 71.6443 69.3165C71.6711 69.1948 71.6956 69.071 71.7201 68.9471C71.7781 68.6566 71.8294 68.3661 71.874 68.0733C71.8785 68.0485 71.8807 68.0215 71.8852 67.9967C71.9052 67.8616 71.9253 67.7242 71.9409 67.5891C71.9565 67.481 71.9699 67.3729 71.9811 67.2648C71.9967 67.1297 72.0101 66.9923 72.0234 66.8572C72.0368 66.722 72.0502 66.5869 72.0591 66.4495C72.0703 66.3121 72.0792 66.177 72.0859 66.0396C72.0926 65.9315 72.097 65.8234 72.1015 65.7131C72.106 65.6275 72.1104 65.5397 72.1104 65.4518C72.1193 65.2379 72.1216 65.0239 72.1216 64.81C72.1216 64.6501 72.1193 64.4879 72.1149 64.328ZM51.1382 84.874C43.2993 84.874 36.1717 80.2009 32.9804 72.9694C32.8377 72.6473 32.7039 72.3208 32.579 71.9942C32.5321 71.8704 32.4875 71.7487 32.4429 71.6249C32.356 71.3794 32.2735 71.1317 32.1932 70.8839C32.1553 70.7601 32.1173 70.6339 32.0794 70.5078C31.5397 68.6701 31.2677 66.7626 31.2677 64.81V64.7312C31.2677 64.6095 31.2699 64.4902 31.2721 64.3708C31.2766 64.2492 31.281 64.1298 31.2855 64.0082C31.2855 63.9362 31.29 63.8641 31.2944 63.7943C31.2989 63.7177 31.3011 63.6434 31.3056 63.5691C31.3078 63.533 31.31 63.4993 31.3123 63.4632C31.3212 63.3371 31.3301 63.211 31.3413 63.0849C31.3457 63.0331 31.3502 62.9813 31.3546 62.9317C31.368 62.7763 31.3859 62.6232 31.4037 62.4678C31.4171 62.3439 31.4327 62.2178 31.4505 62.0917C31.455 62.0466 31.4617 61.9993 31.4684 61.9543L31.765 61.916L69.5012 57.1438H69.5034C69.5458 57.2451 69.5859 57.3465 69.626 57.4501C69.6283 57.4546 69.6283 57.4591 69.6305 57.4636C69.6773 57.583 69.7219 57.7023 69.7665 57.8217C69.9115 58.2158 70.0453 58.6189 70.1657 59.0243C70.1925 59.1189 70.2215 59.2112 70.2483 59.3058C70.2728 59.4027 70.2995 59.4973 70.3241 59.5941C70.3308 59.6189 70.3375 59.6414 70.3442 59.6662C70.3442 59.6662 70.3464 59.6684 70.3464 59.6707C70.3553 59.7044 70.3642 59.7405 70.3731 59.7765C70.3798 59.799 70.3865 59.8216 70.391 59.8463C70.4044 59.8981 70.4155 59.9522 70.4289 60.0062C70.8102 61.5714 71.0043 63.1885 71.0043 64.81C71.0043 65.6365 70.9552 66.4608 70.8549 67.276C70.8259 67.5193 70.7924 67.7625 70.7523 68.0057C70.7143 68.249 70.672 68.4877 70.6251 68.7287C70.614 68.7895 70.6006 68.848 70.5872 68.9088C68.6872 78.1718 60.536 84.874 51.136 84.874H51.1382Z" fill="black"/>
<path d="M70.431 60.0062C70.4177 59.9522 70.4065 59.8981 70.3931 59.8463C70.3887 59.8216 70.382 59.799 70.3753 59.7765C70.3664 59.7405 70.3574 59.7044 70.3463 59.6684C70.3396 59.6414 70.3329 59.6189 70.3262 59.5941C70.2772 59.4027 70.2236 59.2135 70.1679 59.0243C70.0475 58.6189 69.9136 58.2158 69.7687 57.8217C69.7241 57.7023 69.6795 57.583 69.6327 57.4636C69.6327 57.4591 69.6327 57.4546 69.6282 57.4501C69.5858 57.3465 69.5457 57.2451 69.5033 57.1438L31.7671 61.916L31.4705 61.9543C31.4638 61.9993 31.4571 62.0444 31.4504 62.0917C31.4326 62.2178 31.417 62.3439 31.4036 62.4678C31.3858 62.6232 31.3679 62.7763 31.3546 62.9317C31.3501 62.9813 31.3456 63.0331 31.3412 63.0849C31.33 63.211 31.3211 63.3371 31.3122 63.4632C31.31 63.4993 31.3077 63.533 31.3055 63.5691C31.2988 63.7155 31.2899 63.8618 31.2854 64.0082C31.281 64.1298 31.2765 64.2492 31.272 64.3708C31.2698 64.4902 31.2676 64.6095 31.2676 64.7312V64.81C31.2676 66.7626 31.5397 68.6701 32.0793 70.5078C32.2265 71.0078 32.3938 71.5033 32.5789 71.9942C32.7038 72.3208 32.8376 72.6473 32.9803 72.9694C36.1717 80.2009 43.2992 84.874 51.1381 84.874C60.5381 84.874 68.6893 78.1718 70.5894 68.9088L70.6251 68.7287C70.7187 68.249 70.7968 67.7648 70.857 67.276C70.9574 66.4608 71.0064 65.6365 71.0064 64.81C71.0064 63.1885 70.8124 61.5714 70.431 60.0062Z" fill="white"/>
<path d="M41.8896 26.1704C41.3321 26.6253 40.4757 26.8077 39.9383 26.5037C39.8335 26.6839 39.5458 26.9181 39.3718 27.0577C38.6626 27.6388 37.9423 27.4 37.4294 26.7582C36.9811 26.1974 37.164 25.4385 37.6591 24.8507C37.3067 24.6637 36.9543 24.2674 36.9543 23.8913C36.9543 23.3057 37.523 22.8328 38.2233 22.8328C38.4842 22.8328 38.7942 22.817 38.9972 22.9274C39.0975 22.7787 39.4989 22.4161 39.6573 22.308C40.1702 21.9612 40.982 22.0468 41.4681 22.6548C41.6733 22.9138 41.6934 23.362 41.6689 23.6931C41.8651 23.7787 42.106 23.7832 42.2465 23.9566C42.7594 24.5984 42.6011 25.5893 41.8896 26.1704Z" fill="#F8A629"/>
<path d="M38.5399 27.9495C38.4819 27.9495 38.4262 27.9473 38.3682 27.9405C37.8597 27.8865 37.3847 27.6005 36.9944 27.1118C36.5172 26.5149 36.4926 25.7177 36.8985 24.9745C36.6131 24.6862 36.3967 24.3034 36.3967 23.8912C36.3967 22.9972 37.2152 22.2697 38.2232 22.2697H38.308C38.4641 22.2675 38.6402 22.2675 38.8187 22.2922C39.0105 22.1053 39.2335 21.9184 39.3472 21.8418C40.1434 21.3013 41.2651 21.504 41.9029 22.3012C42.1237 22.5805 42.2085 22.9454 42.2285 23.2854C42.378 23.3417 42.543 23.4341 42.679 23.6007C43.386 24.4858 43.1897 25.8348 42.2419 26.6095C41.6933 27.0577 40.8436 27.346 40.1054 27.1681C39.9939 27.2739 39.8668 27.382 39.7196 27.4991C39.3561 27.7964 38.9525 27.9518 38.5421 27.9518L38.5399 27.9495ZM38.3905 23.3935C38.3615 23.3935 38.337 23.3935 38.3146 23.3935H38.2232C37.8441 23.3935 37.5118 23.6255 37.5118 23.889C37.5118 23.9881 37.6835 24.2246 37.9177 24.3507L38.5354 24.6772L38.0849 25.2132C37.795 25.5578 37.5832 26.051 37.8642 26.4023C38.0626 26.6501 38.2834 26.7987 38.4864 26.819C38.6559 26.837 38.8343 26.7694 39.0216 26.6163C39.3472 26.355 39.4342 26.2515 39.4587 26.2132L39.7397 25.7582L40.2103 26.0082C40.5203 26.1839 41.1425 26.0533 41.5394 25.729C41.9988 25.3529 42.126 24.7335 41.8338 24.3327C41.8048 24.3214 41.7535 24.3079 41.7178 24.2966C41.642 24.2741 41.5461 24.2493 41.448 24.2043L41.0823 24.0444L41.1112 23.6435C41.138 23.2787 41.0778 23.058 41.031 22.9994C40.7277 22.6188 40.2415 22.5828 39.9672 22.7697C39.8468 22.8508 39.5212 23.1503 39.4542 23.2426L39.171 23.6615L38.7317 23.4183C38.6782 23.3935 38.5154 23.3913 38.3905 23.3913V23.3935Z" fill="black"/>
<path d="M43.5691 32.6249C43.0115 33.0798 42.2801 33.1451 41.7426 32.8411C41.6378 33.0213 41.4995 33.1857 41.3256 33.3253C40.6164 33.9064 39.6217 33.8546 39.1088 33.2127C38.6606 32.6519 38.8434 31.893 39.3385 31.3052C38.9862 31.1182 38.6338 30.7219 38.6338 30.3458C38.6338 29.7602 39.2025 29.2873 39.9027 29.2873C40.1637 29.2873 40.516 29.3165 40.719 29.4269C40.8193 29.2783 40.8439 29.0868 41.1249 28.8436C41.9567 28.1229 42.6614 28.5013 43.1476 29.1094C43.3528 29.3683 43.3728 29.8165 43.3483 30.1476C43.5446 30.2332 43.7854 30.2377 43.9259 30.4111C44.4388 31.0529 44.2805 32.0439 43.5691 32.6249Z" fill="#F8A629"/>
<path d="M40.2216 34.2915C40.148 34.2915 40.0721 34.287 39.9986 34.2802C39.4678 34.2239 38.9972 33.9695 38.6738 33.5663C38.1966 32.9695 38.1721 32.1723 38.578 31.4291C38.2925 31.1408 38.0762 30.7579 38.0762 30.3458C38.0762 29.4517 38.8946 28.7243 39.9027 28.7243C40.0632 28.7243 40.255 28.7333 40.4468 28.7648C40.5182 28.659 40.6163 28.5396 40.759 28.418C41.2117 28.0261 41.6868 27.8527 42.1707 27.8955C42.6792 27.9428 43.1676 28.2401 43.5802 28.7581C43.8009 29.0373 43.8857 29.4022 43.9058 29.74C44.0552 29.7963 44.218 29.8886 44.3562 30.0553C45.0632 30.9404 44.8669 32.2894 43.9191 33.0641C43.3438 33.5348 42.5944 33.6969 41.9343 33.5213C41.854 33.6091 41.767 33.6902 41.6734 33.7668C41.2586 34.1068 40.739 34.2938 40.2238 34.2938L40.2216 34.2915ZM39.9004 29.8503C39.5213 29.8503 39.189 30.0823 39.189 30.3458C39.189 30.4449 39.3607 30.6814 39.5949 30.8075L40.2126 31.134L39.7622 31.67C39.4722 32.0146 39.2604 32.5078 39.5414 32.8592C39.6774 33.0281 39.8804 33.1362 40.1145 33.1609C40.4111 33.1925 40.7233 33.0934 40.9731 32.8884C41.0913 32.7939 41.1872 32.6812 41.2608 32.5574L41.5373 32.0822L42.0146 32.3524C42.3692 32.5529 42.8531 32.4876 43.2189 32.1903C43.6783 31.8142 43.8054 31.1949 43.5132 30.794C43.4843 30.7827 43.4352 30.7692 43.3973 30.7579C43.3192 30.7354 43.2233 30.7084 43.1252 30.6656L42.7617 30.5057L42.7907 30.1071C42.8174 29.7422 42.7572 29.5215 42.7104 29.463C42.5588 29.2738 42.3224 29.0396 42.0681 29.0171C41.8942 29.0013 41.6979 29.0869 41.4838 29.2738C41.3723 29.3706 41.3433 29.4315 41.292 29.535C41.2608 29.5981 41.2274 29.6702 41.1738 29.7467L40.8906 30.1656L40.449 29.9247C40.3977 29.8954 40.2015 29.8503 39.8982 29.8503H39.9004Z" fill="black"/>
<path d="M42.5475 35.4874C42.4047 35.4874 42.2598 35.4311 42.1505 35.3207C41.2852 34.4379 38.1519 21.9973 36.8472 16.6913C36.7736 16.3895 36.9543 16.0832 37.2531 16.0089C37.552 15.9323 37.8552 16.117 37.9288 16.4188C39.5368 22.9544 42.32 33.6384 42.9578 34.5438C43.1607 34.7645 43.1541 35.1113 42.94 35.3253C42.8307 35.4334 42.6902 35.4874 42.5475 35.4874ZM42.9444 34.528L42.9533 34.537C42.9533 34.537 42.9467 34.5303 42.9444 34.528Z" fill="black"/>
<path d="M50.9709 24.8259C50.342 25.175 49.4677 25.202 48.9905 24.8079C48.8567 24.9678 48.5333 25.1457 48.3371 25.2515C47.5387 25.6974 46.8696 25.3371 46.4771 24.6142C46.1337 23.9836 46.4459 23.2697 47.0347 22.7765C46.7202 22.531 46.4414 22.076 46.5083 21.7067C46.6109 21.1302 47.251 20.7653 47.9423 20.8892C48.1988 20.9365 48.5066 20.9748 48.6872 21.1189C48.8121 20.9905 49.2715 20.7045 49.4454 20.6279C50.0097 20.3757 50.7947 20.6054 51.1671 21.2901C51.3232 21.5806 51.2652 22.0265 51.1849 22.3486C51.3634 22.4679 51.5998 22.5152 51.709 22.7089C52.1015 23.4318 51.7737 24.38 50.9731 24.8259H50.9709Z" fill="#F8A629"/>
<path d="M47.6545 26.0105C47.5006 26.0105 47.3468 25.988 47.1973 25.9452C46.7067 25.8011 46.2897 25.4362 45.9886 24.8845C45.6229 24.2134 45.7366 23.4229 46.2651 22.763C46.0354 22.4297 45.886 22.013 45.9574 21.6077C46.0354 21.1662 46.3164 20.7789 46.729 20.5447C47.1126 20.3262 47.5765 20.2519 48.0381 20.3352L48.1229 20.351C48.2767 20.378 48.4507 20.4073 48.6202 20.4636C48.841 20.3127 49.093 20.1686 49.2201 20.1123C50.0965 19.7226 51.167 20.119 51.6554 21.0176C51.8249 21.3307 51.845 21.7045 51.807 22.0423C51.9431 22.1256 52.0903 22.2428 52.1951 22.4319C52.7392 23.4296 52.3111 24.7223 51.2428 25.3169C50.6228 25.6615 49.7397 25.7943 49.0439 25.488C48.9034 25.5826 48.7518 25.666 48.6068 25.7448C48.2946 25.9182 47.9734 26.0083 47.659 26.0083L47.6545 26.0105ZM47.6724 21.4297C47.5274 21.4297 47.3891 21.4635 47.2776 21.5266C47.2063 21.5671 47.0836 21.6572 47.0568 21.8058C47.039 21.9027 47.1661 22.1662 47.378 22.3328L47.9288 22.7652L47.3914 23.2134C47.0457 23.5017 46.7535 23.9499 46.9676 24.344C47.1193 24.6232 47.3111 24.8079 47.5096 24.8642C47.6724 24.9115 47.8619 24.8777 48.0716 24.7606C48.4373 24.5602 48.5421 24.4746 48.5711 24.4431L48.9279 24.0444L49.3472 24.3733C49.6215 24.6007 50.2571 24.5827 50.7053 24.3327C51.2227 24.0444 51.4569 23.4589 51.2361 23.0107C51.2094 22.995 51.1625 22.9724 51.1291 22.9567C51.0577 22.9206 50.9685 22.8779 50.8793 22.8193L50.547 22.5986L50.6451 22.209C50.7343 21.8531 50.7143 21.6257 50.6786 21.5604C50.4444 21.1325 49.9739 21.0109 49.6706 21.1437C49.539 21.2023 49.1643 21.441 49.084 21.5176L48.7339 21.8802L48.3436 21.5626C48.2834 21.5221 48.0582 21.4838 47.9377 21.4613L47.8463 21.4455C47.7883 21.4365 47.7326 21.4297 47.6768 21.4297H47.6724Z" fill="black"/>
<path d="M51.5038 31.4763C50.8749 31.8254 50.1434 31.7601 49.6684 31.366C49.5346 31.5259 49.3696 31.6632 49.1733 31.7691C48.3749 32.215 47.4048 31.9875 47.0101 31.2669C46.6666 30.6363 46.9789 29.9223 47.5676 29.4291C47.2532 29.1837 46.9744 28.7287 47.0413 28.3594C47.1439 27.7828 47.7839 27.418 48.4753 27.5419C48.7317 27.5892 49.073 27.6792 49.2536 27.8256C49.3785 27.6973 49.4365 27.5126 49.7554 27.3234C50.6987 26.7604 51.3276 27.2581 51.7023 27.9427C51.8584 28.2333 51.8004 28.6792 51.7201 29.0012C51.8985 29.1206 52.1349 29.1679 52.2442 29.3616C52.6367 30.0845 52.3089 31.0326 51.5083 31.4786L51.5038 31.4763Z" fill="#F8A629"/>
<path d="M48.3079 32.5596C48.1027 32.5596 47.8976 32.5326 47.7013 32.474C47.1884 32.3232 46.7691 31.9921 46.5216 31.5372C46.1558 30.866 46.2696 30.0756 46.7981 29.4157C46.5684 29.0824 46.419 28.6657 46.4903 28.2603C46.5684 27.8189 46.8494 27.4316 47.262 27.1974C47.6456 26.9789 48.1094 26.9046 48.5711 26.9879C48.7294 27.0172 48.9167 27.06 49.0996 27.123C49.1888 27.0307 49.307 26.9316 49.4676 26.837C49.9805 26.5307 50.4778 26.4429 50.9484 26.5713C51.4413 26.7064 51.8694 27.087 52.1861 27.6703C52.3556 27.9833 52.3757 28.3572 52.3378 28.695C52.4738 28.7783 52.621 28.8954 52.7258 29.0846C53.27 30.0823 52.8418 31.375 51.7735 31.9696C51.1246 32.3299 50.3596 32.3569 49.7397 32.0687C49.646 32.1407 49.5456 32.206 49.4386 32.2646C49.0885 32.4605 48.696 32.5596 48.3079 32.5596ZM48.2053 28.0802C48.0604 28.0802 47.9221 28.114 47.8106 28.177C47.7392 28.2176 47.6166 28.3076 47.5898 28.4563C47.572 28.5531 47.6991 28.8189 47.9109 28.9833L48.4618 29.4157L47.9243 29.8639C47.5787 30.1521 47.2865 30.6003 47.5006 30.9944C47.6054 31.1858 47.7861 31.3277 48.0135 31.393C48.299 31.4764 48.6246 31.4336 48.9056 31.2759C49.0394 31.2039 49.1531 31.1115 49.2468 30.9989L49.6014 30.58L50.0229 30.9291C50.3373 31.1881 50.8257 31.2106 51.2361 30.9809C51.7535 30.6926 51.9876 30.1071 51.7669 29.6589C51.7401 29.6431 51.6933 29.6206 51.6598 29.6026C51.5884 29.5688 51.4992 29.5238 51.41 29.4652L51.0777 29.2445L51.1759 28.8549C51.2651 28.4991 51.245 28.2739 51.2093 28.2063C51.0934 27.9923 50.9016 27.7221 50.6562 27.6523C50.489 27.605 50.2816 27.6568 50.0385 27.8009C49.9136 27.8752 49.8712 27.9315 49.8043 28.0239C49.762 28.0802 49.7174 28.1455 49.6527 28.2131L49.3025 28.5756L48.9078 28.2603C48.861 28.2221 48.6759 28.1432 48.377 28.0914C48.3191 28.0824 48.2633 28.0757 48.2076 28.0757L48.2053 28.0802Z" fill="black"/>
<path d="M50.0988 34.1248C49.9226 34.1248 49.7487 34.0392 49.6394 33.8816C48.9391 32.8591 48.0158 20.0581 47.6523 14.6013C47.6323 14.2905 47.8642 14.0225 48.172 14.0022C48.4797 13.9797 48.7451 14.2162 48.7652 14.527C49.2134 21.2473 50.101 32.2556 50.5694 33.26C50.7299 33.5145 50.663 33.8523 50.4155 34.0257C50.3196 34.0933 50.2081 34.1248 50.0988 34.1248ZM50.5582 33.242C50.5582 33.242 50.5627 33.2488 50.5649 33.251C50.5627 33.2465 50.5604 33.2443 50.5582 33.242Z" fill="black"/>
<path d="M62.5564 42.7077L52.4115 44.2234L43.9928 45.4801L36.3211 46.6241L35.5562 35.8343L42.4607 34.805L60.6274 32.0935L62.5564 42.7077Z" fill="#343738"/>
<path d="M35.8081 47.2704L34.9629 35.3545L61.0778 31.4584L63.2076 43.1806L35.8059 47.2704H35.8081ZM36.1493 36.3162L36.834 45.98L61.903 42.237L60.1746 32.7308L36.1471 36.3162H36.1493Z" fill="black"/>
<path d="M31.0578 61.5736H31.0533V61.238L30.4668 61.1434C30.4713 61.1119 30.4757 61.0826 30.4824 61.0511L30.5805 60.4475H31.7447L31.6019 61.1299C31.593 61.1682 31.5863 61.2042 31.5796 61.2425L31.5663 61.3213L31.0556 61.2403V61.5758L31.0578 61.5736Z" fill="black"/>
<path d="M69.8513 56.5311L31.6981 61.3574L30.9822 61.4474L31.0179 61.229C31.029 61.1547 31.0424 61.0826 31.058 61.0105H31.0535L31.6044 57.5963L32.1218 54.4006L33.3038 47.0745L36.3211 46.624L43.9928 45.48L52.4116 44.2233L62.5565 42.7076L64.403 42.4329L67.329 50.0045L68.5622 53.1934L69.7687 56.3149H69.7598C69.7911 56.3869 69.8223 56.459 69.8513 56.5311Z" fill="#343738"/>
<path d="M70.489 56.6009L70.1255 55.664L64.762 41.8113L32.8197 46.579L30.5873 60.4025L30.5026 60.9204V60.9407L30.4892 61.0083C30.4825 61.0511 30.4736 61.0961 30.4669 61.1389L30.3108 62.1005H30.3264L31.4682 61.9542L31.7648 61.9159L69.501 57.1437H69.5032L69.9203 57.0896L70.6406 56.9995L70.4867 56.6009H70.489ZM31.6734 60.7921L31.7448 60.4475H31.7091L33.7876 47.5722L64.0461 43.0567L69.0171 55.9208L68.9747 55.932L69.0372 56.0671H69.0349L46.5997 58.9071L31.6734 60.7943V60.7921Z" fill="black"/>
<path d="M69.9001 56.8622L69.8198 56.5491L69.3359 56.7428C69.3091 56.6775 69.2801 56.6122 69.2533 56.5491L68.9768 55.932L70.1053 55.655L70.3729 56.3307L69.8265 56.5491L69.9023 56.8644L69.9001 56.8622Z" fill="black"/>
<path d="M32.1217 54.4006L31.6043 57.5964L11.6445 62.283L12.3002 56.5784L32.1217 54.4006Z" fill="#343738"/>
<path d="M11 63.0127L11.7984 56.0671L32.7907 53.761L32.0949 58.0603L11 63.0127ZM12.8042 57.0896L12.2913 61.5533L31.1159 57.1324L31.4548 55.0402L12.8042 57.0896Z" fill="black"/>
<path d="M87.186 52.4796L68.5621 53.1935L67.3289 50.0045L85.0674 47.1488L87.186 52.4796Z" fill="#343738"/>
<path d="M68.1876 53.7701L66.5596 49.5564L85.4199 46.5205L88.0001 53.0111L68.1898 53.7701H68.1876ZM68.1006 50.4482L68.9369 52.6125L86.3744 51.9436L84.7174 47.7727L68.1006 50.4482Z" fill="black"/>
<path d="M40.8304 69.3186C38.6114 69.3186 36.5932 68.4201 35.4736 67.8075L36.0044 66.8188C38.3238 68.0912 42.6904 69.6294 45.8683 65.6477L46.7358 66.3549C44.9361 68.6092 42.8019 69.3209 40.8282 69.3209L40.8304 69.3186Z" fill="black"/>
<path d="M59.8514 69.1948C56.3389 69.1948 53.6382 66.2873 53.52 66.1589L54.3385 65.3954C54.3652 65.4247 57.0035 68.2534 60.1748 68.0597C62.0235 67.9448 63.7229 66.8165 65.2282 64.7063L66.1337 65.3639C64.4209 67.7624 62.4361 69.0484 60.235 69.1835C60.1056 69.1925 59.9763 69.1948 59.8492 69.1948H59.8514Z" fill="black"/>
<path d="M53.2477 74.1427C53.2477 74.1427 52.9043 73.1878 52.1572 72.9468C51.6666 72.7869 51.0622 72.9558 50.3619 73.449L49.7241 72.5257C50.7299 71.8185 51.6666 71.6023 52.5073 71.8793C53.783 72.3005 54.2781 73.7148 54.3004 73.7756L53.2455 74.1427L53.7718 73.9603L53.2455 74.1449L53.2477 74.1427Z" fill="black"/>
<path d="M64.3228 72.6945C64.0373 72.6945 63.7652 72.5616 63.5177 72.3004C63.036 71.7914 62.9735 70.7261 63.3326 69.1339C63.3906 68.8794 63.5913 68.6857 63.8455 68.6407C64.0998 68.5956 64.354 68.7038 64.4967 68.9222C65.1658 69.9492 65.3263 70.9018 65.3643 71.3793C65.3932 71.7441 65.2773 72.0977 65.0453 72.3544C64.7933 72.6337 64.519 72.6945 64.3339 72.6967H64.3228V72.6945Z" fill="black"/>
</g>
<defs>
<clipPath id="clip0_872_1687">
<rect width="77" height="72" fill="white" transform="translate(11 14)"/>
</clipPath>
</defs>
</svg>
