<svg width="100" height="100" viewBox="0 0 100 100" fill="none" xmlns="http://www.w3.org/2000/svg">
<path d="M50.226 18.8939C49.2046 19.2991 48.7185 18.7282 48.5267 18.5223C48.3728 18.6611 48.0851 18.8044 47.8777 18.885C47.028 19.223 46.0958 18.876 45.7948 18.1126C45.5338 17.4454 45.9308 16.7827 46.5775 16.373C46.2965 16.0909 46.078 15.6073 46.1895 15.2514C46.3634 14.6961 47.0459 14.4185 47.7127 14.6267C47.9624 14.7051 48.1743 14.8417 48.3349 15.0073C48.4754 14.8954 48.6337 14.8059 48.8099 14.7342C49.6596 14.3961 50.5784 14.7073 50.8616 15.4305C50.9798 15.7372 50.8661 16.1693 50.7457 16.476C50.9085 16.617 51.1359 16.6932 51.2207 16.8991C51.5195 17.6626 51.0757 18.5536 50.226 18.8917V18.8939Z" fill="#F8A629"/>
<path d="M49.5614 19.5969C49.1666 19.5969 48.8031 19.4738 48.4731 19.2275C48.3014 19.3193 48.1452 19.382 48.0783 19.4089C47.5119 19.635 46.8718 19.6305 46.3299 19.3954C45.8393 19.1827 45.4646 18.7999 45.2773 18.3208C44.9985 17.6111 45.2104 16.8477 45.8192 16.2633C45.6319 15.9051 45.5382 15.4775 45.6586 15.0857C45.924 14.2372 46.9209 13.7939 47.8821 14.0962C48.056 14.1499 48.2211 14.2283 48.3749 14.3245C48.4485 14.2865 48.5266 14.2506 48.6069 14.2171C49.1979 13.982 49.8468 13.982 50.391 14.2171C50.8549 14.4186 51.2095 14.7768 51.3856 15.2268C51.5128 15.5559 51.486 15.9275 51.4057 16.2566C51.5306 16.3551 51.6622 16.4917 51.7425 16.6909C52.155 17.7432 51.5685 18.9633 50.4356 19.4133C50.1323 19.5342 49.8401 19.5947 49.5658 19.5947L49.5614 19.5969ZM48.5578 17.7409L48.9548 18.1618C49.1377 18.3566 49.3874 18.6253 50.023 18.3745C50.5739 18.1551 50.8772 17.6066 50.7166 17.1387C50.6921 17.1208 50.6475 17.0917 50.6162 17.0715C50.5493 17.0268 50.4668 16.973 50.3843 16.9036L50.0832 16.6439L50.2304 16.2745C50.3642 15.9365 50.3732 15.7081 50.3442 15.6387C50.2594 15.4215 50.081 15.3074 49.945 15.2492C49.6707 15.1305 49.3339 15.135 49.0172 15.2603C48.8923 15.3118 48.7786 15.3768 48.6827 15.4529L48.288 15.7663L47.9378 15.4059C47.833 15.2984 47.697 15.2156 47.5476 15.1686C47.1796 15.0521 46.8005 15.1686 46.7224 15.426C46.6934 15.52 46.7849 15.7977 46.9744 15.9857L47.4673 16.4805L46.8785 16.8544C46.4994 17.0939 46.1537 17.4992 46.3165 17.9156C46.3968 18.1171 46.5596 18.2805 46.7759 18.3745C47.048 18.4932 47.3758 18.4909 47.6747 18.3745C47.891 18.2895 48.0873 18.1775 48.1542 18.1171L48.5578 17.7499V17.7409Z" fill="black"/>
<path d="M46.8386 65.2865C45.0388 67.5276 42.9068 68.235 40.9309 68.235C38.7119 68.235 36.6937 67.3417 35.5741 66.7328C35.5674 66.7283 35.5607 66.7238 35.5541 66.7194C35.2998 66.5671 35.2084 66.238 35.3511 65.9738C35.4983 65.7052 35.8306 65.6 36.1027 65.7455C36.1049 65.7455 36.1049 65.7477 36.1071 65.7477C38.4265 67.0126 42.7931 68.5417 45.971 64.5835C46.1651 64.344 46.5152 64.3059 46.756 64.5007C46.9947 64.6932 47.0326 65.047 46.8386 65.2865Z" fill="black"/>
<path d="M36.33 66.5045C36.2297 66.6925 36.0356 66.7977 35.8394 66.7977C35.748 66.7977 35.6588 66.7776 35.574 66.7306C35.5673 66.7261 35.5606 66.7239 35.5539 66.7194C34.7399 66.2783 34.2448 65.9067 34.2248 65.891C33.9772 65.7052 33.9282 65.356 34.1133 65.1074C34.2984 64.8612 34.6463 64.8119 34.8938 64.9955C34.8983 65 35.3577 65.3425 36.1026 65.7455C36.1048 65.7455 36.1048 65.7477 36.107 65.7477C36.3769 65.8977 36.475 66.2336 36.33 66.5045Z" fill="black"/>
<path d="M72.0234 59.3448C71.8539 59.2911 71.6822 59.2441 71.506 59.2083C71.4458 59.1948 71.3878 59.1836 71.3276 59.1725C71.2005 59.1501 71.0711 59.1322 70.9351 59.121L70.1389 59.0493L70.2504 59.4635C70.275 59.5598 70.3017 59.6538 70.3262 59.7501C70.3329 59.7747 70.3396 59.7971 70.3463 59.8217C70.3575 59.8598 70.3664 59.8956 70.3753 59.9314C70.382 59.9538 70.3887 59.9762 70.3932 60.0008C70.4065 60.0523 70.4177 60.106 70.4311 60.1598C70.8124 61.7157 71.0064 63.3232 71.0064 64.9351C71.0064 65.7568 70.9574 66.5762 70.857 67.3866C70.828 67.6284 70.7946 67.8702 70.7544 68.112C70.7143 68.3538 70.6719 68.5911 70.6251 68.8307L70.5894 69.0098L70.469 69.6187L71.2607 69.4911C71.39 69.471 71.5171 69.4441 71.6443 69.415C73.9837 68.8598 75.6451 66.7799 75.6451 64.3262C75.6451 62.0426 74.1487 60.0254 72.0234 59.3448ZM71.874 68.1792C71.8784 68.1545 71.8807 68.1277 71.8851 68.103C71.9052 67.9687 71.9253 67.8322 71.9409 67.6978C71.9565 67.5904 71.9699 67.4829 71.981 67.3754C71.9966 67.2411 72.01 67.1045 72.0234 66.9702C72.0368 66.8359 72.0501 66.7016 72.0591 66.565C72.0702 66.4284 72.0791 66.2941 72.0858 66.1575C72.0925 66.0501 72.097 65.9426 72.1014 65.8329C72.1059 65.7478 72.1104 65.6605 72.1104 65.5732C72.1193 65.3605 72.1215 65.1478 72.1215 64.9351C72.1215 64.7762 72.1193 64.615 72.1148 64.456C72.1104 64.2254 72.1014 63.9948 72.0881 63.7642C72.0814 63.6232 72.0724 63.4844 72.0613 63.3433C72.0568 63.2807 72.0524 63.218 72.0457 63.1553C72.0345 63.0075 72.0212 62.8575 72.0055 62.7098C72.0011 62.6717 71.9966 62.6359 71.9922 62.6001C71.9743 62.4254 71.952 62.253 71.9297 62.0784C71.903 61.8904 71.8762 61.7023 71.845 61.5142C71.8137 61.3262 71.7803 61.1381 71.7446 60.9523C71.7089 60.7665 71.671 60.5807 71.6309 60.3948C73.3302 60.9142 74.5301 62.5127 74.5301 64.3262C74.5301 66.1396 73.4507 67.5904 71.874 68.1792Z" fill="black"/>
<path d="M74.53 64.3262C74.53 66.0792 73.4507 67.5904 71.8739 68.1792C71.8784 68.1546 71.8806 68.1277 71.8851 68.1031C71.9052 67.9688 71.9252 67.8322 71.9409 67.6979C71.9565 67.5904 71.9698 67.483 71.981 67.3755C71.9966 67.2412 72.01 67.1046 72.0234 66.9703C72.0367 66.8359 72.0501 66.7016 72.059 66.565C72.0702 66.4285 72.0791 66.2942 72.0858 66.1576C72.0925 66.0501 72.097 65.9427 72.1014 65.833C72.1059 65.7479 72.1103 65.6606 72.1103 65.5733C72.1193 65.3606 72.1215 65.1479 72.1215 64.9352C72.1215 64.7762 72.1193 64.615 72.1148 64.4561C72.1103 64.2255 72.1014 63.9949 72.088 63.7643C72.0814 63.6233 72.0724 63.4844 72.0613 63.3434C72.0568 63.2807 72.0524 63.218 72.0457 63.1553C72.0345 63.0076 72.0211 62.8576 72.0055 62.7098C72.0011 62.6718 71.9966 62.6359 71.9921 62.6001C71.9743 62.4255 71.952 62.2531 71.9297 62.0785C71.9029 61.8904 71.8762 61.7024 71.845 61.5143C71.8137 61.3262 71.7803 61.1382 71.7446 60.9524C71.7089 60.7665 71.671 60.5807 71.6309 60.3949C73.3302 60.9143 74.53 62.5128 74.53 64.3262Z" fill="white"/>
<path d="M66.2361 64.3038C64.5234 66.6903 62.5385 67.9664 60.3374 68.1008C60.208 68.1097 60.0787 68.112 59.9516 68.112C56.4391 68.112 53.7384 65.2217 53.6202 65.0941C53.4128 64.8679 53.4262 64.5142 53.6514 64.3038C53.8789 64.0955 54.2313 64.109 54.4409 64.3351C54.4766 64.3754 57.1104 67.1761 60.2772 66.9836C62.1237 66.8672 63.8253 65.7478 65.3307 63.65C65.5113 63.3993 65.8592 63.3433 66.109 63.5224C66.3588 63.7038 66.4145 64.053 66.2361 64.3038Z" fill="black"/>
<path d="M32.9804 73.0463C32.8376 72.7262 32.7038 72.4015 32.5789 72.0769C32.5321 71.9538 32.4875 71.8329 32.4429 71.7097C32.3537 71.4657 32.2689 71.2194 32.1931 70.9732C32.1552 70.85 32.1173 70.7247 32.0794 70.5993C31.5397 68.7724 31.2676 66.8762 31.2676 64.9351V64.8568C31.2676 64.7359 31.2698 64.6172 31.2721 64.4985C31.2765 64.3799 31.2788 64.2612 31.2832 64.1426L31.2944 63.9254C31.2988 63.8493 31.3011 63.7754 31.3055 63.7015L31.3189 63.3926L30.5919 63.5739C30.4558 63.6075 30.3198 63.6478 30.1882 63.6948C29.9407 63.7754 29.7021 63.8762 29.4768 63.9948C29.3541 64.0575 29.2337 64.1269 29.1178 64.1985C27.5812 65.1456 26.6445 66.8157 26.6445 68.6471C26.6445 71.5306 28.9795 73.8747 31.8519 73.8747C31.9456 73.8747 32.037 73.8724 32.1284 73.868C32.2712 73.859 32.4117 73.8478 32.5477 73.8277L33.2792 73.7224L32.9804 73.0463ZM27.7596 68.6471C27.7596 67.0978 28.6115 65.6963 29.9875 64.9888C30.041 64.962 30.0968 64.9351 30.1525 64.9083V64.9351C30.1525 65.1053 30.1548 65.2732 30.1592 65.4411C30.1592 65.515 30.1615 65.5888 30.1659 65.6627C30.1682 65.7926 30.1748 65.9202 30.1815 66.0478C30.1882 66.2112 30.1994 66.3724 30.2128 66.5336C30.2128 66.5941 30.2217 66.6545 30.2284 66.715C30.2351 66.8314 30.2462 66.9478 30.2596 67.0642C30.2663 67.1471 30.2752 67.2277 30.2841 67.3105C30.2953 67.4157 30.3086 67.5209 30.322 67.6262C30.3243 67.6597 30.3309 67.6956 30.3354 67.7314C30.3555 67.8859 30.3778 68.0426 30.4023 68.1971C30.4202 68.3247 30.4425 68.4545 30.467 68.5844C30.4804 68.6784 30.4982 68.7724 30.5161 68.8665C30.5785 69.1978 30.6476 69.5291 30.7279 69.8583C30.7703 70.0351 30.8149 70.2097 30.8595 70.3844C30.9197 70.6083 30.9822 70.8299 31.0491 71.0493C31.0847 71.1657 31.1204 71.2844 31.1583 71.4008C31.2052 71.5463 31.2542 71.6918 31.3055 71.8374C31.3345 71.9247 31.3657 72.012 31.3992 72.0993C31.4416 72.2224 31.4862 72.3433 31.533 72.4642C31.5375 72.4777 31.5441 72.4911 31.5486 72.5045C31.5798 72.5874 31.6111 72.6702 31.6445 72.7508C29.4835 72.6411 27.7596 70.8433 27.7596 68.6471Z" fill="black"/>
<path d="M31.6444 72.7508C29.4834 72.6411 27.7595 70.8434 27.7595 68.6471C27.7595 67.0978 28.6114 65.6963 29.9874 64.9889C30.041 64.962 30.0967 64.9351 30.1525 64.9105V64.9351C30.1525 65.1053 30.1547 65.2732 30.1592 65.4411C30.1592 65.515 30.1614 65.5889 30.1658 65.6628C30.1681 65.7926 30.1748 65.9202 30.1815 66.0478C30.1881 66.2113 30.1993 66.3725 30.2127 66.5337C30.2127 66.5941 30.2216 66.6546 30.2283 66.715C30.235 66.8314 30.2461 66.9478 30.2595 67.0643C30.2662 67.1471 30.2751 67.2277 30.284 67.3105C30.2952 67.4157 30.3086 67.521 30.322 67.6262C30.3242 67.6598 30.3309 67.6956 30.3353 67.7314C30.3554 67.8859 30.3777 68.0426 30.4022 68.1971C30.4201 68.3247 30.4424 68.4546 30.4669 68.5844C30.4803 68.6784 30.4981 68.7725 30.516 68.8665C30.5784 69.1978 30.6476 69.5292 30.7278 69.8583C30.7702 70.0352 30.8148 70.2098 30.8594 70.3844C30.9196 70.6083 30.9821 70.8299 31.049 71.0493C31.0847 71.1657 31.1203 71.2844 31.1583 71.4008C31.2051 71.5463 31.2541 71.6919 31.3054 71.8374C31.3344 71.9247 31.3657 72.012 31.3991 72.0993C31.4415 72.2225 31.4861 72.3434 31.5329 72.4643C31.5374 72.4777 31.5441 72.4911 31.5485 72.5046C31.5797 72.5874 31.611 72.6702 31.6444 72.7508Z" fill="white"/>
<path d="M31.7448 60.5985L31.6735 60.941L31.6445 61.0753L31.6021 61.2791C31.591 61.3395 31.5776 61.3977 31.5687 61.4604L31.5597 61.5208L31.533 61.6843C31.5107 61.8209 31.4884 61.9574 31.4705 62.0962C31.4638 62.141 31.4571 62.1858 31.4505 62.2328C31.4326 62.3582 31.417 62.4835 31.4036 62.6067C31.3858 62.7611 31.3679 62.9134 31.3546 63.0679C31.3501 63.1171 31.3456 63.1686 31.3412 63.2201C31.33 63.3455 31.3211 63.4708 31.3122 63.5962C31.31 63.632 31.3077 63.6656 31.3055 63.7014C31.301 63.7753 31.2988 63.8492 31.2943 63.9253C31.2899 63.9947 31.2877 64.0664 31.2854 64.138C31.281 64.2589 31.2765 64.3776 31.272 64.4985V64.5589L30.8617 64.6597C30.6164 64.7201 30.3778 64.8052 30.1525 64.9082C30.0968 64.935 30.041 64.9619 29.9875 64.9888L29.4812 65.2529L29.2292 64.738C29.1467 64.5679 29.1088 64.382 29.1177 64.1985C29.1155 64.1761 29.1177 64.1559 29.12 64.1335L29.3519 61.5768C29.4054 60.9567 29.9496 60.5 30.5673 60.5514H30.5874L31.0803 60.5985H31.7448Z" fill="#F8A629"/>
<path d="M69.9226 57.2605L69.5056 57.3142H69.5034L31.7672 62.0582L31.698 61.503L31.6445 61.0754L31.6289 60.9478L31.6735 60.9433V60.9411L69.035 56.2441H69.0373L69.6439 56.1679L69.7821 56.15L69.8513 56.7052L69.9226 57.2605Z" fill="black"/>
<path d="M71.8607 60.0522L71.6533 60.3858L71.6287 60.3814L71.2697 60.303C71.1292 60.2717 70.9887 60.2493 70.837 60.2358L70.4467 60.2022L70.3932 60.0008C70.3888 59.9761 70.3821 59.9537 70.3754 59.9314C70.3665 59.8955 70.3575 59.8597 70.3486 59.8261H70.3464V59.8216C70.3397 59.797 70.333 59.7746 70.3263 59.75C70.2773 59.5597 70.2237 59.3717 70.168 59.1836C70.0476 58.7806 69.9137 58.3799 69.7688 57.9881C69.7242 57.8694 69.6796 57.7508 69.6327 57.6321C69.6327 57.6276 69.6327 57.6231 69.6283 57.6187C69.5859 57.5157 69.5458 57.4149 69.5034 57.3142C69.4499 57.1866 69.3964 57.059 69.3406 56.9313C69.3183 56.8754 69.296 56.8239 69.2759 56.7769C69.267 56.759 69.2603 56.7411 69.2514 56.7231L69.0373 56.2463H69.0351L68.9749 56.1097L69.0172 56.0985L69.5658 55.9664L69.6528 55.944L70.1256 55.8433H70.1345C70.3888 55.7896 70.6497 55.8231 70.8749 55.9396C71.1738 56.0896 71.3901 56.3694 71.4637 56.7008L72.0056 59.2261C72.0123 59.2642 72.019 59.3045 72.0235 59.3448C72.0502 59.5911 71.9945 59.8396 71.8607 60.0522Z" fill="#F8A629"/>
<path d="M72.1149 64.456C72.1104 64.2254 72.1015 63.9948 72.0881 63.7642C72.0814 63.6231 72.0725 63.4843 72.0614 63.3433C72.0569 63.2806 72.0524 63.2179 72.0457 63.1552C72.0346 63.0075 72.0212 62.8575 72.0056 62.7097C72.0011 62.6716 71.9967 62.6358 71.9922 62.6C71.9744 62.4254 71.9521 62.253 71.9298 62.0784C71.903 61.8903 71.8763 61.7022 71.845 61.5142C71.8138 61.3261 71.7804 61.1381 71.7447 60.9522C71.709 60.7664 71.6711 60.5806 71.6309 60.3948C71.6309 60.3903 71.6309 60.3858 71.6287 60.3813C71.593 60.2202 71.5573 60.059 71.5172 59.9C71.4882 59.7769 71.457 59.656 71.4258 59.5373C71.3945 59.4164 71.3611 59.2933 71.3276 59.1724C71.0957 58.353 70.8125 57.547 70.4891 56.7746C70.4467 56.6739 70.4044 56.5776 70.362 56.4791L70.1947 56.0985L69.7822 56.15L69.6439 56.1679L69.122 56.2351L69.0373 56.2463L46.5999 59.0672L31.6735 60.941L31.6289 60.9478L31.0759 61.0172L30.5005 61.0888L30.4893 61.156L30.4336 61.503C30.3934 61.7493 30.3578 61.9933 30.3265 62.2396C30.2619 62.7254 30.2173 63.2134 30.1883 63.6948C30.1816 63.8269 30.1749 63.959 30.1704 64.0911C30.1593 64.3418 30.1548 64.5925 30.1526 64.85V64.9351C30.1526 65.1052 30.1548 65.2731 30.1593 65.4411C30.1593 65.5149 30.1615 65.5888 30.166 65.6627C30.1682 65.7925 30.1749 65.9202 30.1816 66.0478C30.1883 66.2112 30.1994 66.3724 30.2128 66.5336C30.2128 66.594 30.2217 66.6545 30.2284 66.7149C30.2351 66.8313 30.2463 66.9478 30.2596 67.0642C30.2663 67.147 30.2752 67.2276 30.2842 67.3105C30.2953 67.4157 30.3087 67.5209 30.3221 67.6261C30.3243 67.6597 30.331 67.6955 30.3355 67.7313C30.3555 67.8858 30.3778 68.0425 30.4024 68.197C30.4202 68.3246 30.4425 68.4545 30.467 68.5843C30.4804 68.6784 30.4983 68.7724 30.5161 68.8664C30.5785 69.1978 30.6477 69.5291 30.728 69.8582C30.7703 70.0351 30.8149 70.2097 30.8595 70.3843C30.9198 70.6082 30.9822 70.8299 31.0491 71.0493C31.0848 71.1657 31.1205 71.2843 31.1584 71.4008C31.2052 71.5463 31.2543 71.6918 31.3056 71.8373C31.3346 71.9246 31.3658 72.0119 31.3992 72.0993C31.4416 72.2224 31.4862 72.3433 31.533 72.4642C31.5375 72.4776 31.5442 72.4911 31.5487 72.5045C31.678 72.8381 31.814 73.1716 31.9612 73.5007C32.017 73.6239 32.0705 73.747 32.1285 73.8679C35.5763 81.2537 42.9937 86 51.1382 86C61.0043 86 69.5703 79.0485 71.6443 69.4149C71.6711 69.294 71.6956 69.1709 71.7201 69.0478C71.7781 68.759 71.8294 68.4702 71.874 68.1791C71.8785 68.1545 71.8807 68.1276 71.8852 68.103C71.9052 67.9687 71.9253 67.8321 71.9409 67.6978C71.9565 67.5903 71.9699 67.4828 71.9811 67.3754C71.9967 67.241 72.0101 67.1045 72.0234 66.9702C72.0368 66.8358 72.0502 66.7015 72.0591 66.5649C72.0703 66.4284 72.0792 66.294 72.0859 66.1575C72.0926 66.05 72.097 65.9425 72.1015 65.8328C72.106 65.7478 72.1104 65.6605 72.1104 65.5731C72.1193 65.3605 72.1216 65.1478 72.1216 64.9351C72.1216 64.7761 72.1193 64.6149 72.1149 64.456ZM51.1382 84.8806C43.2993 84.8806 36.1717 80.2351 32.9804 73.0463C32.8377 72.7261 32.7039 72.4015 32.579 72.0769C32.5321 71.9537 32.4875 71.8328 32.4429 71.7097C32.356 71.4657 32.2735 71.2194 32.1932 70.9731C32.1553 70.85 32.1173 70.7246 32.0794 70.5993C31.5397 68.7724 31.2677 66.8761 31.2677 64.9351V64.8567C31.2677 64.7358 31.2699 64.6172 31.2721 64.4985C31.2766 64.3776 31.281 64.259 31.2855 64.1381C31.2855 64.0664 31.29 63.9948 31.2944 63.9254C31.2989 63.8493 31.3011 63.7754 31.3056 63.7015C31.3078 63.6657 31.31 63.6321 31.3123 63.5963C31.3212 63.4709 31.3301 63.3455 31.3413 63.2202C31.3457 63.1687 31.3502 63.1172 31.3546 63.0679C31.368 62.9134 31.3859 62.7612 31.4037 62.6067C31.4171 62.4836 31.4327 62.3582 31.4505 62.2328C31.455 62.1881 31.4617 62.141 31.4684 62.0963L31.765 62.0582L69.5012 57.3142H69.5034C69.5458 57.4149 69.5859 57.5157 69.626 57.6187C69.6283 57.6231 69.6283 57.6276 69.6305 57.6321C69.6773 57.7508 69.7219 57.8694 69.7665 57.9881C69.9115 58.3799 70.0453 58.7806 70.1657 59.1836C70.1925 59.2776 70.2215 59.3694 70.2483 59.4634C70.2728 59.5597 70.2995 59.6537 70.3241 59.75C70.3308 59.7746 70.3375 59.797 70.3442 59.8216C70.3442 59.8216 70.3464 59.8239 70.3464 59.8261C70.3553 59.8597 70.3642 59.8955 70.3731 59.9313C70.3798 59.9537 70.3865 59.9761 70.391 60.0008C70.4044 60.0522 70.4155 60.106 70.4289 60.1597C70.8102 61.7157 71.0043 63.3231 71.0043 64.9351C71.0043 65.7567 70.9552 66.5761 70.8549 67.3866C70.8259 67.6284 70.7924 67.8702 70.7523 68.1119C70.7143 68.3537 70.672 68.5911 70.6251 68.8306C70.614 68.8911 70.6006 68.9493 70.5872 69.0097C68.6872 78.2179 60.536 84.8806 51.136 84.8806H51.1382Z" fill="black"/>
<path d="M70.431 60.1597C70.4177 60.106 70.4065 60.0523 70.3931 60.0008C70.3887 59.9761 70.382 59.9538 70.3753 59.9314C70.3664 59.8956 70.3574 59.8597 70.3463 59.8239C70.3396 59.797 70.3329 59.7747 70.3262 59.75C70.2772 59.5597 70.2236 59.3717 70.1679 59.1836C70.0475 58.7806 69.9137 58.3799 69.7687 57.9881C69.7241 57.8694 69.6795 57.7508 69.6327 57.6321C69.6327 57.6276 69.6327 57.6232 69.6282 57.6187C69.5858 57.5157 69.5457 57.415 69.5033 57.3142L31.7671 62.0582L31.4705 62.0963C31.4638 62.1411 31.4571 62.1859 31.4504 62.2329C31.4326 62.3582 31.417 62.4836 31.4036 62.6067C31.3858 62.7612 31.3679 62.9135 31.3546 63.0679C31.3501 63.1172 31.3456 63.1687 31.3412 63.2202C31.33 63.3456 31.3211 63.4709 31.3122 63.5963C31.31 63.6321 31.3077 63.6657 31.3055 63.7015C31.2988 63.847 31.2899 63.9926 31.2854 64.1381C31.281 64.259 31.2765 64.3776 31.272 64.4985C31.2698 64.6172 31.2676 64.7359 31.2676 64.8567V64.9351C31.2676 66.8761 31.5397 68.7724 32.0793 70.5993C32.2265 71.0963 32.3938 71.5888 32.5789 72.0769C32.7038 72.4015 32.8376 72.7261 32.9803 73.0463C36.1717 80.2351 43.2992 84.8806 51.1381 84.8806C60.5382 84.8806 68.6893 78.2179 70.5894 69.0097L70.6251 68.8306C70.7187 68.3538 70.7968 67.8724 70.857 67.3866C70.9574 66.5761 71.0064 65.7567 71.0064 64.9351C71.0064 63.3232 70.8124 61.7157 70.431 60.1597ZM46.8384 65.2866C45.0387 67.5276 42.9067 68.2351 40.9308 68.2351C38.7118 68.2351 36.6935 67.3418 35.574 66.7329C35.5673 66.7284 35.5606 66.7239 35.5539 66.7194C34.7399 66.2784 34.2448 65.9067 34.2247 65.8911C33.9772 65.7053 33.9281 65.356 34.1132 65.1075C34.2983 64.8612 34.6462 64.812 34.8938 64.9956C34.8982 65 35.3577 65.3426 36.1025 65.7456C36.1047 65.7456 36.1048 65.7478 36.107 65.7478C38.4263 67.0127 42.7929 68.5418 45.9709 64.5836C46.1649 64.3441 46.515 64.306 46.7559 64.5008C46.9945 64.6933 47.0324 65.047 46.8384 65.2866ZM52.4851 72.6254C51.7849 73.0642 51.127 73.2858 50.5204 73.2858C50.226 73.2858 49.9428 73.2344 49.6729 73.1314C48.4196 72.6478 47.9936 71.2194 47.9758 71.159C47.891 70.8612 48.0605 70.5523 48.3571 70.465C48.6537 70.3799 48.9615 70.55 49.0462 70.8456C49.0529 70.8657 49.3473 71.8105 50.0766 72.0859C50.5583 72.2694 51.1693 72.1306 51.8941 71.6761C52.1551 71.5127 52.4985 71.5933 52.6635 71.8553C52.8263 72.1172 52.746 72.462 52.4851 72.6254ZM66.2362 64.3038C64.5234 66.6903 62.5386 67.9664 60.3374 68.1008C60.2081 68.1097 60.0787 68.112 59.9516 68.112C56.4392 68.112 53.7385 65.2217 53.6203 65.0941C53.4129 64.8679 53.4262 64.5142 53.6515 64.3038C53.879 64.0956 54.2313 64.109 54.441 64.3351C54.4766 64.3754 57.1104 67.1761 60.2772 66.9836C62.1238 66.8672 63.8254 65.7478 65.3307 63.65C65.5114 63.3993 65.8593 63.3433 66.109 63.5224C66.3588 63.7038 66.4146 64.053 66.2362 64.3038Z" fill="white"/>
<path d="M52.4853 72.6253C51.785 73.0642 51.1271 73.2858 50.5205 73.2858C50.2261 73.2858 49.9429 73.2343 49.6731 73.1313C48.4197 72.6477 47.9938 71.2194 47.9759 71.1589C47.8912 70.8612 48.0607 70.5522 48.3573 70.4649C48.6539 70.3798 48.9616 70.55 49.0464 70.8455C49.0531 70.8657 49.3475 71.8104 50.0767 72.0858C50.5584 72.2694 51.1695 72.1306 51.8943 71.6761C52.1552 71.5127 52.4986 71.5933 52.6637 71.8552C52.8265 72.1171 52.7462 72.4619 52.4853 72.6253Z" fill="black"/>
<path d="M39.9251 20.3671C38.9906 20.9447 38.4108 20.4678 38.1878 20.2999C38.0607 20.4633 37.802 20.6559 37.6124 20.7723C36.8363 21.2559 35.8551 21.0768 35.4269 20.3783C35.0522 19.7693 35.3287 19.0439 35.8952 18.5268C35.5696 18.2984 35.2685 17.8619 35.3154 17.4902C35.389 16.9126 36.0134 16.5186 36.707 16.6081C36.9657 16.6417 37.1976 16.738 37.3849 16.8745C37.5031 16.7402 37.6436 16.6238 37.8042 16.523C38.5803 16.0395 39.5392 16.185 39.9451 16.8477C40.1169 17.1298 40.0789 17.573 40.0143 17.8977C40.1971 18.0074 40.438 18.041 40.554 18.2313C40.9822 18.9298 40.7012 19.8857 39.9228 20.3693L39.9251 20.3671Z" fill="#F8A629"/>
<path d="M36.6757 21.6052C36.5084 21.6052 36.3412 21.5873 36.1761 21.547C35.6565 21.4239 35.2216 21.1127 34.9518 20.6739C34.5526 20.0246 34.6307 19.2343 35.1257 18.5537C34.8804 18.2336 34.7109 17.8283 34.7622 17.4231C34.8737 16.541 35.7792 15.9298 36.7783 16.0574C36.9589 16.0798 37.1351 16.1268 37.3024 16.1963C37.3693 16.1448 37.4384 16.0955 37.512 16.0507C38.0517 15.7149 38.6917 15.6007 39.2693 15.7373C39.7622 15.8537 40.1726 16.1448 40.4246 16.5567C40.6074 16.8589 40.6453 17.2306 40.6253 17.5686C40.7658 17.6425 40.9174 17.7545 41.0312 17.938C41.6221 18.9007 41.2564 20.206 40.2194 20.8485C39.5437 21.2671 38.8858 21.3209 38.2591 21.0074C38.1074 21.1283 37.9647 21.2179 37.9023 21.256C37.5298 21.4865 37.1016 21.6074 36.6757 21.6097V21.6052ZM36.5129 17.1589C36.1806 17.1589 35.8996 17.3291 35.8706 17.5642C35.8572 17.6627 35.9977 17.9179 36.2163 18.0701L36.7872 18.4709L36.272 18.941C35.9397 19.2433 35.6699 19.7045 35.9041 20.0851C36.0178 20.2709 36.2051 20.4007 36.4348 20.4567C36.7248 20.5261 37.0459 20.4657 37.3202 20.2977C37.5187 20.1768 37.6926 20.0313 37.7484 19.9597L38.0829 19.5254L38.5468 19.8701C38.7609 20.0313 39.053 20.2507 39.6351 19.8903C40.1391 19.5791 40.342 18.9836 40.1012 18.5515C40.0744 18.538 40.0254 18.5157 39.9919 18.5022C39.9183 18.4709 39.8269 18.4328 39.7354 18.3768L39.3942 18.1731L39.4745 17.7813C39.5481 17.4254 39.5147 17.1992 39.4745 17.1343C39.3541 16.9373 39.1578 16.8545 39.0129 16.8209C38.723 16.7515 38.3907 16.8164 38.1008 16.9955C37.9848 17.0671 37.8844 17.1522 37.8041 17.244L37.4719 17.6201L37.0637 17.3268C36.9411 17.2373 36.7939 17.1813 36.6378 17.1612C36.5954 17.1567 36.5553 17.1522 36.5129 17.1522V17.1589Z" fill="black"/>
<path d="M41.8896 26.5239C41.3321 26.9762 40.4757 27.1575 39.9383 26.8553C39.8335 27.0344 39.5458 27.2672 39.3718 27.406C38.6626 27.9836 37.9423 27.7463 37.4294 27.1083C36.9811 26.5508 37.164 25.7963 37.6591 25.212C37.3067 25.0262 36.9543 24.6321 36.9543 24.2583C36.9543 23.6762 37.523 23.206 38.2233 23.206C38.4842 23.206 38.7942 23.1904 38.9972 23.3001C39.0975 23.1523 39.4989 22.7918 39.6573 22.6844C40.1702 22.3396 40.982 22.4247 41.4681 23.0292C41.6733 23.2866 41.6934 23.7321 41.6689 24.0612C41.8651 24.1463 42.106 24.1508 42.2465 24.3232C42.7594 24.9612 42.6011 25.9463 41.8896 26.5239Z" fill="#F8A629"/>
<path d="M38.5399 28.2927C38.4819 28.2927 38.4262 28.2904 38.3682 28.2837C37.8597 28.23 37.3847 27.9456 36.9944 27.4598C36.5172 26.8665 36.4926 26.074 36.8985 25.3352C36.6131 25.0486 36.3967 24.668 36.3967 24.2583C36.3967 23.3695 37.2152 22.6464 38.2232 22.6464H38.308C38.4641 22.6441 38.6402 22.6441 38.8187 22.6688C39.0105 22.483 39.2335 22.2971 39.3472 22.221C40.1434 21.6837 41.2651 21.8852 41.9029 22.6777C42.1237 22.9553 42.2085 23.318 42.2285 23.6561C42.378 23.7121 42.543 23.8038 42.679 23.9695C43.386 24.8494 43.1897 26.1904 42.2419 26.9606C41.6933 27.4061 40.8436 27.6927 40.1054 27.5158C39.9939 27.621 39.8668 27.7285 39.7196 27.8449C39.3561 28.1404 38.9525 28.2949 38.5421 28.2949L38.5399 28.2927ZM38.3905 23.7636C38.3615 23.7636 38.337 23.7636 38.3146 23.7636H38.2232C37.8441 23.7636 37.5118 23.9941 37.5118 24.2561C37.5118 24.3546 37.6835 24.5897 37.9177 24.715L38.5354 25.0397L38.0849 25.5725C37.795 25.915 37.5832 26.4053 37.8642 26.7546C38.0626 27.0009 38.2834 27.1486 38.4864 27.1688C38.6559 27.1867 38.8343 27.1195 39.0216 26.9673C39.3472 26.7076 39.4342 26.6046 39.4587 26.5665L39.7397 26.1143L40.2103 26.3628C40.5203 26.5374 41.1425 26.4076 41.5394 26.0852C41.9988 25.7113 42.126 25.0956 41.8338 24.6971C41.8048 24.6859 41.7535 24.6725 41.7178 24.6613C41.642 24.6389 41.5461 24.6143 41.448 24.5695L41.0823 24.4106L41.1112 24.0121C41.138 23.6494 41.0778 23.43 41.031 23.3718C40.7277 22.9934 40.2415 22.9576 39.9672 23.1434C39.8468 23.224 39.5212 23.5218 39.4542 23.6136L39.171 24.03L38.7317 23.7882C38.6782 23.7636 38.5154 23.7613 38.3905 23.7613V23.7636Z" fill="black"/>
<path d="M43.5691 32.9402C43.0115 33.3924 42.2801 33.4574 41.7426 33.1551C41.6378 33.3342 41.4995 33.4977 41.3256 33.6365C40.6164 34.2141 39.6217 34.1626 39.1088 33.5245C38.6606 32.9671 38.8434 32.2126 39.3385 31.6283C38.9862 31.4424 38.6338 31.0484 38.6338 30.6745C38.6338 30.0924 39.2025 29.6223 39.9027 29.6223C40.1637 29.6223 40.516 29.6514 40.719 29.7611C40.8193 29.6133 40.8439 29.423 41.1249 29.1812C41.9567 28.4648 42.6614 28.8409 43.1476 29.4454C43.3528 29.7029 43.3728 30.1484 43.3483 30.4775C43.5446 30.5626 43.7854 30.5671 43.9259 30.7395C44.4388 31.3775 44.2805 32.3626 43.5691 32.9402Z" fill="#F8A629"/>
<path d="M40.2216 34.5969C40.148 34.5969 40.0721 34.5925 39.9986 34.5857C39.4678 34.5298 38.9972 34.2768 38.6738 33.876C38.1966 33.2828 38.1721 32.4902 38.578 31.7514C38.2925 31.4649 38.0762 31.0843 38.0762 30.6746C38.0762 29.7857 38.8946 29.0626 39.9027 29.0626C40.0632 29.0626 40.255 29.0716 40.4468 29.1029C40.5182 28.9977 40.6163 28.879 40.759 28.7581C41.2117 28.3686 41.6868 28.1962 42.1707 28.2387C42.6792 28.2857 43.1676 28.5813 43.5802 29.0962C43.8009 29.3738 43.8857 29.7365 43.9058 30.0723C44.0552 30.1283 44.218 30.2201 44.3562 30.3857C45.0632 31.2656 44.8669 32.6066 43.9191 33.3768C43.3438 33.8447 42.5944 34.0059 41.9343 33.8313C41.854 33.9186 41.767 33.9992 41.6734 34.0753C41.2586 34.4134 40.739 34.5992 40.2238 34.5992L40.2216 34.5969ZM39.9004 30.182C39.5213 30.182 39.189 30.4126 39.189 30.6746C39.189 30.7731 39.3607 31.0081 39.5949 31.1335L40.2126 31.4581L39.7622 31.991C39.4722 32.3335 39.2604 32.8238 39.5414 33.1731C39.6774 33.341 39.8804 33.4484 40.1145 33.4731C40.4111 33.5044 40.7233 33.4059 40.9731 33.2022C41.0913 33.1081 41.1872 32.9962 41.2608 32.8731L41.5373 32.4007L42.0146 32.6693C42.3692 32.8686 42.8531 32.8037 43.2189 32.5081C43.6783 32.1343 43.8054 31.5186 43.5132 31.1201C43.4843 31.1089 43.4352 31.0954 43.3973 31.0843C43.3192 31.0619 43.2233 31.035 43.1252 30.9925L42.7617 30.8335L42.7907 30.4372C42.8174 30.0746 42.7572 29.8552 42.7104 29.7969C42.5588 29.6089 42.3224 29.376 42.0681 29.3537C41.8942 29.338 41.6979 29.4231 41.4838 29.6089C41.3723 29.7052 41.3433 29.7656 41.292 29.8686C41.2608 29.9313 41.2274 30.0029 41.1738 30.079L40.8906 30.4955L40.449 30.2559C40.3977 30.2268 40.2015 30.182 39.8982 30.182H39.9004Z" fill="black"/>
<path d="M42.5475 35.7859C42.4047 35.7859 42.2598 35.7299 42.1505 35.6202C41.2852 34.7426 38.1519 22.3755 36.8472 17.1008C36.7736 16.8008 36.9543 16.4964 37.2531 16.4225C37.552 16.3464 37.8552 16.53 37.9288 16.83C39.5368 23.327 42.32 33.9479 42.9578 34.8479C43.1607 35.0673 43.1541 35.412 42.94 35.6247C42.8307 35.7322 42.6902 35.7859 42.5475 35.7859ZM42.9444 34.8322L42.9533 34.8411C42.9533 34.8411 42.9467 34.8344 42.9444 34.8322Z" fill="black"/>
<path d="M50.9709 25.1873C50.342 25.5343 49.4677 25.5612 48.9905 25.1694C48.8567 25.3284 48.5333 25.5052 48.3371 25.6105C47.5387 26.0537 46.8696 25.6955 46.4771 24.9769C46.1337 24.35 46.4459 23.6403 47.0347 23.15C46.7202 22.906 46.4414 22.4537 46.5083 22.0866C46.6109 21.5134 47.251 21.1508 47.9423 21.2739C48.1988 21.3209 48.5066 21.359 48.6872 21.5023C48.8121 21.3746 49.2715 21.0903 49.4454 21.0142C50.0097 20.7634 50.7947 20.9918 51.1671 21.6724C51.3232 21.9612 51.2652 22.4045 51.1849 22.7246C51.3634 22.8433 51.5998 22.8903 51.709 23.0829C52.1015 23.8015 51.7737 24.744 50.9731 25.1873H50.9709Z" fill="#F8A629"/>
<path d="M47.6545 26.3648C47.5006 26.3648 47.3468 26.3424 47.1973 26.2999C46.7067 26.1566 46.2897 25.7939 45.9886 25.2454C45.6229 24.5783 45.7366 23.7924 46.2651 23.1365C46.0354 22.8051 45.886 22.3909 45.9574 21.988C46.0354 21.5492 46.3164 21.1641 46.729 20.9312C47.1126 20.7141 47.5765 20.6402 48.0381 20.723L48.1229 20.7387C48.2767 20.7656 48.4507 20.7947 48.6202 20.8506C48.841 20.7006 49.093 20.5574 49.2201 20.5014C50.0965 20.1141 51.167 20.5081 51.6554 21.4014C51.8249 21.7126 51.845 22.0842 51.807 22.42C51.9431 22.5029 52.0903 22.6193 52.1951 22.8074C52.7392 23.7991 52.3111 25.0842 51.2428 25.6753C50.6228 26.0178 49.7397 26.1499 49.0439 25.8454C48.9034 25.9394 48.7518 26.0223 48.6068 26.1006C48.2946 26.273 47.9734 26.3626 47.659 26.3626L47.6545 26.3648ZM47.6724 21.8111C47.5274 21.8111 47.3891 21.8447 47.2776 21.9074C47.2063 21.9477 47.0836 22.0372 47.0568 22.185C47.039 22.2812 47.1661 22.5432 47.378 22.7089L47.9288 23.1387L47.3914 23.5842C47.0457 23.8708 46.7535 24.3163 46.9676 24.7081C47.1193 24.9857 47.3111 25.1693 47.5096 25.2253C47.6724 25.2723 47.8619 25.2387 48.0716 25.1223C48.4373 24.923 48.5421 24.838 48.5711 24.8066L48.9279 24.4103L49.3472 24.7372C49.6215 24.9633 50.2571 24.9454 50.7053 24.6969C51.2227 24.4103 51.4569 23.8283 51.2361 23.3827C51.2094 23.3671 51.1625 23.3447 51.1291 23.329C51.0577 23.2932 50.9685 23.2506 50.8793 23.1924L50.547 22.973L50.6451 22.5857C50.7343 22.232 50.7143 22.0059 50.6786 21.9409C50.4444 21.5156 49.9739 21.3947 49.6706 21.5268C49.539 21.585 49.1643 21.8223 49.084 21.8984L48.7339 22.2589L48.3436 21.9432C48.2834 21.9029 48.0582 21.8648 47.9377 21.8424L47.8463 21.8268C47.7883 21.8178 47.7326 21.8111 47.6768 21.8111H47.6724Z" fill="black"/>
<path d="M51.5038 31.7986C50.8749 32.1456 50.1434 32.0807 49.6684 31.6889C49.5346 31.8478 49.3696 31.9844 49.1733 32.0896C48.3749 32.5329 47.4048 32.3068 47.0101 31.5904C46.6666 30.9635 46.9789 30.2538 47.5676 29.7635C47.2532 29.5195 46.9744 29.0673 47.0413 28.7001C47.1439 28.127 47.7839 27.7643 48.4753 27.8874C48.7317 27.9344 49.073 28.024 49.2536 28.1695C49.3785 28.0419 49.4365 27.8583 49.7554 27.6702C50.6987 27.1105 51.3276 27.6053 51.7023 28.2859C51.8584 28.5747 51.8004 29.018 51.7201 29.3381C51.8985 29.4568 52.1349 29.5038 52.2442 29.6964C52.6367 30.415 52.3089 31.3575 51.5083 31.8008L51.5038 31.7986Z" fill="#F8A629"/>
<path d="M48.3079 32.8755C48.1027 32.8755 47.8976 32.8486 47.7013 32.7904C47.1884 32.6404 46.7691 32.3113 46.5216 31.8591C46.1558 31.1919 46.2696 30.4061 46.7981 29.7501C46.5684 29.4188 46.419 29.0046 46.4903 28.6016C46.5684 28.1628 46.8494 27.7777 47.262 27.5449C47.6456 27.3277 48.1094 27.2538 48.5711 27.3367C48.7294 27.3658 48.9167 27.4083 49.0996 27.471C49.1888 27.3792 49.307 27.2807 49.4676 27.1867C49.9805 26.8822 50.4778 26.7949 50.9484 26.9225C51.4413 27.0568 51.8694 27.4352 52.1861 28.015C52.3556 28.3262 52.3757 28.6979 52.3378 29.0337C52.4738 29.1165 52.621 29.2329 52.7258 29.421C53.27 30.4128 52.8418 31.6979 51.7735 32.2889C51.1246 32.6471 50.3596 32.674 49.7397 32.3874C49.646 32.4591 49.5456 32.524 49.4386 32.5822C49.0885 32.777 48.696 32.8755 48.3079 32.8755ZM48.2053 28.4225C48.0604 28.4225 47.9221 28.4561 47.8106 28.5188C47.7392 28.5591 47.6166 28.6486 47.5898 28.7964C47.572 28.8926 47.6991 29.1568 47.9109 29.3203L48.4618 29.7501L47.9243 30.1956C47.5787 30.4822 47.2865 30.9277 47.5006 31.3195C47.6054 31.5098 47.7861 31.6508 48.0135 31.7158C48.299 31.7986 48.6246 31.7561 48.9056 31.5994C49.0394 31.5277 49.1531 31.4359 49.2468 31.324L49.6014 30.9076L50.0229 31.2546C50.3373 31.512 50.8257 31.5344 51.2361 31.3061C51.7535 31.0195 51.9876 30.4374 51.7669 29.9919C51.7401 29.9762 51.6933 29.9538 51.6598 29.9359C51.5884 29.9023 51.4992 29.8576 51.41 29.7994L51.0777 29.58L51.1759 29.1926C51.2651 28.8389 51.245 28.615 51.2093 28.5479C51.0934 28.3352 50.9016 28.0665 50.6562 27.9971C50.489 27.9501 50.2816 28.0016 50.0385 28.1449C49.9136 28.2188 49.8712 28.2747 49.8043 28.3665C49.762 28.4225 49.7174 28.4874 49.6527 28.5546L49.3025 28.915L48.9078 28.6016C48.861 28.5635 48.6759 28.4852 48.377 28.4337C48.3191 28.4247 48.2633 28.418 48.2076 28.418L48.2053 28.4225Z" fill="black"/>
<path d="M50.0988 34.4312C49.9226 34.4312 49.7487 34.3462 49.6394 34.1894C48.9391 33.173 48.0158 20.4477 47.6523 15.023C47.6323 14.7141 47.8642 14.4477 48.172 14.4275C48.4797 14.4051 48.7451 14.6402 48.7652 14.9491C49.2134 21.6297 50.101 32.573 50.5694 33.5715C50.7299 33.8245 50.663 34.1603 50.4155 34.3327C50.3196 34.3999 50.2081 34.4312 50.0988 34.4312ZM50.5582 33.5536C50.5582 33.5536 50.5627 33.5603 50.5649 33.5626C50.5627 33.5581 50.5604 33.5559 50.5582 33.5536Z" fill="black"/>
<path d="M62.5564 42.9634L52.4115 44.4701L43.9928 45.7193L36.3211 46.8566L35.5562 36.1305L42.4607 35.1074L60.6274 32.4119L62.5564 42.9634Z" fill="#343738"/>
<path d="M35.8081 47.4992L34.9629 35.6537L61.0778 31.7805L63.2076 43.4335L35.8059 47.4992H35.8081ZM36.1493 36.6096L36.834 46.2163L61.903 42.4954L60.1746 33.0454L36.1471 36.6096H36.1493Z" fill="black"/>
<path d="M31.0578 61.7179H31.0533V61.3843L30.4668 61.2903C30.4713 61.259 30.4757 61.2299 30.4824 61.1985L30.5805 60.5985H31.7447L31.6019 61.2769C31.593 61.3149 31.5863 61.3507 31.5796 61.3888L31.5663 61.4672L31.0556 61.3866V61.7202L31.0578 61.7179Z" fill="black"/>
<path d="M69.8513 56.7051L31.6981 61.5029L30.9822 61.5924L31.0179 61.3753C31.029 61.3014 31.0424 61.2297 31.058 61.1581H31.0535L31.6044 57.7641L32.1218 54.5872L33.3038 47.3044L36.3211 46.8566L43.9928 45.7193L52.4116 44.47L62.5565 42.9633L64.403 42.6902L67.329 50.2171L68.5622 53.3872L69.7687 56.4902H69.7598C69.7911 56.5618 69.8223 56.6335 69.8513 56.7051Z" fill="#343738"/>
<path d="M70.489 56.7745L70.1255 55.8432L64.762 42.0723L32.8197 46.8118L30.5873 60.5536L30.5026 61.0685V61.0887L30.4892 61.1558C30.4825 61.1984 30.4736 61.2432 30.4669 61.2857L30.3108 62.2417H30.3264L31.4682 62.0961L31.7648 62.0581L69.501 57.3141H69.5032L69.9203 57.2603L70.6406 57.1708L70.4867 56.7745H70.489ZM31.6734 60.9409L31.7448 60.5984H31.7091L33.7876 47.7991L64.0461 43.3103L69.0171 56.0984L68.9747 56.1096L69.0372 56.2439H69.0349L46.5997 59.067L31.6734 60.9432V60.9409Z" fill="black"/>
<path d="M69.9001 57.0344L69.8198 56.7232L69.3359 56.9157C69.3091 56.8508 69.2801 56.7858 69.2533 56.7232L68.9768 56.1097L70.1053 55.8344L70.3729 56.506L69.8265 56.7232L69.9023 57.0366L69.9001 57.0344Z" fill="black"/>
<path d="M32.1217 54.5873L31.6043 57.7641L11.6445 62.4231L12.3002 56.7522L32.1217 54.5873Z" fill="#343738"/>
<path d="M11 63.1484L11.7984 56.244L32.7907 53.9514L32.0949 58.2253L11 63.1484ZM12.8042 57.2604L12.2913 61.6977L31.1159 57.3029L31.4548 55.2231L12.8042 57.2604Z" fill="black"/>
<path d="M87.186 52.6774L68.5621 53.3871L67.3289 50.217L85.0674 47.3782L87.186 52.6774Z" fill="#343738"/>
<path d="M68.1876 53.9604L66.5596 49.7716L85.4199 46.7537L88.0001 53.2059L68.1898 53.9604H68.1876ZM68.1006 50.6581L68.9369 52.8096L86.3744 52.1447L84.7174 47.9984L68.1006 50.6581Z" fill="black"/>
</svg>
