<?xml version="1.0" encoding="UTF-8"?><svg id="Layer_1" xmlns="http://www.w3.org/2000/svg" viewBox="0 0 1078.53 951.22"><defs><style>.cls-1{fill:#ffad3c;}</style></defs><path class="cls-1" d="M876.1,1745.02H231.86V337.22C231.86,151.64,376.36,.66,553.98,.66s322.12,150.98,322.12,336.56V1745.02Zm-635.79-8.83H867.65V337.22c0-180.71-140.71-327.73-313.67-327.73S240.31,156.51,240.31,337.22V1736.2Z"/><path class="cls-1" d="M827.78,1745.02H280.17V349.15c0-157.74,122.83-286.08,273.8-286.08s273.8,128.33,273.8,286.08V1745.02Zm-539.16-8.83H819.33V349.15c0-152.88-119.04-277.25-265.36-277.25s-265.36,124.37-265.36,277.25V1736.2Z"/><path class="cls-1" d="M777.47,1745.02H330.49V360.01c0-128.76,100.26-233.51,223.49-233.51s223.49,104.75,223.49,233.51V1745.02Zm-438.53-8.83h430.08V360.01c0-123.89-96.47-224.68-215.04-224.68s-215.04,100.79-215.04,224.68V1736.2Z"/><path class="cls-1" d="M547.44,206.76h0c97.81,0,177.21,79.41,177.21,177.21V1740.61H383.3V370.91c0-90.59,73.55-164.14,164.14-164.14Z"/><path class="cls-1" d="M1262.87,1279.98H618.64V551.46c0-185.58,144.5-336.56,322.12-336.56s322.12,150.98,322.12,336.56v728.52Zm-635.79-8.83h627.34V551.46c0-180.71-140.71-327.73-313.67-327.73s-313.67,147.02-313.67,327.73v719.69Z"/><path class="cls-1" d="M1214.56,1279.98H666.95V563.39c0-157.74,122.83-286.08,273.8-286.08s273.8,128.33,273.8,286.08v716.59Zm-539.16-8.83h530.71V563.39c0-152.88-119.04-277.25-265.35-277.25s-265.36,124.37-265.36,277.25v707.76Z"/><path class="cls-1" d="M1164.24,1279.98h-446.98V574.25c0-128.75,100.26-233.5,223.49-233.5s223.49,104.75,223.49,233.5v705.73Zm-438.53-8.83h430.08V574.25c0-123.89-96.47-224.68-215.04-224.68s-215.04,100.79-215.04,224.68v696.9Z"/><path class="cls-1" d="M934.22,421h0c97.81,0,177.21,79.41,177.21,177.21v677.35h-341.36V585.14c0-90.59,73.55-164.14,164.14-164.14Z"/><path class="cls-1" d="M490.84,1745.02H-153.39V755.29c0-185.58,144.5-336.56,322.12-336.56s322.12,150.98,322.12,336.56v989.73Zm-635.79-8.83H482.39V755.29c0-180.71-140.71-327.73-313.67-327.73s-313.67,147.02-313.67,327.73v980.91Z"/><path class="cls-1" d="M442.53,1745.02H-105.08V752.19c0-157.74,122.83-286.08,273.8-286.08s273.8,128.33,273.8,286.08v992.84Zm-539.16-8.83H434.08V752.19c0-152.88-119.04-277.25-265.35-277.25S-96.63,599.31-96.63,752.19v984.01Z"/><path class="cls-1" d="M392.21,1745.02H-54.76V747.77c0-128.76,100.26-233.51,223.49-233.51s223.49,104.75,223.49,233.51v997.26Zm-438.53-8.83H383.77V747.77c0-123.89-96.47-224.68-215.04-224.68s-215.04,100.79-215.04,224.68v988.43Z"/><path class="cls-1" d="M162.19,576.25h0c97.81,0,177.21,79.41,177.21,177.21v987.15H-1.95V740.39c0-90.59,73.55-164.14,164.14-164.14Z"/></svg>