<svg width="100" height="100" viewBox="0 0 100 100" fill="none" xmlns="http://www.w3.org/2000/svg">
<g clip-path="url(#clip0_858_1956)">
<path d="M30.8347 52.4595L30.3811 51.5517L26.6202 44.0121C26.2746 43.2647 26.4387 42.3786 27.0263 41.8044L44.001 25.2196C44.7614 24.4765 45.9192 24.3226 46.8459 24.8426L68.8884 37.1897C69.5991 37.5883 69.9858 38.39 69.8562 39.1959L68.4132 48.1502L30.8347 52.4595Z" fill="#343738"/>
<path d="M30.8368 53.0012C30.6381 53.0012 30.448 52.8907 30.353 52.7022L26.1385 44.2527C25.6913 43.2821 25.9008 42.149 26.6504 41.4145L43.6229 24.8319C44.5475 23.9284 45.9797 23.7378 47.1073 24.3704L69.1498 36.7175C70.0549 37.2244 70.5539 38.2557 70.3876 39.2827L68.9446 48.237C68.897 48.5316 68.6184 48.7331 68.3246 48.6854C68.0308 48.6378 67.8299 48.3604 67.8774 48.0636L69.3204 39.1093C69.4133 38.5309 69.1325 37.9481 68.6227 37.6621L46.5824 25.3172C45.8695 24.9185 44.9623 25.0377 44.3769 25.6096L27.4043 42.1923C26.9809 42.6061 26.8621 43.2453 27.1105 43.7847L31.3186 52.2191C31.4525 52.4877 31.3445 52.8127 31.0766 52.9448C30.9989 52.9838 30.9168 53.0033 30.8347 53.0033L30.8368 53.0012Z" fill="black"/>
<path d="M44.0701 74.9591L42.8043 75.0674L26.4863 76.4562C25.8966 76.506 25.43 75.9644 25.5639 75.3859L28.303 63.5284L28.5903 62.287C28.7285 62.4473 28.8776 62.599 29.0396 62.7355C29.6833 63.2858 30.5064 63.6346 31.405 63.6801C31.3942 63.6563 31.3856 63.6324 31.3769 63.6086C31.3402 63.5176 31.3056 63.4266 31.2732 63.3356C31.2538 63.2858 31.2322 63.236 31.2149 63.184C31.1955 63.1341 31.176 63.0821 31.1587 63.0301C31.0788 62.8135 31.0054 62.5947 30.9362 62.3758C30.8866 62.2285 30.8412 62.0812 30.798 61.9317C30.7786 61.8689 30.7591 61.8039 30.744 61.7411C30.7094 61.6241 30.677 61.5071 30.6446 61.3879C30.6036 61.2363 30.5669 61.0846 30.528 60.9329C30.528 60.9286 30.5258 60.9221 30.5237 60.9156C30.4869 60.7618 30.4524 60.6058 30.42 60.452C30.3919 60.3306 30.3681 60.2093 30.3444 60.088C30.3422 60.075 30.3379 60.0642 30.3379 60.0512C30.3271 60.0057 30.3184 59.9602 30.312 59.9147C30.2882 59.7933 30.2666 59.6742 30.2472 59.5529C30.2428 59.5334 30.2385 59.5139 30.2364 59.4944C30.2104 59.3384 30.1867 59.1824 30.1651 59.0264C30.1413 58.8747 30.1219 58.7209 30.1046 58.5671C30.0916 58.4674 30.0808 58.3699 30.0722 58.2724V58.2681C30.0679 58.2334 30.0635 58.1988 30.0614 58.1663C30.0506 58.0601 30.0398 57.9561 30.0333 57.85C30.0268 57.7871 30.0203 57.7243 30.0182 57.6615C30.016 57.6355 30.0139 57.6095 30.0117 57.5813C30.0074 57.5206 30.0031 57.4578 30.0009 57.3971C29.9923 57.3018 29.9879 57.2065 29.9836 57.1112C29.9815 57.083 29.9815 57.057 29.9815 57.0288V57.0202C29.9728 56.8837 29.9685 56.745 29.9663 56.6064C29.9642 56.5219 29.962 56.4352 29.962 56.3485V56.342L30.3163 54.8168L30.6338 53.4432L30.7375 52.9947L30.7634 52.8821L30.8369 53.0034L31.068 53.389L31.1631 53.545L31.202 53.61C31.1458 54.0238 31.1069 54.4398 31.0788 54.8515C31.0702 55.0161 31.0615 55.1808 31.0551 55.3433C31.0464 55.5773 31.0421 55.8069 31.0399 56.0387V56.1167C31.0399 58.8466 31.5973 61.4876 32.6968 63.9639C34.8462 68.804 38.8403 72.4502 43.6273 74.2246L43.7591 74.4413L44.0701 74.9591V74.9591Z" fill="#343738"/>
<path d="M31.2882 53.0033L31.204 53.3717L31.1629 53.545L30.9037 54.6672L30.0721 58.268C30.0677 58.2334 30.0634 58.1987 30.0613 58.1662C30.0505 58.06 30.0397 57.956 30.0332 57.8499C30.0267 57.7871 30.0202 57.7242 30.0181 57.6614C30.0159 57.6354 30.0137 57.6094 30.0116 57.5812C30.0073 57.5206 30.0029 57.4577 30.0008 57.3971C29.9921 57.3018 29.9878 57.2064 29.9835 57.1111C29.9813 57.0829 29.9813 57.0569 29.9813 57.0288V57.0201C29.9727 56.8836 29.9684 56.745 29.9662 56.6063C29.964 56.5218 29.9619 56.4351 29.9619 56.3485V56.342C29.9597 56.2683 29.9597 56.1903 29.9597 56.1167V56.0907C29.9057 56.1145 29.8517 56.1405 29.7999 56.1687C29.6573 56.2423 29.5212 56.3225 29.3916 56.4135L29.7135 55.0182L30.2298 52.7932L30.2341 52.7715V52.7585C30.2492 52.7022 30.2708 52.648 30.301 52.6004C30.4004 52.4357 30.5797 52.3339 30.7741 52.3404C30.8108 52.3404 30.8476 52.3447 30.8843 52.3534C30.9513 52.3685 31.0139 52.3967 31.0657 52.4335C31.0657 52.4335 31.0679 52.4335 31.0679 52.4357C31.1781 52.5115 31.258 52.6264 31.2861 52.7585C31.2926 52.778 31.2947 52.7954 31.2947 52.8149C31.3055 52.8777 31.3034 52.9405 31.2882 53.0033V53.0033Z" fill="black"/>
<path d="M44.608 74.9135C44.6339 75.2104 44.4136 75.4725 44.1155 75.4985L44.0183 75.5072L26.5316 76.9956C26.4906 76.9956 26.4495 76.9999 26.4085 76.9999C26.0002 76.9999 25.6179 76.8266 25.3457 76.5103C25.0476 76.1658 24.9353 75.7108 25.0368 75.2645L27.8515 63.0821L28.1734 61.6912C28.2922 61.9035 28.4326 62.1028 28.5903 62.287C28.7285 62.4473 28.8776 62.5989 29.0396 62.7354L28.7739 63.8924L26.0909 75.5093C26.0564 75.6523 26.1212 75.7542 26.1622 75.8018C26.1946 75.8408 26.2875 75.9296 26.4409 75.9166L41.7479 74.6124H41.7522L43.7591 74.4412L44.0248 74.4196C44.3229 74.3936 44.5821 74.6146 44.608 74.9135V74.9135Z" fill="black"/>
<path d="M76.7385 72.8966H60.8503L61.0167 72.355L61.1031 72.0733C65.1707 69.2958 68.1582 64.9866 69.1627 59.8844C69.4068 58.6538 69.5321 57.3864 69.5321 56.1168C69.5321 54.5569 69.3442 53.0013 68.9748 51.4956C68.9489 51.3807 68.9208 51.2767 68.8927 51.1706L68.8084 50.8586C68.7501 50.6506 68.6896 50.4448 68.6248 50.2411C68.6205 50.2346 68.6183 50.226 68.6183 50.2195L68.1539 48.9975L68.1647 48.9629L68.2403 48.7202L68.2554 48.6704L68.4131 48.1526L68.6054 48.6552L68.6097 48.6726L69.2923 50.4751L70.448 53.5234C70.448 53.5234 70.4502 53.5256 70.4502 53.5278C70.4631 53.6491 70.4783 53.7683 70.4912 53.8874C70.4934 53.9134 70.4955 53.9372 70.4999 53.9611C70.515 54.1084 70.5279 54.2579 70.5409 54.4052C70.5452 54.4615 70.5495 54.5179 70.5539 54.5742C70.5647 54.7129 70.5733 54.8494 70.5798 54.988C70.5906 55.144 70.5971 55.3 70.6014 55.456C70.6036 55.521 70.6057 55.586 70.6057 55.6531C70.61 55.807 70.6122 55.963 70.6122 56.1168C70.6122 56.3226 70.61 56.5284 70.6014 56.7342C70.6014 56.8187 70.5971 56.9011 70.5927 56.9856C70.5906 57.0766 70.5863 57.1654 70.5798 57.2542C70.5733 57.3777 70.5668 57.499 70.556 57.6225C70.5495 57.7308 70.5409 57.837 70.5301 57.9453C70.5258 57.9908 70.5215 58.0385 70.5171 58.0862C70.5085 58.1707 70.4999 58.2552 70.4912 58.3396C70.4696 58.5476 70.4437 58.7556 70.4135 58.9614C70.4005 59.0503 70.3875 59.1413 70.3746 59.2301C70.3746 59.2388 70.3724 59.2453 70.3702 59.2539C70.8822 59.0633 71.338 58.7751 71.7204 58.409C71.8673 58.2703 72.0033 58.1187 72.1265 57.9562L72.5607 59.1044L77.4124 71.9152C77.5917 72.3896 77.2439 72.8966 76.7385 72.8966V72.8966Z" fill="#343738"/>
<path d="M70.6014 55.4559L68.6939 50.4208L68.6248 50.241C68.6248 50.241 68.6183 50.2258 68.6183 50.2194L68.1539 48.9974L68.0588 48.7439L67.9076 48.3453V48.341C67.9011 48.3258 67.8968 48.3106 67.8925 48.2955C67.8882 48.2803 67.886 48.2673 67.8838 48.2543C67.8795 48.2435 67.8795 48.2326 67.8774 48.2218V48.2131C67.8752 48.1936 67.873 48.1741 67.873 48.1525C67.873 48.1265 67.8752 48.0983 67.8795 48.0723C67.8838 48.0463 67.8882 48.0225 67.8946 47.9986C67.9422 47.8427 68.0567 47.7083 68.2208 47.6455C68.2532 47.6325 68.2835 47.6238 68.3159 47.6195L68.3656 47.613C68.4109 47.6087 68.4541 47.6108 68.4973 47.6195H68.4995C68.6745 47.6477 68.83 47.7603 68.9056 47.9337C68.9099 47.9423 68.9143 47.951 68.9164 47.9597L68.9683 48.0896V48.0961L69.1584 48.6009L69.6206 49.8164L69.8971 50.5508L70.3724 51.8031C70.2946 51.7749 70.2168 51.7468 70.1369 51.7229C70.1456 51.7619 70.1542 51.8009 70.1607 51.8399C70.1628 51.8486 70.165 51.8551 70.165 51.8638C70.1931 51.9829 70.2168 52.1021 70.2384 52.2212C70.3227 52.6545 70.3918 53.0878 70.448 53.5233C70.448 53.5255 70.4501 53.5255 70.4501 53.5277C70.4631 53.649 70.4782 53.7681 70.4912 53.8873C70.4933 53.9133 70.4955 53.9371 70.4998 53.961C70.5149 54.1083 70.5279 54.2578 70.5409 54.4051C70.5452 54.4614 70.5495 54.5178 70.5538 54.5741C70.5646 54.7127 70.5733 54.8492 70.5798 54.9879C70.5906 55.1439 70.597 55.2999 70.6014 55.4559V55.4559Z" fill="black"/>
<path d="M77.7775 72.89C77.5421 73.2345 77.1532 73.4382 76.7385 73.4382H60.8503C60.5522 73.4382 60.3103 73.1955 60.3103 72.8965C60.3103 72.5976 60.5522 72.3549 60.8503 72.3549H76.7385C76.8206 72.3549 76.8681 72.3051 76.8875 72.2769C76.9091 72.2466 76.9372 72.1859 76.9091 72.1057L72.1286 59.4878L71.7204 58.4089C71.8673 58.2702 72.0034 58.1186 72.1265 57.9561C72.2626 57.7784 72.3835 57.5899 72.4894 57.3906L72.9646 58.6451L77.9179 71.7223C78.0648 72.1122 78.013 72.5477 77.7775 72.89V72.89Z" fill="black"/>
<path d="M46.1222 56.4569C44.379 58.6256 42.3117 59.3102 40.3999 59.3102C38.2506 59.3102 36.2956 58.4458 35.2112 57.8565L35.7275 56.9032C37.9741 58.1273 42.2037 59.607 45.2819 55.7766L46.1222 56.4569V56.4569Z" fill="black"/>
<path d="M35.7232 56.9011L35.2112 57.8544C34.4119 57.4211 33.9237 57.0571 33.9043 57.0419L34.5524 56.1753C34.5524 56.1753 35.0017 56.5089 35.7232 56.9011V56.9011Z" fill="black"/>
<path d="M64.9115 55.5058C63.2525 57.8132 61.33 59.0503 59.1979 59.1802C59.0726 59.1867 58.9473 59.1911 58.8242 59.1911C55.4219 59.1911 52.8059 56.3941 52.6914 56.2706L53.0889 55.9023L53.4842 55.534H53.4864C53.5792 55.6336 56.111 58.2811 59.1395 58.097C60.9282 57.9865 62.5764 56.901 64.0345 54.8732L64.9115 55.5058V55.5058Z" fill="black"/>
<path d="M32.6967 63.9639C31.5971 61.4876 31.0398 58.8466 31.0398 56.1167V56.0387C31.042 55.8069 31.0463 55.5773 31.0549 55.3433C31.0614 55.1808 31.0701 55.0161 31.0787 54.8515L31.0895 54.6218L30.9037 54.6673L30.3853 54.7973C30.3615 54.8038 30.3378 54.8082 30.3162 54.8168C30.206 54.845 30.1001 54.8775 29.9943 54.9143C29.8992 54.9446 29.8042 54.9793 29.7135 55.0183C29.5731 55.0725 29.437 55.1353 29.3052 55.2046C27.6116 56.0756 26.5618 57.8001 26.5618 59.7089C26.5618 61.0044 27.05 62.1874 27.8514 63.0822C27.9918 63.2403 28.143 63.3898 28.3029 63.5285C28.4519 63.6585 28.6096 63.7819 28.7738 63.8924C29.5817 64.4449 30.5559 64.7677 31.6058 64.7677C31.6944 64.7677 31.7829 64.7656 31.8715 64.7612C32.0097 64.7526 32.148 64.7396 32.2798 64.7201L32.9883 64.6204L32.6967 63.9639V63.9639ZM29.0395 62.7355C28.8775 62.599 28.7284 62.4474 28.5902 62.287C28.4325 62.1029 28.2921 61.9036 28.1733 61.6912C27.8341 61.1063 27.6419 60.4303 27.6419 59.7089C27.6419 58.3699 28.3007 57.1437 29.3916 56.4136C29.5212 56.3226 29.6573 56.2424 29.7999 56.1687C29.8517 56.1406 29.9057 56.1146 29.9597 56.0907V56.1167C29.9597 56.1904 29.9597 56.2684 29.9619 56.3421V56.3464C29.9619 56.4352 29.964 56.5219 29.9662 56.6064C29.9684 56.745 29.9727 56.8837 29.9813 57.0202V57.0288C29.9813 57.057 29.9813 57.083 29.9835 57.1112C29.9878 57.2065 29.9921 57.3018 30.0008 57.3972C30.0029 57.4578 30.0073 57.5207 30.0116 57.5813C30.0116 57.6095 30.0159 57.6355 30.0181 57.6615C30.0202 57.7243 30.0267 57.7871 30.0332 57.85C30.0397 57.9561 30.0505 58.0601 30.0613 58.1663C30.0634 58.1988 30.0677 58.2334 30.0721 58.2681V58.2724C30.0807 58.3699 30.0915 58.4674 30.1045 58.5671C30.1217 58.7209 30.1412 58.8747 30.1649 59.0264C30.1865 59.1824 30.2103 59.3384 30.2362 59.4944C30.2384 59.5139 30.2427 59.5334 30.247 59.5529C30.2665 59.6742 30.2881 59.7934 30.3118 59.9147C30.3183 59.9602 30.327 60.0057 30.3378 60.0512C30.3378 60.0642 30.3421 60.075 30.3442 60.088C30.368 60.2093 30.3918 60.3307 30.4198 60.452C30.4523 60.6058 30.4868 60.7618 30.5235 60.9156C30.5235 60.9221 30.5279 60.9286 30.5279 60.933C30.5667 61.0846 30.6035 61.2363 30.6445 61.3879C30.6769 61.5071 30.7093 61.6241 30.7439 61.7411C30.759 61.8039 30.7784 61.8689 30.7979 61.9317C30.8411 62.0812 30.8864 62.2285 30.9361 62.3759C31.0053 62.5947 31.0787 62.8135 31.1586 63.0302C31.1759 63.0822 31.1954 63.1342 31.2148 63.184C31.2321 63.236 31.2537 63.2858 31.2731 63.3356C31.3055 63.4266 31.3401 63.5176 31.3768 63.6086C31.3854 63.6325 31.3941 63.6563 31.4049 63.6801C30.5063 63.6346 29.6832 63.2858 29.0395 62.7355V62.7355Z" fill="black"/>
<path d="M31.4049 63.6801C30.5062 63.6346 29.6832 63.2858 29.0395 62.7355C28.8775 62.599 28.7284 62.4473 28.5902 62.287C28.4325 62.1028 28.2921 61.9035 28.1732 61.6912C27.8341 61.1062 27.6418 60.4303 27.6418 59.7088C27.6418 58.3699 28.3007 57.1436 29.3916 56.4135C29.5212 56.3225 29.6573 56.2424 29.7999 56.1687C29.8517 56.1405 29.9057 56.1145 29.9597 56.0907V56.1167C29.9597 56.1904 29.9597 56.2684 29.9619 56.342V56.3464C29.9619 56.4352 29.964 56.5218 29.9662 56.6063C29.9684 56.745 29.9727 56.8837 29.9813 57.0201V57.0288C29.9813 57.057 29.9813 57.083 29.9835 57.1111C29.9878 57.2065 29.9921 57.3018 30.0008 57.3971C30.0029 57.4578 30.0072 57.5206 30.0116 57.5813C30.0116 57.6094 30.0159 57.6354 30.018 57.6614C30.0202 57.7243 30.0267 57.7871 30.0332 57.8499C30.0396 57.9561 30.0504 58.0601 30.0612 58.1662C30.0634 58.1987 30.0677 58.2334 30.072 58.2681V58.2724C30.0807 58.3699 30.0915 58.4674 30.1045 58.5671C30.1217 58.7209 30.1412 58.8747 30.1649 59.0264C30.1865 59.1823 30.2103 59.3383 30.2362 59.4943C30.2384 59.5138 30.2427 59.5333 30.247 59.5528C30.2665 59.6742 30.2881 59.7933 30.3118 59.9146C30.3183 59.9601 30.3269 60.0056 30.3377 60.0511C30.3377 60.0641 30.3421 60.075 30.3442 60.088C30.368 60.2093 30.3918 60.3306 30.4198 60.4519C30.4522 60.6058 30.4868 60.7618 30.5235 60.9156C30.5235 60.9221 30.5278 60.9286 30.5278 60.9329C30.5667 61.0846 30.6035 61.2362 30.6445 61.3879C30.6769 61.507 30.7093 61.624 30.7439 61.741C30.759 61.8039 30.7784 61.8689 30.7979 61.9317C30.8411 62.0812 30.8864 62.2285 30.9361 62.3758C31.0052 62.5946 31.0787 62.8135 31.1586 63.0301C31.1759 63.0821 31.1953 63.1341 31.2148 63.1839C31.2321 63.2359 31.2537 63.2858 31.2731 63.3356C31.3055 63.4266 31.3401 63.5176 31.3768 63.6086C31.3854 63.6324 31.3941 63.6562 31.4049 63.6801V63.6801Z" fill="white"/>
<path d="M70.0137 50.5747C69.9748 50.5661 69.9359 50.5574 69.8971 50.5509C69.8776 50.5466 69.8582 50.5444 69.8409 50.5401C69.7178 50.5184 69.5925 50.5011 69.4629 50.4902L69.2922 50.4751L68.6938 50.4209L68.8105 50.8585L68.8947 51.1705C68.9228 51.2767 68.9509 51.3807 68.9768 51.4955C69.3462 53.0012 69.5342 54.5568 69.5342 56.1167C69.5342 57.3863 69.4089 58.6537 69.1648 59.8843L69.0136 60.647L69.7804 60.5256C69.9057 60.5061 70.031 60.4801 70.152 60.452C70.8929 60.2765 71.5647 59.9428 72.1307 59.4879C72.2819 59.3709 72.4266 59.2409 72.5627 59.1044C72.7053 58.9614 72.8414 58.8076 72.9667 58.6451C73.6342 57.785 74.0273 56.6995 74.0273 55.5274C74.0273 53.1421 72.3381 51.0579 70.0159 50.5747H70.0137ZM72.1264 57.9561C72.0032 58.1186 71.8671 58.2703 71.7203 58.4089C71.3379 58.7751 70.8821 59.0632 70.3701 59.2539C70.3723 59.2452 70.3745 59.2387 70.3745 59.23C70.3874 59.1412 70.4004 59.0502 70.4133 58.9614C70.4436 58.7556 70.4695 58.5476 70.4911 58.3396C70.4998 58.2551 70.5084 58.1706 70.517 58.0861C70.5214 58.0384 70.5257 57.9908 70.53 57.9453C70.5408 57.837 70.5494 57.7308 70.5559 57.6225C70.5667 57.499 70.5732 57.3777 70.5797 57.2542C70.5862 57.1653 70.5905 57.0765 70.5926 56.9855C70.597 56.901 70.6013 56.8187 70.6013 56.7342C70.6099 56.5284 70.6121 56.3225 70.6121 56.1167C70.6121 55.9629 70.6099 55.8069 70.6056 55.6531C70.6056 55.5859 70.6034 55.5209 70.6013 55.4559C70.597 55.2999 70.5905 55.1439 70.5797 54.988C70.5732 54.8493 70.5646 54.7128 70.5538 54.5741C70.5494 54.5178 70.5451 54.4615 70.5408 54.4052C70.5278 54.2578 70.5149 54.1083 70.4998 53.961C70.4954 53.9372 70.4933 53.9134 70.4911 53.8874C70.4782 53.766 70.463 53.6447 70.4479 53.5234C70.3917 53.0879 70.3226 52.6546 70.2384 52.2213C70.2168 52.1021 70.193 51.983 70.1649 51.8638C70.1649 51.8551 70.1649 51.8486 70.1606 51.84C70.1541 51.801 70.1455 51.762 70.1368 51.723C70.2168 51.7468 70.2945 51.775 70.3723 51.8032C71.8931 52.3751 72.9451 53.857 72.9451 55.5274C72.9451 56.1991 72.7809 56.8338 72.4893 57.3906C72.3834 57.59 72.2625 57.7785 72.1264 57.9561V57.9561Z" fill="black"/>
<path d="M72.9452 55.5273C72.9452 56.199 72.781 56.8338 72.4894 57.3906C72.3835 57.5899 72.2626 57.7784 72.1265 57.956C72.0034 58.1185 71.8673 58.2702 71.7204 58.4088C71.338 58.775 70.8822 59.0631 70.3703 59.2538C70.3724 59.2451 70.3746 59.2386 70.3746 59.23C70.3875 59.1411 70.4005 59.0501 70.4135 58.9613C70.4437 58.7555 70.4696 58.5475 70.4912 58.3395C70.4999 58.255 70.5085 58.1705 70.5172 58.086C70.5215 58.0384 70.5258 57.9907 70.5301 57.9452C70.5409 57.8369 70.5496 57.7307 70.556 57.6224C70.5668 57.4989 70.5733 57.3776 70.5798 57.2541C70.5863 57.1652 70.5906 57.0764 70.5928 56.9854C70.5971 56.9009 70.6014 56.8186 70.6014 56.7341C70.61 56.5283 70.6122 56.3225 70.6122 56.1166C70.6122 55.9628 70.61 55.8068 70.6057 55.653C70.6057 55.5858 70.6036 55.5208 70.6014 55.4558C70.5971 55.2999 70.5906 55.1439 70.5798 54.9879C70.5733 54.8492 70.5647 54.7127 70.5539 54.5741C70.5496 54.5177 70.5452 54.4614 70.5409 54.4051C70.528 54.2577 70.515 54.1083 70.4999 53.9609C70.4956 53.9371 70.4934 53.9133 70.4912 53.8873C70.4783 53.7681 70.4631 53.649 70.4502 53.5276C70.4502 53.5255 70.448 53.5255 70.448 53.5233C70.3919 53.0878 70.3227 52.6545 70.2385 52.2212C70.2169 52.102 70.1931 51.9829 70.165 51.8637C70.165 51.8551 70.165 51.8486 70.1607 51.8399C70.1542 51.8009 70.1456 51.7619 70.137 51.7229C70.2169 51.7467 70.2947 51.7749 70.3724 51.8031C71.8932 52.375 72.9452 53.8569 72.9452 55.5273V55.5273Z" fill="white"/>
<path d="M68.3224 47.9446C68.3527 48.0117 68.3829 48.0811 68.411 48.1504L67.7716 48.2327L31.4546 52.7933L30.7612 52.88C30.7828 52.7391 30.8066 52.5983 30.8347 52.4596L68.3224 47.9446V47.9446Z" fill="#343738"/>
<path d="M69.1757 48.5989H69.1584L68.6097 48.6726L68.5082 48.6856L68.4563 48.6921H68.4542L68.2403 48.7202L68.0761 48.7419H68.0589L67.8407 48.7722L31.204 53.3718L31.0679 53.3891L30.6338 53.4433L30.1261 53.5083H30.1196L30.165 53.2093L30.2298 52.7998V52.7933L30.2341 52.7717V52.7587L30.2708 52.5398C30.2816 52.4878 30.2903 52.4423 30.2989 52.3947C30.3011 52.3817 30.3054 52.3665 30.3076 52.3535C30.3421 52.1845 30.4523 52.0502 30.5949 51.9787C30.6986 51.9245 30.8195 51.905 30.9427 51.931C31.1068 51.9635 31.2364 52.0675 31.3099 52.204C31.3207 52.2235 31.3293 52.243 31.338 52.2647L31.3898 52.2582L67.7067 47.6976L67.8536 47.6781C67.8839 47.6283 67.9206 47.5828 67.9638 47.5438C68.0049 47.507 68.0502 47.4766 68.0999 47.4528C68.2403 47.3878 68.3937 47.39 68.5255 47.4463H68.5276C68.5946 47.4723 68.6551 47.5135 68.7069 47.5676C68.748 47.6066 68.7825 47.6565 68.8084 47.7128L68.9056 47.9338C68.9056 47.9338 68.9143 47.9511 68.9165 47.9598L68.9683 48.0898L69.1757 48.5989V48.5989Z" fill="black"/>
<path d="M70.6057 55.6531C70.6057 55.5859 70.6035 55.5209 70.6013 55.4559C70.597 55.2999 70.5905 55.1439 70.5797 54.988C70.5732 54.8493 70.5646 54.7128 70.5538 54.5741C70.5495 54.5178 70.5452 54.4615 70.5408 54.4052C70.5279 54.2578 70.5149 54.1083 70.4998 53.961C70.4955 53.9372 70.4933 53.9134 70.4912 53.8874C70.4782 53.7682 70.4631 53.649 70.4501 53.5277C70.4501 53.5255 70.448 53.5255 70.448 53.5234C70.3918 53.0879 70.3227 52.6546 70.2384 52.2213C70.2168 52.1021 70.1931 51.983 70.165 51.8638C70.165 51.8551 70.165 51.8486 70.1607 51.84C70.1196 51.6407 70.0721 51.4413 70.0246 51.2442C69.9986 51.125 69.9684 51.008 69.936 50.891C69.9058 50.774 69.8733 50.657 69.8409 50.5401C69.7718 50.2974 69.6984 50.0569 69.6206 49.8164C69.4305 49.225 69.2123 48.6443 68.9704 48.0832V48.0789C68.9531 48.0377 68.9358 48.0009 68.9164 47.9597C68.9142 47.951 68.9099 47.9424 68.9056 47.9337L68.8084 47.7127L68.7436 47.5632L68.7069 47.5676L68.5038 47.5936L68.3677 47.6131L68.318 47.6196L67.9465 47.6672L67.8557 47.6781L67.7089 47.6976L31.3898 52.2581L31.3379 52.2646L30.7741 52.3339H30.7719L30.2989 52.3946H30.2945L30.2708 52.5376L30.2362 52.7586V52.7716L30.2297 52.7933V52.7998L30.1649 53.2092C30.152 53.3089 30.1369 53.4085 30.1261 53.5082C30.0656 53.9783 30.0202 54.4485 29.9943 54.9143C29.9878 55.0421 29.9813 55.1699 29.977 55.2978C29.9662 55.5426 29.9619 55.7852 29.9597 56.0344V56.1167C29.9597 56.1904 29.9597 56.2684 29.9619 56.342V56.3464C29.9619 56.4352 29.964 56.5219 29.9662 56.6064C29.9684 56.745 29.9727 56.8837 29.9813 57.0202V57.0288C29.9813 57.057 29.9813 57.083 29.9835 57.1112C29.9878 57.2065 29.9921 57.3018 30.0008 57.3971C30.0029 57.4578 30.0072 57.5206 30.0116 57.5813C30.0116 57.6095 30.0159 57.6355 30.018 57.6615C30.0202 57.7243 30.0267 57.7871 30.0332 57.85C30.0396 57.9561 30.0504 58.0601 30.0612 58.1663C30.0634 58.1988 30.0677 58.2334 30.072 58.2681V58.2724C30.0807 58.3699 30.0915 58.4674 30.1044 58.5671C30.1217 58.7209 30.1412 58.8747 30.1649 59.0264C30.1865 59.1824 30.2103 59.3384 30.2362 59.4944C30.2384 59.5139 30.2427 59.5334 30.247 59.5529C30.2665 59.6742 30.2881 59.7933 30.3118 59.9147C30.3183 59.9602 30.3269 60.0057 30.3377 60.0512C30.3377 60.0642 30.3421 60.075 30.3442 60.088C30.368 60.2093 30.3918 60.3306 30.4198 60.452C30.4522 60.6058 30.4868 60.7618 30.5235 60.9156C30.5235 60.9221 30.5278 60.9286 30.5278 60.9329C30.5667 61.0846 30.6035 61.2362 30.6445 61.3879C30.6769 61.5071 30.7093 61.6241 30.7439 61.7411C30.759 61.8039 30.7784 61.8689 30.7979 61.9317C30.8411 62.0812 30.8864 62.2285 30.9361 62.3758C31.0052 62.5947 31.0787 62.8135 31.1586 63.0301C31.1759 63.0821 31.1953 63.1341 31.2148 63.184C31.2321 63.236 31.2537 63.2858 31.2731 63.3356C31.3055 63.4266 31.3401 63.5176 31.3768 63.6086C31.3854 63.6324 31.3941 63.6563 31.4049 63.6801C31.4999 63.9228 31.6036 64.1654 31.7095 64.4059C31.7635 64.5251 31.8175 64.6442 31.8715 64.7612C33.9388 69.1831 37.4793 72.6279 41.7478 74.6124H41.7521C42.0999 74.7749 42.4477 74.9266 42.8041 75.0674C43.2038 75.2277 43.6077 75.3729 44.0182 75.5072C46.0098 76.155 48.1225 76.5017 50.287 76.5017C54.1732 76.5017 57.852 75.3881 60.9842 73.4382C61.265 73.2649 61.5394 73.085 61.8116 72.8966C62.0643 72.7232 62.3149 72.5412 62.559 72.3549C66.3285 69.4908 69.0978 65.3245 70.1499 60.452C70.1758 60.3328 70.1995 60.2158 70.2233 60.0966C70.2795 59.8172 70.327 59.5355 70.3702 59.2539C70.3724 59.2452 70.3745 59.2387 70.3745 59.23C70.3875 59.1412 70.4004 59.0502 70.4134 58.9614C70.4436 58.7556 70.4696 58.5476 70.4912 58.3396C70.4998 58.2551 70.5084 58.1706 70.5171 58.0861C70.5214 58.0384 70.5257 57.9908 70.53 57.9453C70.5408 57.8369 70.5495 57.7308 70.556 57.6225C70.5668 57.499 70.5732 57.3776 70.5797 57.2542C70.5862 57.1653 70.5905 57.0765 70.5927 56.9855C70.597 56.901 70.6013 56.8187 70.6013 56.7342C70.61 56.5284 70.6121 56.3225 70.6121 56.1167C70.6121 55.9629 70.61 55.8069 70.6057 55.6531V55.6531ZM61.103 72.0733C57.9945 74.1921 54.2553 75.4184 50.287 75.4184C47.9735 75.4184 45.7247 75.0003 43.6272 74.2246C38.8402 72.4502 34.846 68.804 32.6967 63.9639C31.5971 61.4876 31.0398 58.8466 31.0398 56.1167V56.0387C31.042 55.8069 31.0463 55.5773 31.0549 55.3433C31.0614 55.1808 31.07 55.0161 31.0787 54.8515C31.1068 54.4398 31.1457 54.0238 31.2018 53.61L31.2342 53.3696L67.8406 48.7722L68.0588 48.744H68.0761C68.1063 48.8155 68.1366 48.8892 68.1647 48.9628C68.331 49.3723 68.48 49.7926 68.6183 50.2194C68.6183 50.2259 68.6204 50.2346 68.6248 50.2411C68.6896 50.4447 68.7501 50.6505 68.8084 50.8585L68.8926 51.1705C68.9207 51.2767 68.9488 51.3807 68.9747 51.4955C69.3441 53.0012 69.532 54.5568 69.532 56.1167C69.532 57.3863 69.4068 58.6537 69.1627 59.8843C68.1582 64.9865 65.1706 69.2958 61.103 72.0733V72.0733ZM67.9076 48.3454V48.341C67.9011 48.3259 67.8968 48.3107 67.8925 48.2955C67.8881 48.2847 67.886 48.2717 67.8838 48.2609V48.2544C67.8838 48.2544 67.8795 48.2327 67.8773 48.2219V48.2132L55.4693 49.6366L54.022 49.8034L31.3725 52.4011C31.3746 52.4206 31.3768 52.4423 31.3768 52.4618V52.4661C31.3768 52.4661 31.3768 52.4748 31.3768 52.4791V52.4943C31.3768 52.5094 31.3746 52.5246 31.3725 52.5398C31.3682 52.5658 31.3638 52.5918 31.3552 52.6178C31.3401 52.6676 31.3163 52.7153 31.2882 52.7586C31.2947 52.7781 31.2969 52.7954 31.2969 52.8149C31.3077 52.8777 31.3055 52.9406 31.2904 53.0034L31.2061 53.3717L31.1651 53.545L31.204 53.61L31.2364 53.3696L67.8428 48.7722L68.061 48.744L67.9097 48.3454H67.9076Z" fill="black"/>
<path d="M68.9747 51.4954C68.9488 51.3806 68.9207 51.2766 68.8926 51.1704L68.8084 50.8584C68.75 50.6504 68.6896 50.4446 68.6248 50.241C68.6204 50.2345 68.6183 50.2258 68.6183 50.2193L68.1538 48.9974L68.0588 48.7439L67.8406 48.7721L31.2342 53.3695L31.2018 53.6099C31.1456 54.0237 31.1068 54.4397 31.0787 54.8514C31.07 55.016 31.0614 55.1807 31.0549 55.3432C31.0463 55.5772 31.042 55.8068 31.0398 56.0386V56.1166C31.0398 58.8465 31.5971 61.4875 32.6967 63.9638C34.846 68.8039 38.8402 72.4501 43.6272 74.2245C45.7247 75.0002 47.9734 75.4183 50.287 75.4183C54.2552 75.4183 57.9945 74.192 61.103 72.0732C65.1706 69.2957 68.1582 64.9864 69.1626 59.8842C69.4067 58.6536 69.532 57.3862 69.532 56.1166C69.532 54.5567 69.3441 53.0011 68.9747 51.4954V51.4954ZM40.3999 59.3101C38.2505 59.3101 36.2955 58.4457 35.2111 57.8564C34.4118 57.4209 33.9236 57.0569 33.9042 57.0417L34.5522 56.1751C34.5522 56.1751 35.0016 56.5088 35.7231 56.9009L35.2111 57.8542L35.7274 56.9031C37.974 58.1272 42.2036 59.6069 45.2819 55.7765L46.1222 56.4568C44.3789 58.6255 42.3116 59.3101 40.3999 59.3101V59.3101ZM49.6886 64.1956C49.4035 64.1956 49.1291 64.1458 48.8678 64.0461C47.6537 63.5803 47.2411 62.1981 47.2239 62.1374L47.7423 61.9879L47.8546 61.9554L48.2607 61.8341H48.2629C48.2802 61.8904 48.5653 62.7744 49.2587 63.0365C49.7253 63.212 50.3172 63.0799 51.0193 62.6401L51.5917 63.5587C50.9134 63.9833 50.2762 64.1956 49.6886 64.1956V64.1956ZM59.1977 59.1801C59.0724 59.1866 58.9472 59.1909 58.824 59.1909C55.4217 59.1909 52.8058 56.3939 52.6913 56.2704L53.0887 55.9021L53.4841 55.5338H53.4862C53.5791 55.6335 56.1108 58.281 59.1394 58.0968C60.928 57.9863 62.5763 56.9009 64.0344 54.873L64.9114 55.5057C63.2524 57.813 61.3298 59.0501 59.1977 59.1801V59.1801Z" fill="white"/>
<path d="M51.5918 63.5588C50.9135 63.9834 50.2762 64.1958 49.6886 64.1958C49.4035 64.1958 49.1292 64.1459 48.8678 64.0463C47.6538 63.5805 47.2412 62.1982 47.2239 62.1375L47.7423 61.9881L47.8547 61.9556L48.2608 61.8342H48.2629C48.2802 61.8906 48.5653 62.7745 49.2588 63.0367C49.7254 63.2121 50.3173 63.08 51.0193 62.6402L51.5918 63.5588V63.5588Z" fill="black"/>
</g>
<defs>
<clipPath id="clip0_858_1956">
<rect width="53" height="53" fill="white" transform="translate(25 24)"/>
</clipPath>
</defs>
</svg>
