<svg width="100" height="100" viewBox="0 0 100 100" fill="none" xmlns="http://www.w3.org/2000/svg">
<g clip-path="url(#clip0_872_1656)">
<path d="M35.1609 20.6924L17.6026 28.0144C17.566 28.0306 17.5614 28.084 17.5981 28.1026L30.7341 35.1459L35.1609 20.6924Z" fill="#343738"/>
<path d="M30.734 35.7266C30.6447 35.7266 30.553 35.7056 30.466 35.6592L17.3299 28.616C17.1168 28.5021 16.9885 28.2722 17 28.0283C17.0114 27.7867 17.1627 27.5683 17.3849 27.4777L34.9432 20.1557C35.2364 20.0326 35.571 20.1743 35.6901 20.4717C35.8116 20.769 35.6718 21.1082 35.3785 21.2289L18.8559 28.1212L31.0021 34.6324C31.2817 34.7834 31.3893 35.1342 31.2404 35.4176C31.1373 35.6151 30.938 35.7266 30.734 35.7266Z" fill="black"/>
<path d="M58.0488 18.5994L76.3907 23.5728C76.4296 23.5844 76.4388 23.6355 76.4067 23.6588L64.2743 32.3559L58.0488 18.5994Z" fill="#343738"/>
<path d="M64.2742 32.9364C64.0955 32.9364 63.9168 32.8505 63.8068 32.6902C63.6235 32.4277 63.6853 32.0653 63.9443 31.8818L75.1625 23.8397L57.9021 19.1589C57.5974 19.0753 57.4163 18.7571 57.4965 18.4481C57.579 18.1392 57.8929 17.9557 58.1977 18.037L76.5395 23.0104C76.771 23.0731 76.9474 23.2683 76.9909 23.5075C77.0345 23.7468 76.9336 23.9907 76.7389 24.1324L64.6041 32.8296C64.5033 32.9016 64.3888 32.9364 64.2742 32.9364Z" fill="black"/>
<path d="M35.1607 20.6924L30.9883 24.5461L30.168 58.6751L70.1031 53.6041L62.1499 21.9026L57.911 18.5994L35.1607 20.6924Z" fill="#343738"/>
<path d="M30.876 57.9991L38.561 57.0258L30.876 57.9991ZM31.3067 35.1365L31.3549 33.1202L30.9058 34.5813L31.002 34.6324C31.1945 34.7346 31.3045 34.9321 31.3067 35.1365ZM70.6484 53.4205C70.6484 53.4205 70.6484 53.4182 70.6461 53.4159L70.4651 52.6934L65.3486 32.2955L65.1974 31.6939L65.0461 31.0899L62.6563 21.5657L60.459 19.8537L59.2789 18.9338L58.1127 18.0232L58.0829 18L35.1309 20.1116H35.0943L34.9178 20.1302L34.8468 20.1952L33.6095 21.3404L32.3699 22.4833L30.42 24.2859L30.1817 34.1934L30.1657 34.8415L30.1519 35.4896L29.6203 57.5902L29.5951 58.6286V58.6356L29.5791 59.3348L30.6675 59.1977H30.6698L39.3905 58.0897L44.995 57.3789L47.3 57.0862L51.4427 56.5588L60.3833 55.4252L69.7479 54.2359L70.2497 54.1708L70.8179 54.0988L70.6484 53.4205ZM31.5542 24.8086L34.8262 21.7864L35.4036 21.2521L57.7392 19.1986L58.6351 19.8979L61.6436 22.2417L64.0448 31.81L64.0655 31.896L64.3267 32.932L68.49 49.5342L69.3882 53.1116L69.3538 53.1162L69.2598 53.1278L38.561 57.0258L30.876 57.9991L30.8714 58.0014L30.8324 58.0061L30.7568 58.0153L30.7637 57.6901L30.8531 54.0245L31.3045 35.1644V35.1365L31.3549 33.1202L31.5542 24.8086Z" fill="black"/>
<path d="M31.3159 52.87L31.836 51.8804C34.5787 46.6607 39.3584 42.7396 44.9469 41.1204C46.8624 40.5653 48.8581 40.2819 50.879 40.2819C51.2571 40.2819 51.6535 40.2935 52.0568 40.3144C57.7392 40.6233 62.9863 43.1507 66.8288 47.4319L67.5712 48.2589L31.3159 52.8653V52.87ZM50.8768 41.4457C48.9635 41.4457 47.0732 41.7128 45.2608 42.2378C40.3299 43.6641 36.0635 46.9883 33.4033 51.4344L65.1997 47.3948C61.6459 43.8406 56.9968 41.75 51.9926 41.4782C51.61 41.4573 51.2342 41.4457 50.8768 41.4457Z" fill="black"/>
<path d="M44.5322 42.4515L44.5276 39.3341L52.0614 37.9171L52.7167 41.52L51.9904 41.4805C51.6077 41.4596 51.2342 41.448 50.8768 41.448C48.9635 41.448 47.0732 41.7152 45.2608 42.2401L44.5322 42.4515ZM45.6755 40.3005V40.9277C47.3665 40.5026 49.1125 40.2865 50.8791 40.2865C51.028 40.2865 51.1792 40.2865 51.3305 40.2912L51.1449 39.2737L45.6755 40.2982V40.3005Z" fill="black"/>
<path d="M44.9538 40.4329L44.7568 39.8498C44.4498 38.9578 44.2344 38.0309 44.1198 37.1017L44.0625 36.6372C43.98 35.996 44.1748 35.3456 44.5941 34.8531C44.8393 34.5697 45.1211 34.3351 45.435 34.1469L46.3447 33.6057C46.6861 33.4036 47.0756 33.2828 47.472 33.2596L48.0975 33.2224C48.7941 33.1806 49.4906 33.3316 50.1161 33.6614L50.3361 33.7776C50.5996 33.917 50.8242 34.1237 50.9868 34.3723L51.2893 34.8438C51.4566 35.0993 51.5849 35.3851 51.6696 35.6871L51.8094 36.1842C51.9561 36.6999 52.0317 37.2365 52.0317 37.7824V39.1088L44.9538 40.4352V40.4329ZM48.3312 34.3746C48.2762 34.3746 48.2212 34.3746 48.1662 34.3792L47.5384 34.4164C47.323 34.4303 47.11 34.4954 46.9244 34.6046L46.0147 35.1458C45.8062 35.2712 45.6183 35.4269 45.4556 35.615C45.2517 35.8543 45.1578 36.1726 45.1967 36.4862L45.254 36.9531C45.3457 37.6778 45.5015 38.4003 45.7191 39.1065L50.8837 38.1378V37.7777C50.8837 37.3433 50.8242 36.9136 50.7073 36.5001L50.5675 36.0007C50.5148 35.8125 50.4346 35.636 50.3315 35.4757L50.0268 35.0041C49.9718 34.9205 49.8962 34.8508 49.8045 34.802L49.5846 34.6859C49.195 34.4791 48.7643 34.3723 48.3312 34.3723V34.3746Z" fill="black"/>
<path d="M46.4614 62.5079C44.6123 64.8332 42.4195 65.5673 40.3917 65.5673C38.1119 65.5673 36.0359 64.6404 34.888 64.0086C34.8811 64.0039 34.8743 63.9993 34.8674 63.9946C34.6062 63.8367 34.5122 63.4975 34.6589 63.2211C34.8078 62.94 35.1561 62.8355 35.4333 62.9888C35.4425 62.9934 35.4494 62.9981 35.4585 63.0027C37.8484 64.3106 42.3141 65.8739 45.57 61.7808C45.7671 61.53 46.1268 61.4905 46.3743 61.6926C46.6218 61.8923 46.6584 62.2594 46.4614 62.5079Z" fill="black"/>
<path d="M35.6625 63.7716C35.5594 63.9668 35.3623 64.076 35.1584 64.076C35.0668 64.076 34.9728 64.055 34.888 64.0063C34.8812 64.0016 34.8743 63.9993 34.8674 63.9947C34.0288 63.537 33.5224 63.1514 33.4995 63.1352C33.2475 62.9447 33.1948 62.58 33.385 62.3221C33.5751 62.0666 33.9349 62.0155 34.1869 62.206C34.1915 62.2106 34.6635 62.566 35.4311 62.9842C35.4402 62.9888 35.4494 62.9958 35.4586 63.0027C35.7152 63.1607 35.8091 63.4975 35.6625 63.7716Z" fill="black"/>
<path d="M66.3888 61.4882C64.6291 63.9645 62.5921 65.2886 60.3306 65.4279C60.1954 65.4372 60.0648 65.4419 59.9342 65.4419C56.3254 65.4419 53.5506 62.4406 53.4292 62.3082C53.2138 62.0736 53.2275 61.7065 53.4613 61.4882C53.6927 61.2722 54.0547 61.2861 54.2701 61.5207C54.2976 61.5509 56.8409 64.2781 59.9433 64.2781C60.0487 64.2781 60.1587 64.2757 60.2664 64.2688C62.1659 64.1503 63.9142 62.9865 65.4608 60.8099C65.6441 60.5497 66.0038 60.4916 66.2605 60.6775C66.5171 60.8656 66.5744 61.228 66.3888 61.4882Z" fill="black"/>
<path d="M72.3348 56.3429C72.1607 56.2871 71.9843 56.2384 71.8032 56.2012C71.7414 56.1872 71.6818 56.1756 71.6199 56.1663C71.4893 56.1431 71.3564 56.1245 71.219 56.1129L70.3987 56.0363L70.4995 56.4172C70.5385 56.5589 70.5774 56.7006 70.6141 56.8423C70.6301 56.9027 70.6461 56.9631 70.6599 57.0235C70.6736 57.0769 70.6851 57.1327 70.6988 57.1884C71.0907 58.8029 71.29 60.4708 71.29 62.1433C71.29 63.5069 71.1594 64.8658 70.9005 66.1853L70.7401 67.003L71.5535 66.8705C71.6864 66.8496 71.817 66.8218 71.9453 66.7916C74.3512 66.2178 76.0559 64.0574 76.0559 61.5138C76.0559 59.1421 74.5207 57.0514 72.3348 56.3429ZM72.1813 65.5093C72.218 65.2654 72.2523 65.0215 72.2798 64.7752C72.2913 64.6939 72.3005 64.615 72.3073 64.536C72.3165 64.4547 72.3234 64.3734 72.3325 64.2944C72.344 64.1666 72.3555 64.0389 72.3646 63.9111C72.3692 63.8855 72.3692 63.8623 72.3715 63.8368C72.3829 63.6974 72.3921 63.558 72.399 63.4186V63.4117C72.4059 63.3025 72.4104 63.191 72.415 63.0818C72.4196 62.9866 72.4242 62.8913 72.4242 62.7961C72.4288 62.7124 72.4311 62.6265 72.4311 62.5429C72.4334 62.4081 72.4356 62.2757 72.4356 62.1433C72.4356 61.9784 72.4334 61.8111 72.4288 61.6462C72.4265 61.5649 72.4242 61.4813 72.4219 61.4C72.4196 61.2885 72.415 61.1793 72.4082 61.0701C72.4059 61.0237 72.4036 60.9749 72.4013 60.9284C72.3944 60.7821 72.3852 60.638 72.3738 60.4917C72.3692 60.429 72.3646 60.3663 72.36 60.3035C72.3463 60.1479 72.3325 59.9899 72.3165 59.8343C72.3119 59.7948 72.3073 59.7576 72.3028 59.7205C72.3005 59.6903 72.2959 59.6578 72.2936 59.6276C72.2775 59.4766 72.2569 59.3279 72.2386 59.1792C72.2111 58.9841 72.1836 58.789 72.1515 58.5938C72.1194 58.3987 72.0851 58.2036 72.0484 58.0108C72.0118 57.818 71.9728 57.6252 71.9316 57.4324C73.6798 57.9736 74.9103 59.6322 74.9103 61.5138C74.9103 63.3954 73.8036 64.9007 72.1813 65.5093Z" fill="black"/>
<path d="M74.9103 61.5138C74.9103 63.3327 73.8036 64.9007 72.1814 65.5093C72.2181 65.2654 72.2524 65.0215 72.2799 64.7753C72.2914 64.694 72.3005 64.615 72.3074 64.536C72.3166 64.4547 72.3235 64.3734 72.3326 64.2944C72.3441 64.1666 72.3555 64.0389 72.3647 63.9111C72.3693 63.8856 72.3693 63.8623 72.3716 63.8368C72.383 63.6974 72.3922 63.558 72.3991 63.4186V63.4117C72.4059 63.3025 72.4105 63.191 72.4151 63.0818C72.4197 62.9866 72.4243 62.8913 72.4243 62.7961C72.4289 62.7125 72.4311 62.6265 72.4311 62.5429C72.4334 62.4082 72.4357 62.2757 72.4357 62.1433C72.4357 61.9784 72.4334 61.8112 72.4289 61.6462C72.4266 61.5649 72.4243 61.4813 72.422 61.4C72.4197 61.2885 72.4151 61.1793 72.4082 61.0701C72.4059 61.0237 72.4036 60.9749 72.4014 60.9284C72.3945 60.7821 72.3853 60.6381 72.3739 60.4917C72.3693 60.429 72.3647 60.3663 72.3601 60.3036C72.3464 60.1479 72.3326 59.99 72.3166 59.8343C72.312 59.7948 72.3074 59.7577 72.3028 59.7205C72.3005 59.6903 72.296 59.6578 72.2937 59.6276C72.2776 59.4766 72.257 59.3279 72.2387 59.1792C72.2112 58.9841 72.1837 58.789 72.1516 58.5939C72.1195 58.3987 72.0852 58.2036 72.0485 58.0108C72.0118 57.818 71.9729 57.6252 71.9316 57.4324C73.6799 57.9736 74.9103 59.6322 74.9103 61.5138Z" fill="white"/>
<path d="M32.221 70.5593C31.0524 67.9042 30.4613 65.0725 30.4613 62.1432V62.0619C30.4613 61.9388 30.4636 61.8134 30.4659 61.6903C30.4705 61.5672 30.475 61.4417 30.4796 61.3163C30.4842 61.1676 30.4911 61.0189 30.5002 60.8703C30.5025 60.8308 30.5048 60.7936 30.5071 60.7541L30.5163 60.5427L29.7693 60.7309C29.6295 60.7657 29.4898 60.8075 29.3546 60.8563C29.1003 60.94 28.8551 61.0445 28.6214 61.1676C28.4954 61.2326 28.3716 61.3047 28.2525 61.379C26.6761 62.3639 25.7114 64.0945 25.7114 65.9947C25.7114 68.9867 28.1127 71.4188 31.0616 71.4188C31.1578 71.4188 31.2518 71.4165 31.3457 71.4119C31.4924 71.4049 31.6367 71.391 31.7788 71.3701L32.528 71.2609L32.221 70.5593ZM26.8571 65.9947C26.8571 64.3896 27.7346 62.9354 29.1461 62.2013C29.1782 62.1827 29.2125 62.1665 29.2469 62.1502C29.2698 62.1386 29.2927 62.127 29.3156 62.1154V62.1432C29.3156 62.3198 29.3179 62.494 29.3225 62.6682C29.3225 62.7472 29.3248 62.8262 29.3294 62.9029C29.3317 63.0353 29.3386 63.1677 29.3454 63.2978C29.3523 63.4673 29.3638 63.6346 29.3775 63.7995C29.3821 63.8669 29.3867 63.9342 29.3935 64.0016C29.4004 64.1154 29.4119 64.2293 29.4233 64.3408C29.4302 64.4337 29.4417 64.5243 29.4531 64.6149C29.4623 64.7171 29.4737 64.8216 29.4875 64.9238C29.4921 64.9656 29.4989 65.0098 29.5058 65.0539C29.5242 65.2072 29.5448 65.3605 29.57 65.5139C29.5906 65.6532 29.6135 65.7903 29.6387 65.9297C29.6525 66.0272 29.6708 66.1248 29.6891 66.2224C29.7533 66.5662 29.8243 66.91 29.9068 67.2514C29.9503 67.4326 29.9939 67.6138 30.042 67.795C30.1772 68.3084 30.3307 68.8148 30.5048 69.3166C30.5323 69.3979 30.5598 69.4815 30.5919 69.5628C30.6377 69.6998 30.6881 69.8346 30.7408 69.9693C30.7752 70.0645 30.8119 70.1598 30.8485 70.2527C28.6283 70.1412 26.8571 68.2735 26.8571 65.9947Z" fill="black"/>
<path d="M30.8486 70.2527C28.6284 70.1412 26.8572 68.2735 26.8572 65.9947C26.8572 64.3895 27.7347 62.9354 29.1462 62.2013C29.2012 62.1711 29.2585 62.1432 29.3157 62.12V62.1432C29.3157 62.3198 29.318 62.494 29.3226 62.6682C29.3226 62.7472 29.3249 62.8262 29.3295 62.9028C29.3318 63.0352 29.3387 63.1677 29.3455 63.2977C29.3524 63.465 29.3639 63.6322 29.3776 63.7995C29.3822 63.8669 29.3868 63.9342 29.3936 64.0016C29.4005 64.1154 29.412 64.2292 29.4234 64.3407C29.4303 64.4337 29.4418 64.5243 29.4532 64.6149C29.4624 64.7194 29.4738 64.8216 29.4876 64.9238C29.4922 64.9656 29.499 65.0098 29.5059 65.0539C29.5243 65.2072 29.5449 65.3605 29.5701 65.5138C29.5907 65.6532 29.6136 65.7903 29.6388 65.9297C29.6526 66.0272 29.6709 66.1248 29.6892 66.2223C29.7534 66.5661 29.8244 66.9099 29.9069 67.2514C29.9504 67.4326 29.994 67.6138 30.0421 67.795C30.1773 68.3084 30.3308 68.8148 30.5049 69.3165C30.5324 69.3978 30.5599 69.4815 30.592 69.5628C30.6378 69.6998 30.6882 69.8346 30.7409 69.9693C30.7753 70.0645 30.812 70.1598 30.8486 70.2527Z" fill="white"/>
<path d="M30.9356 57.7064L30.8761 57.9991L30.8073 58.3405C30.7913 58.4265 30.7753 58.5124 30.7615 58.6007C30.7523 58.6541 30.7432 58.7099 30.734 58.7633C30.7111 58.9073 30.6882 59.0514 30.6699 59.1954C30.6653 59.2186 30.663 59.2372 30.6607 59.2581C30.6584 59.2767 30.6538 59.2953 30.6538 59.3162C30.6332 59.4532 30.6172 59.588 30.6011 59.725C30.5828 59.8876 30.5645 60.0456 30.5507 60.2059C30.5461 60.257 30.5415 60.3104 30.537 60.3638C30.5255 60.4939 30.5163 60.624 30.5072 60.7541C30.5049 60.7936 30.5026 60.8307 30.5003 60.8702C30.4911 61.0189 30.4843 61.1676 30.4797 61.3162C30.4751 61.4417 30.4705 61.5671 30.4659 61.6902V61.753L30.0466 61.8575C29.7923 61.9202 29.5471 62.0085 29.3157 62.12C29.2928 62.1293 29.2699 62.1386 29.247 62.1502C29.2126 62.1664 29.1782 62.1827 29.1461 62.2013L28.6237 62.4731L28.3671 61.9388C28.2823 61.7599 28.2434 61.5694 28.2525 61.379C28.2525 61.3557 28.2548 61.3348 28.2571 61.3116L28.4931 58.6588C28.5206 58.3452 28.665 58.0641 28.901 57.862C29.1049 57.6924 29.3569 57.5949 29.6204 57.5902C29.6617 57.5902 29.7006 57.5902 29.7419 57.5949L29.7854 57.5995L30.1933 57.6367L30.7638 57.6901L30.9334 57.7064H30.9356Z" fill="#F8A629"/>
<path d="M72.1676 57.0769L71.9546 57.423L71.9293 57.4184L71.5627 57.3371C71.4184 57.3045 71.2717 57.2836 71.1136 57.2674L70.715 57.2325L70.66 57.0235C70.6462 56.9631 70.6302 56.9027 70.6141 56.8423C70.5775 56.7006 70.5385 56.5589 70.4996 56.4172C70.4263 56.1616 70.3484 55.9061 70.2659 55.6552C70.2315 55.5507 70.1971 55.4462 70.1628 55.344C70.1582 55.3323 70.1559 55.323 70.1513 55.3114C70.094 55.1465 70.0367 54.9792 69.9749 54.8166C69.9657 54.7888 69.9542 54.7609 69.9428 54.733C69.8901 54.589 69.8328 54.4496 69.7755 54.3079C69.7687 54.2847 69.7572 54.2591 69.748 54.2359C69.693 54.1035 69.638 53.9711 69.5808 53.841L69.5074 53.6807L69.3975 53.4322L69.6312 53.244C69.693 53.158 69.7755 53.093 69.8649 53.0512H69.8672C69.8672 53.0512 69.8718 53.0465 69.8741 53.0465L69.9474 52.9885L70.2636 52.7329L70.3346 52.719L70.3988 52.7051C70.4194 52.7004 70.4423 52.6958 70.4629 52.6935C70.6966 52.6609 70.9395 52.6981 71.1526 52.8096C71.4596 52.9652 71.6819 53.2556 71.7575 53.6017L72.3143 56.2197C72.3235 56.2615 72.328 56.3033 72.3326 56.3428C72.3601 56.6007 72.3005 56.8562 72.1654 57.0769H72.1676Z" fill="#F8A629"/>
<path d="M70.6485 53.4206C70.6485 53.4206 70.6485 53.4183 70.6462 53.4159C70.6416 53.402 70.6347 53.3857 70.6279 53.3718C70.5981 53.2951 70.5637 53.2208 70.5316 53.1441C70.5179 53.1139 70.5041 53.0861 70.4904 53.0559L70.4812 53.0326C70.472 53.0141 70.4629 52.9932 70.4537 52.9746C70.4148 52.8886 70.3758 52.805 70.3369 52.719C70.0688 52.1569 69.7801 51.6063 69.4685 51.0697C69.1637 50.5448 68.8361 50.0337 68.4901 49.5343C68.1899 49.1022 67.8714 48.6794 67.5369 48.2706C67.3078 47.9872 67.0718 47.7084 66.8266 47.4366L66.6272 47.2136H66.6227L65.1998 47.3948L31.9805 51.618H31.9759L31.8361 51.8828C31.6666 52.2057 31.5039 52.5332 31.3527 52.8654C31.1739 53.2464 31.0067 53.6343 30.8532 54.0245C30.6217 54.6099 30.4155 55.2046 30.2368 55.8086C30.0604 56.3986 29.9091 56.9956 29.7854 57.5996C29.7488 57.7692 29.7167 57.9387 29.6846 58.1106L29.6777 58.1525C29.6663 58.2059 29.6571 58.2593 29.6479 58.3127V58.3267L29.6044 58.5822C29.6044 58.5845 29.6044 58.5868 29.6021 58.5892C29.5998 58.6031 29.5975 58.6147 29.5952 58.6287V58.6356C29.5792 58.7402 29.5632 58.847 29.5471 58.9539L29.4875 59.3465H29.4944L29.5792 59.3348L30.6676 59.1978H30.6699L39.3906 58.0897L44.9951 57.3789L47.3001 57.0862L51.4428 56.5589L60.3834 55.4253L69.4982 54.2685L69.748 54.2359L70.2498 54.1709L70.818 54.0966L70.9143 54.0849L70.6485 53.4206ZM32.7091 52.6935L66.1782 48.4425C67.4132 49.8572 68.4465 51.4298 69.2599 53.1279L38.5611 57.0258L30.8761 58.0015H30.8715C30.8921 57.9039 30.9127 57.804 30.9334 57.7064C31.3091 55.9619 31.9049 54.2801 32.7091 52.6935Z" fill="black"/>
<path d="M51.4428 56.5588L47.3001 57.0861L60.3834 55.4252L51.4428 56.5588ZM30.6698 59.1954L39.3905 58.0897L30.6698 59.1954ZM51.4428 56.5588L47.3001 57.0861L60.3834 55.4252L51.4428 56.5588ZM72.4288 61.6461C72.4265 61.5648 72.4242 61.4812 72.4219 61.3999C72.4196 61.2884 72.415 61.1792 72.4082 61.07C72.4059 61.0236 72.4036 60.9748 72.4013 60.9283C72.3944 60.782 72.3853 60.6379 72.3738 60.4916C72.3692 60.4289 72.3646 60.3662 72.3601 60.3034C72.3463 60.1478 72.3326 59.9898 72.3165 59.8342C72.3119 59.7947 72.3074 59.7575 72.3028 59.7204C72.3005 59.6902 72.2959 59.6576 72.2936 59.6275C72.2776 59.4765 72.2569 59.3278 72.2386 59.1791C72.2111 58.984 72.1836 58.7889 72.1515 58.5937C72.1195 58.3986 72.0851 58.2035 72.0484 58.0107C72.0118 57.8179 71.9728 57.6251 71.9316 57.4323C71.9316 57.4276 71.9316 57.423 71.9293 57.4183C71.8926 57.2511 71.856 57.0838 71.8147 56.9189C71.7849 56.7911 71.7529 56.6657 71.7208 56.5426C71.6887 56.4171 71.6543 56.2917 71.62 56.1662C71.3565 55.2231 71.0288 54.3009 70.6484 53.4205C70.6484 53.4205 70.6477 53.4189 70.6462 53.4159C70.6416 53.4019 70.6347 53.3857 70.6278 53.3717L70.5797 53.2579L70.4903 53.0558L70.4812 53.0326L70.456 52.9745H70.4537L69.9611 53.0372L69.8671 53.0511H69.8648L69.3882 53.1115L69.3539 53.1162L69.2599 53.1278L38.5611 57.0257L30.876 58.0014H30.8715L30.8325 58.006L30.7569 58.0153L30.1818 58.0873L29.6777 58.1524H29.6731L29.6479 58.3127V58.3266L29.6044 58.5821C29.6044 58.5844 29.6044 58.5868 29.6021 58.5891C29.5998 58.603 29.5975 58.6146 29.5952 58.6286V58.6355C29.5792 58.7401 29.5631 58.8469 29.5471 58.9538C29.5265 59.0839 29.5104 59.2163 29.4944 59.3464C29.4279 59.8505 29.3821 60.3569 29.3546 60.8563C29.3478 60.9934 29.3409 61.1304 29.3363 61.2675C29.3225 61.5276 29.318 61.7878 29.3157 62.0573V62.1432C29.3157 62.3198 29.318 62.494 29.3225 62.6682C29.3225 62.7472 29.3248 62.8262 29.3294 62.9028C29.3317 63.0352 29.3386 63.1676 29.3455 63.2977C29.3523 63.4673 29.3638 63.6346 29.3775 63.7995C29.3821 63.8669 29.3867 63.9342 29.3936 64.0016C29.4005 64.1154 29.4119 64.2292 29.4234 64.3407C29.4302 64.4337 29.4417 64.5243 29.4532 64.6149C29.4623 64.7171 29.4738 64.8216 29.4875 64.9238C29.4921 64.9656 29.499 65.0098 29.5059 65.0539C29.5242 65.2072 29.5448 65.3605 29.57 65.5138C29.5906 65.6532 29.6135 65.7903 29.6387 65.9296C29.6525 66.0272 29.6708 66.1248 29.6892 66.2223C29.7533 66.5661 29.8243 66.9099 29.9068 67.2514C29.9504 67.4326 29.9939 67.6138 30.042 67.795C30.1772 68.3084 30.3307 68.8148 30.5049 69.3165C30.5324 69.3978 30.5599 69.4815 30.5919 69.5628C30.6378 69.6998 30.6882 69.8345 30.7409 69.9693C30.876 70.327 31.0204 70.6801 31.1739 71.0309C31.2312 71.1586 31.2862 71.2864 31.3458 71.4118C34.8881 79.0753 42.509 84 50.8768 84C61.0135 84 69.8144 76.7872 71.9453 66.7915C71.9728 66.666 71.998 66.5383 72.0232 66.4105C72.0828 66.1132 72.1355 65.8112 72.1813 65.5092C72.218 65.2653 72.2524 65.0214 72.2799 64.7751C72.2913 64.6938 72.3005 64.6149 72.3074 64.5359C72.3165 64.4546 72.3234 64.3733 72.3326 64.2943C72.344 64.1665 72.3555 64.0388 72.3646 63.911C72.3692 63.8854 72.3692 63.8622 72.3715 63.8367C72.383 63.6973 72.3921 63.5579 72.399 63.4185V63.4116C72.4059 63.3024 72.4105 63.1909 72.415 63.0817C72.4196 62.9865 72.4242 62.8912 72.4242 62.796C72.4288 62.7123 72.4311 62.6264 72.4311 62.5428C72.4334 62.408 72.4357 62.2756 72.4357 62.1432C72.4357 61.9783 72.4334 61.811 72.4288 61.6461ZM50.8768 82.8385C42.8229 82.8385 35.4999 78.0183 32.221 70.5593C31.0525 67.9042 30.4613 65.0725 30.4613 62.1432V62.0619C30.4613 61.9388 30.4636 61.8134 30.4659 61.6902C30.4705 61.5671 30.4751 61.4417 30.4797 61.3162C30.4842 61.1676 30.4911 61.0189 30.5003 60.8702C30.5026 60.8307 30.5049 60.7936 30.5072 60.7541C30.5163 60.624 30.5255 60.4939 30.5369 60.3638C30.5415 60.3104 30.5461 60.257 30.5507 60.2059C30.5644 60.0456 30.5828 59.8876 30.6011 59.7273C30.6171 59.588 30.6332 59.4532 30.6538 59.3162C30.6538 59.2953 30.6584 59.2767 30.6607 59.2581C30.663 59.2372 30.6653 59.2163 30.6675 59.1977H30.6698L39.3905 58.0897L44.995 57.3788L47.3001 57.0861L60.3834 55.4252L69.4982 54.2684L69.748 54.2359C69.7571 54.2591 69.7686 54.2846 69.7755 54.3079C69.835 54.4472 69.89 54.5889 69.9427 54.733C69.9542 54.7608 69.9656 54.7887 69.9748 54.8166C70.0367 54.9792 70.094 55.1441 70.1512 55.3114C70.1558 55.323 70.1581 55.3323 70.1627 55.3439C70.1971 55.4461 70.2314 55.5507 70.2658 55.6552C70.3483 55.9061 70.4262 56.1616 70.4995 56.4171C70.5385 56.5588 70.5774 56.7005 70.6141 56.8422C70.6301 56.9026 70.6462 56.963 70.6599 57.0234C70.6737 57.0768 70.6851 57.1326 70.6989 57.1883C71.0907 58.8028 71.29 60.4707 71.29 62.1432C71.29 63.5068 71.1594 64.8657 70.9005 66.1852C69.017 75.8348 60.5965 82.8385 50.8768 82.8385ZM30.6698 59.1954L39.3905 58.0897L30.6698 59.1954ZM51.4428 56.5588L47.3001 57.0861L60.3834 55.4252L51.4428 56.5588Z" fill="black"/>
<path d="M70.699 57.1883C70.6852 57.1326 70.6738 57.0768 70.66 57.0234C70.6463 56.963 70.6302 56.9026 70.6142 56.8422C70.5775 56.7005 70.5386 56.5588 70.4996 56.4171C70.4263 56.1616 70.3484 55.906 70.2659 55.6552C70.2315 55.5506 70.1972 55.4461 70.1628 55.3439C70.1582 55.3323 70.1559 55.323 70.1513 55.3114C70.0941 55.1441 70.0368 54.9792 69.9749 54.8166C69.9657 54.7887 69.9543 54.7608 69.9428 54.733C69.8901 54.5889 69.8351 54.4472 69.7756 54.3079C69.7687 54.2846 69.7572 54.2591 69.7481 54.2358L69.4983 54.2684L60.3835 55.4252L47.3002 57.0861L44.9951 57.3788L39.3906 58.0896L30.6699 59.1977C30.6654 59.2186 30.6631 59.2372 30.6608 59.2581C30.6585 59.2767 30.6539 59.2953 30.6539 59.3162C30.6333 59.4532 30.6172 59.5879 30.6012 59.725C30.5829 59.8876 30.5645 60.0456 30.5508 60.2059C30.5462 60.257 30.5416 60.3104 30.537 60.3638C30.5256 60.4939 30.5164 60.624 30.5073 60.7541C30.505 60.7936 30.5027 60.8307 30.5004 60.8702C30.4912 61.0189 30.4843 61.1676 30.4798 61.3162C30.4752 61.4417 30.4706 61.5671 30.466 61.6902C30.466 61.8133 30.4614 61.9388 30.4614 62.0619V62.1432C30.4614 65.0725 31.0526 67.9041 32.2211 70.5593C35.5 78.0183 42.823 82.8385 50.8769 82.8385C60.5966 82.8385 69.0171 75.8347 70.9006 66.1852C71.1595 64.8657 71.2901 63.5068 71.2901 62.1432C71.2901 60.4707 71.0908 58.8028 70.699 57.1883Z" fill="white"/>
<path d="M40.2889 66.4384C38.009 66.4384 35.9354 65.5115 34.7852 64.8797L35.3305 63.8599C37.7134 65.1724 42.1998 66.759 45.4649 62.652L46.3562 63.3814C44.5071 65.7067 42.3144 66.4407 40.2866 66.4407L40.2889 66.4384Z" fill="black"/>
<path d="M59.8314 66.3107C56.2226 66.3107 53.4479 63.3118 53.3264 63.1793L54.1673 62.3919C54.1948 62.4221 56.9054 65.3397 60.1637 65.1399C62.0631 65.0214 63.8091 63.8576 65.3557 61.681L66.286 62.3593C64.5263 64.8333 62.487 66.1597 60.2255 66.2991C60.0926 66.3084 59.9597 66.3107 59.8291 66.3107H59.8314Z" fill="black"/>
<path d="M53.0468 71.4119C53.0468 71.4119 52.6939 70.427 51.9263 70.1784C51.4222 70.0135 50.8013 70.1877 50.0818 70.6964L49.4265 69.744C50.4599 69.0146 51.4222 68.7916 52.2861 69.0773C53.5967 69.5117 54.1053 70.9705 54.1283 71.0333L53.0445 71.4119L53.5852 71.2237L53.0445 71.4142L53.0468 71.4119Z" fill="black"/>
<path d="M64.4231 69.9206C64.1298 69.9206 63.8503 69.7836 63.596 69.5141C63.101 68.9891 63.0369 67.8903 63.4058 66.248C63.4654 65.9855 63.6716 65.7857 63.9328 65.7393C64.194 65.6928 64.4552 65.8043 64.6018 66.0296C65.2892 67.0889 65.4542 68.0715 65.4932 68.564C65.5229 68.9403 65.4038 69.305 65.1655 69.5698C64.9066 69.8579 64.6248 69.9206 64.4346 69.9229H64.4231V69.9206Z" fill="black"/>
</g>
<defs>
<clipPath id="clip0_872_1656">
<rect width="60" height="66" fill="white" transform="translate(17 18)"/>
</clipPath>
</defs>
</svg>
